<?xml version="1.0" standalone="no"?><!DOCTYPE svg PUBLIC "-//W3C//DTD SVG 1.1//EN" "http://www.w3.org/Graphics/SVG/1.1/DTD/svg11.dtd" ><svg xmlns="http://www.w3.org/2000/svg"><metadata>Generated by Glyphter</metadata><defs><font id="Glyphter" horiz-adv-x="0"><font-face units-per-em="1024" ascent="1024" descent="0" font-family="Glyphter" font-weight="normal" /><missing-glyph horiz-adv-x="0" /><glyph unicode="&#x0042;" d="M341.333,0C341.333,0,341.333,341.333,341.333,341.333C341.333,341.333,0,341.333,0,341.333C0,341.333,0,682.667,0,682.667C0,682.667,341.333,682.667,341.333,682.667C341.333,682.667,341.333,1024,341.333,1024C341.333,1024,682.667,1024,682.667,1024C682.667,1024,682.667,682.667,682.667,682.667C682.667,682.667,1024,682.667,1024,682.667C1024,682.667,1024,341.333,1024,341.333C1024,341.333,682.667,341.333,682.667,341.333C682.667,341.333,682.667,0,682.667,0C682.667,0,341.333,0,341.333,0" class="cph-plus"/><glyph unicode="&#x0043;" d="M551.905,512.242C551.905,512.242,236.796,236.557,236.796,236.557C236.796,236.557,236.796,394.076,236.796,394.076C236.796,394.076,0.5,394.076,0.5,394.076C0.5,394.076,0.5,630.408,0.5,630.408C0.5,630.408,236.796,630.408,236.796,630.408C236.796,630.408,236.796,787.927,236.796,787.927C236.796,787.927,551.905,512.242,551.905,512.242M394.351,945.481C394.351,945.481,709.424,945.481,709.424,945.481C883.73,946.203,1025.219,804.715,1024.497,630.408C1024.497,630.408,1024.497,394.112,1024.497,394.112C1025.255,219.805,883.73,78.281,709.424,79.003C709.424,79.003,394.351,79.003,394.351,79.003C394.351,79.003,394.351,236.557,394.351,236.557C394.351,236.557,788.201,236.557,788.201,236.557C831.236,237.604,865.895,272.264,866.978,315.299C866.978,315.299,866.978,709.185,866.978,709.185C867.051,730.053,858.494,749.982,843.331,764.315C828.998,779.478,809.069,788.035,788.201,787.963C788.201,787.963,394.351,787.963,394.351,787.963C394.351,787.963,394.351,945.481,394.351,945.481" class="cph-login"/><glyph unicode="&#x0044;" d="M1024.496,426.665C1024.496,426.665,597.831,0,597.831,0C597.831,0,0.5,597.331,0.5,597.331C0.5,597.331,0.5,1001.263,0.5,1001.263C0.637,1006.52,2.616,1011.571,6.166,1015.463C10.126,1020.924,16.474,1024.132,23.233,1023.996C23.233,1023.996,427.165,1023.996,427.165,1023.996C427.165,1023.996,1024.496,426.665,1024.496,426.665M273.566,753.797C307.699,786.292,307.699,840.769,273.566,873.264C257.25,890.262,234.517,899.546,210.965,898.864C188.369,898.932,166.729,889.648,151.232,873.264C117.099,840.769,117.099,786.292,151.232,753.797C166.729,737.414,188.369,728.129,210.965,728.198C234.517,727.515,257.25,736.799,273.566,753.797C273.566,753.797,273.566,753.797,273.566,753.797" class="cph-tag"/><glyph unicode="&#x0045;" d="M761.592,385.551C761.592,385.551,1018.312,128.831,1018.312,128.831C1021.156,123.143,1024,120.299,1024,114.553C1023.886,109.263,1021.895,104.2,1018.312,100.275C1018.312,100.275,924.168,6.188,924.168,6.188C918.479,3.344,915.635,0.5,909.89,0.5C904.599,0.614,899.537,2.605,895.612,6.188C895.612,6.188,638.892,262.908,638.892,262.908C573.133,218.993,495.543,196.126,416.474,197.32C305.776,195.614,199.345,240.041,122.722,319.963C42.458,395.165,-2.139,500.913,0.079,610.871C-1.628,721.568,42.799,827.999,122.722,904.622C199.004,983.009,304.297,1026.355,413.629,1024.421C524.327,1026.128,630.757,981.701,707.381,901.778C786.678,824.7,830.991,718.61,830.081,608.026C828.886,528.843,805.108,451.708,761.592,385.551C761.592,385.551,761.592,385.551,761.592,385.551M213.965,810.535C160.38,758.031,130.515,685.901,131.255,610.871C131.255,454.893,257.652,328.496,413.629,328.496C569.607,328.496,696.004,454.893,696.004,610.871C696.004,766.848,569.607,893.245,413.629,893.245C338.599,893.985,266.469,864.12,213.965,810.535C213.965,810.535,213.965,810.535,213.965,810.535" class="cph-magnify"/><glyph unicode="&#x0046;" d="M1024,341.5C1024,341.5,0,341.5,0,341.5C0,341.5,0,682.833,0,682.833C0,682.833,1024,682.833,1024,682.833C1024,682.833,1024,341.5,1024,341.5" class="cph-h-bar"/><glyph unicode="&#x0047;" d="M630.659,92.144C605.059,84.35,578.606,79.97,551.868,79.003C551.868,79.003,315.553,79.003,315.553,79.003C141.246,78.263,-0.237,219.802,0.503,394.11C0.503,394.11,0.503,630.425,0.503,630.425C-0.237,804.732,141.246,946.215,315.553,945.475C315.553,945.475,389.11,942.858,389.11,942.858C439.001,942.858,488.893,940.241,541.401,937.624C571.211,937.397,601.02,935.633,630.659,932.391C630.659,932.391,630.659,787.95,630.659,787.95C630.659,787.95,236.819,787.95,236.819,787.95C215.997,788.007,196.029,779.474,181.693,764.341C166.561,750.005,158.028,730.037,158.085,709.216C158.085,709.216,158.085,315.376,158.085,315.376C158.028,294.554,166.561,274.586,181.693,260.25C196.029,245.118,215.997,236.585,236.819,236.642C236.819,236.642,630.659,236.642,630.659,236.642C630.659,236.642,630.659,92.144,630.659,92.144M1024.5,512.267C1024.5,512.267,709.45,787.95,709.45,787.95C709.45,787.95,709.45,630.425,709.45,630.425C709.45,630.425,473.134,630.425,473.134,630.425C473.134,630.425,473.134,394.11,473.134,394.11C473.134,394.11,709.45,394.11,709.45,394.11C709.45,394.11,709.45,236.585,709.45,236.585C709.45,236.585,1024.5,512.267,1024.5,512.267" class="cph-logout"/><glyph unicode="&#x0048;" d="M255.065,955.796C333.021,1001.737,422.035,1025.492,512.5,1024.468C602.879,1024.741,691.688,1001.054,769.917,955.796C846.576,910.538,910.538,846.576,955.796,769.918C1001.736,691.962,1025.492,602.948,1024.468,512.5C1025.15,422.052,1001.395,333.175,955.796,255.082C910.538,178.424,846.576,114.462,769.917,69.204C691.961,23.263,602.947,-0.492,512.5,0.532C422.103,0.259,333.294,23.946,255.065,69.204C178.406,114.462,114.444,178.424,69.186,255.082C23.587,333.175,-0.168,422.052,0.514,512.5C0.241,602.879,23.928,691.689,69.186,769.918C114.444,846.576,178.406,910.538,255.065,955.796C255.065,955.796,255.065,955.796,255.065,955.796M764.183,764.184C697.969,831.559,606.975,868.898,512.5,867.465C418.076,868.352,327.355,831.149,260.799,764.184C193.424,697.969,156.084,606.975,157.518,512.5C156.494,418.161,193.629,327.441,260.458,260.816C326.74,193.305,417.871,155.965,512.5,157.535C606.838,156.511,697.559,193.646,764.183,260.475C831.695,326.758,869.034,417.888,867.464,512.5C868.898,606.975,831.558,697.969,764.183,764.184C764.183,764.184,764.183,764.184,764.183,764.184M512.5,512.5C512.5,512.5,684.111,512.5,684.111,512.5C684.111,512.5,684.111,426.694,684.111,426.694C684.111,426.694,426.677,426.694,426.677,426.694C426.677,426.694,426.677,769.918,426.677,769.918C426.677,769.918,512.5,769.918,512.5,769.918C512.5,769.918,512.5,512.5,512.5,512.5" class="cph-clock"/><glyph unicode="&#x0049;" d="M0,768C0,768,1024,768,1024,768C1024,768,512,256,512,256C512,256,0,768,0,768" class="cph-arrow-down"/><glyph unicode="&#x004a;" d="M938.833,1024C938.833,1024,938.833,938.667,938.833,938.667C938.833,938.667,85.5,938.667,85.5,938.667C85.5,938.667,85.5,1024,85.5,1024C85.5,1024,938.833,1024,938.833,1024M128.167,853.333C128.167,853.333,896.167,853.333,896.167,853.333C896.167,853.333,597.5,426.667,597.5,426.667C597.5,426.667,597.5,170.667,597.5,170.667C597.5,170.667,426.833,0,426.833,0C426.833,0,426.833,426.667,426.833,426.667C426.833,426.667,128.167,853.333,128.167,853.333" class="cph-funnel"/><glyph unicode="&#x004b;" d="M960.5,427.65C960.5,427.65,960.5,381.101,960.5,381.101C961.311,187.949,804.554,31.192,611.403,32.003C611.403,32.003,349.601,32.003,349.601,32.003C156.449,31.192,-0.308,187.949,0.503,381.101C0.503,381.101,0.503,642.903,0.503,642.903C-0.308,836.054,156.449,992.811,349.601,992C349.601,992,576.501,992,576.501,992C576.501,992,579.403,922.198,579.403,922.198C506.23,907.691,439.2,871.126,387.403,817.451C387.403,817.451,262.305,817.451,262.305,817.451C239.18,817.622,216.993,808.235,201.036,791.467C184.225,775.596,174.753,753.494,174.839,730.369C174.839,730.369,174.839,293.805,174.839,293.805C174.711,270.637,184.183,248.45,201.036,232.536C216.908,215.725,239.009,206.253,262.134,206.339C262.134,206.339,698.698,206.339,698.698,206.339C746.357,207.576,784.714,245.933,785.951,293.592C785.951,293.592,960.5,427.65,960.5,427.65M710.304,407.298C710.304,407.298,1024.5,689.452,1024.5,689.452C1024.5,689.452,710.304,968.747,710.304,968.747C710.304,968.747,710.304,779.649,710.304,779.649C710.304,779.649,692.853,779.649,692.853,779.649C687.05,779.649,672.501,776.748,652.106,773.846C631.072,770.732,610.507,764.886,591.008,756.396C567.627,748.204,545.184,737.452,524.107,724.396C499.36,710.273,476.747,692.609,457.035,672.001C408.95,622.721,377.419,559.66,366.838,491.65C385.398,515.415,409.291,534.402,436.64,547.116C465.184,561.623,495.52,572.375,526.838,579.116C555.936,584.919,585.035,587.649,614.091,590.764C636.32,593.025,658.634,593.964,680.992,593.665C680.992,593.665,707.189,593.665,707.189,593.665C707.189,593.665,707.189,407.469,707.189,407.469C707.189,407.469,710.304,407.298,710.304,407.298" class="cph-cascade"/><glyph unicode="&#x004c;" d="M406.642,139.354C377.287,146.864,349.241,158.867,323.527,174.967C323.527,174.967,317.838,177.925,317.838,177.925C317.838,177.925,199.111,106.928,199.111,106.928C164.864,133.779,133.973,164.67,107.122,198.917C107.122,198.917,178.062,317.701,178.062,317.701C178.062,317.701,175.104,323.39,175.104,323.39C159.801,349.274,148.708,377.377,142.222,406.732C142.222,406.732,139.264,412.421,139.264,412.421C139.264,412.421,5.689,445.303,5.689,445.303C2.446,466.921,0.569,488.766,0,510.611C0,525.459,2.958,546.224,5.689,575.92C5.689,575.92,139.264,608.574,139.264,608.574C139.264,608.574,142.222,614.263,142.222,614.263C151.04,642.764,161.963,670.526,174.876,697.377C174.876,697.377,177.835,703.066,177.835,703.066C177.835,703.066,106.837,822.021,106.837,822.021C133.746,856.382,164.75,887.386,199.111,914.295C199.111,914.295,317.611,843.07,317.611,843.07C317.611,843.07,323.3,846.028,323.3,846.028C349.639,860.933,377.515,872.823,406.414,881.641C406.414,881.641,412.103,881.641,412.103,881.641C412.103,881.641,445.212,1015.443,445.212,1015.443C472.178,1018.174,495.673,1021.132,510.521,1021.132C532.366,1020.563,554.212,1018.686,575.829,1015.443C575.829,1015.443,608.711,878.91,608.711,878.91C608.711,878.91,614.4,878.91,614.4,878.91C643.3,870.092,671.175,858.202,697.515,843.297C697.515,843.297,703.204,843.297,703.204,843.297C703.204,843.297,821.931,914.522,821.931,914.522C856.348,887.557,887.296,856.496,914.204,822.021C914.204,822.021,842.923,703.521,842.923,703.521C842.923,703.521,845.881,700.563,845.881,700.563C860.16,673.825,872.164,645.95,881.778,617.221C881.778,617.221,881.778,611.532,881.778,611.532C881.778,611.532,1018.311,578.878,1018.311,578.878C1021.269,552.14,1024,531.376,1024,513.569C1023.431,491.724,1021.554,469.879,1018.311,448.261C1018.311,448.261,881.778,415.607,881.778,415.607C881.778,415.607,881.778,409.918,881.778,409.918C872.96,381.018,861.07,353.143,846.165,326.803C846.165,326.803,843.207,321.114,843.207,321.114C843.207,321.114,914.204,201.932,914.204,201.932C887.353,167.685,856.462,136.794,822.215,109.943C822.215,109.943,703.488,181.168,703.488,181.168C703.488,181.168,697.799,178.209,697.799,178.209C671.232,163.873,643.413,151.927,614.684,142.597C614.684,142.597,608.996,139.639,608.996,139.639C608.996,139.639,576.341,6.064,576.341,6.064C554.667,3.845,532.821,2.878,511.033,3.105C489.244,2.65,467.399,3.674,445.724,6.064C445.724,6.064,412.558,139.354,412.558,139.354C412.558,139.354,406.642,139.354,406.642,139.354M320.569,510.611C319.431,459.241,339.854,409.69,376.946,374.078C412.558,336.986,462.108,316.563,513.479,317.701C564.85,316.563,614.4,336.986,650.012,374.078C687.104,409.69,707.527,459.241,706.389,510.611C708.096,561.242,687.445,610.053,650.012,644.186C614.4,681.278,564.85,701.701,513.479,700.563C462.108,701.701,412.558,681.278,376.946,644.186C339.513,610.053,318.862,561.242,320.569,510.611C320.569,510.611,320.569,510.611,320.569,510.611" class="cph-gear"/><glyph unicode="&#x004d;" d="M279.264,977.88C279.264,977.88,279.264,791.723,279.264,791.723C279.89,779.154,275.453,766.812,266.865,757.598C257.651,749.009,245.309,744.573,232.739,745.199C232.739,745.199,46.583,745.199,46.583,745.199C34.013,744.573,21.671,749.009,12.457,757.598C3.869,766.812,-0.567,779.154,0.058,791.723C0.058,791.723,0.058,977.88,0.058,977.88C-0.567,990.449,3.869,1002.791,12.457,1012.005C21.671,1020.594,34.013,1025.03,46.583,1024.404C46.583,1024.404,232.739,1024.404,232.739,1024.404C245.309,1025.03,257.651,1020.594,266.865,1012.005C275.453,1002.791,279.89,990.449,279.264,977.88C279.264,977.88,279.264,977.88,279.264,977.88M279.264,605.624C279.264,605.624,279.264,419.468,279.264,419.468C279.89,406.898,275.453,394.556,266.865,385.342C257.651,376.754,245.309,372.317,232.739,372.943C232.739,372.943,46.583,372.943,46.583,372.943C34.013,372.317,21.671,376.754,12.457,385.342C3.869,394.556,-0.567,406.898,0.058,419.468C0.058,419.468,0.058,605.567,0.058,605.567C-0.567,618.137,3.869,630.479,12.457,639.693C21.671,648.281,34.013,652.718,46.583,652.092C46.583,652.092,232.739,652.092,232.739,652.092C245.309,652.718,257.651,648.281,266.865,639.693C275.453,630.479,279.89,618.137,279.264,605.567C279.264,605.567,279.264,605.624,279.264,605.624M279.264,233.369C279.264,233.369,279.264,47.213,279.264,47.213C279.89,34.643,275.453,22.301,266.865,13.087C257.651,4.498,245.309,0.062,232.739,0.688C232.739,0.688,46.583,0.688,46.583,0.688C34.013,0.062,21.671,4.498,12.457,13.087C3.869,22.301,-0.567,34.643,0.058,47.213C0.058,47.213,0.058,233.312,0.058,233.312C-0.567,245.881,3.869,258.224,12.457,267.438C21.671,276.026,34.013,280.462,46.583,279.837C46.583,279.837,232.739,279.837,232.739,279.837C245.309,280.462,257.651,276.026,266.865,267.438C275.453,258.224,279.89,245.881,279.264,233.312C279.264,233.312,279.264,233.369,279.264,233.369M651.576,977.88C651.576,977.88,651.576,791.723,651.576,791.723C652.202,779.154,647.766,766.812,639.177,757.598C629.963,749.009,617.621,744.573,605.052,745.199C605.052,745.199,418.895,745.199,418.895,745.199C406.326,744.573,393.984,749.009,384.77,757.598C376.181,766.812,371.745,779.154,372.371,791.723C372.371,791.723,372.371,977.88,372.371,977.88C371.745,990.449,376.181,1002.791,384.77,1012.005C393.984,1020.594,406.326,1025.03,418.895,1024.404C418.895,1024.404,605.052,1024.404,605.052,1024.404C617.621,1025.03,629.963,1020.594,639.177,1012.005C647.766,1002.791,652.202,990.449,651.576,977.88C651.576,977.88,651.576,977.88,651.576,977.88M651.576,605.624C651.576,605.624,651.576,419.468,651.576,419.468C652.202,406.898,647.766,394.556,639.177,385.342C630.248,376.299,617.735,371.749,605.052,372.943C605.052,372.943,418.895,372.943,418.895,372.943C406.326,372.317,393.984,376.754,384.77,385.342C375.726,394.272,371.176,406.785,372.371,419.468C372.371,419.468,372.371,605.567,372.371,605.567C371.745,618.137,376.181,630.479,384.77,639.693C393.699,648.736,406.212,653.286,418.895,652.092C418.895,652.092,605.052,652.092,605.052,652.092C631.67,654.424,653.908,632.185,651.576,605.567C651.576,605.567,651.576,605.624,651.576,605.624M651.576,233.369C651.576,233.369,651.576,47.213,651.576,47.213C652.202,34.643,647.766,22.301,639.177,13.087C630.248,4.043,617.735,-0.507,605.052,0.688C605.052,0.688,418.895,0.688,418.895,0.688C406.326,0.062,393.984,4.498,384.77,13.087C375.726,22.016,371.176,34.529,372.371,47.213C372.371,47.213,372.371,233.312,372.371,233.312C371.745,245.881,376.181,258.224,384.77,267.438C393.699,276.481,406.212,281.031,418.895,279.837C418.895,279.837,605.052,279.837,605.052,279.837C631.67,282.169,653.908,259.93,651.576,233.312C651.576,233.312,651.576,233.369,651.576,233.369M1023.832,977.88C1023.832,977.88,1023.832,791.723,1023.832,791.723C1024.457,779.154,1020.021,766.812,1011.433,757.598C1002.219,749.009,989.877,744.573,977.307,745.199C977.307,745.199,791.151,745.199,791.151,745.199C778.581,744.573,766.239,749.009,757.025,757.598C748.437,766.812,744,779.154,744.626,791.723C744.626,791.723,744.626,977.88,744.626,977.88C744,990.449,748.437,1002.791,757.025,1012.005C766.239,1020.594,778.581,1025.03,791.151,1024.404C791.151,1024.404,977.307,1024.404,977.307,1024.404C989.877,1025.03,1002.219,1020.594,1011.433,1012.005C1020.021,1002.791,1024.457,990.449,1023.832,977.88C1023.832,977.88,1023.832,977.88,1023.832,977.88M1023.832,605.624C1023.832,605.624,1023.832,419.468,1023.832,419.468C1024.457,406.898,1020.021,394.556,1011.433,385.342C1002.503,376.299,989.99,371.749,977.307,372.943C977.307,372.943,791.151,372.943,791.151,372.943C778.581,372.317,766.239,376.754,757.025,385.342C747.982,394.272,743.432,406.785,744.626,419.468C744.626,419.468,744.626,605.567,744.626,605.567C744,618.137,748.437,630.479,757.025,639.693C765.955,648.736,778.467,653.286,791.151,652.092C791.151,652.092,977.307,652.092,977.307,652.092C1003.925,654.424,1026.164,632.185,1023.832,605.567C1023.832,605.567,1023.832,605.624,1023.832,605.624M1023.832,233.369C1023.832,233.369,1023.832,47.213,1023.832,47.213C1024.457,34.643,1020.021,22.301,1011.433,13.087C1002.503,4.043,989.99,-0.507,977.307,0.688C977.307,0.688,791.151,0.688,791.151,0.688C778.581,0.062,766.239,4.498,757.025,13.087C747.982,22.016,743.432,34.529,744.626,47.213C744.626,47.213,744.626,233.312,744.626,233.312C744,245.881,748.437,258.224,757.025,267.438C765.955,276.481,778.467,281.031,791.151,279.837C791.151,279.837,977.307,279.837,977.307,279.837C1003.925,282.169,1026.164,259.93,1023.832,233.312C1023.832,233.312,1023.832,233.369,1023.832,233.369" class="cph-grid-large"/><glyph unicode="&#x004e;" d="M803.328,2C803.328,2,510.259,295.478,510.259,295.478C510.259,295.478,217.19,2,217.19,2C217.19,2,0,219.19,0,219.19C0,219.19,293.069,512.259,293.069,512.259C293.069,512.259,0,801.846,0,801.846C0,801.846,220.672,1022.518,220.672,1022.518C220.672,1022.518,513.741,729.45,513.741,729.45C513.741,729.45,803.328,1022.518,803.328,1022.518C803.328,1022.518,1024,801.846,1024,801.846C1024,801.846,730.931,508.778,730.931,508.778C730.931,508.778,1024,215.709,1024,215.709C1024,215.709,803.328,2,803.328,2" class="cph-x"/><glyph unicode="&#x004f;" d="M439.246,950.775C439.246,950.775,439.246,658.324,439.246,658.324C440.27,638.535,433.219,619.202,419.742,604.701C405.242,591.224,385.908,584.173,366.119,585.197C366.119,585.197,73.725,585.197,73.725,585.197C53.936,584.173,34.602,591.224,20.102,604.701C6.625,619.202,-0.426,638.535,0.598,658.324C0.598,658.324,0.598,950.775,0.598,950.775C-0.426,970.564,6.625,989.898,20.102,1004.398C34.602,1017.875,53.936,1024.926,73.725,1023.902C73.725,1023.902,366.176,1023.902,366.176,1023.902C385.965,1024.926,405.298,1017.875,419.799,1004.398C433.276,989.898,440.27,970.564,439.246,950.775C439.246,950.775,439.246,950.775,439.246,950.775M439.246,365.873C439.246,365.873,439.246,73.421,439.246,73.421C440.27,53.633,433.219,34.299,419.742,19.799C405.242,6.379,385.908,-0.672,366.176,0.351C366.176,0.351,73.725,0.351,73.725,0.351C53.936,-0.672,34.602,6.379,20.102,19.856C6.625,34.356,-0.426,53.69,0.598,73.478C0.598,73.478,0.598,365.93,0.598,365.93C-0.426,385.718,6.625,405.052,20.102,419.552C34.602,433.029,53.936,440.08,73.725,439.057C73.725,439.057,366.176,439.057,366.176,439.057C385.965,440.08,405.298,433.029,419.799,419.552C433.276,405.052,440.27,385.718,439.246,365.93C439.246,365.93,439.246,365.873,439.246,365.873M1024.149,950.775C1024.149,950.775,1024.149,658.324,1024.149,658.324C1025.172,638.535,1018.121,619.202,1004.644,604.701C990.144,591.224,970.81,584.173,951.022,585.197C951.022,585.197,658.57,585.197,658.57,585.197C638.782,584.173,619.448,591.224,604.948,604.701C591.471,619.202,584.42,638.535,585.443,658.324C585.443,658.324,585.443,950.775,585.443,950.775C584.42,970.564,591.471,989.898,604.948,1004.398C619.448,1017.875,638.782,1024.926,658.57,1023.902C658.57,1023.902,951.022,1023.902,951.022,1023.902C970.81,1024.926,990.144,1017.875,1004.644,1004.398C1018.121,989.898,1025.172,970.564,1024.149,950.775C1024.149,950.775,1024.149,950.775,1024.149,950.775M1024.149,365.873C1024.149,365.873,1024.149,73.421,1024.149,73.421C1025.172,53.633,1018.121,34.299,1004.644,19.799C990.599,5.583,970.924,-1.582,951.022,0.294C951.022,0.294,658.57,0.294,658.57,0.294C638.782,-0.729,619.448,6.322,604.948,19.799C590.732,33.844,583.567,53.519,585.443,73.421C585.443,73.421,585.443,365.93,585.443,365.93C584.42,385.718,591.471,405.052,604.948,419.552C618.993,433.768,638.668,440.933,658.57,439.057C658.57,439.057,951.022,439.057,951.022,439.057C992.874,442.753,1027.845,407.781,1024.149,365.93C1024.149,365.93,1024.149,365.873,1024.149,365.873" class="cph-grid-small"/><glyph unicode="&#x0050;" d="M0.557,884.188C0.557,884.188,0.557,977.233,0.557,977.233C-0.069,989.859,4.481,1002.201,13.24,1011.357C22.453,1020.457,35.25,1025.007,48.16,1023.812C48.16,1023.812,976.73,1023.812,976.73,1023.812C989.527,1024.495,1002.096,1020.002,1011.593,1011.414C1020.807,1002.542,1025.471,990.03,1024.276,977.29C1024.276,977.29,1024.276,884.245,1024.276,884.245C1025.471,872.473,1020.693,860.814,1011.593,853.249C1002.778,843.24,990.038,837.609,976.73,837.723C976.73,837.723,48.16,837.723,48.16,837.723C34.681,836.756,21.6,842.557,13.24,853.193C4.595,861.098,-0.069,872.473,0.557,884.188C0.557,884.188,0.557,884.188,0.557,884.188M0.557,604.997C0.557,604.997,0.557,698.042,0.557,698.042C-0.069,710.668,4.481,723.01,13.24,732.166C22.453,741.266,35.25,745.759,48.103,744.565C48.103,744.565,976.73,744.565,976.73,744.565C989.527,745.247,1002.096,740.754,1011.593,732.166C1020.807,723.294,1025.471,710.782,1024.276,698.042C1024.276,698.042,1024.276,604.997,1024.276,604.997C1025.471,593.225,1020.693,581.566,1011.593,574.002C1002.778,563.992,990.038,558.361,976.73,558.475C976.73,558.475,48.16,558.475,48.16,558.475C34.681,557.565,21.657,563.366,13.297,574.002C4.652,581.907,-0.012,593.282,0.557,604.997C0.557,604.997,0.557,604.997,0.557,604.997M0.557,325.806C0.557,325.806,0.557,418.851,0.557,418.851C-0.069,431.477,4.481,443.819,13.24,452.975C22.453,462.075,35.25,466.568,48.103,465.374C48.103,465.374,976.73,465.374,976.73,465.374C989.527,466.056,1002.096,461.563,1011.593,452.975C1020.807,444.103,1025.471,431.591,1024.276,418.851C1024.276,418.851,1024.276,325.806,1024.276,325.806C1025.471,314.034,1020.693,302.375,1011.593,294.811C1002.778,284.801,990.038,279.17,976.73,279.284C976.73,279.284,48.16,279.284,48.16,279.284C34.681,278.374,21.657,284.175,13.297,294.811C4.652,302.716,-0.012,314.091,0.557,325.806C0.557,325.806,0.557,325.806,0.557,325.806M0.557,46.615C0.557,46.615,0.557,139.66,0.557,139.66C-0.069,152.286,4.481,164.628,13.24,173.784C22.453,182.884,35.25,187.377,48.103,186.183C48.103,186.183,976.73,186.183,976.73,186.183C989.527,186.865,1002.096,182.372,1011.593,173.784C1020.807,164.912,1025.471,152.4,1024.276,139.66C1024.276,139.66,1024.276,46.615,1024.276,46.615C1025.471,34.843,1020.693,23.184,1011.593,15.62C1002.778,5.61,990.038,-0.021,976.73,0.093C976.73,0.093,48.16,0.093,48.16,0.093C34.681,-0.817,21.657,4.984,13.297,15.62C4.652,23.525,-0.012,34.9,0.557,46.615C0.557,46.615,0.557,46.615,0.557,46.615" class="cph-horizontal-grid"/><glyph unicode="&#x0051;" d="M701.421,710.348C701.421,710.348,723.604,688.166,723.604,688.166C736.97,675.482,758.015,675.482,771.382,688.166C771.382,688.166,942.019,858.802,942.019,858.802C954.702,872.169,954.702,893.214,942.019,906.58C942.019,906.58,919.836,928.763,919.836,928.763C906.469,941.447,885.424,941.447,872.058,928.763C872.058,928.763,701.421,758.127,701.421,758.127C688.737,744.76,688.737,723.715,701.421,710.348C701.421,710.348,701.421,710.348,701.421,710.348M254.922,688.166C268.288,675.482,289.334,675.482,302.7,688.166C302.7,688.166,324.883,710.348,324.883,710.348C337.567,723.715,337.567,744.76,324.883,758.127C324.883,758.127,154.246,928.763,154.246,928.763C140.88,941.447,119.835,941.447,106.468,928.763C106.468,928.763,84.285,906.58,84.285,906.58C71.601,893.214,71.601,872.169,84.285,858.802C84.285,858.802,254.922,688.166,254.922,688.166M770.244,341.773C756.878,354.457,735.833,354.457,722.466,341.773C722.466,341.773,701.421,319.59,701.421,319.59C688.737,306.224,688.737,285.179,701.421,271.812C701.421,271.812,872.058,101.176,872.058,101.176C885.424,88.492,906.469,88.492,919.836,101.176C919.836,101.176,942.019,123.358,942.019,123.358C954.702,136.725,954.702,157.77,942.019,171.137C942.019,171.137,770.244,341.773,770.244,341.773M323.745,320.159C323.745,320.159,301.563,341.773,301.563,341.773C288.196,354.457,267.151,354.457,253.784,341.773C253.784,341.773,83.148,171.137,83.148,171.137C70.464,157.77,70.464,136.725,83.148,123.358C83.148,123.358,105.33,101.176,105.33,101.176C118.697,88.492,139.742,88.492,153.109,101.176C153.109,101.176,323.745,271.812,323.745,271.812C336.827,285.293,336.827,306.679,323.745,320.159C323.745,320.159,323.745,320.159,323.745,320.159M807.216,379.313C807.216,379.313,946.569,239.96,946.569,239.96C997.987,321.467,1025.005,416,1024.493,512.41C1024.493,610.64,996.281,706.765,943.156,789.41C943.156,789.41,807.216,652.901,807.216,652.901C807.216,652.901,802.665,648.35,802.665,648.35C822.402,605.748,832.697,559.392,832.811,512.41C832.925,467.76,823.597,423.565,805.509,382.726C805.509,382.726,807.216,381.02,807.216,379.313C807.216,379.313,807.216,379.313,807.216,379.313M360.717,793.96C407.414,819.044,459.572,832.126,512.583,832.069C565.537,831.955,617.695,818.873,664.45,793.96C664.45,793.96,664.45,793.96,664.45,793.96C664.45,793.96,803.803,933.313,803.803,933.313C628.559,1054.522,396.607,1054.522,221.363,933.313C221.363,933.313,360.717,793.96,360.717,793.96M512.583,192.182C457.752,192.011,403.717,205.719,355.597,231.997C355.597,231.997,216.813,93.213,216.813,93.213C303.781,33.205,406.902,0.841,512.583,0.5C618.037,0.443,720.93,33.49,806.647,94.919C806.647,94.919,667.862,233.703,667.862,233.703C620.824,206.003,567.13,191.67,512.583,192.182C512.583,192.182,512.583,192.182,512.583,192.182M218.519,379.313C218.519,379.313,218.519,379.313,221.932,379.313C202.423,420.949,192.526,466.452,192.924,512.41C193.038,559.392,203.333,605.748,223.07,648.35C223.07,648.35,218.519,652.901,218.519,652.901C218.519,652.901,82.01,788.841,82.01,788.841C-25.434,622.015,-26.742,408.094,78.597,239.96C78.597,239.96,218.519,379.313,218.519,379.313" class="cph-booey"/><glyph unicode="&#x0052;" d="M92.314,281.532C92.314,281.532,278.758,95.087,278.758,95.087C278.758,95.087,0.5,0.5,0.5,0.5C0.5,0.5,92.314,281.532,92.314,281.532M167.447,348.302C167.447,348.302,679.422,860.277,679.422,860.277C679.422,860.277,857.504,682.195,857.504,682.195C857.504,682.195,345.529,170.22,345.529,170.22C345.529,170.22,167.447,348.302,167.447,348.302M751.951,932.807C751.951,932.807,829.686,1013.315,829.686,1013.315C845.259,1028.034,869.578,1028.034,885.15,1013.315C885.15,1013.315,1013.144,885.321,1013.144,885.321C1020.824,878.153,1024.962,867.999,1024.45,857.504C1025.005,847.051,1020.909,836.897,1013.315,829.686C1013.315,829.686,929.863,751.781,929.863,751.781C929.863,751.781,751.951,932.807,751.951,932.807" class="cph-edit"/><glyph unicode="&#x0053;" d="M939.145,423.824C939.145,423.824,939.145,341.351,939.145,341.351C940.041,250.047,902.965,162.455,836.748,99.566C774.2,34.885,687.76,-1.125,597.821,0.027C597.821,0.027,341.827,0.027,341.827,0.027C152.99,-0.741,-0.265,152.513,0.503,341.351C0.503,341.351,0.503,597.345,0.503,597.345C-0.265,786.182,152.99,939.437,341.827,938.669C341.827,938.669,427.158,938.669,427.158,938.669C427.158,938.669,489.749,873.263,489.749,873.263C489.749,873.263,390.167,768.007,390.167,768.007C390.167,768.007,256.496,768.007,256.496,768.007C233.926,768.092,212.295,758.834,196.764,742.407C180.338,726.877,171.08,705.246,171.165,682.676C171.165,682.676,171.165,256.02,171.165,256.02C171.08,233.45,180.338,211.819,196.764,196.288C212.295,179.862,233.926,170.604,256.496,170.689C256.496,170.689,683.152,170.689,683.152,170.689C729.785,171.841,767.331,209.387,768.483,256.02C768.483,256.02,768.483,381.158,768.483,381.158C768.483,381.158,873.739,486.414,873.739,486.414C873.739,486.414,939.145,423.824,939.145,423.824M1024.476,1024C1024.476,1024,597.821,1024,597.821,1024C597.821,1024,725.817,896.003,725.817,896.003C725.817,896.003,424.3,605.878,424.3,605.878C424.3,605.878,606.354,423.824,606.354,423.824C606.354,423.824,899.338,725.341,899.338,725.341C899.338,725.341,1024.476,597.345,1024.476,597.345C1024.476,597.345,1024.476,1024,1024.476,1024" class="cph-move"/><glyph unicode="&#x0054;" d="M1024,682.667C1024,682.667,1024,85.333,1024,85.333C1024,85.333,853.333,85.333,853.333,85.333C853.333,85.333,853.333,256,853.333,256C853.333,256,170.667,256,170.667,256C170.667,256,170.667,85.333,170.667,85.333C170.667,85.333,0,85.333,0,85.333C0,85.333,0,682.667,0,682.667C0,682.667,170.667,682.667,170.667,682.667C170.667,682.667,256,512,256,512C256,512,768,512,768,512C768,512,853.333,682.667,853.333,682.667C853.333,682.667,1024,682.667,1024,682.667M807.808,708.267C807.808,708.267,728.192,1001.259,728.192,1001.259C728.277,1007.232,724.992,1012.736,719.659,1015.467C715.989,1019.776,710.997,1022.763,705.451,1024C705.451,1024,318.592,1024,318.592,1024C313.344,1023.915,308.267,1021.867,304.384,1018.325C299.051,1015.595,295.765,1010.091,295.851,1004.117C295.851,1004.117,216.192,708.267,216.192,708.267C216.192,708.267,250.325,603.008,250.325,603.008C250.325,603.008,756.608,603.008,756.608,603.008C756.608,603.008,807.808,708.267,807.808,708.267M750.933,150.741C750.933,150.741,782.208,19.883,782.208,19.883C782.933,14.976,781.952,9.941,779.349,5.675C779.349,2.816,773.675,0,767.957,0C767.957,0,256,0,256,0C250.752,0.085,245.675,2.133,241.792,5.675C239.189,9.941,238.208,14.976,238.933,19.883C238.933,19.883,270.208,150.741,270.208,150.741C271.275,156.331,274.304,161.365,278.741,164.949C283.947,168.107,289.749,170.027,295.808,170.624C295.808,170.624,722.475,170.624,722.475,170.624C728.533,170.027,734.336,168.107,739.541,164.949C748.075,159.275,750.933,156.459,750.933,150.741C750.933,150.741,750.933,150.741,750.933,150.741" class="cph-printer"/><glyph unicode="&#x0055;" d="M18.107,0.009C5.007,-0.401,-3.658,13.518,2.551,25.117C3.097,26.14,3.711,27.096,4.461,27.983C4.461,27.983,254.178,341.152,254.178,341.152C254.178,341.152,410.421,503.536,410.421,503.536C410.421,503.536,252.813,665.919,252.813,665.919C243.33,674.994,247.287,690.959,259.909,694.575C261.615,695.053,263.321,695.326,265.094,695.258C265.094,695.258,504.577,695.258,504.577,695.258C504.577,695.258,709.262,907.449,709.262,907.449C709.262,907.449,692.205,925.188,692.205,925.188C681.016,935.832,674.807,950.705,675.148,966.125C675.012,981.681,681.493,996.487,692.887,1007.062C715.539,1029.646,752.11,1029.646,774.762,1007.062C774.762,1007.062,1007.421,775.085,1007.421,775.085C1018.474,764.1,1024.615,749.09,1024.478,733.466C1024.615,717.91,1018.133,703.104,1006.739,692.529C984.087,669.945,947.516,669.945,924.865,692.529C924.865,692.529,907.807,709.586,907.807,709.586C907.807,709.586,695.617,504.9,695.617,504.9C695.617,504.9,695.617,265.418,695.617,265.418C695.958,252.318,681.971,243.721,670.44,249.998C668.871,250.817,667.506,251.909,666.278,253.137C666.278,253.137,501.848,415.521,501.848,415.521C501.848,415.521,342.193,256.548,342.193,256.548C342.193,256.548,29.024,6.149,29.024,6.149C26.295,2.806,22.406,0.623,18.107,0.009C18.107,0.009,18.107,0.009,18.107,0.009M306.032,660.461C306.032,660.461,449.994,515.134,449.994,515.134C456.476,508.516,456.476,497.873,449.994,491.254C449.994,491.254,279.422,320.001,279.422,320.001C279.422,320.001,125.908,126.914,125.908,126.914C125.908,126.914,320.36,281.793,320.36,281.793C320.36,281.793,489.566,451.682,489.566,451.682C496.185,458.164,506.828,458.164,513.446,451.682C513.446,451.682,659.456,307.037,659.456,307.037C659.456,307.037,659.456,511.723,659.456,511.723C659.524,516.363,661.502,520.797,664.914,524.004C664.914,524.004,894.162,743.7,894.162,743.7C900.78,750.182,911.424,750.182,918.042,743.7C918.042,743.7,947.38,715.044,947.38,715.044C956.113,704.673,972.079,704.673,980.812,715.044C985.724,719.342,988.522,725.551,988.317,732.101C988.727,739.061,985.929,745.815,980.812,750.523C980.812,750.523,748.153,982.5,748.153,982.5C748.153,982.5,748.153,982.5,748.153,982.5C739.488,992.325,724.068,992.325,715.403,982.5C710.49,978.202,707.693,971.993,707.898,965.443C707.557,959.234,710.081,953.23,714.721,949.068C714.721,949.068,744.059,919.047,744.059,919.047C750.541,912.429,750.541,901.786,744.059,895.167C744.059,895.167,524.363,665.919,524.363,665.919C521.156,662.508,516.721,660.529,512.082,660.461C512.082,660.461,306.032,660.461,306.032,660.461" class="cph-pin-empty"/><glyph unicode="&#x0056;" d="M791.502,0C791.502,0,232.939,0,232.939,0C232.939,0,169.5,755.302,169.5,755.302C169.5,755.302,855.007,755.302,855.007,755.302C855.007,755.302,791.502,0,791.502,0M290.086,63.504C290.086,63.504,734.355,63.504,734.355,63.504C734.355,63.504,785.145,691.864,785.145,691.864C785.145,691.864,239.296,691.864,239.296,691.864C239.296,691.864,290.086,63.504,290.086,63.504M830.431,941.49C830.431,941.49,602.038,941.49,602.038,941.49C596.205,986.841,558.718,1021.575,513.04,1024C469.786,1018.888,435.642,984.744,430.53,941.49C430.53,941.49,195.714,941.49,195.714,941.49C195.714,941.49,195.714,865.337,195.714,865.337C195.714,865.337,836.788,865.337,836.788,865.337C836.788,865.337,830.431,941.49,830.431,941.49M513.04,992.281C538.402,992.281,557.473,966.918,563.83,941.49C563.83,941.49,468.606,941.49,468.606,941.49C467.558,967.574,487.087,989.856,513.04,992.281C513.04,992.281,513.04,992.281,513.04,992.281" class="cph-trash-empty"/><glyph unicode="&#x0057;" d="M265.319,0C265.319,0,763.421,0,763.421,0C763.421,0,818.816,686.303,818.816,686.303C818.816,686.303,209.988,686.303,209.988,686.303C209.988,686.303,265.319,0,265.319,0M827.973,941.005C827.973,941.005,601.067,941.005,601.067,941.005C596.196,984.71,561.712,1019.194,518.007,1024C472.677,1022.896,436.115,986.334,435.011,941.005C435.011,941.005,202.52,941.005,202.52,941.005C202.52,941.005,197,869.049,197,869.049C197,869.049,827.973,869.049,827.973,869.049C827.973,869.049,827.973,941.005,827.973,941.005M518.007,990.815C543.853,987.178,564.18,966.851,567.817,941.005C567.817,941.005,468.196,941.005,468.196,941.005C468.066,968.54,490.471,990.945,518.007,990.815C518.007,990.815,518.007,990.815,518.007,990.815" class="cph-trash-fill"/><glyph unicode="&#x0058;" d="M771.367,1013.099C771.367,1013.099,1013.167,771.298,1013.167,771.298C1019.857,762.151,1023.748,751.296,1024.499,740.032C1024.568,728.837,1019.311,718.255,1010.3,711.565C1003.2,703.032,992.892,697.912,981.833,697.366C970.637,697.297,960.056,702.554,953.366,711.565C953.366,711.565,922.099,740.032,922.099,740.032C922.099,740.032,683.166,512.5,683.166,512.5C683.166,512.5,683.166,256.5,683.166,256.5C683.166,256.5,501.099,435.7,501.099,435.7C501.099,435.7,324.766,259.367,324.766,259.367C324.766,259.367,0.5,0.5,0.5,0.5C0.5,0.5,259.367,324.766,259.367,324.766C259.367,324.766,435.7,501.099,435.7,501.099C435.7,501.099,256.5,683.166,256.5,683.166C256.5,683.166,512.5,683.166,512.5,683.166C512.5,683.166,740.032,922.099,740.032,922.099C740.032,922.099,711.565,953.366,711.565,953.366C703.032,960.465,697.912,970.774,697.366,981.833C697.844,993.711,702.964,1004.907,711.565,1013.099C719.348,1020.199,729.451,1024.295,740.032,1024.499C751.365,1023.748,762.219,1019.789,771.367,1013.099C771.367,1013.099,771.367,1013.099,771.367,1013.099" class="cph-pin-fill"/><glyph unicode="&#x0059;" d="M0,432.344C0,432.344,176.178,608.522,176.178,608.522C176.178,608.522,346.844,437.856,346.844,437.856C346.844,437.856,847.822,938.833,847.822,938.833C847.822,938.833,1024,762.656,1024,762.656C1024,762.656,346.844,85.5,346.844,85.5C346.844,85.5,0,432.344,0,432.344" class="cph-check"/><glyph unicode="&#x005a;" d="M152.5,512C152.5,512,664.5,1024,664.5,1024C664.5,1024,871.576,816.924,871.576,816.924C871.576,816.924,566.708,512,566.708,512C566.708,512,871.632,207.076,871.632,207.076C871.632,207.076,664.5,0,664.5,0C664.5,0,152.5,512,152.5,512" class="cph-back"/><glyph unicode="&#x0061;" d="M512.156,1023.917C579.849,1025.396,646.517,1007.023,703.857,971.015C760.513,936.145,807.272,887.395,839.81,829.373C873.201,771.01,890.437,704.853,889.868,637.673C887.536,558.149,866.716,480.217,829.002,410.136C787.476,346.425,743.107,282.715,690.204,213.316C637.302,143.917,590.088,94.428,562.215,56.884C562.215,56.884,515.001,0,515.001,0C506.923,6.655,499.471,14.107,492.816,22.185C484.283,30.718,464.943,50.058,435.932,79.069C406.921,108.08,381.891,141.642,356.862,170.653C331.833,199.664,299.978,240.052,270.967,284.421C239.965,326.231,212.149,370.317,187.916,416.393C154.354,484.597,136.322,559.4,135.014,635.398C134.445,702.578,151.681,768.734,185.072,827.098C218.634,885.859,266.359,935.348,323.869,971.015C380.242,1006.34,445.602,1024.714,512.156,1023.917C512.156,1023.917,512.156,1023.917,512.156,1023.917M512.156,441.422C568.699,441.763,622.796,464.688,662.331,505.133C703.8,544.895,726.895,600.129,726.041,657.582C726.326,714.922,703.345,769.929,662.331,810.032C622.341,850.875,567.05,873.174,509.881,871.467C452.371,871.866,397.136,848.884,356.862,807.757C315.849,768.621,292.811,714.296,293.152,657.582C292.924,600.243,315.906,545.236,356.862,505.133C397.421,464.46,452.428,441.536,509.881,441.422C509.881,441.422,512.156,441.422,512.156,441.422" class="cph-map"/><glyph unicode="&#x0062;" d="M432.692,1013.116C270.919,968.016,176.217,800.375,221.18,638.534C258.024,506.851,535.719,261.224,636.699,174.572C654.234,159.903,681.048,167.749,687.871,189.583C730.174,315.808,842.753,667.191,805.909,803.65C761.15,963.581,595.693,1057.465,435.421,1013.798C435.421,1013.798,435.421,1013.798,435.421,1013.798M544.589,610.56C462.577,585.997,384.727,659.481,404.513,742.789C424.3,826.098,526.781,856.733,589.075,797.987C603.608,784.273,614.115,766.874,619.642,747.702C635.812,688.751,601.356,627.822,542.542,611.242M453.843,41.524C453.843,10.002,603.949,-9.716,724.033,6.045C779.777,13.413,814.096,26.923,814.096,41.524C814.096,73.046,663.991,92.765,543.907,77.004C488.163,69.635,453.843,56.125,453.843,41.524" class="cph-quick-view"/><glyph unicode="&#x0063;" d="M513.739,318.933C513.739,318.933,161.227,721.835,161.227,721.835C161.227,721.835,362.613,721.835,362.613,721.835C362.613,721.835,362.613,1024,362.613,1024C362.613,1024,664.693,1024,664.693,1024C664.693,1024,664.693,721.835,664.693,721.835C664.693,721.835,866.08,721.835,866.08,721.835C866.08,721.835,513.739,318.933,513.739,318.933M84,201.387C84,201.387,940.149,201.387,940.149,201.387C940.149,201.387,940.149,0,940.149,0C940.149,0,84,0,84,0C84,0,84,201.387,84,201.387" class="cph-export"/><glyph unicode="&#x0064;" d="M514.845,1024.497C582.599,1024.27,649.671,1010.73,712.248,984.675C772.777,958.62,828.016,921.814,875.291,875.961C922.167,829.37,959.144,773.903,984.175,712.748C1010.515,649.26,1024.054,581.222,1023.997,512.5C1024.282,422.104,1000.616,333.301,955.333,255.079C863.799,96.986,694.726,-0.123,512,0.503C421.604,0.219,332.801,23.884,254.579,69.168C96.486,160.701,-0.623,329.774,0.003,512.5C0.231,581.222,13.77,649.203,39.825,712.748C64.856,773.789,101.947,829.256,148.767,875.734C198.601,921.131,255.603,957.938,317.498,984.675C380.019,1010.73,447.09,1024.27,514.845,1024.497C514.845,1024.497,514.845,1024.497,514.845,1024.497M537.6,944.398C528.1,937.06,517.462,931.257,506.141,927.332C494.763,921.643,483.385,918.742,477.696,915.954C464.783,912.029,451.357,910.151,437.874,910.265C420.808,907.421,409.43,904.576,403.741,904.576C390.6,901.675,377.061,901.675,363.919,904.576C350.607,906.852,336.954,905.828,324.097,901.732C308.112,895.929,292.809,888.306,278.586,878.976C261.52,867.599,250.142,858.952,250.142,850.532C247.298,844.843,250.142,839.154,255.831,830.507C264.421,824.819,267.209,819.13,267.209,816.228C261.747,788.979,254.124,762.184,244.453,736.129C233.588,714.17,224.94,691.13,218.683,667.465C213.79,640.727,215.781,613.136,224.372,587.366C231.028,563.017,232.564,537.474,228.809,512.5C232.052,499.587,236.887,487.071,243.088,475.295C251.109,459.196,255.945,441.731,257.367,423.811C264.364,423.242,271.134,421.308,277.392,418.122C283.081,415.278,288.769,409.532,297.417,403.843C302.423,399.121,308.168,395.253,314.483,392.465C328.762,386.776,359.994,372.441,406.017,355.26C421.718,347.637,436.907,339.047,451.528,329.49C467.343,316.178,484.58,304.743,503.012,295.357C517.746,286.994,534.926,283.979,551.652,286.766C557.34,275.389,551.652,260.996,537.373,238.127C525.369,224.872,519.225,207.35,520.306,189.487C534.585,157.345,561.493,132.541,594.659,120.822C594.83,115.93,593.863,111.038,591.815,106.543C589.824,103.073,588.857,99.148,588.97,95.166C588.8,90.273,589.767,85.381,591.815,80.887C664.86,87.998,732.387,122.757,780.571,178.109C794.566,190.682,807.821,203.937,820.393,217.931C831.202,231.3,840.702,245.693,848.838,260.825C859.988,276.754,865.961,295.698,865.904,315.154C856.461,320.956,845.538,323.971,834.445,323.744C823.693,323.687,813.055,325.621,802.985,329.433C789.105,334.667,774.769,338.478,760.091,340.81C744.447,345.077,729.201,350.766,714.58,357.877C714.58,357.877,640.739,357.877,640.739,357.877C629.248,356.91,617.813,355.033,606.606,352.188C594.432,349.685,582.827,344.85,572.473,337.909C544.029,317.884,523.833,315.154,515.243,326.531C512.398,326.531,512.398,335.122,512.398,349.287C512.398,349.287,512.398,372.042,512.398,372.042C509.554,380.633,501.021,383.42,489.643,386.321C478.265,389.223,469.618,392.01,469.618,392.01C470.187,403.445,469.22,414.936,466.774,426.143C463.929,437.521,461.085,446.168,452.495,448.899C446.749,454.645,435.371,448.956,418.362,431.832C404.083,417.553,392.591,417.553,381.156,434.677C369.551,448.216,367.276,467.444,375.468,483.316C378.938,492.589,386.22,499.871,395.492,503.341C395.492,503.341,418.248,503.341,418.248,503.341C427.805,503.967,437.419,503,446.692,500.497C453.689,499.188,459.833,495.092,463.759,489.119C470.87,476.717,480.541,465.965,492.203,457.66C500.793,449.069,510.35,441.39,520.647,434.904C520.647,434.904,532.025,429.215,532.025,429.215C534.13,440.764,536.974,452.198,540.615,463.349C544.882,479.391,546.702,495.946,546.133,512.5C544.085,525.983,548.295,539.693,557.511,549.705C565.476,557.215,572.245,565.862,577.536,575.476C580.38,584.066,583.225,592.542,586.126,603.92C588.117,612.795,590.962,621.442,594.716,629.691C598.186,637.2,603.022,643.97,608.995,649.715C616.96,657.623,626.745,663.483,637.44,666.782C634.766,678.046,638.008,689.879,646.03,698.241C646.03,698.241,685.852,698.241,685.852,698.241C691.711,697.786,697.514,698.753,702.918,701.086C709.916,704.044,715.832,708.993,719.985,715.365C714.068,729.416,705.308,742.103,694.214,752.57C684.6,762.184,674.076,770.774,662.755,778.341C649.159,787.215,634.823,794.838,619.861,801.096C606.777,806.444,594.318,813.156,582.656,821.121C588.345,843.876,588.345,858.326,582.656,858.326C598.642,850.475,616.334,846.607,634.14,846.948C645.575,846.209,657.123,847.176,668.273,849.793C668.273,849.793,685.34,852.637,685.34,852.637C689.038,869.249,683.633,886.6,671.061,898.148C653.767,908.388,635.619,917.035,616.732,923.918C599.552,927.958,583.111,934.727,568.092,943.943C558.137,941.44,547.669,941.611,537.771,944.398C537.771,944.398,537.6,944.398,537.6,944.398M523.378,852.865C524.061,840.292,525.995,827.834,529.067,815.659C534.756,801.38,537.657,789.889,543.346,778.454C547.157,772.253,550.059,765.484,551.936,758.43C543.175,759.567,534.585,761.445,526.165,764.118C514.788,766.963,503.41,766.963,494.706,769.807C485.035,770.604,475.478,772.538,466.262,775.496C457.217,778.17,448.569,782.038,440.491,786.874C444.246,795.976,449.025,804.623,454.77,812.644C460.345,819.699,465.124,827.322,469.049,835.4C472.349,828.858,478.834,824.534,486.116,824.022C490.553,824.136,494.763,826.184,497.494,829.711C497.494,829.711,508.871,841.089,508.871,841.089C514.845,847.176,520.59,850.02,523.378,852.865C523.378,852.865,523.378,852.865,523.378,852.865" class="cph-world"/><glyph unicode="&#x0065;" d="M1010.335,622.914C1002.016,617.155,992.075,614.168,981.964,614.381C981.964,614.381,808.96,642.753,808.96,642.753C798.081,645.612,788.225,651.542,780.588,659.819C772.738,668.266,768.642,679.487,769.24,691.006C769.24,691.006,769.24,815.799,769.24,815.799C683.996,830.775,597.644,838.369,511.121,838.497C425.621,839.393,340.208,832.737,255.86,818.658C255.86,818.658,255.86,693.822,255.86,693.822C256.458,682.303,252.362,671.082,244.512,662.635C237.685,653.419,227.489,647.276,216.14,645.569C216.14,645.569,43.222,617.24,43.222,617.24C32.897,614.253,21.804,617.581,14.85,625.773C6.658,632.812,2.392,643.393,3.501,654.145C3.501,654.145,3.501,824.29,3.501,824.29C3.501,824.29,12.034,832.823,12.034,832.823C20.012,841.014,28.545,848.608,37.633,855.52C48.981,864.053,66.004,875.359,83.027,886.708C103.975,898.739,125.777,909.149,148.261,917.895C178.638,930.396,209.868,940.848,241.653,949.125C280.862,959.109,320.625,966.66,360.772,971.78C410.689,977.54,460.862,980.398,511.121,980.313C577.677,980.74,644.148,975.065,709.638,963.247C759.939,954.629,809.301,941.318,857.128,923.527C890.364,909.746,922.575,893.619,953.549,875.316C972.322,863.242,990.326,849.974,1007.434,835.596C1013.834,830.689,1019.594,824.93,1024.5,818.53C1024.5,818.53,1024.5,648.47,1024.5,648.47C1023.348,638.401,1018.228,629.229,1010.335,622.914C1010.335,622.914,1010.335,622.914,1010.335,622.914M681.309,639.98C681.309,639.98,681.309,648.513,681.309,648.513C681.309,654.187,678.493,659.862,669.96,668.352C663.518,677.994,654.729,685.844,644.361,691.049C628.703,700.819,611.339,707.56,593.164,710.888C566.2,716.989,538.554,719.848,510.907,719.421C483.261,719.848,455.614,716.989,428.651,710.888C410.476,707.56,393.111,700.819,377.454,691.049C366.915,684.777,358.127,675.989,351.855,665.451C347.631,659.094,343.834,652.481,340.506,645.612C340.506,645.612,340.506,594.415,340.506,594.415C340.506,594.415,28.929,339.282,28.929,339.282C20.055,329.384,13.314,317.737,9.09,305.151C3.842,292.565,0.941,279.083,0.557,265.43C0.557,265.43,0.557,83.894,0.557,83.894C-0.04,72.374,4.056,61.154,11.906,52.706C21.249,46.904,32.086,43.96,43.094,44.173C43.094,44.173,979.105,44.173,979.105,44.173C989.857,43.064,1000.437,47.33,1007.477,55.522C1016.564,63.33,1021.769,74.721,1021.641,86.71C1021.641,86.71,1021.641,268.374,1021.641,268.374C1021.258,282.027,1018.356,295.509,1013.109,308.095C1007.776,320.169,1001.12,331.603,993.27,342.226C993.27,342.226,681.266,600.345,681.266,600.345C681.266,600.345,681.309,639.98,681.309,639.98" class="cph-phone"/><glyph unicode="&#x0066;" d="M512.882,1023.74C119.033,1023.74,-127.115,597.396,69.809,256.313C266.733,-84.771,759.03,-84.771,955.954,256.313C1000.857,334.087,1024.5,422.317,1024.5,512.122C1024.375,794.627,795.387,1023.615,512.882,1023.74C512.882,1023.74,512.882,1023.74,512.882,1023.74M421.334,275.132C421.334,275.132,229.066,467.875,229.066,467.875C229.066,467.875,326.413,565.221,326.413,565.221C326.413,565.221,420.874,470.3,420.874,470.3C420.874,470.3,699.685,749.209,699.685,749.209C699.685,749.209,797.032,651.862,797.032,651.862C797.032,651.862,421.334,275.132,421.334,275.132" class="cph-circle-check"/><glyph unicode="&#x0067;" d="M920.481,779.869C920.481,779.869,554.498,998.657,554.498,998.657C554.498,998.657,511.833,1024,511.833,1024C511.833,1024,469.167,998.657,469.167,998.657C469.167,998.657,103.44,779.869,103.44,779.869C103.44,779.869,61.5,754.952,61.5,754.952C61.5,754.952,63.079,706.271,63.079,706.271C68.198,577.806,97.126,451.431,148.409,333.547C186.893,236.569,244.62,148.422,318.132,74.398C428.337,-24.799,595.67,-24.799,705.875,74.398C779.515,148.337,837.241,236.526,875.597,333.547C926.753,451.474,955.68,577.849,960.928,706.271C960.928,706.271,962.507,754.952,962.507,754.952C962.507,754.952,920.481,779.869,920.481,779.869M437.382,294.807C437.382,294.807,281.098,451.474,281.098,451.474C281.098,451.474,360.157,530.618,360.157,530.618C360.157,530.618,436.955,453.479,436.955,453.479C436.955,453.479,663.679,680.203,663.679,680.203C663.679,680.203,742.823,601.059,742.823,601.059C742.823,601.059,437.382,294.807,437.382,294.807" class="cph-shield-filled"/><glyph unicode="&#x0068;" d="M511.747,927.064C511.747,927.064,877.73,708.661,877.73,708.661C870.989,468.113,750.716,227.14,649.812,136.518C571.308,65.822,452.144,65.822,373.64,136.518C272.779,227.14,152.889,468.497,145.764,708.661C145.764,708.661,511.747,927.064,511.747,927.064M511.747,1024C511.747,1024,469.082,998.657,469.082,998.657C469.082,998.657,103.44,779.869,103.44,779.869C103.44,779.869,61.5,754.952,61.5,754.952C61.5,754.952,63.079,706.271,63.079,706.271C68.198,577.806,97.126,451.431,148.409,333.547C186.893,236.569,244.62,148.422,318.132,74.398C428.337,-24.799,595.67,-24.799,705.875,74.398C779.515,148.337,837.241,236.526,875.597,333.547C926.753,451.474,955.68,577.849,960.928,706.271C960.928,706.271,962.507,754.952,962.507,754.952C962.507,754.952,920.566,779.869,920.566,779.869C920.566,779.869,554.498,998.657,554.498,998.657C554.498,998.657,511.833,1024,511.833,1024C511.833,1024,511.747,1024,511.747,1024M281.098,451.474C281.098,451.474,360.157,530.618,360.157,530.618C360.157,530.618,436.955,453.479,436.955,453.479C436.955,453.479,663.636,680.16,663.636,680.16C663.636,680.16,742.865,601.016,742.865,601.016C742.865,601.016,437.424,294.764,437.424,294.764C437.424,294.764,281.098,451.474,281.098,451.474" class="cph-shield-unfilled"/><glyph unicode="&#x0069;" d="M597.767,682.667C597.767,682.667,722.908,807.808,722.908,807.808C661.724,852.267,588.039,876.16,512.433,876.075C414.769,878.208,320.732,838.955,253.575,768C183.26,700.416,144.135,606.677,145.5,509.141C145.5,509.141,17.5,509.141,17.5,509.141C17.5,574.72,31.068,639.616,57.308,699.733C81.201,758.613,117.041,811.861,162.567,856.192C206.513,902.827,259.847,939.691,319.025,964.267C379.228,990.251,444.039,1003.776,509.575,1004.075C620.167,1005.312,727.729,968.107,813.916,898.816C813.916,898.816,936.241,1024,936.241,1024C936.241,1024,936.241,682.667,936.241,682.667C936.241,682.667,597.767,682.667,597.767,682.667M427.1,341.333C427.1,341.333,301.959,216.192,301.959,216.192C362.929,171.349,436.743,147.413,512.433,147.925C610.097,145.792,704.135,185.045,771.292,256C841.607,323.584,880.732,417.323,879.367,514.859C879.367,514.859,1007.367,514.859,1007.367,514.859C1007.367,449.28,993.799,384.384,967.559,324.267C943.665,265.387,907.825,212.139,862.3,167.808C817.969,122.283,764.721,86.443,705.841,62.549C645.639,36.565,580.828,23.04,515.249,22.741C404.657,21.504,297.095,58.709,210.908,128C210.908,128,85.767,0,85.767,0C85.767,0,85.767,341.333,85.767,341.333C85.767,341.333,427.1,341.333,427.1,341.333" class="cph-activate"/><glyph unicode="&#x006a;" d="M1023.954,0.521C1023.954,0.521,1023.954,0.521,1023.954,0.521C1023.954,0.521,0,1024.476,0,1024.476C0,1024.476,810.406,1024.476,810.406,1024.476C929.056,1023.579,1024.595,926.822,1023.997,808.172C1023.997,808.172,1023.997,0.5,1023.997,0.5C1023.997,0.5,1023.954,0.521,1023.954,0.521" class="cph-corner-hover"/><glyph unicode="&#x006b;" d="M810.983,1024.497C810.983,1024.497,0.5,1024.497,0.5,1024.497C0.5,1024.497,1024.497,0.5,1024.497,0.5C1024.497,0.5,1024.497,0.5,1024.497,0.5C1024.497,0.5,1024.497,808.185,1024.497,808.185C1025.095,926.818,929.595,1023.557,810.983,1024.497C810.983,1024.497,810.983,1024.497,810.983,1024.497M666.589,586.618C666.589,586.618,559.597,693.61,559.597,693.61C559.597,693.61,613.937,747.95,613.937,747.95C613.937,747.95,666.589,695.297,666.589,695.297C666.589,695.297,821.108,849.837,821.108,849.837C821.108,849.837,875.447,795.497,875.447,795.497C875.447,795.497,666.589,586.618,666.589,586.618" class="cph-corner-select"/><glyph unicode="&#x006c;" d="M254.567,955.82C332.513,1001.768,421.51,1025.532,512,1024.466C602.362,1024.764,691.231,1001.086,769.433,955.82C846.143,910.596,910.139,846.6,955.362,769.891C1001.311,691.987,1025.032,602.947,1023.966,512.5C1024.648,422.095,1000.927,333.141,955.32,255.067C910.096,178.357,846.1,114.361,769.391,69.138C691.487,23.189,602.447,-0.532,512,0.534C421.638,0.236,332.769,23.914,254.567,69.18C177.857,114.404,113.861,178.4,68.638,255.109C22.689,333.013,-1.032,422.053,0.034,512.5C-0.648,602.905,23.073,691.859,68.68,769.933C113.904,846.643,177.857,910.596,254.567,955.82C254.567,955.82,254.567,955.82,254.567,955.82M208.831,326.571C208.831,326.571,695.198,812.938,695.198,812.938C639.351,847.667,575.057,866.482,509.27,867.292C414.94,868.316,324.151,831.199,257.553,764.344C190.272,698.045,153.069,607.086,154.605,512.628C156.739,447.011,175.383,383.015,208.831,326.571C208.831,326.571,208.831,326.571,208.831,326.571M815.169,692.669C815.169,692.669,331.788,209.288,331.788,209.288C385.63,175.115,448.218,157.239,512,157.836C606.33,156.855,697.118,193.972,763.716,260.784C878.525,375.592,899.771,554.097,815.212,692.669C815.212,692.669,815.169,692.669,815.169,692.669" class="cph-remove"/><glyph unicode="&#x006d;" d="M649.255,182.271C649.255,182.271,704.445,237.461,704.445,237.461C704.445,237.461,757.93,184.019,757.93,184.019C757.93,184.019,914.928,340.975,914.928,340.975C914.928,340.975,970.118,285.785,970.118,285.785C970.118,285.785,757.93,73.596,757.93,73.596C757.93,73.596,649.255,182.271,649.255,182.271M367.887,1023.901C367.887,1023.901,78.842,1023.901,78.842,1023.901C59.308,1024.882,40.2,1017.93,25.87,1004.623C12.562,990.292,5.61,971.185,6.591,951.65C6.591,951.65,6.591,662.605,6.591,662.605C5.61,643.071,12.562,623.964,25.87,609.633C40.2,596.326,59.308,589.374,78.842,590.355C78.842,590.355,367.887,590.355,367.887,590.355C387.421,589.374,406.529,596.326,420.86,609.633C434.167,623.964,441.119,643.071,440.138,662.605C440.138,662.605,440.138,951.65,440.138,951.65C441.119,971.185,434.167,990.292,420.86,1004.623C406.529,1017.93,387.421,1024.882,367.887,1023.901C367.887,1023.901,367.887,1023.901,367.887,1023.901M167.854,663.672C167.854,663.672,59.18,772.261,59.18,772.261C59.18,772.261,114.37,827.707,114.37,827.707C114.37,827.707,167.854,774.095,167.854,774.095C167.854,774.095,324.852,931.05,324.852,931.05C324.852,931.05,380.043,875.86,380.043,875.86C380.043,875.86,167.854,663.672,167.854,663.672M998.865,1004.623C984.534,1017.93,965.426,1024.882,945.892,1023.901C945.892,1023.901,656.89,1023.901,656.89,1023.901C637.27,1024.925,618.077,1017.973,603.704,1004.623C590.397,990.292,583.445,971.185,584.426,951.65C584.426,951.65,584.426,662.605,584.426,662.605C583.445,643.071,590.397,623.964,603.704,609.633C618.077,596.283,637.27,589.331,656.89,590.355C656.89,590.355,945.935,590.355,945.935,590.355C965.469,589.374,984.577,596.326,998.907,609.633C1012.214,623.964,1019.166,643.071,1018.185,662.605C1018.185,662.605,1018.185,951.65,1018.185,951.65C1019.166,971.185,1012.172,990.292,998.865,1004.623C998.865,1004.623,998.865,1004.623,998.865,1004.623M367.887,433.826C367.887,433.826,78.842,433.826,78.842,433.826C59.308,434.807,40.2,427.855,25.87,414.548C12.562,400.217,5.61,381.109,6.591,361.575C6.591,361.575,6.591,72.53,6.591,72.53C5.61,52.996,12.562,33.888,25.87,19.558C40.2,6.25,59.308,-0.702,78.842,0.279C78.842,0.279,367.887,0.279,367.887,0.279C387.421,-0.702,406.529,6.25,420.86,19.558C434.167,33.888,441.119,52.996,440.138,72.53C440.138,72.53,440.138,361.575,440.138,361.575C441.119,381.109,434.167,400.217,420.86,414.548C406.529,427.855,387.421,434.807,367.887,433.826C367.887,433.826,367.887,433.826,367.887,433.826M945.892,433.826C945.892,433.826,656.89,433.826,656.89,433.826C615.476,437.579,580.758,402.989,584.383,361.575C584.383,361.575,584.383,72.53,584.383,72.53C580.758,31.116,615.476,-3.474,656.89,0.279C656.89,0.279,945.935,0.279,945.935,0.279C987.221,-3.303,1021.768,31.244,1018.185,72.53C1018.185,72.53,1018.185,361.575,1018.185,361.575C1021.768,402.989,987.05,437.579,945.679,433.826C945.679,433.826,945.892,433.826,945.892,433.826M757.93,73.596C757.93,73.596,649.255,182.271,649.255,182.271C649.255,182.271,704.445,237.461,704.445,237.461C704.445,237.461,757.93,184.019,757.93,184.019C757.93,184.019,914.928,340.975,914.928,340.975C914.928,340.975,970.118,285.785,970.118,285.785C970.118,285.785,757.93,73.596,757.93,73.596M758.015,183.934C758.015,183.934,704.531,237.376,704.531,237.376C704.531,237.376,649.34,182.185,649.34,182.185C649.34,182.185,758.015,73.511,758.015,73.511C758.015,73.511,970.203,285.699,970.203,285.699C970.203,285.699,915.013,340.889,915.013,340.889C915.013,340.889,758.015,183.934,758.015,183.934C758.015,183.934,758.015,183.934,758.015,183.934" class="cph-multiselect"/><glyph unicode="&#x006e;" d="M664.936,622.075C682.942,610.69,703.875,604.752,725.171,604.987C815.438,604.09,872.811,701.257,828.447,779.883C827.784,781.036,827.122,782.211,826.417,783.343C826.417,783.343,664.936,622.075,664.936,622.075M724.103,841.656C692.854,841.784,662.843,829.417,640.799,807.266C618.35,785.159,605.918,754.828,606.41,723.322C607.157,701.47,613.416,680.174,624.566,661.378C624.566,661.378,786.901,823.713,786.901,823.713C768.019,835.376,746.296,841.592,724.103,841.656C724.103,841.656,724.103,841.656,724.103,841.656M810.397,1024.497C810.397,1024.497,0,1024.497,0,1024.497C0,1024.497,1023.997,0.5,1023.997,0.5C1023.997,0.5,1023.997,0.5,1023.997,0.5C1023.997,0.5,1023.997,808.121,1023.997,808.121C1024.595,926.775,929.052,1023.557,810.397,1024.497C810.397,1024.497,810.397,1024.497,810.397,1024.497M872.769,637.454C857.859,612.164,836.862,591.018,811.679,575.938C785.812,560.708,756.271,552.805,726.239,553.083C696.25,553.061,666.773,560.943,640.799,575.938C614.526,590.612,592.462,611.801,576.719,637.454C561.49,663.321,553.586,692.862,553.864,722.894C553.715,752.905,561.596,782.403,576.719,808.334C591.799,833.881,613.117,855.198,638.663,870.278C664.53,885.508,694.071,893.411,724.103,893.133C754.093,893.155,783.569,885.273,809.543,870.278C835.175,855.219,856.556,833.902,871.701,808.334C886.93,782.467,894.833,752.926,894.556,722.894C895.09,693.012,887.656,663.514,872.982,637.454C872.982,637.454,872.769,637.454,872.769,637.454" class="cph-removed"/><glyph unicode="&#x006f;" d="M0,60.5C0,60.5,1024,60.5,1024,60.5C1024,60.5,511.965,964.046,511.965,964.046C511.965,964.046,0,60.5,0,60.5M572.262,180.954C572.262,180.954,451.738,180.954,451.738,180.954C451.738,180.954,451.738,301.478,451.738,301.478C451.738,301.478,572.262,301.478,572.262,301.478C572.262,301.478,572.262,180.954,572.262,180.954M572.262,361.635C572.262,361.635,451.738,361.635,451.738,361.635C451.738,361.635,451.738,602.614,451.738,602.614C451.738,602.614,572.262,602.614,572.262,602.614C572.262,602.614,572.262,361.635,572.262,361.635" class="cph-warning-sign"/><glyph unicode="&#x0070;" d="M512.559,0C512.559,0,0.5,585.228,0.5,585.228C0.5,585.228,293.054,585.228,293.054,585.228C293.054,585.228,293.054,1024,293.054,1024C293.054,1024,731.827,1024,731.827,1024C731.827,1024,731.827,585.228,731.827,585.228C731.827,585.228,1024.381,585.228,1024.381,585.228C1024.381,585.228,512.559,0,512.559,0" class="cph-sort_arrow"/><glyph unicode="&#x0071;" d="M1024,495.107C1024,495.107,866.21,495.107,866.21,495.107C866.21,495.107,866.21,22.5,866.21,22.5C866.21,22.5,630.179,22.5,630.179,22.5C630.179,22.5,630.179,337.589,630.179,337.589C630.179,337.589,393.875,337.589,393.875,337.589C393.875,337.589,393.875,22.5,393.875,22.5C393.875,22.5,157.79,22.5,157.79,22.5C157.79,22.5,157.79,495.107,157.79,495.107C157.79,495.107,0,495.107,0,495.107C0,495.107,517.278,1001.884,517.278,1001.884C517.278,1001.884,1024,495.107,1024,495.107" class="cph-home"/><glyph unicode="&#x0072;" d="M1024,835.708C1024,835.708,1024,835.708,1024,835.708C1024,835.708,1024,1024,1024,1024C1024,1024,0,1024,0,1024C0,1024,0,0,0,0C0,0,1024,0,1024,0C1024,0,1024,835.708,1024,835.708C1024,835.708,1024,835.708,1024,835.708C1024,835.708,1024,835.708,1024,835.708M998.207,857.632C998.207,857.632,919.537,923.406,919.537,923.406C919.537,923.406,833.128,608.725,833.128,608.725C833.128,608.725,629.36,441.068,629.36,441.068C629.36,441.068,362.398,597.118,362.398,597.118C362.398,597.118,256.645,753.169,256.645,753.169C256.645,753.169,313.39,998.207,313.39,998.207C313.39,998.207,999.496,998.207,999.496,998.207C999.496,998.207,998.207,857.632,998.207,857.632C998.207,857.632,998.207,857.632,998.207,857.632C998.207,857.632,998.207,857.632,998.207,857.632M286.307,998.207C286.307,998.207,228.272,748.01,228.272,748.01C228.272,748.01,341.763,580.353,341.763,580.353C341.763,580.353,335.315,308.232,335.315,308.232C335.315,308.232,147.023,285.018,147.023,285.018C147.023,285.018,25.793,393.35,25.793,393.35C25.793,393.35,25.793,998.207,25.793,998.207C25.793,998.207,286.307,998.207,286.307,998.207C286.307,998.207,286.307,998.207,286.307,998.207M25.793,359.819C25.793,359.819,139.285,257.935,139.285,257.935C139.285,257.935,361.108,285.018,361.108,285.018C361.108,285.018,368.846,563.587,368.846,563.587C368.846,563.587,620.332,416.564,620.332,416.564C620.332,416.564,633.229,143.154,633.229,143.154C633.229,143.154,757.038,25.793,757.038,25.793C757.038,25.793,25.793,25.793,25.793,25.793C25.793,25.793,25.793,359.819,25.793,359.819C25.793,359.819,25.793,359.819,25.793,359.819M794.438,25.793C794.438,25.793,659.023,154.761,659.023,154.761C659.023,154.761,646.126,421.723,646.126,421.723C646.126,421.723,856.343,593.249,856.343,593.249C856.343,593.249,935.013,876.977,935.013,876.977C935.013,876.977,999.496,822.811,999.496,822.811C999.496,822.811,999.496,24.504,999.496,24.504C999.496,24.504,794.438,25.793,794.438,25.793C794.438,25.793,794.438,25.793,794.438,25.793C794.438,25.793,794.438,25.793,794.438,25.793" class="cph-locations"/><glyph unicode="&#x0073;" d="M961.624,413.923C961.624,413.923,866.275,709.694,866.275,709.694C907.08,761.798,876.222,838.528,810.717,847.838C786.091,851.329,761.202,844.009,742.395,827.754C742.395,827.754,412.914,915.108,412.914,915.108C391.066,977.611,309.756,993.002,266.549,942.849C239.858,911.842,238.695,866.345,263.771,834.023C263.771,834.023,62.561,220.671,62.561,220.671C4,204.154,-19.237,133.617,18.039,85.53C18.039,85.53,13.835,72.091,13.835,72.091C13.835,72.091,27.687,75.019,27.687,75.019C72.208,33.801,144.208,50.13,166.582,106.514C166.582,106.514,879.075,268.271,879.075,268.271C927.501,223.036,1006.784,247.173,1021.762,311.741C1032.123,356.488,1005.582,401.497,961.399,414.035C961.399,414.035,961.624,413.923,961.624,413.923M355.404,803.729C367.491,807.145,378.678,813.152,388.176,821.373C388.176,821.373,716.981,734.019,716.981,734.019C726.253,707.817,747.576,687.658,774.228,679.85C774.228,679.85,869.578,384.079,869.578,384.079C864.548,377.51,860.456,370.302,857.378,362.644C857.378,362.644,158.774,203.853,158.774,203.853C158.774,203.853,355.404,803.729,355.404,803.729" class="cph-new_polygon"/><glyph unicode="&#x0074;" d="M924.797,641.069C950.501,652.557,973.004,673.221,973.004,689.276C973.004,692.541,972.053,695.723,970.255,698.45C970.255,698.45,967.962,701.198,967.962,701.198C957.196,710.352,943.517,715.415,929.384,715.435C911.51,717.419,893.451,717.13,875.66,714.526C874.73,713.245,873.945,711.861,873.366,710.393C871.982,707.645,870.618,705.352,869.234,702.583C829.023,799.699,734.18,862.99,629.067,862.846C629.067,862.846,399.479,862.846,399.479,862.846C294.511,862.97,199.75,799.947,159.333,703.058C157.949,704.897,156.585,707.645,155.2,709.939C154.622,711.406,153.837,712.79,152.907,714.071C135.095,716.448,117.056,716.737,99.183,714.981C85.049,714.96,71.37,709.898,60.605,700.744C60.605,700.744,58.311,697.996,58.311,697.996C56.514,695.268,55.563,692.086,55.563,688.821C55.563,672.745,76.226,654.376,100.567,642.908C49.137,618.112,0,576.331,0,528.579C0.062,439.79,15.601,351.682,45.913,268.224C45.913,268.224,48.207,259.959,48.207,259.959C48.207,259.959,48.207,231.94,48.207,231.94C48.352,193.445,79.512,162.285,118.007,162.14C118.007,162.14,118.007,162.14,118.007,162.14C156.502,162.285,187.662,193.445,187.807,231.94C187.807,231.94,187.807,256.736,187.807,256.736C187.807,256.736,835.718,256.736,835.718,256.736C835.718,256.736,835.718,234.688,835.718,234.688C835.119,200.718,858.241,170.922,891.281,163.049C929.053,155.011,966.205,179.042,974.388,216.773C975.297,221.608,975.772,226.526,975.772,231.465C975.772,231.465,975.772,259.484,975.772,259.484C975.772,259.484,978.996,267.749,978.996,267.749C1008.792,351.311,1024.021,439.377,1024,528.104C1023.504,574.472,975.297,616.273,924.797,641.069C924.797,641.069,924.797,641.069,924.797,641.069M199.75,658.984C236.138,754.116,328.44,816.085,430.267,813.729C430.267,813.729,598.32,813.729,598.32,813.729C700.272,816.478,792.78,754.385,828.837,658.984C831.999,650.243,827.473,640.594,818.733,637.411C816.791,636.854,814.786,636.544,812.761,636.502C812.761,636.502,215.805,636.502,215.805,636.502C206.424,636.482,198.799,644.106,198.82,653.487C198.675,655.368,199.006,657.248,199.75,658.963C199.75,658.963,199.75,658.984,199.75,658.984M61.989,430.76C61.989,430.76,45.913,481.261,45.913,481.261C42.793,491.158,48.372,501.696,58.311,504.672C60.977,505.498,63.828,505.664,66.576,505.126C66.576,505.126,226.364,481.715,226.364,481.715C232.563,480.765,237.894,476.818,240.601,471.156C240.601,471.156,253.453,443.612,253.453,443.612C257.565,434.231,253.515,423.259,244.279,418.817C241.82,417.722,239.154,417.102,236.468,416.978C236.468,416.978,79.883,416.978,79.883,416.978C71.68,417.515,64.593,422.949,61.989,430.76C61.989,430.76,61.989,430.76,61.989,430.76M258.97,382.553C258.97,382.553,83.107,382.553,83.107,382.553C75.689,382.202,70.668,390.033,74.098,396.625C75.813,399.972,79.346,401.997,83.107,401.832C83.107,401.832,258.97,401.832,258.97,401.832C264.673,401.956,269.405,397.431,269.529,391.727C269.756,385.88,264.818,381.127,258.97,381.623C258.97,381.623,258.97,382.553,258.97,382.553M945.894,382.553C945.894,382.553,770.03,382.553,770.03,382.553C762.612,382.202,757.591,390.033,761.021,396.625C762.736,399.972,766.269,401.997,770.03,401.832C770.03,401.832,945.894,401.832,945.894,401.832C953.663,401.832,958.539,393.401,954.634,386.665C952.836,383.545,949.51,381.623,945.894,381.623C945.894,381.623,945.894,382.553,945.894,382.553M982.633,481.736C982.633,481.736,966.557,431.235,966.557,431.235C964.015,423.445,956.824,418.114,948.642,417.928C948.642,417.928,792.512,417.928,792.512,417.928C782.056,417.804,773.564,426.297,773.687,436.752C773.584,439.48,774.225,442.166,775.527,444.563C775.527,444.563,788.379,472.107,788.379,472.107C790.941,477.893,796.334,481.901,802.616,482.666C802.616,482.666,962.403,506.077,962.403,506.077C976.186,507.771,986.889,494.32,982.157,481.281C982.157,481.281,982.157,481.736,982.157,481.736C982.157,481.736,982.633,481.736,982.633,481.736" class="cph-car"/><glyph unicode="&#x0075;" d="M232,922.062C249.505,936.603,268.017,949.857,287.367,961.77C307.892,974.465,329.424,985.371,351.738,994.487C375.675,1004.162,400.45,1011.544,425.785,1016.522C454.028,1022.002,482.774,1024.631,511.52,1024.463C551.116,1025.022,590.488,1019.206,628.239,1007.238C660.732,996.947,690.82,980.225,716.714,958.023C740.874,936.827,760.001,910.429,772.641,880.9C786.063,849.246,792.718,815.131,792.271,780.736C792.942,749.92,788.02,719.273,777.786,690.191C769.005,666.31,756.702,643.94,741.266,623.75C727.172,605.518,710.842,589.076,692.722,574.871C675.049,561.113,658.271,548.362,642.388,536.673C627.847,526.047,614.033,514.414,601.058,501.887C589.985,491.485,582.211,478.062,578.688,463.298C578.688,463.298,559.785,366.825,559.785,366.825C559.785,366.825,413.817,366.825,413.817,366.825C413.817,366.825,398.661,477.671,398.661,477.671C394.634,497.525,397.039,518.161,405.54,536.561C414.04,553.675,425.561,569.054,439.599,582.029C454.755,596.123,470.974,609.042,488.143,620.619C505.76,632.531,522.594,645.618,538.477,659.767C553.856,673.469,567.223,689.24,578.184,706.633C589.314,725.201,594.906,746.509,594.347,768.152C595.466,793.096,585.455,817.256,566.999,834.034C546.083,851.315,519.35,860.04,492.281,858.474C471.701,858.977,451.176,856.404,431.322,850.924C416.837,846.617,402.799,841.025,389.321,834.146C377.632,827.938,367.398,822.345,358.673,817.368C350.788,812.558,341.728,809.929,332.5,809.818C314.1,809.035,296.931,818.99,288.43,835.32C288.43,835.32,232,922.062,232,922.062M358.729,118.232C358.561,134.115,361.749,149.774,368.013,164.371C374.053,178.297,382.722,190.936,393.627,201.562C404.645,212.3,417.62,220.801,431.825,226.673C447.093,232.993,463.479,236.125,480.034,235.957C496.364,236.125,512.527,232.937,527.571,226.673C541.888,220.745,554.975,212.244,566.16,201.562C588.866,179.807,601.562,149.662,601.282,118.232C601.394,102.293,598.262,86.466,591.998,71.757C586.014,57.607,577.234,44.856,566.16,34.23C554.975,23.604,541.888,15.159,527.571,9.455C512.471,3.415,496.308,0.395,480.034,0.507C463.535,0.339,447.149,3.359,431.825,9.455C417.564,15.103,404.589,23.548,393.627,34.23C371.201,56.377,358.673,86.633,358.841,118.12C358.841,118.12,358.729,118.232,358.729,118.232" class="cph-tutorials"/><glyph unicode="&#x0076;" d="M1,512C1,118.442,427.021,-127.542,767.837,69.279C925.976,160.618,1023.45,329.322,1023.45,512C1023.45,905.558,597.429,1151.542,256.612,954.721C98.474,863.382,1,694.678,1,512M86.204,512C86.204,184.049,441.25,-20.952,725.235,143.066C857.046,219.153,938.246,359.825,938.246,512C938.246,839.951,583.2,1044.952,299.215,880.934C167.404,804.847,86.204,664.175,86.204,512" class="cph-Ellipse"/><glyph unicode="&#x0077;" d="M503.099,621.053C503.099,621.053,0,39.5,0,39.5C0,39.5,638.031,498.646,638.031,498.646C638.031,498.646,752.01,340.162,752.01,340.162C752.01,340.162,789.346,541.811,789.346,541.811C789.346,541.811,1024,538.188,1024,538.188C1024,538.188,903.089,709.038,903.089,709.038C903.089,709.038,1004.465,984.731,1004.465,984.731C1004.465,984.731,704.039,860.512,704.039,860.512C704.039,860.512,545.792,984.731,545.792,984.731C545.792,984.731,533.346,784.893,533.346,784.893C533.346,784.893,334.218,761.262,334.218,761.262C334.218,761.262,503.099,621.053,503.099,621.053" class="cph-meteor"/><glyph unicode="&#x0078;" d="M512.882,1023.733C119.034,1023.733,-127.119,597.38,69.812,256.306C266.729,-84.769,759.035,-84.769,955.952,256.306C1000.865,334.077,1024.5,422.303,1024.5,512.115C1024.133,794.52,795.287,1023.366,512.882,1023.733C512.882,1023.733,512.882,1023.733,512.882,1023.733M889.029,288.994C827.845,350.179,669.446,401.013,669.446,401.013C626.604,356.861,572.887,327.644,513.406,327.644C453.925,327.644,400.208,356.861,357.366,401.013C357.366,401.013,198.312,350.179,137.128,288.994C134.259,285.771,131.795,282.208,129.791,278.382C-50.92,573.483,155.601,953.547,501.523,962.496C754.646,969.033,963.224,765.316,962.66,512.115C962.647,429.561,939.693,348.646,896.366,278.382C894.453,282.26,891.977,285.837,889.029,288.994C889.029,288.994,889.029,288.994,889.029,288.994M512.882,844.241C401.649,844.241,311.379,749.516,311.379,632.65C311.379,515.783,401.649,374.024,512.882,374.024C624.115,374.024,714.385,515.914,714.385,632.65C714.385,749.385,624.115,844.241,512.882,844.241C512.882,844.241,512.882,844.241,512.882,844.241" class="cph-profile"/><glyph unicode="&#x0079;" d="M160.002,0.5C142.337,0.5,128,14.837,128,32.502C128,32.502,128,672.537,128,672.537C128,690.202,142.337,704.539,160.002,704.539C160.002,704.539,384.014,704.539,384.014,704.539C401.679,704.539,416.016,690.202,416.016,672.537C416.016,654.872,401.679,640.535,384.014,640.535C384.014,640.535,192.004,640.535,192.004,640.535C192.004,640.535,192.004,64.504,192.004,64.504C192.004,64.504,832.039,64.504,832.039,64.504C832.039,64.504,832.039,640.535,832.039,640.535C832.039,640.535,640.028,640.535,640.028,640.535C622.363,640.535,608.026,654.872,608.026,672.537C608.026,690.202,622.363,704.539,640.028,704.539C640.028,704.539,864.04,704.539,864.04,704.539C881.705,704.539,896.042,690.202,896.042,672.537C896.042,672.537,896.042,32.502,896.042,32.502C896.042,14.837,881.705,0.5,864.04,0.5C864.04,0.5,160.002,0.5,160.002,0.5C160.002,0.5,160.002,0.5,160.002,0.5M544.023,907.174C544.023,907.174,544.023,288.58,544.023,288.58C544.023,270.883,529.814,256.514,512.021,256.514C494.356,256.514,480.019,270.563,480.019,288.58C480.019,288.58,480.019,907.174,480.019,907.174C480.019,907.174,391.79,809.216,391.79,809.216C379.982,796.096,359.757,795.007,346.604,806.848C333.483,818.657,332.395,838.882,344.236,852.003C344.236,852.003,490.772,1014.731,490.772,1014.731C502.516,1027.756,521.526,1027.756,533.27,1014.731C533.27,1014.731,679.806,852.003,679.806,852.003C691.647,838.882,690.559,818.657,677.438,806.848C664.285,795.007,644.06,796.096,632.252,809.216C632.252,809.216,544.023,907.174,544.023,907.174C544.023,907.174,544.023,907.174,544.023,907.174" class="cph-export-outline"/><glyph unicode="&#x007a;" d="M772.538,539.457C772.538,551.302,762.847,560.993,751.003,560.993C751.003,560.993,585.181,560.993,585.181,560.993C572.26,560.993,560.416,571.76,560.416,585.758C560.416,585.758,560.416,751.579,560.416,751.579C560.416,763.424,550.725,773.115,538.881,773.115C538.881,773.115,486.119,773.115,486.119,773.115C474.275,773.115,463.507,763.424,463.507,750.503C463.507,750.503,463.507,584.681,463.507,584.681C463.507,571.76,452.74,559.916,438.742,559.916C438.742,559.916,273.997,559.916,273.997,559.916C262.153,559.916,252.462,550.225,252.462,537.304C252.462,537.304,252.462,484.543,252.462,484.543C252.462,472.698,262.153,461.931,275.074,461.931C275.074,461.931,440.895,461.931,440.895,461.931C453.817,461.931,465.661,451.163,465.661,437.165C465.661,437.165,465.661,271.344,465.661,271.344C465.661,259.499,475.352,249.809,487.196,249.809C487.196,249.809,539.957,249.809,539.957,249.809C551.802,249.809,562.569,259.499,562.569,271.344C562.569,271.344,562.569,439.319,562.569,439.319C562.569,452.24,573.337,464.084,587.335,464.084C587.335,464.084,753.156,464.084,753.156,464.084C765.001,464.084,775.768,473.775,775.768,486.696C775.768,486.696,772.538,539.457,772.538,539.457C772.538,539.457,772.538,539.457,772.538,539.457M868.37,1024C868.37,1024,155.554,1024,155.554,1024C69.413,1024,0.5,955.087,0.5,868.946C0.5,868.946,0.5,155.054,0.5,155.054C0.5,69.989,69.413,0,155.554,0C155.554,0,869.446,0,869.446,0C954.511,0,1024.5,68.913,1024.5,155.054C1024.5,155.054,1024.5,868.946,1024.5,868.946C1023.423,955.087,954.511,1024,868.37,1024C868.37,1024,868.37,1024,868.37,1024M926.515,156.13C926.515,124.904,900.672,99.062,869.446,99.062C869.446,99.062,155.554,99.062,155.554,99.062C124.328,99.062,98.485,124.904,98.485,156.13C98.485,156.13,98.485,868.946,98.485,868.946C98.485,900.172,124.328,926.015,155.554,926.015C155.554,926.015,869.446,926.015,869.446,926.015C900.672,926.015,926.515,900.172,926.515,868.946C926.515,868.946,926.515,156.13,926.515,156.13C926.515,156.13,926.515,156.13,926.515,156.13" class="cph-add-outline"/><glyph unicode="&#x0030;" d="M481.833,289.761C468.355,289.761,456,295.377,447.015,304.362C407.705,341.426,368.394,379.613,329.084,416.677C289.773,454.865,249.34,493.052,210.03,531.239C195.429,544.717,190.936,563.81,198.798,582.904C206.66,601.998,225.754,615.476,245.971,615.476C258.325,615.476,269.557,610.983,279.665,600.875C348.177,536.855,417.813,469.466,479.586,408.815C626.719,572.796,783.961,746.884,940.079,922.096C952.434,935.574,965.912,937.82,974.897,937.82C993.99,937.82,1011.961,925.466,1019.823,907.495C1027.685,889.525,1024.316,869.308,1010.838,854.707C890.66,721.052,770.483,587.397,653.675,457.111C653.675,457.111,539.113,330.195,539.113,330.195C535.744,325.702,531.251,321.209,527.882,316.717C524.512,312.224,520.02,308.855,516.65,304.362C507.665,295.377,495.31,289.761,481.833,289.761C481.833,289.761,481.833,289.761,481.833,289.761M887.291,537.978C887.291,537.978,887.291,168.461,887.291,168.461C887.291,113.426,842.365,68.5,787.33,68.5C787.33,68.5,99.961,68.5,99.961,68.5C44.926,68.5,0,113.426,0,168.461C0,168.461,0,855.83,0,855.83C0,910.865,44.926,955.791,99.961,955.791C99.961,955.791,787.33,955.791,787.33,955.791C794.069,955.791,800.808,954.668,806.424,953.545C806.424,953.545,728.926,869.308,728.926,869.308C728.926,869.308,99.961,869.308,99.961,869.308C92.099,869.308,86.483,863.692,86.483,855.83C86.483,855.83,86.483,168.461,86.483,168.461C86.483,160.599,92.099,154.983,99.961,154.983C99.961,154.983,787.33,154.983,787.33,154.983C795.192,154.983,800.808,160.599,800.808,168.461C800.808,168.461,800.808,444.756,800.808,444.756C800.808,444.756,887.291,537.978,887.291,537.978C887.291,537.978,887.291,537.978,887.291,537.978" class="cph-check-outline"/><glyph unicode="&#x0031;" d="M924.58,898.958C814.953,992.381,651.912,975.577,551.287,871.751C551.287,871.751,511.877,831.141,511.877,831.141C511.877,831.141,472.468,871.751,472.468,871.751C372.043,975.577,208.802,992.381,99.175,898.958C-26.457,791.731,-33.058,599.283,79.37,483.054C79.37,483.054,466.466,83.355,466.466,83.355C491.472,57.548,532.082,57.548,557.089,83.355C557.089,83.355,944.185,483.054,944.185,483.054C1056.813,599.283,1050.211,791.731,924.58,898.958C924.58,898.958,924.58,898.958,924.58,898.958" class="cph-heart-solid"/><glyph unicode="&#x0032;" d="M916.8,895.599C801.2,992.799,622.6,978.199,512,865.599C401.4,978.199,222.8,992.999,107.2,895.599C-43.2,768.999,-21.2,562.6,86,453.2C86,453.2,436.8,95.8,436.8,95.8C456.8,75.4,483.6,64,512,64C540.6,64,567.2,75.2,587.2,95.6C587.2,95.6,938,453,938,453C1044.999,562.4,1067.399,768.799,916.8,895.599C916.8,895.599,916.8,895.599,916.8,895.599M869.6,520.6C869.6,520.6,518.8,163.2,518.8,163.2C514,158.4,510,158.4,505.2,163.2C505.2,163.2,154.4,520.6,154.4,520.6C81.4,595,66.6,735.8,169,821.999C246.8,887.399,366.8,877.599,442,800.999C442,800.999,512,729.6,512,729.6C512,729.6,582,800.999,582,800.999C657.6,877.999,777.6,887.399,855,822.199C957.2,736,942,594.4,869.6,520.6C869.6,520.6,869.6,520.6,869.6,520.6" class="cph-heart-regular"/></font>
</defs>
</svg>
