<svg xmlns="http://www.w3.org/2000/svg" viewBox="3238 4562 15 15">
  <defs>
    <style>
      .cls-1 {
        fill: #ffffff;
      }
    </style>
  </defs>
  <path id="path-9" class="cls-1" d="M3.729,1.006A7.258,7.258,0,0,1,7.5,0a7.478,7.478,0,0,1,3.771,1.006,7.709,7.709,0,0,1,2.723,2.723A7.258,7.258,0,0,1,15,7.5a7.366,7.366,0,0,1-1.006,3.771,7.709,7.709,0,0,1-2.723,2.723A7.258,7.258,0,0,1,7.5,15a7.478,7.478,0,0,1-3.771-1.006,7.709,7.709,0,0,1-2.723-2.723A7.366,7.366,0,0,1,0,7.5,7.478,7.478,0,0,1,1.006,3.729,7.709,7.709,0,0,1,3.729,1.006Zm7.458,2.807A5.06,5.06,0,0,0,7.5,2.3,5.129,5.129,0,0,0,3.813,3.813,5.06,5.06,0,0,0,2.3,7.5a5.129,5.129,0,0,0,1.508,3.687A5.06,5.06,0,0,0,7.5,12.7a5.129,5.129,0,0,0,3.687-1.508A5.06,5.06,0,0,0,12.7,7.5,5.06,5.06,0,0,0,11.187,3.813ZM7.5,7.5h2.514V8.757H6.243V3.729H7.5Z" transform="translate(3238 4562)"/>
</svg>
