<svg xmlns="http://www.w3.org/2000/svg" viewBox="-165.091 5000.5 18 18">
  <defs>
    <style>
      .cls-1 {
        fill: #fff;
      }
    </style>
  </defs>
  <path id="path" class="cls-1" d="M4.909,242.455v-1.636a.81.81,0,0,1,.223-.6A.771.771,0,0,1,5.746,240H22.073a.85.85,0,0,1,.613.218.736.736,0,0,1,.223.6v1.636a.626.626,0,0,1-.223.545.806.806,0,0,1-.613.273H5.746A.717.717,0,0,1,5.132,243,.692.692,0,0,1,4.909,242.455Zm0,4.909v-1.636a.81.81,0,0,1,.223-.6.771.771,0,0,1,.613-.218H22.073a.85.85,0,0,1,.613.218.736.736,0,0,1,.223.6v1.636a.626.626,0,0,1-.223.545.807.807,0,0,1-.613.273H5.746a.717.717,0,0,1-.613-.273A.692.692,0,0,1,4.909,247.364Zm0,4.909v-1.636a.81.81,0,0,1,.223-.6.771.771,0,0,1,.613-.218H22.073a.85.85,0,0,1,.613.218.736.736,0,0,1,.223.6v1.636a.626.626,0,0,1-.223.545.807.807,0,0,1-.613.273H5.746a.717.717,0,0,1-.613-.273A.692.692,0,0,1,4.909,252.273Zm0,4.909v-1.636a.81.81,0,0,1,.223-.6.771.771,0,0,1,.613-.218H22.073a.85.85,0,0,1,.613.218.736.736,0,0,1,.223.6v1.636a.626.626,0,0,1-.223.545.806.806,0,0,1-.613.273H5.746a.717.717,0,0,1-.613-.273A.692.692,0,0,1,4.909,257.182Z" transform="translate(-170 4760.5)"/>
</svg>
