<svg xmlns="http://www.w3.org/2000/svg" viewBox="-195 5000.5 18 18">
  <defs>
    <style>
      .cls-1 {
        fill: #fff;
      }
    </style>
  </defs>
  <path id="path" class="cls-1" d="M7.714,1.286V6.429a1.289,1.289,0,0,1-.343.943,1.289,1.289,0,0,1-.943.343H1.286a1.289,1.289,0,0,1-.943-.343A1.289,1.289,0,0,1,0,6.429V1.286A1.289,1.289,0,0,1,.343.343,1.289,1.289,0,0,1,1.286,0H6.429a1.289,1.289,0,0,1,.943.343A1.289,1.289,0,0,1,7.714,1.286Zm0,10.286v5.143a1.289,1.289,0,0,1-.343.943A1.289,1.289,0,0,1,6.429,18H1.286a1.289,1.289,0,0,1-.943-.343A1.289,1.289,0,0,1,0,16.714V11.571a1.289,1.289,0,0,1,.343-.943,1.289,1.289,0,0,1,.943-.343H6.429a1.289,1.289,0,0,1,.943.343A1.289,1.289,0,0,1,7.714,11.571ZM18,1.286V6.429a1.289,1.289,0,0,1-.343.943,1.289,1.289,0,0,1-.943.343H11.571a1.289,1.289,0,0,1-.943-.343,1.289,1.289,0,0,1-.343-.943V1.286a1.289,1.289,0,0,1,.343-.943A1.289,1.289,0,0,1,11.571,0h5.143a1.289,1.289,0,0,1,.943.343A1.289,1.289,0,0,1,18,1.286Zm0,10.286v5.143a1.289,1.289,0,0,1-.343.943,1.171,1.171,0,0,1-.943.343H11.571a1.289,1.289,0,0,1-.943-.343,1.171,1.171,0,0,1-.343-.943V11.571a1.289,1.289,0,0,1,.343-.943,1.171,1.171,0,0,1,.943-.343h5.143A1.186,1.186,0,0,1,18,11.571Z" transform="translate(-195 5000.5)"/>
</svg>
