<svg xmlns="http://www.w3.org/2000/svg" viewBox="-225 5000.5 18 18">
  <defs>
    <style>
      .cls-1 {
        fill: #fff;
      }
    </style>
  </defs>
  <path id="path" class="cls-1" d="M4.909.818V4.091a.82.82,0,0,1-.218.6.82.82,0,0,1-.6.218H.818a.82.82,0,0,1-.6-.218A.82.82,0,0,1,0,4.091V.818a.82.82,0,0,1,.218-.6A.82.82,0,0,1,.818,0H4.091a.82.82,0,0,1,.6.218A.82.82,0,0,1,4.909.818Zm0,6.545v3.273a.82.82,0,0,1-.218.6.82.82,0,0,1-.6.218H.818a.82.82,0,0,1-.6-.218.82.82,0,0,1-.218-.6V7.364a.82.82,0,0,1,.218-.6.82.82,0,0,1,.6-.218H4.091a.82.82,0,0,1,.6.218A.82.82,0,0,1,4.909,7.364Zm0,6.545v3.273a.82.82,0,0,1-.218.6.82.82,0,0,1-.6.218H.818a.82.82,0,0,1-.6-.218.82.82,0,0,1-.218-.6V13.909a.82.82,0,0,1,.218-.6.82.82,0,0,1,.6-.218H4.091a.82.82,0,0,1,.6.218A.82.82,0,0,1,4.909,13.909ZM11.455.818V4.091a.82.82,0,0,1-.218.6.82.82,0,0,1-.6.218H7.364a.82.82,0,0,1-.6-.218.82.82,0,0,1-.218-.6V.818a.82.82,0,0,1,.218-.6A.82.82,0,0,1,7.364,0h3.273a.82.82,0,0,1,.6.218A.82.82,0,0,1,11.455.818Zm0,6.545v3.273a.82.82,0,0,1-.218.6.745.745,0,0,1-.6.218H7.364a.82.82,0,0,1-.6-.218.745.745,0,0,1-.218-.6V7.364a.82.82,0,0,1,.218-.6.745.745,0,0,1,.6-.218h3.273a.755.755,0,0,1,.818.818Zm0,6.545v3.273a.82.82,0,0,1-.218.6.745.745,0,0,1-.6.218H7.364a.82.82,0,0,1-.6-.218.745.745,0,0,1-.218-.6V13.909a.82.82,0,0,1,.218-.6.745.745,0,0,1,.6-.218h3.273a.755.755,0,0,1,.818.818ZM18,.818V4.091a.82.82,0,0,1-.218.6.82.82,0,0,1-.6.218H13.909a.82.82,0,0,1-.6-.218.82.82,0,0,1-.218-.6V.818a.82.82,0,0,1,.218-.6.82.82,0,0,1,.6-.218h3.273a.82.82,0,0,1,.6.218A.82.82,0,0,1,18,.818Zm0,6.545v3.273a.82.82,0,0,1-.218.6.745.745,0,0,1-.6.218H13.909a.82.82,0,0,1-.6-.218.745.745,0,0,1-.218-.6V7.364a.82.82,0,0,1,.218-.6.745.745,0,0,1,.6-.218h3.273A.755.755,0,0,1,18,7.364Zm0,6.545v3.273a.82.82,0,0,1-.218.6.745.745,0,0,1-.6.218H13.909a.82.82,0,0,1-.6-.218.745.745,0,0,1-.218-.6V13.909a.82.82,0,0,1,.218-.6.745.745,0,0,1,.6-.218h3.273a.755.755,0,0,1,.818.818Z" transform="translate(-225 5000.5)"/>
</svg>
