<svg xmlns="http://www.w3.org/2000/svg" viewBox="2546 2483 18 18">
  <defs>
    <style>
      .cls-1 {
        fill: #fff;
      }
    </style>
  </defs>
  <path id="path-2" class="cls-1" d="M13.387,11.231,17.9,15.744c.05.1.1.15.1.251a.383.383,0,0,1-.1.251L16.245,17.9c-.1.05-.15.1-.251.1a.383.383,0,0,1-.251-.1l-4.513-4.513A6.862,6.862,0,0,1,7.32,14.54a7.008,7.008,0,0,1-5.164-2.156A6.82,6.82,0,0,1,0,7.27,7.008,7.008,0,0,1,2.156,2.106,6.963,6.963,0,0,1,7.27,0a7.008,7.008,0,0,1,5.164,2.156A7.122,7.122,0,0,1,14.591,7.32,7.321,7.321,0,0,1,13.387,11.231ZM3.76,3.76A4.848,4.848,0,0,0,2.306,7.27,4.964,4.964,0,0,0,7.27,12.234,4.964,4.964,0,0,0,12.234,7.27,4.964,4.964,0,0,0,7.27,2.306,4.848,4.848,0,0,0,3.76,3.76Z" transform="translate(2546 2483)"/>
</svg>
