<svg xmlns="http://www.w3.org/2000/svg" viewBox="-246 2482 18 18">
  <defs>
    <style>
      .cls-1 {
        fill: #fff;
      }

      .cls-2 {
        fill: none;
      }
    </style>
  </defs>
  <g id="Group_723" data-name="Group 723" transform="translate(-1401 2394)">
    <path id="Path_691" data-name="Path 691" class="cls-1" d="M6.634,0A6.086,6.086,0,0,1,9.951.927a6.869,6.869,0,0,1,2.39,2.488A6.666,6.666,0,0,1,13.22,6.78a8.954,8.954,0,0,1-1.073,4c-.732,1.122-1.512,2.244-2.439,3.463s-1.659,2.1-2.2,2.78L6.683,18a2.892,2.892,0,0,1-.39-.39c-.146-.146-.488-.488-.976-1.024s-.976-1.073-1.415-1.61-.976-1.22-1.512-2A17.837,17.837,0,0,1,.927,10.683,9.075,9.075,0,0,1,0,6.829,6.666,6.666,0,0,1,.878,3.463,7.142,7.142,0,0,1,3.317.927,6.086,6.086,0,0,1,6.634,0ZM6.585,10.244A3.725,3.725,0,0,0,9.268,9.122,3.645,3.645,0,0,0,10.39,6.439,3.725,3.725,0,0,0,9.268,3.756,3.6,3.6,0,0,0,6.585,2.683,3.725,3.725,0,0,0,3.9,3.8,3.616,3.616,0,0,0,2.78,6.439,3.725,3.725,0,0,0,3.9,9.122,3.808,3.808,0,0,0,6.585,10.244Z" transform="translate(1157 88)"/>
    <rect id="Rectangle_153" data-name="Rectangle 153" class="cls-2" width="18" height="18" transform="translate(1155 88)"/>
  </g>
</svg>
