<?xml version="1.0" encoding="utf-8"?>
<!-- Generator: Adobe Illustrator 24.0.1, SVG Export Plug-In . SVG Version: 6.00 Build 0)  -->
<svg version="1.1" id="Layer_1" xmlns="http://www.w3.org/2000/svg" xmlns:xlink="http://www.w3.org/1999/xlink" x="0px" y="0px"
	 viewBox="0 0 259 477.1" style="enable-background:new 0 0 259 477.1;" xml:space="preserve">
<style type="text/css">
	.st0{fill:#6BCDB2;}
	.st1{fill:#8DD4BD;}
	.st2{opacity:0.2;}
	.st3{fill:#FFFFFF;}
	.st4{fill:none;stroke:url(#SVGID_1_);stroke-width:0.5;stroke-miterlimit:10;}
	.st5{fill:none;stroke:url(#SVGID_2_);stroke-width:0.5;stroke-miterlimit:10;}
	.st6{fill:none;stroke:url(#SVGID_3_);stroke-width:0.5;stroke-miterlimit:10;}
	.st7{fill:none;stroke:url(#SVGID_4_);stroke-width:0.5;stroke-miterlimit:10;}
	.st8{fill:none;stroke:url(#SVGID_5_);stroke-width:0.5;stroke-miterlimit:10;}
</style>
<title>Vinpoint Apple Die Line artwork_V02_Mint</title>
<path class="st0" d="M26,13.2h207c7.5,0,13.5,6,13.5,13.5v425.3c0,7.5-6,13.5-13.5,13.5H26c-7.5,0-13.5-6-13.5-13.5V26.7
	C12.5,19.3,18.6,13.2,26,13.2z"/>
<polygon class="st1" points="109.1,13.2 169.1,13.2 83.4,237.9 23.4,237.9 "/>
<polygon class="st1" points="199.3,13.2 229.3,13.2 143.6,237.9 113.6,237.9 "/>
<g id="Group_807">
	<g id="Group_806">
		<g id="Path_951">
			<path class="st1" d="M94.1,321.2c-8.8,2.4-14,11.6-11.5,20.4l0,0c2,7.2,17.2,20.6,22.6,25.3c0.7,0.6,1.8,0.6,2.4-0.1c0,0,0,0,0,0
				c0.2-0.2,0.3-0.4,0.4-0.7c2.3-6.9,8.4-26.2,6.4-33.4c-2.4-8.8-11.4-14-20.2-11.6L94.1,321.2 M100.2,343.1c-3.2,0.9-6.6-1-7.5-4.2
				s1-6.6,4.2-7.5s6.6,1,7.5,4.2c0,0,0,0,0,0l0,0C105.3,338.9,103.4,342.2,100.2,343.1"/>
		</g>
	</g>
	<g id="Ellipse_71">
		<ellipse class="st1" cx="105" cy="374.1" rx="9.8" ry="2.2"/>
	</g>
	<g id="Path_952" class="st2">
		<path class="st1" d="M100.5,343c-0.1,0-0.2,0.1-0.3,0.1c-3.3,0.8-6.5-1.2-7.4-4.4c-0.8-3.1,1-6.3,4.1-7.3c1.9-0.5,4-0.1,5.6,1.3
			l2.2-10.9c-3.4-1.3-7-1.5-10.5-0.6c-8.8,2.4-14,11.6-11.5,20.4l0,0c1.3,4.7,8.4,12.3,14.7,18.1L100.5,343z"/>
	</g>
</g>
<g id="Group_807-4">
	<g id="Group_806-4">
		<g id="Path_951-4">
			<path class="st1" d="M94.1,249.2c-8.8,2.4-14,11.6-11.5,20.4l0,0c2,7.2,17.2,20.6,22.6,25.3c0.7,0.6,1.8,0.6,2.4-0.1c0,0,0,0,0,0
				c0.2-0.2,0.3-0.4,0.4-0.7c2.3-6.9,8.4-26.2,6.4-33.4c-2.4-8.8-11.4-14-20.2-11.6L94.1,249.2 M100.2,271.1c-3.2,0.9-6.6-1-7.5-4.2
				s1-6.6,4.2-7.5s6.6,1,7.5,4.2c0,0,0,0,0,0l0,0C105.3,266.9,103.4,270.2,100.2,271.1"/>
		</g>
	</g>
	<g id="Ellipse_71-4">
		<ellipse class="st1" cx="105" cy="302.1" rx="9.8" ry="2.2"/>
	</g>
	<g id="Path_952-4" class="st2">
		<path class="st1" d="M100.5,271c-0.1,0-0.2,0.1-0.3,0.1c-3.3,0.8-6.5-1.2-7.4-4.4c-0.8-3.1,1-6.3,4.1-7.3c1.9-0.5,4-0.1,5.6,1.3
			l2.2-10.9c-3.4-1.3-7-1.5-10.5-0.6c-8.8,2.4-14,11.6-11.5,20.4l0,0c1.3,4.7,8.4,12.3,14.7,18.1L100.5,271z"/>
	</g>
</g>
<path class="st1" d="M221,134.4c0,0.6-0.1,1.2-0.4,1.7c-0.2,0.4-0.7,0.6-1.1,0.5c-0.4,0-0.8-0.2-1.1-0.6c-0.3-0.5-0.4-1.1-0.4-1.6
	c0-0.6,0.1-1.2,0.4-1.7c0.4-0.6,1.3-0.7,1.9-0.3c0.1,0.1,0.2,0.2,0.3,0.3C220.9,133.2,221,133.8,221,134.4z M218.8,134.4
	c0,0.4,0,0.9,0.2,1.2c0.1,0.3,0.5,0.5,0.8,0.3c0.1-0.1,0.3-0.2,0.3-0.3c0.1-0.4,0.2-0.8,0.2-1.2c0-0.4,0-0.8-0.2-1.2
	c-0.1-0.3-0.5-0.5-0.8-0.3c-0.2,0.1-0.3,0.2-0.3,0.3C218.8,133.5,218.8,133.9,218.8,134.4L218.8,134.4z"/>
<path class="st1" d="M224.4,136.5h-2.9V136l1.1-1.1c0.2-0.2,0.4-0.5,0.6-0.7c0.1-0.1,0.2-0.2,0.2-0.4c0-0.1,0.1-0.3,0.1-0.4
	c0-0.2-0.1-0.3-0.2-0.4c-0.1-0.1-0.3-0.2-0.5-0.2c-0.2,0-0.3,0-0.5,0.1c-0.2,0.1-0.4,0.2-0.5,0.3l-0.4-0.5c0.2-0.2,0.4-0.3,0.7-0.4
	c0.2-0.1,0.5-0.1,0.7-0.1c0.3,0,0.7,0.1,0.9,0.3c0.2,0.2,0.4,0.5,0.4,0.8c0,0.2,0,0.4-0.1,0.6c-0.1,0.2-0.2,0.4-0.3,0.5
	c-0.2,0.3-0.5,0.5-0.7,0.8l-0.7,0.7l0,0h2L224.4,136.5z"/>
<g>
	<path class="st3" d="M161.2,248.2c0.1-0.1,0.2-0.3,0.2-0.4c0.1-0.2,0.1-0.4,0.1-0.6v-1.1h-3.2v0.7h1v0.4c0,0.2,0,0.4,0.1,0.6
		c0,0.1,0.1,0.3,0.2,0.4c0.1,0.1,0.2,0.2,0.3,0.2c0.1,0.1,0.3,0.1,0.4,0.1c0.1,0,0.3,0,0.4-0.1C161,248.4,161.1,248.3,161.2,248.2z
		 M160.7,247.8c-0.1,0-0.1,0-0.2,0c-0.1,0-0.3,0-0.4-0.1c-0.1-0.1-0.2-0.3-0.1-0.4l0-0.4h1v0.4c0,0.1,0,0.2,0,0.2
		c0,0.1-0.1,0.1-0.1,0.2C160.8,247.7,160.7,247.8,160.7,247.8z"/>
	<path class="st3" d="M160.5,249.3c0-0.1-0.1-0.3-0.2-0.4c-0.1-0.1-0.2-0.2-0.4-0.2c-0.2-0.1-0.3-0.1-0.5-0.1c-0.2,0-0.3,0-0.5,0.1
		c-0.1,0.1-0.3,0.1-0.4,0.2c-0.1,0.1-0.2,0.2-0.2,0.4c-0.1,0.2-0.1,0.3-0.1,0.5c0,0.2,0,0.3,0.1,0.5c0.1,0.1,0.1,0.3,0.2,0.4
		c0.1,0.1,0.2,0.2,0.4,0.2c0.2,0.1,0.3,0.1,0.5,0.1c0.2,0,0.3,0,0.5-0.1c0.1,0,0.3-0.1,0.4-0.2c0.1-0.1,0.2-0.2,0.2-0.4
		c0.1-0.1,0.1-0.3,0.1-0.5C160.6,249.6,160.6,249.4,160.5,249.3z M159.9,250.1c-0.2,0.1-0.3,0.1-0.5,0.1c-0.2,0-0.3,0-0.5-0.1
		c-0.1-0.1-0.2-0.2-0.2-0.3c0-0.1,0.1-0.3,0.2-0.3c0.2-0.1,0.3-0.1,0.5-0.1c0.2,0,0.3,0,0.5,0.1c0.1,0.1,0.2,0.2,0.2,0.3
		C160.1,249.9,160.1,250,159.9,250.1z"/>
	<path class="st3" d="M159.5,252.1l1-0.2c0,0,0.1,0,0.1-0.1c0,0,0-0.1,0-0.1v-0.5l-2.2,0.7v0.5c0,0.1,0,0.1,0.1,0.1l1.1,0.3
		l-1.1,0.3c0,0-0.1,0-0.1,0c0,0,0,0,0,0.1v0.5l2.2,0.7l0-0.5c0,0,0-0.1,0-0.1c0,0-0.1,0-0.1-0.1l-1-0.2l-0.2,0l-0.2,0h0.2l0.2-0.1
		l1-0.3c0,0,0.1,0,0.1-0.1c0,0,0-0.1,0-0.1v-0.3c0,0,0-0.1,0-0.1c0,0-0.1-0.1-0.1-0.1l-1-0.3l-0.2-0.1l-0.2-0.1h0.2H159.5z"/>
	<path class="st3" d="M158.2,256c0,0.1,0,0.2,0.1,0.2c0,0.1,0.1,0.2,0.1,0.2c0.1,0.1,0.1,0.2,0.2,0.2l0.2-0.2c0,0,0.1-0.1,0.1-0.1
		c0,0,0-0.1,0-0.1l-0.1-0.1c0,0-0.1-0.1-0.1-0.2c0-0.1,0-0.1,0-0.2c0-0.1,0-0.3,0.1-0.4c0.1-0.1,0.3-0.2,0.4-0.2l0,1.3
		c0,0,0,0.1,0,0.1v0h0.1h0.1c0.2,0,0.3,0,0.4-0.1c0.2-0.1,0.4-0.3,0.5-0.5c0-0.1,0.1-0.3,0.1-0.4c0-0.2,0-0.3-0.1-0.5
		c-0.1-0.1-0.1-0.3-0.2-0.3c-0.1-0.1-0.2-0.2-0.4-0.2c-0.1-0.1-0.3-0.1-0.4-0.1c-0.2,0-0.4,0-0.5,0.1c-0.1,0.1-0.3,0.1-0.4,0.2
		c-0.1,0.1-0.2,0.2-0.2,0.4c-0.1,0.1-0.1,0.3-0.1,0.4C158.2,255.8,158.2,255.9,158.2,256z M160,255.4c0.1,0.1,0.1,0.2,0.1,0.3
		c0,0.1,0,0.1,0,0.2c0,0,0,0.1-0.1,0.1c0,0-0.1,0.1-0.1,0.1h-0.2l-0.1-0.9C159.8,255.3,159.9,255.3,160,255.4z"/>
	<path class="st3" d="M160.5,257.9c-0.1-0.1-0.2-0.2-0.3-0.2l0.3,0h0.1c0,0,0-0.1,0-0.1v-0.4h-2.2v0.7h1.4c0.1,0,0.2,0.1,0.2,0.2
		c0.1,0.1,0.1,0.1,0.1,0.2v0.2c0,0,0,0,0,0.1c0,0,0.1,0,0.1,0h0.5c0.1-0.1,0.1-0.2,0.1-0.2C160.6,258.1,160.6,258,160.5,257.9z"/>
	<path class="st3" d="M159.4,260.7h0.1c0.1,0,0.3,0,0.4-0.1c0.1,0,0.2-0.1,0.3-0.2c0.1-0.1,0.2-0.2,0.2-0.3c0-0.1,0.1-0.3,0.1-0.4
		c0-0.2,0-0.3-0.1-0.5c-0.1-0.1-0.1-0.3-0.2-0.3c-0.1-0.1-0.2-0.2-0.4-0.2c-0.1-0.1-0.3-0.1-0.4-0.1c-0.2,0-0.4,0-0.5,0.1
		c-0.1,0.1-0.3,0.1-0.4,0.2c-0.1,0.1-0.2,0.2-0.2,0.4c-0.1,0.1-0.1,0.3-0.1,0.5c0,0.1,0,0.2,0,0.2c0,0.1,0,0.2,0.1,0.2
		c0,0.1,0.1,0.2,0.1,0.2c0.1,0.1,0.1,0.2,0.2,0.2l0.2-0.2c0,0,0.1-0.1,0.1-0.1c0,0,0-0.1,0-0.1l-0.1-0.1c0,0-0.1-0.1-0.1-0.2
		c0-0.1,0-0.1,0-0.2c0-0.1,0-0.3,0.1-0.4c0.1-0.1,0.3-0.2,0.4-0.2L159.4,260.7C159.3,260.7,159.3,260.7,159.4,260.7L159.4,260.7z
		 M160,259.4c0.1,0.1,0.1,0.3,0.1,0.5c0,0,0,0.1-0.1,0.1l-0.1,0.1h-0.2l0-0.8C159.8,259.3,159.9,259.3,160,259.4z"/>
	<path class="st3" d="M160.6,262.2c0-0.1,0.1-0.2,0.1-0.3c0-0.1,0-0.3-0.1-0.4c-0.1-0.1-0.1-0.2-0.2-0.3c-0.1-0.1-0.2-0.2-0.4-0.2
		c-0.2,0-0.3-0.1-0.5-0.1c-0.2,0-0.3,0-0.5,0.1c-0.1,0-0.3,0.1-0.4,0.1c-0.1,0.1-0.2,0.2-0.2,0.3c-0.1,0.1-0.1,0.2-0.1,0.3
		c0,0.1,0,0.1,0,0.2c0,0.1,0,0.1,0.1,0.2c0.1,0.1,0.1,0.2,0.2,0.3l-0.2,0.1c-0.1,0-0.1,0.1-0.1,0.2v0.4h3.2l0-0.6h-1.1
		C160.5,262.4,160.6,262.3,160.6,262.2z M160.1,262c0,0.1,0,0.1,0,0.2c0,0.1-0.1,0.1-0.1,0.2l-0.9,0l-0.1-0.1
		c-0.1-0.1-0.1-0.1-0.1-0.2c0,0,0-0.1,0-0.1c0,0,0-0.1,0-0.2c0,0,0.1-0.1,0.1-0.1c0.1,0,0.1-0.1,0.2-0.1c0.1,0,0.2,0,0.3,0
		c0.1,0,0.2,0,0.3,0c0.1,0,0.1,0,0.2,0.1c0.1,0,0.1,0.1,0.1,0.1C160.1,261.9,160.1,262,160.1,262z"/>
	<path class="st3" d="M158.3,265.4c0,0,0,0.1-0.1,0.2c0,0.1,0,0.1,0,0.2c0,0.1,0,0.3,0.1,0.4c0.1,0.1,0.1,0.2,0.2,0.3
		c0.1,0.1,0.2,0.2,0.4,0.2c0.2,0,0.3,0.1,0.5,0.1c0.2,0,0.3,0,0.5-0.1c0.1,0,0.2-0.1,0.3-0.2c0.2-0.1,0.3-0.4,0.3-0.6
		c0-0.1,0-0.2-0.1-0.3c-0.1-0.1-0.1-0.2-0.2-0.3l1.2,0v-0.7h-3.2v0.5c0,0,0,0.1,0,0.1c0,0,0.1,0.1,0.1,0.1h0.1l-0.1,0.1
		C158.4,265.3,158.4,265.3,158.3,265.4z M158.8,265.4c0-0.1,0.1-0.1,0.1-0.2h1c0.1,0.1,0.1,0.1,0.2,0.2c0,0.1,0.1,0.1,0.1,0.2
		c0,0.1,0,0.1,0,0.2c0,0.1-0.1,0.1-0.1,0.1c-0.1,0-0.1,0.1-0.2,0.1c-0.1,0-0.2,0-0.3,0c-0.1,0-0.2,0-0.3,0l-0.2-0.1
		c-0.1-0.1-0.2-0.2-0.2-0.3C158.8,265.5,158.8,265.4,158.8,265.4z"/>
	<path class="st3" d="M160.5,267.5L160.5,267.5c0.1-0.1,0.1-0.1,0.1-0.2v-0.6l-2.1,0.9l-0.9-0.4v0.5c0,0,0,0.1,0,0.1
		c0,0,0.1,0.1,0.1,0.1l2.8,1.2l0-0.5c0,0,0-0.1,0-0.1c0-0.1-0.1-0.1-0.1-0.1l-1-0.3l-0.1,0l-0.1,0l0.3-0.1L160.5,267.5z"/>
	<polygon class="st3" points="148.7,329.1 156,332.2 156,330.1 151.5,328.4 156,326.6 156,324.5 148.7,327.6 	"/>
	<rect x="148.7" y="332.7" class="st3" width="7.3" height="1.9"/>
	<polygon class="st3" points="156,335.4 148.7,335.4 148.7,337.3 153.2,337.3 148.7,340.8 148.7,342.7 156,342.7 156,340.8 
		151.5,340.8 156,337.3 	"/>
	<path class="st3" d="M153.6,349c1.7,0,2.4-1.1,2.4-2.7v-2.9l-7.3,0v1.9h2.4v1.1C151.1,348,152,349,153.6,349z M152.7,345.3h1.8v0.3
		c0,0.7-0.1,1.4-0.9,1.4s-0.9-0.7-0.9-1.4V345.3z"/>
	<path class="st3" d="M152,349.4c-2.2,0.1-3.9,2-3.7,4.2s2,3.9,4.2,3.7c0,0,0,0,0,0c2.1-0.1,3.8-1.9,3.7-4c0-0.1,0-0.2,0-0.2
		C156.1,351,154.2,349.3,152,349.4z M152.5,355.5h-0.2c-1.1-0.1-2-1-1.9-2.2c0.1-1.1,1-2,2.2-1.9c1.1,0,2.1,0.9,2.1,2.1
		C154.5,354.5,153.6,355.5,152.5,355.5z"/>
	<polygon class="st3" points="148.7,359.9 156,359.9 156,358 148.7,358 	"/>
	<polygon class="st3" points="148.7,362.6 153.2,362.6 148.7,366.1 148.7,368 156,368 156,366.1 151.5,366.1 156,362.6 156,360.7 
		148.7,360.7 	"/>
	<polygon class="st3" points="154.4,370.2 148.7,370.2 148.7,372 154.4,372 154.4,373.6 156,373.6 156,368.6 154.4,368.6 	"/>
	<path class="st3" d="M157.3,319.8C157.4,319.8,157.4,319.8,157.3,319.8C157.4,319.8,157.4,319.8,157.3,319.8L157.3,319.8z"/>
	<path class="st3" d="M154.1,317.9c-1.2,0.3-3.3,2.8-4.1,3.7c-0.1,0.1-0.1,0.3,0,0.4c0,0,0.1,0.1,0.1,0.1c1.1,0.4,4.2,1.4,5.4,1
		c1.4-0.4,2.3-1.9,1.9-3.3C156.9,318.4,155.5,317.5,154.1,317.9z M155,321.4c-0.5,0.1-1.1-0.2-1.2-0.7c-0.1-0.5,0.2-1.1,0.7-1.2
		c0.5-0.1,1,0.2,1.2,0.7C155.8,320.8,155.5,321.3,155,321.4z"/>
	<path class="st3" d="M148.8,320c-0.2,0-0.4,0.7-0.4,1.6c0,0.9,0.2,1.6,0.4,1.6c0.2,0,0.4-0.7,0.4-1.6
		C149.2,320.7,149,320,148.8,320z"/>
	<polygon class="st3" points="148.7,257.3 156,260.4 156,258.3 151.5,256.6 156,254.8 156,252.7 148.7,255.8 	"/>
	<rect x="148.7" y="260.9" class="st3" width="7.3" height="1.9"/>
	<polygon class="st3" points="148.7,270.9 156,270.9 156,269 151.5,269 156,265.5 156,263.6 148.7,263.6 148.7,265.5 153.2,265.5 
		148.7,269 	"/>
	<path class="st3" d="M148.7,273.5h2.4v1.1c0,1.7,0.8,2.6,2.5,2.6c1.7,0,2.4-1.1,2.4-2.7v-2.9l-7.3,0V273.5z M152.7,273.5h1.8v0.3
		c0,0.7-0.1,1.4-0.9,1.4s-0.9-0.7-0.9-1.4V273.5z"/>
	<path class="st3" d="M156.2,281.4c-0.1-2.2-2-3.9-4.2-3.7c-2.2,0.1-3.9,2-3.7,4.2s2,3.9,4.2,3.7c0,0,0,0,0,0c2.1-0.1,3.8-1.9,3.7-4
		C156.2,281.6,156.2,281.5,156.2,281.4z M152.5,283.7h-0.2c-1.1-0.1-2-1-1.9-2.2c0.1-1.1,1-2,2.2-1.9c1.1,0,2.1,0.9,2.1,2.1
		C154.5,282.7,153.6,283.7,152.5,283.7z"/>
	<polygon class="st3" points="156,286.2 148.7,286.2 148.7,288.1 156,288.1 	"/>
	<polygon class="st3" points="156,288.9 148.7,288.9 148.7,290.8 153.2,290.8 148.7,294.3 148.7,296.2 156,296.2 156,294.3 
		151.5,294.3 156,290.8 	"/>
	<polygon class="st3" points="156,301.8 156,296.8 154.4,296.8 154.4,298.4 148.7,298.4 148.7,300.3 154.4,300.2 154.4,301.8 	"/>
	<path class="st3" d="M157.3,248C157.4,248,157.4,248,157.3,248C157.4,248,157.4,248,157.3,248L157.3,248z"/>
	<path class="st3" d="M154.1,246.1c-1.2,0.3-3.3,2.8-4.1,3.7c-0.1,0.1-0.1,0.3,0,0.4c0,0,0.1,0.1,0.1,0.1c1.1,0.4,4.2,1.4,5.4,1
		c1.4-0.4,2.3-1.9,1.9-3.3C156.9,246.6,155.5,245.7,154.1,246.1z M155,249.6c-0.5,0.1-1.1-0.2-1.2-0.7c-0.1-0.5,0.2-1.1,0.7-1.2
		c0.5-0.1,1,0.2,1.2,0.7C155.8,249,155.5,249.5,155,249.6z"/>
	<path class="st3" d="M148.8,248.2c-0.2,0-0.4,0.7-0.4,1.6c0,0.9,0.2,1.6,0.4,1.6c0.2,0,0.4-0.7,0.4-1.6
		C149.2,248.9,149,248.2,148.8,248.2z"/>
	<path class="st3" d="M161.2,320c0.1-0.1,0.2-0.3,0.2-0.4c0.1-0.2,0.1-0.4,0.1-0.6v-1.1h-3.2v0.7h1v0.4c0,0.2,0,0.4,0.1,0.6
		c0,0.1,0.1,0.3,0.2,0.4c0.1,0.1,0.2,0.2,0.3,0.2c0.1,0,0.3,0.1,0.4,0.1c0.1,0,0.3,0,0.4-0.1C161,320.1,161.1,320.1,161.2,320z
		 M160.7,319.5c-0.1,0-0.1,0-0.2,0c0,0-0.1,0-0.1,0c-0.3,0-0.4-0.3-0.4-0.5l0-0.3h1v0.4c0,0.1,0,0.2,0,0.2c0,0.1-0.1,0.1-0.1,0.2
		C160.8,319.5,160.7,319.5,160.7,319.5z"/>
	<path class="st3" d="M160.5,321.1c0-0.1-0.1-0.3-0.2-0.4c-0.1-0.1-0.2-0.2-0.4-0.2c-0.2-0.1-0.3-0.1-0.5-0.1c-0.2,0-0.3,0-0.5,0.1
		c-0.1,0-0.3,0.1-0.4,0.2c-0.1,0.1-0.2,0.2-0.2,0.4c-0.1,0.3-0.1,0.6,0,0.9c0.1,0.1,0.1,0.3,0.2,0.4c0.1,0.1,0.2,0.2,0.4,0.2
		c0.2,0.1,0.3,0.1,0.5,0.1c0.2,0,0.3,0,0.5-0.1c0.3-0.1,0.5-0.3,0.6-0.6c0.1-0.1,0.1-0.3,0.1-0.5
		C160.6,321.4,160.6,321.2,160.5,321.1z M159.9,321.9c-0.2,0.1-0.3,0.1-0.5,0.1c-0.2,0-0.3,0-0.5-0.1c-0.1-0.1-0.2-0.2-0.2-0.3
		c0-0.1,0.1-0.3,0.2-0.4c0.2-0.1,0.3-0.1,0.5-0.1c0.2,0,0.3,0,0.5,0.1c0.1,0.1,0.2,0.2,0.2,0.4C160.1,321.7,160.1,321.8,159.9,321.9
		z"/>
	<path class="st3" d="M159.5,323.9l1-0.2c0,0,0.1,0,0.1-0.1c0,0,0-0.1,0-0.1v-0.5l-2.2,0.7v0.5c0,0.1,0,0.1,0.1,0.1l1.1,0.3
		l-1.1,0.3c0,0-0.1,0-0.1,0c0,0,0,0,0,0.1v0.5l2.2,0.7l0-0.5c0,0,0-0.1,0-0.1c0,0-0.1-0.1-0.1-0.1l-1-0.2l-0.2,0H159l0.2-0.1
		l0.2-0.1l1-0.3c0,0,0.1,0,0.1-0.1c0,0,0-0.1,0-0.1v-0.3c0,0,0-0.1,0-0.1c0,0,0,0-0.1-0.1l-1-0.3l-0.2-0.1l-0.2-0.1h0.2H159.5z"/>
	<path class="st3" d="M158.2,327.8c0,0.1,0,0.2,0.1,0.2c0,0.1,0.1,0.2,0.1,0.2c0.1,0.1,0.1,0.2,0.2,0.2l0.2-0.2c0,0,0.1-0.1,0.1-0.1
		c0,0,0-0.1,0-0.1l-0.1-0.1c0,0-0.1-0.1-0.1-0.2c0-0.1,0-0.1,0-0.2c0-0.1,0-0.3,0.1-0.4c0.1-0.1,0.3-0.2,0.4-0.2l0,1.3
		c0,0.1,0,0.1,0,0.1c0,0,0,0,0,0h0.1h0.1c0.2,0,0.3,0,0.4-0.1c0.1,0,0.2-0.1,0.3-0.2c0.1-0.1,0.2-0.2,0.2-0.3c0-0.1,0.1-0.3,0.1-0.4
		c0-0.2,0-0.3-0.1-0.5c-0.1-0.1-0.1-0.3-0.2-0.3c-0.1-0.1-0.2-0.2-0.4-0.2c-0.1-0.1-0.3-0.1-0.4-0.1c-0.2,0-0.4,0-0.5,0.1
		c-0.1,0.1-0.3,0.1-0.4,0.2c-0.1,0.1-0.2,0.2-0.2,0.4c-0.1,0.1-0.1,0.3-0.1,0.4C158.2,327.6,158.2,327.7,158.2,327.8z M160,327.2
		c0.1,0.1,0.1,0.2,0.1,0.3c0,0.1,0,0.1,0,0.2c0,0-0.1,0.1-0.1,0.1c0,0-0.1,0.1-0.1,0.1c-0.1,0-0.1,0-0.2,0l0-0.8
		C159.8,327.1,159.9,327.1,160,327.2z"/>
	<path class="st3" d="M160.5,329.7c-0.1-0.1-0.2-0.2-0.3-0.2l0.3,0h0.1c0,0,0,0,0-0.1c0,0,0-0.1,0-0.1v-0.4h-2.2v0.7h1.4
		c0.1,0,0.2,0.1,0.2,0.1c0.1,0.1,0.1,0.1,0.1,0.2v0.2c0,0,0,0,0,0c0,0,0,0,0,0.1h0.1h0.5c0-0.1,0.1-0.2,0.1-0.2
		C160.6,329.9,160.6,329.8,160.5,329.7z"/>
	<path class="st3" d="M159.3,332.5L159.3,332.5h0.2c0.1,0,0.3,0,0.4-0.1c0.1,0,0.2-0.1,0.3-0.2c0.1-0.1,0.2-0.2,0.2-0.3
		c0-0.1,0.1-0.3,0.1-0.4c0-0.2,0-0.3-0.1-0.5c-0.1-0.1-0.1-0.3-0.2-0.3c-0.1-0.1-0.2-0.2-0.4-0.2c-0.1,0-0.3-0.1-0.4-0.1
		c-0.2,0-0.4,0-0.5,0.1c-0.1,0.1-0.3,0.1-0.4,0.2c-0.1,0.1-0.2,0.2-0.2,0.4c-0.1,0.1-0.1,0.3-0.1,0.5c0,0.1,0,0.2,0,0.2
		c0,0.1,0,0.2,0.1,0.3c0,0.1,0.1,0.2,0.1,0.2c0.1,0.1,0.1,0.2,0.2,0.2l0.2-0.2c0,0,0.1-0.1,0.1-0.1c0,0,0-0.1,0-0.1
		c0,0,0-0.1-0.1-0.1c0,0-0.1-0.1-0.1-0.1c0-0.1,0-0.1,0-0.2c0-0.1,0-0.3,0.1-0.4c0.1-0.1,0.3-0.2,0.4-0.2l0,1.3
		C159.3,332.4,159.3,332.4,159.3,332.5C159.3,332.4,159.3,332.4,159.3,332.5z M160,331.2c0.1,0.1,0.1,0.2,0.1,0.3c0,0.1,0,0.1,0,0.2
		c0,0,0,0.1-0.1,0.1l-0.1,0.1h-0.2l0-0.8C159.8,331,159.9,331.1,160,331.2z"/>
	<path class="st3" d="M160.6,334c0-0.1,0.1-0.2,0-0.3c0-0.1,0-0.3-0.1-0.4c-0.1-0.1-0.1-0.2-0.2-0.3c-0.1-0.1-0.2-0.2-0.4-0.2
		c-0.1,0-0.3-0.1-0.5-0.1c-0.2,0-0.3,0-0.5,0.1c-0.1,0-0.3,0.1-0.4,0.2c-0.1,0.1-0.2,0.2-0.2,0.3c-0.1,0.1-0.1,0.2-0.1,0.3
		c0,0.1,0,0.1,0,0.2c0,0.1,0,0.1,0.1,0.2c0,0.1,0.1,0.1,0.1,0.2l0.1,0.2h-0.2c-0.1,0-0.1,0.1-0.1,0.2v0.4h3.2l0-0.6h-1.1
		C160.5,334.2,160.6,334.1,160.6,334z M160.1,333.8c0,0.1,0,0.1,0,0.2c0,0.1-0.1,0.1-0.1,0.2l-0.9,0l-0.1-0.1
		c-0.1-0.1-0.1-0.1-0.1-0.2c0,0,0-0.1,0-0.1c0,0,0-0.1,0-0.1c0,0,0.1-0.1,0.1-0.1c0.1,0,0.1-0.1,0.2-0.1c0.1,0,0.2,0,0.3,0
		c0.1,0,0.2,0,0.3,0c0.1,0,0.1,0,0.2,0.1c0.1,0,0.1,0.1,0.1,0.1C160.1,333.7,160.1,333.8,160.1,333.8z"/>
	<path class="st3" d="M158.3,336.8c0,0,0,0.1,0,0.1c0,0,0.1,0.1,0.1,0.1h0.1l-0.1,0.1c0,0-0.1,0.1-0.1,0.1c0,0,0,0.1-0.1,0.1
		c0,0.1,0,0.1,0,0.2c0,0.1,0,0.3,0.1,0.4c0.1,0.1,0.1,0.2,0.2,0.3c0.1,0.1,0.2,0.2,0.4,0.2c0.2,0,0.3,0.1,0.5,0.1
		c0.2,0,0.3,0,0.5-0.1c0.1,0,0.2-0.1,0.3-0.2c0.3-0.2,0.4-0.7,0.2-1c-0.1-0.1-0.1-0.2-0.2-0.3h1.2v-0.6h-3.2V336.8z M158.8,337.2
		c0-0.1,0.1-0.1,0.1-0.2h1c0.1,0,0.1,0.1,0.2,0.2c0,0.1,0.1,0.1,0.1,0.2c0,0.1,0,0.1,0,0.2c0,0.1-0.1,0.1-0.1,0.1
		c-0.1,0-0.1,0.1-0.2,0.1c-0.1,0-0.2,0-0.3,0c-0.1,0-0.2,0-0.3,0l-0.2-0.1c-0.1-0.1-0.2-0.2-0.2-0.3
		C158.8,337.3,158.8,337.2,158.8,337.2z"/>
	<path class="st3" d="M160.5,340.1l-1-0.3l-0.1,0h-0.1l0.3-0.1l1-0.4c0,0,0.1,0,0.1-0.1c0,0,0-0.1,0-0.1v-0.6l-2.1,0.9l-0.9-0.4v0.5
		c0,0,0,0.1,0,0.1c0,0,0.1,0.1,0.1,0.1l2.8,1.2l0-0.6C160.6,340.3,160.6,340.3,160.5,340.1C160.6,340.1,160.5,340.1,160.5,340.1z"/>
	<path class="st3" d="M166,246.4v55.6c0,2.4,2,4.4,4.4,4.4H230c2.4,0,4.4-2,4.4-4.4v-55.6c0-2.4-2-4.4-4.4-4.4h-59.6
		C168,242,166,244,166,246.4z"/>
	<polygon class="st3" points="55.5,40.9 52.5,48.4 49.5,40.9 46,40.9 51.2,53.2 53.7,53.2 59,40.9 	"/>
	<rect x="59.8" y="40.9" class="st3" width="3.2" height="12.3"/>
	<polygon class="st3" points="67.6,45.6 73.5,53.2 76.6,53.2 76.6,40.9 73.4,40.9 73.4,48.4 67.6,40.9 64.4,40.9 64.4,53.2 
		67.6,53.2 	"/>
	<path class="st3" d="M81.1,49.1h1.8c2.8,0,4.4-1.4,4.4-4.2c0-2.8-1.8-4-4.5-4h-4.9v12.2h3.2V49.1z M81.1,43.5h0.5
		c1.2,0,2.3,0.1,2.3,1.6c0,1.5-1.2,1.5-2.3,1.5h-0.5V43.5z"/>
	<path class="st3" d="M94.5,53.3c3.8,0.1,6.9-2.8,7.1-6.5c0,0,0,0,0,0c-0.1-3.6-3.2-6.4-6.8-6.3c-3.5,0-6.8,2.6-6.8,6.3
		C88,50.4,90.9,53.2,94.5,53.3z M94.7,43.3c1.9,0,3.5,1.6,3.5,3.5v0.4c-0.1,1.9-1.8,3.4-3.7,3.3c-1.9-0.1-3.4-1.8-3.3-3.7
		C91.2,44.9,92.8,43.3,94.7,43.3z"/>
	<rect x="102.5" y="40.9" class="st3" width="3.2" height="12.3"/>
	<polygon class="st3" points="110.2,53.2 110.2,45.6 116.1,53.2 119.2,53.2 119.2,40.9 116.1,40.9 116.1,48.4 110.2,40.9 107,40.9 
		107,53.2 	"/>
	<polygon class="st3" points="123,53.2 126.2,53.2 126.2,43.6 128.8,43.6 128.8,40.9 120.4,40.9 120.4,43.6 123,43.6 	"/>
	<path class="st3" d="M34.9,44.1c0.5,2,4.7,5.6,6.2,6.9c0.2,0.2,0.5,0.2,0.7,0c0,0,0,0,0,0c0-0.1,0.1-0.1,0.1-0.2
		c0.6-1.9,2.3-7.2,1.8-9.1c-0.7-2.4-3.2-3.8-5.5-3.2C35.7,39.2,34.2,41.7,34.9,44.1C34.9,44.1,34.9,44.1,34.9,44.1z M38.8,41.4
		c0.9-0.3,1.8,0.3,2.1,1.1c0,0,0,0,0,0.1c0.2,0.9-0.3,1.8-1.2,2c-0.9,0.3-1.8-0.3-2.1-1.1S37.9,41.6,38.8,41.4z"/>
	<path class="st3" d="M43.7,53c0-0.3-1.2-0.6-2.7-0.6c-1.5,0-2.7,0.3-2.7,0.6c0,0.3,1.2,0.6,2.7,0.6C42.5,53.6,43.7,53.3,43.7,53z"
		/>
	<path class="st3" d="M36.1,35.1h0.6c0.3,0,0.7,0,1-0.1c0.2-0.1,0.5-0.2,0.7-0.4c0.2-0.2,0.3-0.4,0.4-0.6c0.1-0.2,0.1-0.5,0.1-0.7
		c0-0.2,0-0.5-0.1-0.7c-0.1-0.2-0.2-0.4-0.4-0.5c-0.2-0.2-0.4-0.3-0.7-0.4c-0.3-0.1-0.7-0.1-1-0.1h-1.9v5.3h1.2V35.1z M36.1,32.5
		h0.7c0.1,0,0.3,0,0.4,0.1c0.1,0,0.2,0.1,0.3,0.2c0.1,0.1,0.1,0.2,0.2,0.3c0,0.1,0.1,0.2,0.1,0.3c0,0.1,0,0.2,0,0.3
		c-0.1,0.4-0.5,0.7-0.9,0.6l-0.7,0V32.5z"/>
	<path class="st3" d="M39.6,36.5c0.2,0.2,0.4,0.3,0.6,0.4C40.5,37,40.7,37,41,37c0.3,0,0.5,0,0.8-0.1c0.2-0.1,0.4-0.2,0.6-0.4
		c0.2-0.2,0.3-0.4,0.4-0.6c0.1-0.3,0.1-0.5,0.1-0.8c0-0.3,0-0.6-0.1-0.8c-0.1-0.2-0.2-0.4-0.4-0.6c-0.2-0.2-0.4-0.3-0.6-0.4
		c-0.3-0.1-0.5-0.1-0.8-0.1c-0.3,0-0.5,0-0.8,0.1c-0.2,0.1-0.4,0.2-0.6,0.4c-0.2,0.2-0.3,0.4-0.4,0.6C39.1,34.5,39,34.8,39,35
		c0,0.3,0,0.6,0.1,0.8C39.3,36.1,39.4,36.3,39.6,36.5z M40.4,34.2c0,0,0.1-0.1,0.1-0.1c0.3-0.3,0.8-0.2,1.1,0.1
		c0.1,0.3,0.2,0.5,0.2,0.8c0,0.3,0,0.6-0.2,0.8c-0.1,0.2-0.4,0.3-0.6,0.3c-0.2,0-0.5-0.1-0.6-0.3c-0.1-0.3-0.2-0.6-0.2-0.8
		C40.2,34.7,40.3,34.5,40.4,34.2z"/>
	<path class="st3" d="M45.1,36.9c0.1,0,0.2-0.1,0.2-0.2l0.5-1.9c0-0.1,0.1-0.2,0.1-0.3l0-0.2l0.1,0.2c0,0.1,0,0.2,0.1,0.2l0.5,1.9
		c0,0.1,0,0.1,0.1,0.1c0,0,0.1,0,0.1,0h0.9l1.2-3.8l-0.8,0c-0.1,0-0.1,0-0.2,0c0,0-0.1,0.1-0.1,0.1L47.5,35l-0.1,0.4
		c-0.1,0.1-0.1,0.2-0.1,0.4c0-0.1-0.1-0.2-0.1-0.4c0-0.1-0.1-0.2-0.1-0.4l-0.5-1.7c0-0.1-0.1-0.1-0.1-0.1c-0.1,0-0.1-0.1-0.2-0.1
		h-0.5c-0.1,0-0.1,0-0.2,0.1c-0.1,0-0.1,0.1-0.1,0.1L45,35c0,0.2,0,0.2-0.1,0.4c0,0.1-0.1,0.2-0.1,0.4c0-0.1,0-0.2-0.1-0.4
		c0-0.1-0.1-0.2-0.1-0.4l-0.4-1.7c0-0.1-0.1-0.1-0.1-0.1c-0.1,0-0.1,0-0.2,0h-0.9l1.2,3.8H45.1z"/>
	<path class="st3" d="M49.7,36.6c0.2,0.2,0.4,0.3,0.6,0.4c0.2,0.1,0.5,0.1,0.8,0.1h0.4c0.1,0,0.3-0.1,0.4-0.1
		c0.1-0.1,0.3-0.1,0.4-0.2c0.1-0.1,0.3-0.2,0.4-0.3L52.4,36c0-0.1-0.1-0.1-0.2-0.1c-0.1,0-0.1,0-0.2,0L51.8,36
		c-0.1,0-0.2,0.1-0.3,0.1c-0.1,0-0.2,0-0.3,0c-0.2,0-0.4-0.1-0.6-0.2c-0.2-0.2-0.3-0.4-0.3-0.7l2.3,0h0.1c0,0,0.1,0,0.1-0.1
		c0,0,0-0.1,0-0.1c0-0.1,0-0.1,0-0.2c0-0.3,0-0.5-0.1-0.7c-0.1-0.2-0.2-0.4-0.4-0.5c-0.2-0.2-0.3-0.3-0.5-0.4
		c-0.2-0.1-0.5-0.1-0.7-0.1c-0.3,0-0.5,0-0.8,0.2c-0.5,0.2-0.8,0.5-1,1c-0.1,0.2-0.1,0.5-0.1,0.7c0,0.3,0,0.6,0.2,0.9
		C49.4,36.2,49.5,36.4,49.7,36.6z M50.6,34.1c0.1-0.1,0.3-0.2,0.5-0.2c0.1,0,0.2,0,0.3,0.1c0.1,0,0.2,0.1,0.2,0.2
		c0.1,0.1,0.1,0.1,0.1,0.2c0,0.1,0,0.2,0,0.3h-1.4C50.4,34.4,50.5,34.2,50.6,34.1z"/>
	<path class="st3" d="M54.5,34.6c0.1-0.1,0.1-0.3,0.2-0.4c0.1-0.1,0.3-0.1,0.4-0.1h0.1h0.1h0.2c0,0,0.1,0,0.1,0c0,0,0.1-0.1,0.1-0.1
		l0.1-0.8c-0.1-0.1-0.3-0.1-0.4-0.1c-0.2,0-0.4,0.1-0.5,0.2c-0.2,0.1-0.3,0.3-0.4,0.5l-0.1-0.3v-0.1c0,0,0-0.1-0.1-0.1
		c0,0-0.1,0-0.1,0h-0.8v3.8h1.1V34.6z"/>
	<path class="st3" d="M56.4,36.6c0.2,0.2,0.4,0.3,0.6,0.4c0.2,0.1,0.5,0.1,0.8,0.1h0.4c0.1,0,0.3-0.1,0.4-0.1
		c0.1-0.1,0.3-0.1,0.4-0.2c0.1-0.1,0.3-0.2,0.4-0.3L59.1,36c0-0.1-0.1-0.1-0.2-0.1c-0.1,0-0.1,0-0.2,0L58.5,36l-0.2,0.1
		c-0.1,0-0.2,0-0.3,0c-0.2,0-0.4-0.1-0.6-0.2c-0.2-0.2-0.3-0.4-0.3-0.7l2.3,0h0.1c0,0,0.1,0,0.1-0.1c0,0,0-0.1,0-0.1
		c0-0.1,0-0.1,0-0.2c0-0.3,0-0.5-0.1-0.7c-0.1-0.2-0.2-0.4-0.4-0.5c-0.2-0.2-0.3-0.3-0.5-0.4c-0.2-0.1-0.5-0.1-0.7-0.1
		c-0.3,0-0.5,0-0.8,0.2c-0.5,0.2-0.8,0.5-1,1c-0.1,0.2-0.1,0.5-0.1,0.7c0,0.3,0,0.6,0.2,0.9C56.1,36.1,56.2,36.4,56.4,36.6z
		 M57.3,34.1c0.1-0.1,0.3-0.2,0.5-0.2c0.1,0,0.2,0,0.3,0.1c0.1,0,0.1,0.1,0.2,0.2c0.1,0.1,0.1,0.1,0.1,0.2c0,0.1,0,0.2,0,0.3H57
		C57.1,34.4,57.2,34.2,57.3,34.1z"/>
	<path class="st3" d="M60.2,36.4c0.1,0.2,0.3,0.3,0.4,0.4c0.2,0.1,0.4,0.1,0.5,0.1c0.1,0,0.2,0,0.4,0c0.1,0,0.2-0.1,0.3-0.1
		c0.1,0,0.2-0.1,0.3-0.2c0.1-0.1,0.2-0.1,0.2-0.2l0.1,0.3c0,0.1,0.2,0.2,0.3,0.2h0.7v-5.5h-1.1v1.9c-0.1-0.1-0.2-0.2-0.4-0.2
		C61.8,33,61.6,33,61.4,33c-0.2,0-0.5,0-0.7,0.2c-0.2,0.1-0.4,0.2-0.5,0.4c-0.1,0.2-0.3,0.4-0.3,0.6c-0.1,0.3-0.1,0.5-0.1,0.8
		c0,0.3,0,0.6,0.1,0.8C60,36,60.1,36.3,60.2,36.4z M61,35.1c0-0.2,0-0.4,0-0.5c0-0.1,0.1-0.2,0.1-0.4c0.1-0.1,0.1-0.2,0.2-0.2
		c0.1,0,0.2-0.1,0.3-0.1c0.1,0,0.2,0,0.3,0.1c0.1,0,0.2,0.1,0.3,0.2v1.6c0,0.1-0.1,0.1-0.2,0.2c0,0-0.1,0.1-0.2,0.1l-0.2,0.1
		c-0.1,0-0.1,0-0.2,0c-0.1,0-0.2,0-0.2,0c-0.1,0-0.1-0.1-0.2-0.2c-0.1-0.1-0.1-0.2-0.1-0.3C61,35.4,61,35.3,61,35.1z"/>
	<path class="st3" d="M66.9,36.9c0,0,0.1-0.1,0.1-0.2v-0.2l0.1,0.2c0.1,0.1,0.1,0.1,0.2,0.1c0.1,0,0.2,0.1,0.2,0.1
		c0.1,0,0.2,0,0.3,0c0.2,0,0.4,0,0.7-0.2c0.2-0.1,0.4-0.2,0.5-0.4c0.1-0.2,0.3-0.4,0.3-0.7c0.1-0.3,0.1-0.6,0.1-0.8
		c0-0.3,0-0.5-0.1-0.8c-0.1-0.2-0.1-0.4-0.3-0.6c-0.1-0.2-0.3-0.3-0.5-0.4c-0.2-0.1-0.4-0.1-0.6-0.1c-0.2,0-0.4,0-0.6,0.1
		c-0.2,0.1-0.3,0.2-0.5,0.3v-2.1h-1v5.4h0.8C66.8,36.9,66.9,36.9,66.9,36.9z M67,34.3c0.1-0.1,0.2-0.2,0.3-0.3
		c0.1-0.1,0.2-0.1,0.4-0.1c0.1,0,0.2,0,0.3,0.1c0.1,0,0.1,0.1,0.1,0.2c0.1,0.1,0.1,0.2,0.1,0.3c0,0.2,0,0.3,0,0.5c0,0.2,0,0.4,0,0.6
		c0,0.1-0.1,0.3-0.2,0.4c-0.1,0.1-0.1,0.2-0.2,0.2c-0.1,0-0.2,0.1-0.3,0.1c-0.1,0-0.2,0-0.3-0.1c-0.1,0-0.2-0.1-0.3-0.2L67,34.3z"/>
	<path class="st3" d="M70.4,38.1h0.8c0.1,0,0.2,0,0.2,0c0.1,0,0.1-0.1,0.1-0.2l2-4.8l-0.9,0.1c-0.1,0-0.1,0-0.2,0
		c-0.1,0-0.1,0.1-0.1,0.1L71.8,35l-0.1,0.2c0,0.1-0.1,0.1-0.1,0.2c0-0.2-0.1-0.3-0.1-0.5l-0.6-1.8c0-0.1-0.1-0.1-0.1-0.1
		c-0.1,0-0.1,0-0.2,0h-1l1.5,3.5L70.4,38.1z"/>
	<path class="st3" d="M228.1,126V35.5c0-2.4-2-4.4-4.4-4.4h-86.2c-2.4,0-4.4,2-4.4,4.4V126c0,2.4,2,4.4,4.4,4.4h86.2
		C226.1,130.4,228.1,128.5,228.1,126z"/>
	<path class="st3" d="M125,112H35.8c-2.5,0-4.5,2-4.5,4.5v9.4c0,2.5,2,4.5,4.5,4.5H125c2.5,0,4.5-2,4.5-4.5v-9.4
		C129.5,114,127.5,112,125,112z"/>
	<path class="st3" d="M36.8,60.4c0.3,0,0.7,0.1,1,0.2l0.3-0.7c-0.4-0.2-0.8-0.3-1.2-0.3c-0.6,0-1.1,0.2-1.5,0.6
		c-0.7,1-0.7,2.3,0,3.3c0.4,0.4,0.9,0.6,1.5,0.6c0.2,0,0.5,0,0.7-0.1c0.2,0,0.4-0.1,0.5-0.2v-0.8c-0.4,0.2-0.8,0.3-1.2,0.3
		c-0.3,0-0.6-0.1-0.8-0.4c-0.2-0.3-0.3-0.7-0.3-1.1C35.7,60.9,36,60.4,36.8,60.4z"/>
	<path class="st3" d="M41.2,59.7c-0.5,0-1,0.2-1.3,0.7l-0.1-0.6H39V66h0.9v-1.8c0-0.1,0-0.3,0-0.7c0.3,0.4,0.8,0.6,1.3,0.6
		c0.5,0,0.9-0.2,1.2-0.6c0.6-1,0.6-2.3,0-3.3C42.1,59.9,41.7,59.7,41.2,59.7z M41.7,63c-0.1,0.2-0.4,0.4-0.7,0.4
		c-0.3,0-0.6-0.1-0.8-0.4c-0.2-0.3-0.3-0.7-0.2-1.1v-0.1c0-0.4,0.1-0.7,0.3-1c0.2-0.2,0.5-0.3,0.8-0.3c0.3,0,0.5,0.1,0.7,0.3
		C42,61.5,42,62.3,41.7,63z"/>
	<path class="st3" d="M47.8,64.1l0.1-2.8c0-0.1,0-0.3,0-0.4c-0.1-0.8-0.8-1.3-1.6-1.2c-0.3,0-0.5,0.1-0.8,0.2
		c-0.2,0.1-0.4,0.3-0.5,0.5h-0.1c0-0.3,0-0.5,0-0.8V58H44v6.1h0.9v-2.1c0-0.4,0.1-0.8,0.3-1.2c0.2-0.2,0.5-0.4,0.8-0.3
		c0.2,0,0.5,0.1,0.6,0.2c0.1,0.2,0.2,0.5,0.2,0.7v2.7H47.8z"/>
	<path class="st3" d="M50.8,61.4c-0.5,0-1,0.1-1.5,0.4c-0.3,0.2-0.5,0.6-0.5,1c0,0.4,0.1,0.7,0.4,1c0.3,0.2,0.6,0.4,1,0.3
		c0.3,0,0.6,0,0.8-0.1c0.2-0.1,0.5-0.3,0.6-0.5l0.2,0.6l0.7,0v-2.9c0-0.4-0.1-0.8-0.4-1.1c-0.4-0.2-0.8-0.4-1.2-0.3
		c-0.3,0-0.5,0-0.8,0.1c-0.3,0.1-0.5,0.1-0.8,0.3l0.3,0.6c0.2-0.1,0.4-0.2,0.6-0.2c0.2-0.1,0.4-0.1,0.6-0.1c0.2,0,0.4,0,0.6,0.2
		c0.1,0.2,0.2,0.4,0.2,0.6v0.2H50.8z M51.5,62.4c0,0.3-0.1,0.6-0.3,0.8c-0.2,0.2-0.5,0.3-0.8,0.3c-0.2,0-0.4-0.1-0.5-0.2
		c-0.1-0.1-0.2-0.3-0.2-0.4c0-0.2,0.1-0.5,0.3-0.6c0.3-0.2,0.6-0.2,1-0.2h0.5V62.4z"/>
	<path class="st3" d="M57.5,64.1l0-2.8c0-0.1,0-0.3,0-0.4c-0.1-0.8-0.8-1.3-1.6-1.2c-0.3,0-0.5,0.1-0.8,0.2
		c-0.2,0.1-0.4,0.3-0.6,0.5l-0.1-0.6h-0.7v4.3h0.9v-2.1c0-0.4,0.1-0.8,0.3-1.2c0.2-0.2,0.5-0.4,0.8-0.3c0.2,0,0.5,0.1,0.6,0.2
		c0.1,0.2,0.2,0.5,0.2,0.7v2.7H57.5z"/>
	<path class="st3" d="M60.2,64.2c0.5,0,1-0.2,1.3-0.7l0.2,0.6h0.7V58h-0.9v1.6c0,0.2,0,0.5,0.1,0.7c-0.3-0.4-0.8-0.7-1.3-0.6
		c-0.5,0-1,0.2-1.3,0.6c-0.6,1-0.6,2.3,0,3.3C59.3,63.9,59.7,64.2,60.2,64.2z M59.7,60.9c0.2-0.3,0.4-0.4,0.7-0.4
		c0.3,0,0.6,0.1,0.8,0.3c0.2,0.3,0.3,0.8,0.3,1.2v0.1c0,0.4-0.1,0.7-0.3,1c-0.2,0.2-0.5,0.3-0.8,0.3c-0.3,0-0.6-0.1-0.8-0.3
		c-0.2-0.3-0.3-0.7-0.3-1.1C59.4,61.6,59.5,61.2,59.7,60.9z"/>
	<path class="st3" d="M64.7,61.9c0-0.4,0.1-0.8,0.3-1.2c0.2-0.2,0.5-0.4,0.9-0.3c0.2,0,0.5,0.1,0.6,0.2c0.1,0.2,0.2,0.5,0.2,0.7v2.7
		h0.9l0.1-2.8c0-0.1,0-0.3,0-0.4c-0.1-0.8-0.8-1.3-1.6-1.2c-0.3,0-0.5,0.1-0.8,0.2c-0.2,0.1-0.4,0.3-0.5,0.5h-0.1c0-0.3,0-0.5,0-0.8
		V58h-0.9v6.1h0.9V61.9z"/>
	<path class="st3" d="M72.4,61.7c0-0.5-0.2-1-0.5-1.4c-0.4-0.4-0.8-0.5-1.4-0.5c-0.6,0-1.1,0.2-1.5,0.6c-0.4,0.5-0.6,1.1-0.5,1.7
		c0,0.6,0.2,1.1,0.6,1.6c0.4,0.4,1,0.6,1.6,0.6c0.3,0,0.5,0,0.8,0c0.2,0,0.5-0.1,0.7-0.2v-0.8c-0.2,0.1-0.5,0.2-0.7,0.2
		c-0.2,0-0.5,0.1-0.7,0.1c-0.3,0-0.7-0.1-0.9-0.3c-0.2-0.3-0.4-0.6-0.3-1h2.9V61.7z M69.5,61.5c0-0.3,0.1-0.6,0.3-0.8
		c0.2-0.2,0.4-0.3,0.7-0.3c0.3,0,0.5,0.1,0.7,0.3c0.2,0.2,0.3,0.5,0.2,0.8H69.5z"/>
	<rect x="73.4" y="58" class="st3" width="0.9" height="6.1"/>
	<path class="st3" d="M75.9,60.3c-0.6,1-0.6,2.3,0,3.3c0.3,0.4,0.8,0.6,1.3,0.6c0.5,0,1-0.2,1.3-0.7l0.2,0.6h0.7V58h-0.9v1.6
		c0,0.2,0,0.5,0.1,0.7c-0.3-0.4-0.8-0.7-1.3-0.6C76.6,59.7,76.2,59.9,75.9,60.3z M76.6,60.9c0.2-0.3,0.4-0.4,0.7-0.4
		c0.3,0,0.6,0.1,0.8,0.3c0.2,0.4,0.3,0.8,0.3,1.2v0.1c0,0.4-0.1,0.7-0.3,1c-0.2,0.2-0.5,0.3-0.8,0.3c-0.3,0-0.6-0.1-0.8-0.3
		c-0.2-0.3-0.3-0.7-0.2-1.1C76.3,61.6,76.4,61.2,76.6,60.9z"/>
	<path class="st3" d="M80.7,63.1c-0.1,0.1-0.2,0.3-0.1,0.4c0,0.2,0,0.3,0.1,0.4c0.1,0.1,0.3,0.2,0.4,0.2c0.2,0,0.3,0,0.4-0.2
		c0.1-0.1,0.2-0.3,0.1-0.4c0-0.2,0-0.3-0.1-0.4C81.4,63,81.3,63,81.1,63C80.9,63,80.8,63,80.7,63.1z"/>
	<path class="st3" d="M84.6,60.4c0.3,0,0.7,0.1,1,0.2l0.3-0.7c-0.4-0.2-0.8-0.3-1.2-0.3c-0.6,0-1.1,0.2-1.5,0.6
		c-0.4,0.5-0.6,1.1-0.5,1.7c0,0.6,0.1,1.2,0.5,1.7c0.4,0.4,0.9,0.6,1.5,0.6c0.2,0,0.5,0,0.7-0.1c0.2,0,0.4-0.1,0.5-0.2v-0.8
		c-0.4,0.2-0.8,0.3-1.2,0.3c-0.3,0-0.6-0.1-0.8-0.4c-0.2-0.3-0.3-0.7-0.3-1.1C83.5,60.9,83.9,60.4,84.6,60.4z"/>
	<path class="st3" d="M87.1,60.3c-0.4,0.5-0.6,1-0.5,1.6c0,0.4,0.1,0.8,0.2,1.2c0.2,0.3,0.4,0.6,0.7,0.8c0.3,0.2,0.7,0.3,1.1,0.3
		c0.6,0,1.1-0.2,1.5-0.6c0.4-0.5,0.6-1,0.6-1.7c0-0.6-0.2-1.2-0.6-1.6c-0.4-0.4-0.9-0.6-1.5-0.6C88,59.6,87.5,59.9,87.1,60.3z
		 M89.7,61.9c0,1-0.4,1.5-1.1,1.5c-0.7,0-1.1-0.5-1.1-1.5c0-0.4,0.1-0.8,0.3-1.1c0.2-0.3,0.5-0.4,0.8-0.4
		C89.3,60.4,89.7,60.9,89.7,61.9z"/>
	<path class="st3" d="M98,64.1v-2.8c0-0.4-0.1-0.9-0.4-1.2c-0.3-0.3-0.7-0.4-1.1-0.4c-0.3,0-0.6,0.1-0.8,0.2
		c-0.2,0.1-0.4,0.3-0.5,0.5h-0.1c-0.3-0.5-0.8-0.7-1.3-0.7c-0.3,0-0.5,0.1-0.8,0.2c-0.2,0.1-0.4,0.3-0.5,0.5l-0.1-0.6h-0.7v4.3h0.9
		v-2.1c0-0.4,0.1-0.8,0.2-1.2c0.2-0.2,0.5-0.4,0.8-0.3c0.2,0,0.4,0.1,0.6,0.2c0.1,0.2,0.2,0.5,0.2,0.7v2.7h0.9l-0.1-2.3
		c0-0.4,0.1-0.7,0.2-1c0.2-0.2,0.5-0.4,0.8-0.3c0.2,0,0.4,0.1,0.6,0.2c0.1,0.2,0.2,0.5,0.2,0.7v2.7H98z"/>
	<path class="st3" d="M230.1,388.9L230.1,388.9h-59.6h-0.1c-2.4,0-4.4,2-4.4,4.4v55.6c0,2.4,2,4.4,4.4,4.4h0.1H230h0.1
		c2.4,0,4.4-2,4.4-4.4v-55.6C234.5,390.9,232.5,388.9,230.1,388.9z"/>
	<path class="st3" d="M122.1,388.9L122.1,388.9H62.5h-0.1c-2.4,0-4.4,2-4.4,4.4v55.6c0,2.4,2,4.4,4.4,4.4h0.1H122h0.1
		c2.4,0,4.4-2,4.4-4.4v-55.6C126.5,390.9,124.5,388.9,122.1,388.9z"/>
	<path class="st3" d="M230.1,313.9h-59.6c-1.2,0-2.3,0.5-3.1,1.3c-0.8,0.8-1.4,1.9-1.4,3.2v55.6c0,2.4,2,4.4,4.4,4.4H230
		c1.2,0,2.3-0.5,3.1-1.3c0.8-0.8,1.4-1.9,1.4-3.2v-55.6C234.5,315.9,232.5,313.9,230.1,313.9z"/>
	<path class="st3" d="M125,90.1H35.8c-2.5,0-4.5,2-4.5,4.5v9.4c0,2.5,2,4.5,4.5,4.5H125c2.5,0,4.5-2,4.5-4.5v-9.4
		C129.5,92.2,127.5,90.1,125,90.1z"/>
	<path class="st3" d="M125,68.3H35.8c-2.5,0-4.5,2-4.5,4.5v9.4c0,2.5,2,4.5,4.5,4.5H125c2.5,0,4.5-2,4.5-4.5v-9.4
		C129.5,70.3,127.5,68.3,125,68.3z"/>
</g>
<g id="Cut">
	
		<linearGradient id="SVGID_1_" gradientUnits="userSpaceOnUse" x1="129.26" y1="59.44" x2="237.76" y2="59.44" gradientTransform="matrix(1 0 0 -1 0 480)">
		<stop  offset="0.11" style="stop-color:#FFFFFF;stop-opacity:0.6"/>
		<stop  offset="0.91" style="stop-color:#8A8C8E"/>
	</linearGradient>
	<path class="st4" d="M233,456.6h-99c-2.5,0-4.5-2-4.5-4.5v-63c0-2.5,2-4.5,4.5-4.5h99c2.5,0,4.5,2,4.5,4.5v63
		C237.5,454.5,235.5,456.6,233,456.6z"/>
	
		<linearGradient id="SVGID_2_" gradientUnits="userSpaceOnUse" x1="21.26" y1="133.75" x2="237.76" y2="133.75" gradientTransform="matrix(1 0 0 -1 0 480)">
		<stop  offset="0.11" style="stop-color:#FFFFFF;stop-opacity:0.6"/>
		<stop  offset="0.91" style="stop-color:#8A8C8E"/>
	</linearGradient>
	<path class="st5" d="M233,382.2H26c-2.5,0-4.5-2-4.5-4.5v-63c0-2.5,2-4.5,4.5-4.5h207c2.5,0,4.5,2,4.5,4.5v63
		C237.5,380.2,235.5,382.2,233,382.2z"/>
	
		<linearGradient id="SVGID_3_" gradientUnits="userSpaceOnUse" x1="21.26" y1="205.75" x2="237.76" y2="205.75" gradientTransform="matrix(1 0 0 -1 0 480)">
		<stop  offset="0.11" style="stop-color:#FFFFFF;stop-opacity:0.6"/>
		<stop  offset="0.91" style="stop-color:#8A8C8E"/>
	</linearGradient>
	<path class="st6" d="M233,310.2H26c-2.5,0-4.5-2-4.5-4.5v-63c0-2.5,2-4.5,4.5-4.5h207c2.5,0,4.5,2,4.5,4.5v63
		C237.5,308.2,235.5,310.2,233,310.2z"/>
	
		<linearGradient id="SVGID_4_" gradientUnits="userSpaceOnUse" x1="21.26" y1="349.75" x2="237.76" y2="349.75" gradientTransform="matrix(1 0 0 -1 0 480)">
		<stop  offset="0.11" style="stop-color:#FFFFFF;stop-opacity:0.6"/>
		<stop  offset="0.91" style="stop-color:#8A8C8E"/>
	</linearGradient>
	<path class="st7" d="M233,238.2H26c-2.5,0-4.5-2-4.5-4.5v-207c0-2.5,2-4.5,4.5-4.5h207c2.5,0,4.5,2,4.5,4.5v207
		C237.5,236.2,235.5,238.2,233,238.2z"/>
	
		<linearGradient id="SVGID_5_" gradientUnits="userSpaceOnUse" x1="21.26" y1="59.44" x2="129.76" y2="59.44" gradientTransform="matrix(1 0 0 -1 0 480)">
		<stop  offset="0.11" style="stop-color:#FFFFFF;stop-opacity:0.6"/>
		<stop  offset="0.91" style="stop-color:#8A8C8E"/>
	</linearGradient>
	<path class="st8" d="M125,456.6H26c-2.5,0-4.5-2-4.5-4.5v-63c0-2.5,2-4.5,4.5-4.5h99c2.5,0,4.5,2,4.5,4.5v63
		C129.5,454.5,127.5,456.6,125,456.6z"/>
</g>
</svg>
