<svg xmlns="http://www.w3.org/2000/svg" xmlns:xlink="http://www.w3.org/1999/xlink" viewBox="0 0 259.02 477.08"><defs><style>.cls-1{fill:#bcbec0;}.cls-2{fill:#d1d3d4;}.cls-3{fill:#fff;}.cls-4{opacity:0.2;isolation:isolate;}.cls-5,.cls-6,.cls-7,.cls-8,.cls-9{fill:none;stroke-miterlimit:10;stroke-width:0.5px;}.cls-5{stroke:url(#linear-gradient);}.cls-6{stroke:url(#linear-gradient-2);}.cls-7{stroke:url(#linear-gradient-3);}.cls-8{stroke:url(#linear-gradient-4);}.cls-9{stroke:url(#linear-gradient-5);}</style><linearGradient id="linear-gradient" x1="129.26" y1="420.56" x2="237.76" y2="420.56" gradientTransform="translate(367.02 841.12) rotate(-180)" gradientUnits="userSpaceOnUse"><stop offset="0.11" stop-color="#fff" stop-opacity="0.6"/><stop offset="0.91" stop-color="#8a8c8e"/></linearGradient><linearGradient id="linear-gradient-2" x1="21.26" y1="346.24" x2="237.76" y2="346.24" gradientTransform="translate(259.02 692.49) rotate(-180)" xlink:href="#linear-gradient"/><linearGradient id="linear-gradient-3" x1="21.26" y1="274.24" x2="237.76" y2="274.24" gradientTransform="translate(259.02 548.49) rotate(-180)" xlink:href="#linear-gradient"/><linearGradient id="linear-gradient-4" x1="21.26" y1="130.24" x2="237.76" y2="130.24" gradientTransform="translate(259.02 260.49) rotate(-180)" xlink:href="#linear-gradient"/><linearGradient id="linear-gradient-5" x1="21.26" y1="420.56" x2="129.76" y2="420.56" gradientTransform="translate(151.02 841.12) rotate(-180)" xlink:href="#linear-gradient"/></defs><title>Vinpoint Apple Die Line artwork_V02_Grey</title><g id="Artwork"><rect class="cls-1" x="12.51" y="13.24" width="234" height="452.32" rx="13.5"/><polygon class="cls-2" points="109.06 13.24 169.06 13.24 83.39 237.86 23.39 237.86 109.06 13.24"/><polygon class="cls-2" points="199.26 13.24 229.26 13.24 143.59 237.86 113.59 237.86 199.26 13.24"/><rect class="cls-3" x="58.04" y="388.94" width="68.38" height="64.38" rx="4.41"/><rect class="cls-3" x="166.04" y="388.94" width="68.38" height="64.38" rx="4.41"/><rect class="cls-3" x="166.04" y="313.98" width="68.38" height="64.38" rx="4.41"/><g id="Group_807" data-name="Group 807"><g id="Group_806" data-name="Group 806"><g id="Path_951" data-name="Path 951"><path class="cls-2" d="M94.09,321.16a16.58,16.58,0,0,0-11.54,20.41h0c2,7.18,17.17,20.57,22.64,25.3a1.72,1.72,0,0,0,2.44-.14,1.7,1.7,0,0,0,.37-.67c2.3-6.88,8.44-26.19,6.44-33.37a16.48,16.48,0,0,0-20.22-11.58l-.13,0m6.07,22a6.07,6.07,0,1,1,4.22-7.47h0a6.09,6.09,0,0,1-4.22,7.47"/></g></g><g id="Ellipse_71" data-name="Ellipse 71"><ellipse class="cls-2" cx="105.04" cy="374.13" rx="9.84" ry="2.22"/></g><g id="Path_952" data-name="Path 952" class="cls-4"><path class="cls-2" d="M100.46,343c-.08,0-.22.08-.3.08a6.07,6.07,0,0,1-3.26-11.69,6,6,0,0,1,5.55,1.26l2.15-10.88a17,17,0,0,0-10.51-.59,16.58,16.58,0,0,0-11.54,20.41h0c1.33,4.74,8.44,12.28,14.65,18.13Z"/></g></g><g id="Group_808" data-name="Group 808"><g id="Group_805" data-name="Group 805"><g id="Path_943" data-name="Path 943"><path class="cls-3" d="M151.54,256.56l4.43,1.77v2.06l-7.29-3.11v-1.47l7.29-3.07v2.06Z"/></g><g id="Path_944" data-name="Path 944"><path class="cls-3" d="M148.68,262.77v-1.9H156v1.9Z"/></g><g id="Path_945" data-name="Path 945"><path class="cls-3" d="M156,263.62v1.89L151.51,269v0H156v1.9h-7.29V269l4.46-3.47v0h-4.46v-1.89Z"/></g><g id="Path_946" data-name="Path 946"><path class="cls-3" d="M156,271.63v2.91c0,1.56-.73,2.64-2.4,2.64s-2.47-.93-2.47-2.58v-1.08h-2.42v-1.89Zm-3.35,1.9v.32c0,.69,0,1.37.88,1.37s.94-.64.94-1.37v-.32Z"/></g><g id="Path_947" data-name="Path 947"><path class="cls-3" d="M152.46,285.65a4,4,0,1,1,3.75-4A3.88,3.88,0,0,1,152.46,285.65Zm0-6.1a2.06,2.06,0,1,0-.24,4.12h.24a2.06,2.06,0,0,0,0-4.12Z"/></g><g id="Path_948" data-name="Path 948"><path class="cls-3" d="M148.68,288.11v-1.89H156v1.89Z"/></g><g id="Path_949" data-name="Path 949"><path class="cls-3" d="M156,288.92v1.9l-4.46,3.47v0H156v1.89h-7.29v-1.89l4.46-3.48v0h-4.46v-1.89H156Z"/></g><g id="Path_950" data-name="Path 950"><path class="cls-3" d="M148.68,300.27v-1.9h5.68v-1.56H156v5h-1.61v-1.57Z"/></g></g><g id="Group_807-2" data-name="Group 807"><g id="Group_806-2" data-name="Group 806"><g id="Path_951-2" data-name="Path 951"><path class="cls-3" d="M157.36,248a2.7,2.7,0,0,0-3.31-1.87h0c-1.16.33-3.33,2.78-4.09,3.67a.28.28,0,0,0,0,.39.24.24,0,0,0,.11.06c1.11.37,4.24,1.37,5.4,1a2.66,2.66,0,0,0,1.87-3.27v0m-3.56,1a1,1,0,0,1,.68-1.21,1,1,0,0,1,.53,1.9h0a1,1,0,0,1-1.21-.69"/></g></g><g id="Ellipse_71-2" data-name="Ellipse 71"><ellipse class="cls-3" cx="148.78" cy="249.77" rx="0.36" ry="1.59"/></g><g id="Path_952-2" data-name="Path 952" class="cls-4"><path class="cls-3" d="M153.83,249s0,0,0-.05a1,1,0,1,1,1.9-.52,1,1,0,0,1-.21.89l1.76.35a2.75,2.75,0,0,0,.1-1.7,2.7,2.7,0,0,0-3.31-1.87h0a9.66,9.66,0,0,0-2.93,2.37Z"/></g></g></g><path class="cls-3" d="M161.48,247.23a1.64,1.64,0,0,1-.08.57,1.17,1.17,0,0,1-.21.4,1,1,0,0,1-.33.23,1.14,1.14,0,0,1-.41.07,1.27,1.27,0,0,1-.44-.08.86.86,0,0,1-.34-.23,1.26,1.26,0,0,1-.22-.4,1.89,1.89,0,0,1-.08-.56v-.39h-1.05v-.73h3.16Zm-1.55,0a.5.5,0,0,0,.14.41.54.54,0,0,0,.38.13.65.65,0,0,0,.2,0,.31.31,0,0,0,.15-.1.44.44,0,0,0,.1-.16.88.88,0,0,0,0-.24v-.39h-1Z"/><path class="cls-3" d="M160.61,249.75a1.14,1.14,0,0,1-.09.46,1,1,0,0,1-.23.37,1,1,0,0,1-.36.23,1.21,1.21,0,0,1-.48.08,1.29,1.29,0,0,1-.49-.08,1.1,1.1,0,0,1-.37-.23,1.16,1.16,0,0,1-.23-.37,1.34,1.34,0,0,1-.08-.46,1.36,1.36,0,0,1,.08-.47,1.06,1.06,0,0,1,.23-.37,1.31,1.31,0,0,1,.37-.24,1.53,1.53,0,0,1,.49-.08,1.42,1.42,0,0,1,.48.08,1.13,1.13,0,0,1,.36.24.93.93,0,0,1,.23.37A1.16,1.16,0,0,1,160.61,249.75Zm-1.83,0a.4.4,0,0,0,.16.34,1,1,0,0,0,.5.11.93.93,0,0,0,.5-.11.38.38,0,0,0,.17-.34.39.39,0,0,0-.17-.35.84.84,0,0,0-.5-.11.86.86,0,0,0-.5.11A.41.41,0,0,0,158.78,249.75Z"/><path class="cls-3" d="M160.57,254.51l-2.25-.7v-.55a.08.08,0,0,1,0-.07.19.19,0,0,1,.09-.05l1.12-.32.15,0,.15,0-.15,0-.15,0-1.12-.33a.13.13,0,0,1-.11-.14v-.52l2.25-.71v.54a.28.28,0,0,1,0,.13.18.18,0,0,1-.09.06l-1,.23-.22,0-.22,0,.22.06.22.07,1,.28a.15.15,0,0,1,.09.06.21.21,0,0,1,0,.12v.3a.27.27,0,0,1,0,.12.15.15,0,0,1-.09.06l-1,.27-.22.07-.22,0,.22.05.22.05,1,.24a.18.18,0,0,1,.09.06.24.24,0,0,1,0,.12Z"/><path class="cls-3" d="M159.32,255.26a.65.65,0,0,0-.41.18.52.52,0,0,0-.13.35.66.66,0,0,0,0,.21,1,1,0,0,0,.07.15l.06.12a.27.27,0,0,1,0,.12.14.14,0,0,1-.06.12l-.24.19a1,1,0,0,1-.2-.22.91.91,0,0,1-.11-.25,1.14,1.14,0,0,1-.06-.25,2.29,2.29,0,0,1,0-.25,1.32,1.32,0,0,1,.08-.44,1,1,0,0,1,.23-.36.94.94,0,0,1,.38-.25,1.38,1.38,0,0,1,.52-.09,1.22,1.22,0,0,1,.43.08,1,1,0,0,1,.35.22.9.9,0,0,1,.25.35,1.14,1.14,0,0,1,.09.46,1.3,1.3,0,0,1-.07.41.94.94,0,0,1-.53.53,1.23,1.23,0,0,1-.44.08h-.12l-.08,0,0-.05s0-.05,0-.08Zm.39.85.16,0A.37.37,0,0,0,160,256a.27.27,0,0,0,.09-.12.34.34,0,0,0,0-.18.41.41,0,0,0-.11-.3.57.57,0,0,0-.32-.15Z"/><path class="cls-3" d="M160.22,257.68a1,1,0,0,1,.29.24.51.51,0,0,1,.1.32.36.36,0,0,1-.07.24l-.49,0s-.06,0-.07,0a.08.08,0,0,1,0-.06.11.11,0,0,1,0,0v-.18a.34.34,0,0,0-.08-.23.57.57,0,0,0-.21-.15h-1.37v-.68h2.25v.4a.25.25,0,0,1,0,.09.05.05,0,0,1,0,0,.08.08,0,0,1,0,0l-.08,0Z"/><path class="cls-3" d="M159.32,259.23a.65.65,0,0,0-.41.17.53.53,0,0,0-.13.36.6.6,0,0,0,0,.2.52.52,0,0,0,.07.15l.06.12a.27.27,0,0,1,0,.12.14.14,0,0,1-.06.12l-.24.2a1.07,1.07,0,0,1-.2-.23.8.8,0,0,1-.11-.25,1,1,0,0,1-.06-.25,2.12,2.12,0,0,1,0-.24,1.33,1.33,0,0,1,.08-.45,1,1,0,0,1,.23-.36,1,1,0,0,1,.38-.25,1.38,1.38,0,0,1,.52-.09,1.22,1.22,0,0,1,.43.08,1.15,1.15,0,0,1,.35.22,1.07,1.07,0,0,1,.25.35,1.16,1.16,0,0,1,.09.47,1.35,1.35,0,0,1-.07.41,1,1,0,0,1-.21.32.89.89,0,0,1-.32.21,1.23,1.23,0,0,1-.44.07h-.12l-.08,0a.1.1,0,0,1,0,0s0,0,0-.07Zm.39.85.16,0L160,260a.27.27,0,0,0,.09-.12.47.47,0,0,0-.07-.49.56.56,0,0,0-.32-.14Z"/><path class="cls-3" d="M161.57,263.06h-3.25v-.42a.14.14,0,0,1,.11-.16l.17-.06a1,1,0,0,1-.23-.3,1,1,0,0,1-.07-.18,1.5,1.5,0,0,1,0-.22.72.72,0,0,1,.08-.32.78.78,0,0,1,.22-.26A1.15,1.15,0,0,1,159,261a1.75,1.75,0,0,1,.48-.06,1.41,1.41,0,0,1,.47.07,1.13,1.13,0,0,1,.38.19.9.9,0,0,1,.24.31.86.86,0,0,1,.09.39.67.67,0,0,1-.05.3.71.71,0,0,1-.13.22h1.14Zm-1.6-.67a.55.55,0,0,0,.11-.17.41.41,0,0,0,0-.19.33.33,0,0,0,0-.17.25.25,0,0,0-.12-.13.51.51,0,0,0-.21-.09,1,1,0,0,0-.32,0,1.39,1.39,0,0,0-.3,0,.69.69,0,0,0-.19.07.29.29,0,0,0-.11.11.4.4,0,0,0,0,.15.53.53,0,0,0,0,.13.46.46,0,0,0,.11.21l.09.09Z"/><path class="cls-3" d="M160.33,265.2a1.1,1.1,0,0,1,.2.28.78.78,0,0,1,.08.35.71.71,0,0,1-.31.61.88.88,0,0,1-.35.17,1.53,1.53,0,0,1-.45.06,1.59,1.59,0,0,1-.5-.07,1,1,0,0,1-.38-.19.93.93,0,0,1-.25-.31.79.79,0,0,1-.09-.38,1.11,1.11,0,0,1,0-.19.47.47,0,0,1,.06-.15.83.83,0,0,1,.08-.12l.11-.11-.11,0a.14.14,0,0,1-.1-.06.15.15,0,0,1,0-.1v-.45h3.25v.68Zm-1.4,0a.36.36,0,0,0-.12.16.57.57,0,0,0,0,.18.34.34,0,0,0,.15.32l.21.09a1.55,1.55,0,0,0,.33,0,1.17,1.17,0,0,0,.29,0,.52.52,0,0,0,.2-.07.23.23,0,0,0,.1-.12.33.33,0,0,0,0-.17.37.37,0,0,0-.06-.21.63.63,0,0,0-.15-.18Z"/><path class="cls-3" d="M160.57,269.09l-2.84-1.2a.27.27,0,0,1-.1-.08.24.24,0,0,1,0-.14v-.5l.91.43,2.06-.9v.6a.21.21,0,0,1,0,.12l-.09.06-1,.37-.27.09.14.05.13.05,1,.33s.06,0,.09.07a.2.2,0,0,1,0,.11Z"/><g id="Group_808-2" data-name="Group 808"><g id="Group_805-2" data-name="Group 805"><g id="Path_943-2" data-name="Path 943"><path class="cls-3" d="M151.54,328.35l4.43,1.78v2.05l-7.29-3.11V327.6l7.29-3.07v2.06Z"/></g><g id="Path_944-2" data-name="Path 944"><path class="cls-3" d="M148.68,334.56v-1.9H156v1.9Z"/></g><g id="Path_945-2" data-name="Path 945"><path class="cls-3" d="M156,335.41v1.89l-4.45,3.47v0H156v1.9h-7.29v-1.9l4.46-3.47v0h-4.46v-1.89Z"/></g><g id="Path_946-2" data-name="Path 946"><path class="cls-3" d="M156,343.41v2.91c0,1.57-.73,2.65-2.39,2.65s-2.48-.93-2.48-2.59v-1.07h-2.42v-1.89Zm-3.35,1.91v.32c0,.68,0,1.37.88,1.37s.94-.64.94-1.37v-.32Z"/></g><g id="Path_947-2" data-name="Path 947"><path class="cls-3" d="M152.46,357.43a4,4,0,1,1,3.75-4A3.87,3.87,0,0,1,152.46,357.43Zm0-6.09a2.06,2.06,0,1,0-.24,4.12h.24a2.06,2.06,0,0,0,0-4.12Z"/></g><g id="Path_948-2" data-name="Path 948"><path class="cls-3" d="M148.68,359.9V358H156v1.89Z"/></g><g id="Path_949-2" data-name="Path 949"><path class="cls-3" d="M156,360.7v1.91l-4.45,3.47v0H156V368h-7.29V366.1l4.46-3.47v0h-4.46v-1.9H156Z"/></g><g id="Path_950-2" data-name="Path 950"><path class="cls-3" d="M148.68,372.05v-1.89h5.69v-1.57H156v5h-1.6v-1.57Z"/></g></g><g id="Group_807-3" data-name="Group 807"><g id="Group_806-3" data-name="Group 806"><g id="Path_951-3" data-name="Path 951"><path class="cls-3" d="M157.36,319.79a2.68,2.68,0,0,0-3.3-1.86h0c-1.16.32-3.32,2.77-4.09,3.66a.28.28,0,0,0,0,.39.24.24,0,0,0,.11.06c1.11.38,4.24,1.37,5.4,1a2.67,2.67,0,0,0,1.87-3.28v0m-3.56,1a1,1,0,0,1,.69-1.21,1,1,0,0,1,1.2.68,1,1,0,0,1-.68,1.21h0a1,1,0,0,1-1.21-.68"/></g></g><g id="Ellipse_71-3" data-name="Ellipse 71"><ellipse class="cls-3" cx="148.79" cy="321.57" rx="0.36" ry="1.59"/></g><g id="Path_952-3" data-name="Path 952" class="cls-4"><path class="cls-3" d="M153.83,320.82s0,0,0,0a1,1,0,0,1,1.89-.53,1,1,0,0,1-.21.9l1.76.34a2.74,2.74,0,0,0,.1-1.7,2.68,2.68,0,0,0-3.3-1.86h0a9.36,9.36,0,0,0-2.93,2.37Z"/></g></g></g><path class="cls-3" d="M161.48,319a1.64,1.64,0,0,1-.08.57,1.08,1.08,0,0,1-.21.4,1,1,0,0,1-.33.23,1.14,1.14,0,0,1-.41.07,1.27,1.27,0,0,1-.44-.07.88.88,0,0,1-.34-.24,1.21,1.21,0,0,1-.22-.39,1.91,1.91,0,0,1-.08-.57v-.38h-1.05v-.74h3.16Zm-1.55,0a.47.47,0,0,0,.52.54.45.45,0,0,0,.2,0,.38.38,0,0,0,.15-.09.48.48,0,0,0,.1-.17.88.88,0,0,0,0-.24v-.38h-1Z"/><path class="cls-3" d="M160.61,321.54a1.19,1.19,0,0,1-.09.47,1,1,0,0,1-.59.59,1.21,1.21,0,0,1-.48.09,1.3,1.3,0,0,1-.49-.09,1,1,0,0,1-.36-.23,1,1,0,0,1-.24-.36,1.42,1.42,0,0,1,0-.94,1,1,0,0,1,.24-.37,1,1,0,0,1,.36-.23,1.3,1.3,0,0,1,.49-.09,1.21,1.21,0,0,1,.48.09,1,1,0,0,1,.36.23,1,1,0,0,1,.23.37A1.19,1.19,0,0,1,160.61,321.54Zm-1.83,0a.4.4,0,0,0,.16.34,1,1,0,0,0,.5.11.93.93,0,0,0,.5-.11.38.38,0,0,0,.17-.34.39.39,0,0,0-.17-.35.84.84,0,0,0-.5-.11.86.86,0,0,0-.5.11A.41.41,0,0,0,158.78,321.54Z"/><path class="cls-3" d="M160.57,326.3l-2.25-.7v-.55a.1.1,0,0,1,0-.07.19.19,0,0,1,.09-.05l1.12-.32.15,0,.15,0-.15,0-.15,0-1.12-.33a.13.13,0,0,1-.11-.14v-.52l2.25-.7v.54a.27.27,0,0,1,0,.12.18.18,0,0,1-.09.06l-1,.23-.22,0-.22,0,.22.06.22.07,1,.28a.16.16,0,0,1,.08.06.24.24,0,0,1,0,.12v.3a.21.21,0,0,1,0,.12.16.16,0,0,1-.08.06l-1,.27-.22.07-.22.06.22,0,.22.05,1,.24a.15.15,0,0,1,.09.07.2.2,0,0,1,0,.11Z"/><path class="cls-3" d="M159.32,327.05a.65.65,0,0,0-.41.18.52.52,0,0,0-.12.36.65.65,0,0,0,0,.2,1,1,0,0,0,.07.15l.06.12a.27.27,0,0,1,0,.12.14.14,0,0,1-.06.12l-.24.19a1,1,0,0,1-.2-.22.8.8,0,0,1-.11-.25,1.14,1.14,0,0,1-.06-.25,2.29,2.29,0,0,1,0-.25,1.32,1.32,0,0,1,.08-.44,1,1,0,0,1,.23-.36.94.94,0,0,1,.38-.25,1.38,1.38,0,0,1,.52-.09,1.22,1.22,0,0,1,.43.08.91.91,0,0,1,.35.22,1,1,0,0,1,.25.35,1.14,1.14,0,0,1,.09.46,1.3,1.3,0,0,1-.07.41.89.89,0,0,1-.21.32.81.81,0,0,1-.32.21,1.23,1.23,0,0,1-.44.08h-.12l-.08,0a.1.1,0,0,1,0-.05s0,0,0-.07Zm.39.85a.41.41,0,0,0,.16,0,.35.35,0,0,0,.14-.06.38.38,0,0,0,.09-.13.34.34,0,0,0,0-.18.41.41,0,0,0-.11-.3.57.57,0,0,0-.32-.15Z"/><path class="cls-3" d="M160.22,329.48a.87.87,0,0,1,.29.24.48.48,0,0,1,.1.31.41.41,0,0,1-.07.25l-.49,0-.07,0a.14.14,0,0,1,0-.07.11.11,0,0,1,0-.05v-.18a.3.3,0,0,0-.08-.23.57.57,0,0,0-.21-.15h-1.37v-.68h2.25v.4a.22.22,0,0,1,0,.09.09.09,0,0,1,0,.06l0,0-.08,0Z"/><path class="cls-3" d="M159.32,331a.65.65,0,0,0-.41.17.52.52,0,0,0-.12.36.59.59,0,0,0,0,.2.52.52,0,0,0,.07.15.67.67,0,0,0,.06.12.27.27,0,0,1,0,.12.13.13,0,0,1-.06.12l-.24.2a1.07,1.07,0,0,1-.2-.23.86.86,0,0,1-.11-.24,1.22,1.22,0,0,1-.06-.26,1.94,1.94,0,0,1,0-.24,1.33,1.33,0,0,1,.08-.45,1.05,1.05,0,0,1,.23-.36,1,1,0,0,1,.38-.24,1.38,1.38,0,0,1,.52-.09,1.21,1.21,0,0,1,.43.07,1,1,0,0,1,.35.22,1.07,1.07,0,0,1,.25.35,1.19,1.19,0,0,1,.09.47,1.35,1.35,0,0,1-.07.41,1,1,0,0,1-.21.32.81.81,0,0,1-.32.21,1.23,1.23,0,0,1-.44.07h-.12l-.08,0a.1.1,0,0,1,0-.05.56.56,0,0,1,0-.07Zm.39.85.16,0,.14-.07a.27.27,0,0,0,.09-.12.38.38,0,0,0,0-.19.41.41,0,0,0-.11-.3.56.56,0,0,0-.32-.14Z"/><path class="cls-3" d="M161.57,334.85h-3.25v-.42a.14.14,0,0,1,.11-.16l.17,0-.13-.15a.86.86,0,0,1-.1-.16.75.75,0,0,1-.07-.18,1.49,1.49,0,0,1,0-.21.73.73,0,0,1,.08-.33.71.71,0,0,1,.23-.26,1,1,0,0,1,.36-.17,1.77,1.77,0,0,1,.49-.06,1.39,1.39,0,0,1,.46.07,1.13,1.13,0,0,1,.38.19.9.9,0,0,1,.24.31.86.86,0,0,1,.09.39.67.67,0,0,1-.05.3.71.71,0,0,1-.13.22h1.14Zm-1.6-.67a.45.45,0,0,0,.11-.17.41.41,0,0,0,0-.19.33.33,0,0,0,0-.17.25.25,0,0,0-.12-.13.51.51,0,0,0-.21-.09,1,1,0,0,0-.31,0,1.26,1.26,0,0,0-.3,0,.66.66,0,0,0-.2.07.29.29,0,0,0-.11.11.4.4,0,0,0,0,.15.53.53,0,0,0,0,.13.46.46,0,0,0,.11.21l.09.09Z"/><path class="cls-3" d="M160.33,337a1.1,1.1,0,0,1,.2.28.74.74,0,0,1-.23,1,.91.91,0,0,1-.34.17,1.65,1.65,0,0,1-.46.06,1.59,1.59,0,0,1-.5-.07,1,1,0,0,1-.38-.19.93.93,0,0,1-.25-.31.79.79,0,0,1-.09-.38,1.11,1.11,0,0,1,0-.19.47.47,0,0,1,.06-.15.83.83,0,0,1,.08-.12l.11-.11-.11,0a.14.14,0,0,1-.1-.06.15.15,0,0,1,0-.1v-.45h3.25V337Zm-1.4,0a.36.36,0,0,0-.12.16.57.57,0,0,0,0,.18.34.34,0,0,0,.15.32l.22.09a1.39,1.39,0,0,0,.32,0,1.17,1.17,0,0,0,.29,0,.52.52,0,0,0,.2-.07.23.23,0,0,0,.1-.12.33.33,0,0,0,0-.17.37.37,0,0,0-.06-.21.5.5,0,0,0-.15-.18Z"/><path class="cls-3" d="M160.57,340.88l-2.84-1.2a.27.27,0,0,1-.1-.08.24.24,0,0,1,0-.14V339l.91.43,2.06-.9v.6a.21.21,0,0,1,0,.12.24.24,0,0,1-.09.06l-1,.37-.27.09.14,0,.14.05,1,.33s.06,0,.09.07a.2.2,0,0,1,0,.11Z"/><rect class="cls-3" x="166.04" y="241.98" width="68.38" height="64.38" rx="4.41"/><g id="Group_807-4" data-name="Group 807"><g id="Group_806-4" data-name="Group 806"><g id="Path_951-4" data-name="Path 951"><path class="cls-2" d="M94.09,249.16a16.58,16.58,0,0,0-11.54,20.41h0c2,7.18,17.17,20.57,22.64,25.3a1.72,1.72,0,0,0,2.44-.14,1.7,1.7,0,0,0,.37-.67c2.3-6.88,8.44-26.19,6.44-33.37a16.48,16.48,0,0,0-20.22-11.58l-.13,0m6.07,22a6.07,6.07,0,1,1,4.22-7.47h0a6.09,6.09,0,0,1-4.22,7.47"/></g></g><g id="Ellipse_71-4" data-name="Ellipse 71"><ellipse class="cls-2" cx="105.04" cy="302.13" rx="9.84" ry="2.22"/></g><g id="Path_952-4" data-name="Path 952" class="cls-4"><path class="cls-2" d="M100.46,271c-.08,0-.22.08-.3.08a6.07,6.07,0,0,1-3.26-11.69,6,6,0,0,1,5.55,1.26l2.15-10.88a17,17,0,0,0-10.51-.59,16.58,16.58,0,0,0-11.54,20.41h0c1.33,4.74,8.44,12.28,14.65,18.13Z"/></g></g><g id="Group_808-3" data-name="Group 808"><g id="Group_805-3" data-name="Group 805"><g id="Path_943-3" data-name="Path 943"><path class="cls-3" d="M52.49,48.36l3-7.47H59L53.7,53.18H51.22L46.05,40.89h3.47Z"/></g><g id="Path_944-3" data-name="Path 944"><path class="cls-3" d="M62.94,53.18H59.75V40.89h3.19Z"/></g><g id="Path_945-3" data-name="Path 945"><path class="cls-3" d="M64.38,40.89h3.19l5.85,7.51h0V40.89h3.19V53.18H73.46l-5.85-7.53h0v7.53H64.38Z"/></g><g id="Path_946-3" data-name="Path 946"><path class="cls-3" d="M77.88,40.89h4.9c2.65,0,4.47,1.23,4.47,4s-1.58,4.17-4.36,4.17H81.07v4.08H77.88Zm3.21,5.65h.54c1.15,0,2.31,0,2.31-1.49s-1.07-1.58-2.31-1.58h-.54Z"/></g><g id="Path_947-3" data-name="Path 947"><path class="cls-3" d="M101.52,46.8a6.81,6.81,0,0,1-13.61,0c0-3.71,3.27-6.31,6.8-6.31A6.55,6.55,0,0,1,101.52,46.8Zm-10.28,0a3.48,3.48,0,0,0,7,.4v-.4a3.48,3.48,0,0,0-7,0Z"/></g><g id="Path_948-3" data-name="Path 948"><path class="cls-3" d="M105.67,53.18h-3.19V40.89h3.19Z"/></g><g id="Path_949-3" data-name="Path 949"><path class="cls-3" d="M107,40.89h3.21l5.85,7.51h0V40.89h3.19V53.18h-3.19l-5.85-7.53h0v7.53h-3.19V40.89Z"/></g><g id="Path_950-3" data-name="Path 950"><path class="cls-3" d="M126.16,53.18H123V43.59h-2.64v-2.7h8.48v2.7h-2.65Z"/></g></g><g id="Group_807-5" data-name="Group 807"><g id="Group_806-5" data-name="Group 806"><g id="Path_951-5" data-name="Path 951"><path class="cls-3" d="M38.06,38.55a4.52,4.52,0,0,0-3.15,5.57h0c.54,2,4.68,5.61,6.17,6.9a.47.47,0,0,0,.67,0,.4.4,0,0,0,.1-.18c.63-1.88,2.3-7.15,1.76-9.1a4.5,4.5,0,0,0-5.52-3.16h0m1.65,6a1.66,1.66,0,1,1,1.15-2h0a1.66,1.66,0,0,1-1.15,2"/></g></g><g id="Ellipse_71-5" data-name="Ellipse 71"><ellipse class="cls-3" cx="41.04" cy="53" rx="2.68" ry="0.61"/></g><g id="Path_952-5" data-name="Path 952" class="cls-4"><path class="cls-3" d="M39.79,44.5h0a1.66,1.66,0,1,1-1-3.17,1.63,1.63,0,0,1,1.52.35l.58-3a4.66,4.66,0,0,0-5.41,1.55,4.32,4.32,0,0,0-.62,3.81l0,0c.36,1.29,2.3,3.35,4,4.94Z"/></g></g></g><path class="cls-3" d="M36.75,31.6a3.08,3.08,0,0,1,1,.13,1.88,1.88,0,0,1,.67.37,1.4,1.4,0,0,1,.38.55,1.8,1.8,0,0,1,.13.69,2.11,2.11,0,0,1-.13.73,1.56,1.56,0,0,1-.39.58,2,2,0,0,1-.67.37,3.05,3.05,0,0,1-1,.13H36.1v1.79H34.86V31.6Zm0,2.62a.78.78,0,0,0,.91-.88A.88.88,0,0,0,37.6,33a.63.63,0,0,0-.16-.26.82.82,0,0,0-.29-.17,1.16,1.16,0,0,0-.4-.06H36.1v1.7Z"/><path class="cls-3" d="M41,33.08a2.22,2.22,0,0,1,.79.13,1.77,1.77,0,0,1,.61.39,1.72,1.72,0,0,1,.39.62,2.09,2.09,0,0,1,.14.81,2.17,2.17,0,0,1-.14.82,1.72,1.72,0,0,1-.39.62,1.77,1.77,0,0,1-.61.39A2.22,2.22,0,0,1,41,37a2.28,2.28,0,0,1-.8-.14,1.77,1.77,0,0,1-.61-.39,1.74,1.74,0,0,1-.4-.62,2.17,2.17,0,0,1-.14-.82,2.09,2.09,0,0,1,.14-.81,1.74,1.74,0,0,1,.4-.62,1.77,1.77,0,0,1,.61-.39A2.28,2.28,0,0,1,41,33.08Zm0,3.07a.67.67,0,0,0,.58-.27,1.6,1.6,0,0,0,.18-.85,1.53,1.53,0,0,0-.18-.83.75.75,0,0,0-1.17,0,1.43,1.43,0,0,0-.19.83,1.51,1.51,0,0,0,.19.85A.66.66,0,0,0,41,36.15Z"/><path class="cls-3" d="M49,33.14l-1.18,3.8h-.92a.19.19,0,0,1-.13,0,.3.3,0,0,1-.08-.14l-.54-1.9a2.33,2.33,0,0,1-.07-.25l-.06-.25L46,34.6a2.5,2.5,0,0,1-.07.26l-.55,1.89a.24.24,0,0,1-.24.19h-.88l-1.18-3.8H44a.31.31,0,0,1,.2,0,.29.29,0,0,1,.11.14L44.67,35c0,.13.06.25.09.37s.05.25.06.37c0-.12.07-.25.11-.37S45,35.17,45,35l.48-1.71a.25.25,0,0,1,.11-.14.31.31,0,0,1,.19-.06h.5a.35.35,0,0,1,.21.06.3.3,0,0,1,.11.14L47.09,35c0,.13.08.25.11.38s.07.24.1.37c0-.13,0-.25.07-.37l.09-.38.4-1.71a.36.36,0,0,1,.11-.14.32.32,0,0,1,.19,0Z"/><path class="cls-3" d="M50.3,35.24a1.06,1.06,0,0,0,.29.69.87.87,0,0,0,.6.22,1.06,1.06,0,0,0,.34,0,1.56,1.56,0,0,0,.26-.11l.2-.1a.37.37,0,0,1,.2,0,.24.24,0,0,1,.21.1l.33.4a1.63,1.63,0,0,1-.38.33,2,2,0,0,1-.42.2,2.23,2.23,0,0,1-.43.1l-.41,0a2.27,2.27,0,0,1-.75-.13,1.77,1.77,0,0,1-.61-.39,1.83,1.83,0,0,1-.42-.64,2.4,2.4,0,0,1-.15-.89,2.18,2.18,0,0,1,.13-.72,1.83,1.83,0,0,1,1-1,1.94,1.94,0,0,1,.78-.15,2.17,2.17,0,0,1,.69.11,1.53,1.53,0,0,1,.54.35,1.44,1.44,0,0,1,.35.54,1.92,1.92,0,0,1,.13.74c0,.08,0,.15,0,.21a.5.5,0,0,1,0,.13.16.16,0,0,1-.08.06l-.13,0Zm1.43-.66a.75.75,0,0,0,0-.26.55.55,0,0,0-.11-.23.6.6,0,0,0-.21-.17.71.71,0,0,0-.31-.06.65.65,0,0,0-.5.19.91.91,0,0,0-.25.53Z"/><path class="cls-3" d="M54.38,33.72a1.76,1.76,0,0,1,.4-.48.85.85,0,0,1,.53-.18.7.7,0,0,1,.42.12l-.07.84a.23.23,0,0,1-.07.11.16.16,0,0,1-.11,0H55.3l-.1,0h-.1a.58.58,0,0,0-.4.13,1,1,0,0,0-.25.37v2.31H53.32v-3.8h.81a.31.31,0,0,1,.1.05.28.28,0,0,1,.06.08l0,.12Z"/><path class="cls-3" d="M57,35.24a1.11,1.11,0,0,0,.29.69.89.89,0,0,0,.61.22,1.16,1.16,0,0,0,.34,0l.25-.11.21-.1a.34.34,0,0,1,.19,0,.24.24,0,0,1,.21.1l.33.4a1.45,1.45,0,0,1-.38.33,2,2,0,0,1-.42.2,2.07,2.07,0,0,1-.43.1l-.41,0a2.36,2.36,0,0,1-.75-.13,1.87,1.87,0,0,1-.61-.39,1.81,1.81,0,0,1-.41-.64,2.4,2.4,0,0,1-.15-.89,2,2,0,0,1,.13-.72,1.77,1.77,0,0,1,1-1,1.94,1.94,0,0,1,.78-.15,2.12,2.12,0,0,1,.69.11,1.53,1.53,0,0,1,.54.35,1.6,1.6,0,0,1,.36.54,2.13,2.13,0,0,1,.12.74,1.34,1.34,0,0,1,0,.21.5.5,0,0,1,0,.13.16.16,0,0,1-.08.06l-.13,0Zm1.43-.66a1.09,1.09,0,0,0,0-.26.56.56,0,0,0-.12-.23.67.67,0,0,0-.2-.17.76.76,0,0,0-.32-.06.65.65,0,0,0-.5.19,1,1,0,0,0-.24.53Z"/><path class="cls-3" d="M63.44,31.45v5.49h-.7a.27.27,0,0,1-.28-.19l-.09-.29a1.7,1.7,0,0,1-.24.22,1.78,1.78,0,0,1-.27.17,1.42,1.42,0,0,1-.31.11,2,2,0,0,1-.36,0,1.15,1.15,0,0,1-.55-.14,1.21,1.21,0,0,1-.44-.38,1.91,1.91,0,0,1-.28-.61,2.91,2.91,0,0,1-.11-.82,2.52,2.52,0,0,1,.12-.79,2.1,2.1,0,0,1,.33-.63,1.51,1.51,0,0,1,.52-.42,1.45,1.45,0,0,1,.66-.15,1.24,1.24,0,0,1,.5.09,1.39,1.39,0,0,1,.37.22V31.45Zm-1.13,2.71A.64.64,0,0,0,62,34a.87.87,0,0,0-.32-.06.72.72,0,0,0-.29.06.62.62,0,0,0-.23.2,1.22,1.22,0,0,0-.15.36,2.07,2.07,0,0,0,0,.53,2.51,2.51,0,0,0,0,.51,1.27,1.27,0,0,0,.12.33.64.64,0,0,0,.19.18.66.66,0,0,0,.25,0,.75.75,0,0,0,.22,0L62,36a.76.76,0,0,0,.16-.11,1.17,1.17,0,0,0,.15-.16Z"/><path class="cls-3" d="M67,33.54a2.21,2.21,0,0,1,.48-.34,1.41,1.41,0,0,1,.59-.12,1.24,1.24,0,0,1,.58.13,1.29,1.29,0,0,1,.46.38,1.65,1.65,0,0,1,.28.58,2.66,2.66,0,0,1,.1.77,2.76,2.76,0,0,1-.11.84,2.09,2.09,0,0,1-.33.65,1.61,1.61,0,0,1-.52.42,1.38,1.38,0,0,1-.65.15,1,1,0,0,1-.31,0,1.06,1.06,0,0,1-.25-.09,1.53,1.53,0,0,1-.21-.14L67,36.54l0,.19a.27.27,0,0,1-.09.16.35.35,0,0,1-.18,0h-.75V31.45H67Zm0,2.36a.73.73,0,0,0,.28.2.8.8,0,0,0,.3.06.73.73,0,0,0,.3-.06.55.55,0,0,0,.23-.2,1,1,0,0,0,.16-.36,2.9,2.9,0,0,0,0-.56,2.21,2.21,0,0,0,0-.48.91.91,0,0,0-.13-.33A.49.49,0,0,0,68,34a.64.64,0,0,0-.28-.06.69.69,0,0,0-.36.09,1.09,1.09,0,0,0-.31.27Z"/><path class="cls-3" d="M73.61,33.14l-2,4.78a.46.46,0,0,1-.12.17.39.39,0,0,1-.24,0h-.85l.73-1.54-1.51-3.46h1a.34.34,0,0,1,.2,0,.36.36,0,0,1,.11.14L71.52,35a2.44,2.44,0,0,1,.14.46c0-.08.06-.16.08-.23l.09-.23.56-1.64a.39.39,0,0,1,.12-.14.31.31,0,0,1,.18,0Z"/><rect class="cls-3" x="133.01" y="31.12" width="95.06" height="99.33" rx="4.41"/><rect class="cls-3" x="133.01" y="31.12" width="95.06" height="99.33" rx="4.41"/><path class="cls-2" d="M221,134.35a3,3,0,0,1-.36,1.66,1.23,1.23,0,0,1-1.1.54,1.2,1.2,0,0,1-1.08-.56,3,3,0,0,1-.37-1.64,3.07,3.07,0,0,1,.36-1.67,1.35,1.35,0,0,1,2.18,0A3,3,0,0,1,221,134.35Zm-2.21,0a3.1,3.1,0,0,0,.18,1.25.63.63,0,0,0,1.15,0,3.16,3.16,0,0,0,.18-1.25,3.11,3.11,0,0,0-.18-1.24.62.62,0,0,0-1.15,0A3.13,3.13,0,0,0,218.82,134.35Z"/><path class="cls-2" d="M224.45,136.49h-2.9V136l1.1-1.11a7.08,7.08,0,0,0,.65-.71,1.72,1.72,0,0,0,.24-.39,1.09,1.09,0,0,0,.07-.4.61.61,0,0,0-.17-.45.65.65,0,0,0-.49-.17,1.27,1.27,0,0,0-.47.09,2,2,0,0,0-.53.33l-.38-.46a2.28,2.28,0,0,1,.7-.42,1.88,1.88,0,0,1,.72-.13,1.39,1.39,0,0,1,.95.31,1.06,1.06,0,0,1,.36.84,1.45,1.45,0,0,1-.1.55,2.39,2.39,0,0,1-.32.54,7.4,7.4,0,0,1-.72.75l-.74.72v0h2Z"/><rect class="cls-3" x="31.25" y="112.01" width="98.26" height="18.44" rx="4.5"/><path class="cls-3" d="M36.77,64.16a1.89,1.89,0,0,1-1.49-.57,2.91,2.91,0,0,1,0-3.32,2,2,0,0,1,1.54-.59,2.85,2.85,0,0,1,1.23.26l-.28.73a2.7,2.7,0,0,0-1-.22c-.74,0-1.12.49-1.12,1.49A1.84,1.84,0,0,0,36,63a1,1,0,0,0,.82.36,2.36,2.36,0,0,0,1.16-.3v.8a2,2,0,0,1-.52.21A3.37,3.37,0,0,1,36.77,64.16Z"/><path class="cls-3" d="M41.18,64.16a1.54,1.54,0,0,1-1.28-.59h0c0,.36,0,.58,0,.66V66H39V59.76h.74l.13.58h0a1.44,1.44,0,0,1,1.29-.66,1.5,1.5,0,0,1,1.26.59,3.23,3.23,0,0,1,0,3.29A1.52,1.52,0,0,1,41.18,64.16ZM41,60.43a.94.94,0,0,0-.79.32,1.67,1.67,0,0,0-.26,1v.13a2,2,0,0,0,.25,1.14.93.93,0,0,0,.82.36A.82.82,0,0,0,41.7,63a2.54,2.54,0,0,0,0-2.22A.87.87,0,0,0,41,60.43Z"/><path class="cls-3" d="M47.77,64.08h-.92V61.42a1.17,1.17,0,0,0-.2-.74.77.77,0,0,0-.64-.25,1,1,0,0,0-.85.35,1.9,1.9,0,0,0-.27,1.16v2.14H44V58h.92v1.55a7.61,7.61,0,0,1,0,.79h.06a1.36,1.36,0,0,1,.52-.49,1.73,1.73,0,0,1,.78-.17,1.39,1.39,0,0,1,1.57,1.58Z"/><path class="cls-3" d="M51.75,64.08l-.18-.6h0a1.9,1.9,0,0,1-.63.54,2.07,2.07,0,0,1-.81.14,1.38,1.38,0,0,1-1-.35,1.26,1.26,0,0,1-.36-1,1.16,1.16,0,0,1,.5-1,2.9,2.9,0,0,1,1.51-.37l.75,0v-.23a.87.87,0,0,0-.2-.62.75.75,0,0,0-.6-.2,2.18,2.18,0,0,0-.63.09,5.17,5.17,0,0,0-.59.23l-.29-.65a2.76,2.76,0,0,1,.76-.28,3.29,3.29,0,0,1,.79-.1A1.88,1.88,0,0,1,52,60a1.41,1.41,0,0,1,.42,1.13v2.91Zm-1.37-.62a1.17,1.17,0,0,0,.81-.28,1,1,0,0,0,.3-.79V62l-.55,0a2,2,0,0,0-.95.22.66.66,0,0,0-.29.59.57.57,0,0,0,.17.45A.76.76,0,0,0,50.38,63.46Z"/><path class="cls-3" d="M57.49,64.08h-.92V61.42a1.17,1.17,0,0,0-.2-.74.77.77,0,0,0-.64-.25,1,1,0,0,0-.85.35,1.89,1.89,0,0,0-.27,1.15v2.15h-.92V59.76h.72l.13.57h0a1.26,1.26,0,0,1,.56-.48,1.88,1.88,0,0,1,.8-.17,1.39,1.39,0,0,1,1.55,1.58Z"/><path class="cls-3" d="M60.22,64.16A1.52,1.52,0,0,1,59,63.57a3.22,3.22,0,0,1,0-3.3,1.52,1.52,0,0,1,1.27-.59,1.5,1.5,0,0,1,1.3.63h0a6,6,0,0,1-.06-.73V58h.92v6.08h-.72l-.16-.57h0A1.49,1.49,0,0,1,60.22,64.16Zm.25-.74a1,1,0,0,0,.82-.32,1.66,1.66,0,0,0,.27-1v-.12a1.9,1.9,0,0,0-.27-1.16,1,1,0,0,0-.83-.35.83.83,0,0,0-.74.39,2,2,0,0,0-.27,1.12,2,2,0,0,0,.26,1.1A.86.86,0,0,0,60.47,63.42Z"/><path class="cls-3" d="M67.55,64.08h-.92V61.42a1.17,1.17,0,0,0-.2-.74.76.76,0,0,0-.64-.25,1,1,0,0,0-.85.35,1.9,1.9,0,0,0-.27,1.16v2.14h-.92V58h.92v1.55a7.61,7.61,0,0,1,0,.79h.06a1.36,1.36,0,0,1,.52-.49,1.79,1.79,0,0,1,.78-.17,1.39,1.39,0,0,1,1.57,1.58Z"/><path class="cls-3" d="M70.72,64.16a2.1,2.1,0,0,1-1.58-.59A2.22,2.22,0,0,1,68.57,62a2.45,2.45,0,0,1,.53-1.66,1.8,1.8,0,0,1,1.45-.61,1.76,1.76,0,0,1,1.35.52,2,2,0,0,1,.5,1.43v.5H69.52a1.35,1.35,0,0,0,.34,1,1.15,1.15,0,0,0,.9.34,3.23,3.23,0,0,0,.71-.07,4,4,0,0,0,.71-.24v.75a2.84,2.84,0,0,1-.68.22A3.71,3.71,0,0,1,70.72,64.16Zm-.17-3.78a.93.93,0,0,0-.7.27,1.36,1.36,0,0,0-.32.81h2a1.22,1.22,0,0,0-.25-.81A.9.9,0,0,0,70.55,60.38Z"/><path class="cls-3" d="M74.36,64.08h-.92V58h.92Z"/><path class="cls-3" d="M77.13,64.16a1.53,1.53,0,0,1-1.27-.59,3.22,3.22,0,0,1,0-3.3,1.53,1.53,0,0,1,1.27-.59,1.5,1.5,0,0,1,1.3.63h0a4.71,4.71,0,0,1-.07-.73V58h.92v6.08h-.72l-.16-.57h0A1.47,1.47,0,0,1,77.13,64.16Zm.24-.74a1,1,0,0,0,.83-.32,1.67,1.67,0,0,0,.26-1v-.12a2,2,0,0,0-.26-1.16,1,1,0,0,0-.84-.35.83.83,0,0,0-.74.39,2,2,0,0,0-.26,1.12,2,2,0,0,0,.25,1.1A.86.86,0,0,0,77.37,63.42Z"/><path class="cls-3" d="M80.52,63.59a.62.62,0,0,1,.15-.44A.56.56,0,0,1,81.1,63a.54.54,0,0,1,.43.16.61.61,0,0,1,.15.43.62.62,0,0,1-.15.44.56.56,0,0,1-.43.16.53.53,0,0,1-.43-.16A.6.6,0,0,1,80.52,63.59Z"/><path class="cls-3" d="M84.6,64.16a1.89,1.89,0,0,1-1.49-.57,2.41,2.41,0,0,1-.51-1.65,2.38,2.38,0,0,1,.53-1.67,2,2,0,0,1,1.54-.59,2.85,2.85,0,0,1,1.23.26l-.28.73a2.79,2.79,0,0,0-1-.22c-.75,0-1.12.49-1.12,1.49A1.77,1.77,0,0,0,83.82,63a1,1,0,0,0,.82.36,2.39,2.39,0,0,0,1.16-.3v.8a2,2,0,0,1-.53.21A3.2,3.2,0,0,1,84.6,64.16Z"/><path class="cls-3" d="M90.65,61.91a2.3,2.3,0,0,1-.55,1.65,1.92,1.92,0,0,1-1.51.6,2.1,2.1,0,0,1-1.07-.27,1.81,1.81,0,0,1-.71-.79,2.64,2.64,0,0,1-.25-1.19,2.35,2.35,0,0,1,.54-1.64,1.94,1.94,0,0,1,1.51-.59,1.89,1.89,0,0,1,1.49.61A2.34,2.34,0,0,1,90.65,61.91Zm-3.15,0q0,1.5,1.11,1.5c.73,0,1.09-.5,1.09-1.5s-.37-1.48-1.1-1.48a.94.94,0,0,0-.84.38A2,2,0,0,0,87.5,61.91Z"/><path class="cls-3" d="M95.34,64.08h-.92V61.42a1.17,1.17,0,0,0-.19-.74.67.67,0,0,0-.58-.25.89.89,0,0,0-.78.35,2,2,0,0,0-.25,1.15v2.15H91.7V59.76h.72l.13.57h0a1.15,1.15,0,0,1,.52-.48,1.69,1.69,0,0,1,.75-.17,1.33,1.33,0,0,1,1.32.68h.06a1.37,1.37,0,0,1,.54-.5,1.71,1.71,0,0,1,.8-.18,1.44,1.44,0,0,1,1.12.39,1.71,1.71,0,0,1,.36,1.19v2.82h-.92V61.42a1.17,1.17,0,0,0-.19-.74.68.68,0,0,0-.59-.25.9.9,0,0,0-.78.34,1.67,1.67,0,0,0-.25,1Z"/><rect class="cls-3" x="166.1" y="388.94" width="68.38" height="64.38" rx="4.41"/><rect class="cls-3" x="58.1" y="388.94" width="68.38" height="64.38" rx="4.41"/><rect class="cls-3" x="166.1" y="313.93" width="68.38" height="64.38" rx="4.41"/><rect class="cls-3" x="166.1" y="242.67" width="68.38" height="64.38" rx="4.41"/><rect class="cls-3" x="31.25" y="90.14" width="98.26" height="18.44" rx="4.5"/><rect class="cls-3" x="31.25" y="68.28" width="98.26" height="18.44" rx="4.5"/></g><g id="Cut"><rect class="cls-5" x="129.51" y="384.56" width="108" height="72" rx="4.5" transform="translate(367.02 841.12) rotate(180)"/><rect class="cls-6" x="21.51" y="310.24" width="216" height="72" rx="4.5" transform="translate(259.02 692.49) rotate(180)"/><rect class="cls-7" x="21.51" y="238.24" width="216" height="72" rx="4.5" transform="translate(259.02 548.49) rotate(180)"/><rect class="cls-8" x="21.51" y="22.24" width="216" height="216" rx="4.5" transform="translate(259.02 260.49) rotate(180)"/><rect class="cls-9" x="21.51" y="384.56" width="108" height="72" rx="4.5" transform="translate(151.02 841.12) rotate(180)"/></g></svg>