<?xml version="1.0" encoding="utf-8"?>
<!-- Generator: Adobe Illustrator 24.0.1, SVG Export Plug-In . SVG Version: 6.00 Build 0)  -->
<svg version="1.1" xmlns="http://www.w3.org/2000/svg" xmlns:xlink="http://www.w3.org/1999/xlink" x="0px" y="0px"
	 viewBox="0 0 259.02 477.08" style="enable-background:new 0 0 259.02 477.08;" xml:space="preserve">
<style type="text/css">
	.st0{fill:#FFFFFF;}
	.st1{fill:#D9D8D6;}
	.st2{opacity:0.2;enable-background:new    ;}
	.st3{fill:#FFFFFF;stroke:#D9D8D6;stroke-miterlimit:10;}
	.st4{fill:none;stroke:url(#SVGID_1_);stroke-width:0.5;stroke-miterlimit:10;}
	.st5{fill:none;stroke:url(#SVGID_2_);stroke-width:0.5;stroke-miterlimit:10;}
	.st6{fill:none;stroke:url(#SVGID_3_);stroke-width:0.5;stroke-miterlimit:10;}
	.st7{fill:none;stroke:url(#SVGID_4_);stroke-width:0.5;stroke-miterlimit:10;}
	.st8{fill:none;stroke:url(#SVGID_5_);stroke-width:0.5;stroke-miterlimit:10;}
</style>
<g id="Artwork">
	<path class="st0" d="M246.51,26.74c0-7.44-6.06-13.5-13.5-13.5h-207c-7.44,0-13.5,6.06-13.5,13.5v425.32
		c0,7.44,6.06,13.5,13.5,13.5h207c7.44,0,13.5-6.06,13.5-13.5V26.74z"/>
	<g>
		<polygon class="st1" points="109.06,13.24 169.06,13.24 83.39,237.86 23.39,237.86 		"/>
	</g>
	<g>
		<polygon class="st1" points="199.26,13.24 229.26,13.24 143.59,237.86 113.59,237.86 		"/>
	</g>
	<g>
		<path class="st0" d="M62.45,388.94h59.56c2.43,0,4.41,1.97,4.41,4.41v55.56c0,2.43-1.97,4.41-4.41,4.41H62.45
			c-2.43,0-4.41-1.97-4.41-4.41v-55.56C58.04,390.91,60.01,388.94,62.45,388.94z"/>
	</g>
	<g>
		<path class="st0" d="M170.45,388.94h59.56c2.43,0,4.41,1.97,4.41,4.41v55.56c0,2.43-1.97,4.41-4.41,4.41h-59.56
			c-2.43,0-4.41-1.97-4.41-4.41v-55.56C166.04,390.91,168.01,388.94,170.45,388.94z"/>
	</g>
	<g>
		<path class="st0" d="M170.45,313.98h59.56c2.43,0,4.41,1.97,4.41,4.41v55.56c0,2.43-1.97,4.41-4.41,4.41h-59.56
			c-2.43,0-4.41-1.97-4.41-4.41v-55.56C166.04,315.96,168.01,313.98,170.45,313.98z"/>
	</g>
	<g id="Group_807_30_" transform="translate(-0.017 -0.017)">
		<g id="Group_806_30_" transform="translate(0 0)">
			<g id="Path_951_30_">
				<path class="st1" d="M94.11,321.18c-8.82,2.45-13.99,11.59-11.54,20.41c0,0,0,0,0,0.01c2,7.18,17.16,20.57,22.64,25.3
					c0.71,0.64,1.81,0.57,2.44-0.14c0.17-0.19,0.3-0.42,0.37-0.67c2.29-6.88,8.43-26.19,6.44-33.37
					c-2.39-8.78-11.44-13.96-20.22-11.58C94.2,321.15,94.15,321.17,94.11,321.18 M100.18,343.15c-3.23,0.9-6.57-0.99-7.47-4.22
					s0.99-6.57,4.22-7.47s6.57,0.99,7.47,4.22c0,0,0,0,0,0C105.28,338.9,103.4,342.24,100.18,343.15"/>
			</g>
		</g>
		<g id="Ellipse_71_30_">
			<ellipse class="st1" cx="105.06" cy="374.15" rx="9.84" ry="2.22"/>
		</g>
		<g id="Path_952_30_" class="st2">
			<path class="st1" d="M100.47,343c-0.07,0-0.22,0.07-0.3,0.07c-3.23,0.9-6.57-0.99-7.47-4.22c-0.9-3.23,0.99-6.57,4.22-7.47
				c1.94-0.54,4.03-0.07,5.55,1.26l2.15-10.87c-3.35-1.31-7.03-1.52-10.5-0.59c-8.83,2.45-13.99,11.59-11.55,20.41
				c0,0,0,0.01,0,0.01c1.33,4.73,8.43,12.28,14.65,18.13L100.47,343z"/>
		</g>
	</g>
	<g>
		<g id="Group_808_18_" transform="translate(-1373.983 1149.017)">
			<g id="Group_805_18_" transform="translate(23.023 4.268)">
				<g id="Path_943_18_">
					<path d="M1502.5-896.72l4.43,1.77v2.06l-7.29-3.11v-1.47l7.29-3.07v2.06L1502.5-896.72z"/>
				</g>
				<g id="Path_944_18_">
					<path d="M1499.64-890.52v-1.89h7.29v1.89H1499.64z"/>
				</g>
				<g id="Path_945_18_">
					<path d="M1506.93-889.67v1.89l-4.45,3.47v0.02h4.45v1.89h-7.29v-1.89l4.47-3.47v-0.02h-4.47v-1.89H1506.93z"/>
				</g>
				<g id="Path_946_18_">
					<path d="M1506.93-881.66v2.91c0,1.57-0.73,2.65-2.39,2.65c-1.72,0-2.48-0.93-2.48-2.59v-1.08h-2.42v-1.89L1506.93-881.66z
						 M1503.58-879.76v0.32c0,0.68,0,1.37,0.89,1.37c0.92,0,0.93-0.63,0.93-1.37v-0.32H1503.58z"/>
				</g>
				<g id="Path_947_18_">
					<path d="M1503.42-867.64c-2.36,0-4.02-1.69-4.02-4.04s1.66-4.04,4.02-4.04c2.2,0,3.75,1.94,3.75,4.04
						C1507.17-869.57,1505.62-867.64,1503.42-867.64z M1503.41-873.73c-1.14-0.06-2.11,0.8-2.18,1.94c-0.06,1.14,0.8,2.11,1.94,2.18
						c0.08,0,0.16,0,0.23,0c1.14-0.08,2-1.06,1.92-2.2C1505.26-872.84,1504.44-873.66,1503.41-873.73z"/>
				</g>
				<g id="Path_948_18_">
					<path d="M1499.64-865.17v-1.89h7.29v1.89H1499.64z"/>
				</g>
				<g id="Path_949_18_">
					<path d="M1506.93-864.37v1.9l-4.45,3.47v0.02h4.45v1.89h-7.29v-1.89l4.47-3.47v-0.02h-4.47v-1.89h7.29V-864.37z"/>
				</g>
				<g id="Path_950_18_">
					<path d="M1499.64-853.02v-1.89h5.69v-1.57h1.6v5.03h-1.6v-1.57H1499.64z"/>
				</g>
			</g>
			<g id="Group_807_29_" transform="translate(-0.017 -0.017)">
				<g id="Group_806_29_" transform="translate(0 0)">
					<g id="Path_951_29_">
						<path d="M1531.36-901c-0.4-1.43-1.88-2.26-3.3-1.87c0,0,0,0,0,0c-1.16,0.32-3.33,2.78-4.1,3.66c-0.1,0.12-0.09,0.29,0.02,0.39
							c0.03,0.03,0.07,0.05,0.11,0.06c1.11,0.37,4.24,1.37,5.4,1.04c1.42-0.39,2.26-1.85,1.87-3.27
							C1531.36-900.98,1531.36-900.99,1531.36-901 M1527.8-900.02c-0.15-0.52,0.16-1.06,0.68-1.21c0.52-0.15,1.06,0.16,1.21,0.68
							c0.15,0.52-0.16,1.06-0.68,1.21l0,0C1528.49-899.19,1527.95-899.5,1527.8-900.02"/>
					</g>
				</g>
				<g id="Ellipse_71_29_">
					<ellipse cx="1522.78" cy="-899.23" rx="0.36" ry="1.59"/>
				</g>
				<g id="Path_952_29_" class="st2">
					<path d="M1527.83-899.97c0-0.01-0.01-0.04-0.01-0.05c-0.15-0.52,0.16-1.06,0.68-1.21c0.52-0.15,1.06,0.16,1.21,0.68
						c0.09,0.31,0.01,0.65-0.2,0.9l1.76,0.35c0.21-0.54,0.25-1.14,0.1-1.7c-0.4-1.43-1.88-2.26-3.3-1.87c0,0,0,0,0,0
						c-0.77,0.22-1.99,1.37-2.93,2.37L1527.83-899.97z"/>
				</g>
			</g>
		</g>
		<g>
			<path d="M161.48,247.23c0,0.22-0.03,0.42-0.08,0.58c-0.05,0.16-0.13,0.29-0.22,0.4c-0.09,0.1-0.2,0.18-0.33,0.23
				c-0.13,0.05-0.26,0.07-0.41,0.07c-0.16,0-0.3-0.03-0.43-0.08c-0.13-0.05-0.25-0.13-0.34-0.23c-0.09-0.1-0.17-0.24-0.22-0.4
				c-0.05-0.16-0.08-0.35-0.08-0.57v-0.38h-1.06v-0.73h3.17V247.23z M159.93,247.23c0,0.19,0.05,0.33,0.14,0.41
				c0.09,0.08,0.22,0.13,0.38,0.13c0.07,0,0.14-0.01,0.2-0.03c0.06-0.02,0.11-0.05,0.15-0.1c0.04-0.04,0.08-0.1,0.1-0.17
				c0.02-0.07,0.03-0.15,0.03-0.24v-0.38h-1.01V247.23z"/>
			<path d="M160.61,249.75c0,0.17-0.03,0.33-0.08,0.47c-0.05,0.14-0.13,0.26-0.23,0.36c-0.1,0.1-0.22,0.18-0.36,0.23
				c-0.14,0.06-0.3,0.08-0.48,0.08c-0.18,0-0.34-0.03-0.49-0.08c-0.14-0.06-0.27-0.13-0.37-0.23c-0.1-0.1-0.18-0.22-0.23-0.36
				c-0.05-0.14-0.08-0.3-0.08-0.47c0-0.17,0.03-0.33,0.08-0.47c0.05-0.14,0.13-0.26,0.23-0.37c0.1-0.1,0.22-0.18,0.37-0.24
				c0.14-0.06,0.31-0.08,0.49-0.08c0.18,0,0.34,0.03,0.48,0.08s0.26,0.14,0.36,0.24c0.1,0.1,0.18,0.22,0.23,0.37
				C160.58,249.42,160.61,249.57,160.61,249.75z M158.78,249.75c0,0.16,0.05,0.27,0.16,0.34c0.11,0.07,0.28,0.11,0.5,0.11
				c0.22,0,0.39-0.04,0.5-0.11c0.11-0.07,0.16-0.19,0.16-0.34c0-0.16-0.05-0.28-0.16-0.35c-0.11-0.07-0.27-0.11-0.5-0.11
				c-0.22,0-0.39,0.04-0.5,0.11C158.84,249.47,158.78,249.59,158.78,249.75z"/>
			<path d="M160.57,254.51l-2.26-0.7v-0.55c0-0.03,0.01-0.05,0.03-0.07c0.02-0.02,0.05-0.04,0.09-0.05l1.12-0.32
				c0.05-0.02,0.1-0.03,0.15-0.04c0.05-0.01,0.1-0.02,0.15-0.03c-0.05-0.01-0.1-0.02-0.15-0.03c-0.05-0.01-0.1-0.03-0.15-0.04
				l-1.12-0.33c-0.08-0.02-0.11-0.07-0.11-0.14v-0.52l2.26-0.7v0.54c0,0.05-0.01,0.09-0.03,0.12c-0.02,0.03-0.05,0.05-0.08,0.07
				l-1.01,0.23c-0.08,0.02-0.15,0.04-0.22,0.05c-0.07,0.01-0.14,0.03-0.22,0.04c0.07,0.02,0.14,0.04,0.22,0.06
				c0.07,0.02,0.15,0.04,0.22,0.07l1.01,0.28c0.03,0.01,0.06,0.03,0.08,0.07c0.02,0.03,0.03,0.07,0.03,0.11v0.3
				c0,0.05-0.01,0.09-0.03,0.12c-0.02,0.03-0.05,0.05-0.08,0.07l-1.01,0.27c-0.08,0.02-0.15,0.04-0.22,0.06
				c-0.07,0.02-0.15,0.04-0.22,0.06c0.07,0.01,0.14,0.03,0.22,0.04c0.07,0.02,0.15,0.03,0.23,0.05l1.01,0.24
				c0.03,0.01,0.06,0.03,0.08,0.07c0.02,0.03,0.03,0.07,0.03,0.11V254.51z"/>
			<path d="M159.32,255.26c-0.19,0.02-0.32,0.08-0.41,0.17c-0.08,0.09-0.13,0.21-0.13,0.36c0,0.08,0.01,0.15,0.03,0.2
				c0.02,0.06,0.04,0.11,0.06,0.15c0.02,0.04,0.04,0.08,0.06,0.12c0.02,0.04,0.03,0.08,0.03,0.12c0,0.05-0.02,0.09-0.06,0.12
				l-0.24,0.2c-0.08-0.07-0.14-0.14-0.19-0.23c-0.05-0.08-0.09-0.16-0.12-0.25c-0.03-0.08-0.05-0.17-0.06-0.25
				c-0.01-0.09-0.02-0.17-0.02-0.24c0-0.16,0.03-0.31,0.08-0.44c0.05-0.14,0.13-0.26,0.23-0.36c0.1-0.1,0.23-0.19,0.38-0.25
				c0.15-0.06,0.33-0.09,0.53-0.09c0.15,0,0.29,0.03,0.43,0.08c0.14,0.05,0.25,0.13,0.35,0.22c0.1,0.1,0.18,0.21,0.24,0.35
				c0.06,0.14,0.09,0.29,0.09,0.46c0,0.15-0.02,0.29-0.07,0.41c-0.05,0.12-0.11,0.23-0.2,0.32c-0.09,0.09-0.2,0.16-0.33,0.21
				c-0.13,0.05-0.27,0.08-0.44,0.08c-0.05,0-0.09,0-0.12-0.01c-0.03,0-0.06-0.01-0.08-0.02c-0.02-0.01-0.03-0.03-0.04-0.05
				c-0.01-0.02-0.01-0.04-0.01-0.08V255.26z M159.71,256.11c0.05,0,0.11-0.01,0.16-0.02c0.05-0.01,0.1-0.04,0.14-0.07
				c0.04-0.03,0.07-0.07,0.1-0.12c0.02-0.05,0.04-0.11,0.04-0.18c0-0.13-0.04-0.23-0.11-0.3c-0.07-0.07-0.18-0.12-0.32-0.14V256.11z
				"/>
			<path d="M160.22,257.68c0.12,0.07,0.22,0.15,0.29,0.24c0.07,0.09,0.1,0.19,0.1,0.31c0,0.1-0.02,0.18-0.07,0.25l-0.5-0.04
				c-0.03-0.01-0.05-0.02-0.07-0.04c-0.01-0.02-0.02-0.04-0.02-0.07c0-0.01,0-0.03,0-0.05c0-0.02,0-0.04,0.01-0.06
				c0-0.02,0-0.04,0.01-0.06c0-0.02,0-0.04,0-0.06c0-0.1-0.03-0.18-0.08-0.24c-0.05-0.06-0.12-0.11-0.22-0.15h-1.37v-0.67h2.26v0.4
				c0,0.03,0,0.06-0.01,0.08c-0.01,0.02-0.01,0.04-0.03,0.06c-0.01,0.02-0.03,0.03-0.05,0.03c-0.02,0.01-0.05,0.02-0.07,0.02
				L160.22,257.68z"/>
			<path d="M159.32,259.23c-0.19,0.02-0.32,0.08-0.41,0.17c-0.08,0.09-0.13,0.21-0.13,0.36c0,0.08,0.01,0.15,0.03,0.2
				c0.02,0.06,0.04,0.11,0.06,0.15c0.02,0.04,0.04,0.08,0.06,0.12c0.02,0.04,0.03,0.08,0.03,0.12c0,0.05-0.02,0.09-0.06,0.12
				l-0.24,0.2c-0.08-0.07-0.14-0.14-0.19-0.23c-0.05-0.08-0.09-0.16-0.12-0.25c-0.03-0.08-0.05-0.17-0.06-0.25
				c-0.01-0.09-0.02-0.17-0.02-0.24c0-0.16,0.03-0.31,0.08-0.44c0.05-0.14,0.13-0.26,0.23-0.36c0.1-0.1,0.23-0.19,0.38-0.25
				c0.15-0.06,0.33-0.09,0.53-0.09c0.15,0,0.29,0.03,0.43,0.08c0.14,0.05,0.25,0.13,0.35,0.22c0.1,0.1,0.18,0.21,0.24,0.35
				c0.06,0.14,0.09,0.29,0.09,0.46c0,0.15-0.02,0.29-0.07,0.41c-0.05,0.12-0.11,0.23-0.2,0.32c-0.09,0.09-0.2,0.16-0.33,0.21
				c-0.13,0.05-0.27,0.08-0.44,0.08c-0.05,0-0.09,0-0.12-0.01c-0.03,0-0.06-0.01-0.08-0.02c-0.02-0.01-0.03-0.03-0.04-0.05
				c-0.01-0.02-0.01-0.04-0.01-0.08V259.23z M159.71,260.08c0.05,0,0.11-0.01,0.16-0.02c0.05-0.01,0.1-0.04,0.14-0.07
				c0.04-0.03,0.07-0.07,0.1-0.12c0.02-0.05,0.04-0.11,0.04-0.18c0-0.13-0.04-0.23-0.11-0.3c-0.07-0.07-0.18-0.12-0.32-0.14V260.08z
				"/>
			<path d="M161.57,263.06h-3.26v-0.42c0-0.08,0.04-0.14,0.11-0.17l0.17-0.05c-0.05-0.04-0.09-0.09-0.13-0.14
				c-0.04-0.05-0.07-0.1-0.1-0.16c-0.03-0.06-0.05-0.12-0.07-0.19c-0.02-0.07-0.02-0.14-0.02-0.21c0-0.12,0.03-0.23,0.08-0.33
				c0.05-0.1,0.13-0.19,0.23-0.26c0.1-0.07,0.22-0.13,0.36-0.17c0.14-0.04,0.31-0.06,0.49-0.06c0.17,0,0.32,0.02,0.47,0.07
				c0.14,0.05,0.27,0.11,0.37,0.2c0.11,0.08,0.19,0.19,0.25,0.31c0.06,0.12,0.09,0.25,0.09,0.39c0,0.12-0.02,0.22-0.05,0.3
				c-0.03,0.08-0.08,0.15-0.13,0.22h1.14V263.06z M159.97,262.39c0.06-0.05,0.1-0.11,0.12-0.17c0.02-0.06,0.03-0.12,0.03-0.19
				c0-0.06-0.01-0.12-0.04-0.17s-0.06-0.1-0.12-0.14c-0.05-0.04-0.13-0.07-0.21-0.09c-0.09-0.02-0.19-0.03-0.32-0.03
				c-0.12,0-0.22,0.01-0.3,0.03c-0.08,0.02-0.15,0.04-0.2,0.07c-0.05,0.03-0.09,0.07-0.11,0.11c-0.02,0.04-0.03,0.09-0.03,0.15
				c0,0.05,0,0.09,0.01,0.13c0.01,0.04,0.02,0.08,0.04,0.11c0.02,0.03,0.04,0.06,0.07,0.09c0.03,0.03,0.06,0.06,0.09,0.09H159.97z"
				/>
			<path d="M160.33,265.2c0.08,0.09,0.15,0.18,0.2,0.29c0.05,0.1,0.08,0.22,0.08,0.35c0,0.13-0.03,0.24-0.08,0.35
				s-0.13,0.19-0.22,0.27c-0.1,0.07-0.21,0.13-0.35,0.17c-0.14,0.04-0.29,0.06-0.46,0.06c-0.18,0-0.35-0.02-0.5-0.07
				c-0.15-0.05-0.28-0.11-0.38-0.2c-0.11-0.08-0.19-0.19-0.25-0.3c-0.06-0.12-0.09-0.25-0.09-0.39c0-0.07,0.01-0.13,0.02-0.18
				c0.01-0.05,0.03-0.1,0.06-0.15c0.02-0.04,0.05-0.09,0.09-0.12c0.03-0.04,0.07-0.07,0.11-0.11l-0.11-0.02
				c-0.05-0.01-0.08-0.03-0.1-0.06c-0.02-0.03-0.03-0.06-0.03-0.1v-0.45h3.26v0.67H160.33z M158.93,265.2
				c-0.06,0.05-0.09,0.11-0.12,0.17c-0.02,0.06-0.03,0.12-0.03,0.18c0,0.06,0.01,0.12,0.04,0.18c0.02,0.05,0.06,0.1,0.12,0.14
				c0.05,0.04,0.13,0.07,0.22,0.09c0.09,0.02,0.2,0.03,0.33,0.03c0.11,0,0.21-0.01,0.29-0.03c0.08-0.02,0.14-0.04,0.19-0.07
				c0.05-0.03,0.09-0.07,0.11-0.12c0.02-0.05,0.03-0.1,0.03-0.17c0-0.08-0.02-0.15-0.05-0.22c-0.04-0.06-0.09-0.12-0.16-0.18H158.93
				z"/>
			<path d="M160.57,269.09l-2.84-1.2c-0.04-0.02-0.08-0.04-0.1-0.07c-0.02-0.03-0.03-0.08-0.03-0.14v-0.5l0.91,0.43l2.06-0.9v0.6
				c0,0.05-0.01,0.09-0.03,0.12c-0.02,0.03-0.05,0.05-0.08,0.06l-0.97,0.37c-0.09,0.03-0.18,0.06-0.27,0.08
				c0.05,0.02,0.09,0.03,0.14,0.05c0.05,0.02,0.09,0.03,0.14,0.05l0.97,0.33c0.03,0.01,0.06,0.04,0.08,0.07
				c0.02,0.03,0.03,0.07,0.03,0.11V269.09z"/>
		</g>
	</g>
	<g>
		<g id="Group_808_17_" transform="translate(-1373.983 1149.017)">
			<g id="Group_805_17_" transform="translate(23.023 4.268)">
				<g id="Path_943_17_">
					<path d="M1502.5-824.93l4.43,1.77v2.06l-7.29-3.11v-1.47l7.29-3.06v2.06L1502.5-824.93z"/>
				</g>
				<g id="Path_944_17_">
					<path d="M1499.64-818.73v-1.89h7.29v1.89H1499.64z"/>
				</g>
				<g id="Path_945_17_">
					<path d="M1506.93-817.88v1.89l-4.45,3.47v0.02h4.45v1.89h-7.29v-1.89l4.47-3.47v-0.02h-4.47v-1.89H1506.93z"/>
				</g>
				<g id="Path_946_17_">
					<path d="M1506.93-809.87v2.91c0,1.57-0.73,2.65-2.39,2.65c-1.72,0-2.48-0.93-2.48-2.59v-1.08h-2.42v-1.89L1506.93-809.87z
						 M1503.58-807.97v0.32c0,0.68,0,1.36,0.89,1.36c0.92,0,0.93-0.63,0.93-1.36v-0.32L1503.58-807.97z"/>
				</g>
				<g id="Path_947_17_">
					<path d="M1503.42-795.85c-2.36,0-4.02-1.69-4.02-4.03s1.66-4.03,4.02-4.03c2.2,0,3.75,1.94,3.75,4.03
						C1507.17-797.78,1505.62-795.85,1503.42-795.85z M1503.41-801.94c-1.14-0.06-2.11,0.8-2.18,1.94c-0.06,1.14,0.8,2.11,1.94,2.18
						c0.08,0,0.16,0,0.23,0c1.14-0.08,2-1.06,1.92-2.2C1505.26-801.05,1504.44-801.88,1503.41-801.94z"/>
				</g>
				<g id="Path_948_17_">
					<path d="M1499.64-793.38v-1.89h7.29v1.89H1499.64z"/>
				</g>
				<g id="Path_949_17_">
					<path d="M1506.93-792.58v1.9l-4.45,3.47v0.02h4.45v1.89h-7.29v-1.89l4.47-3.47v-0.02h-4.47v-1.89h7.29V-792.58z"/>
				</g>
				<g id="Path_950_17_">
					<path d="M1499.64-781.23v-1.89h5.69v-1.57h1.6v5.03h-1.6v-1.57H1499.64z"/>
				</g>
			</g>
			<g id="Group_807_28_" transform="translate(-0.017 -0.017)">
				<g id="Group_806_28_" transform="translate(0 0)">
					<g id="Path_951_28_">
						<path d="M1531.36-829.21c-0.4-1.43-1.88-2.26-3.3-1.87c0,0,0,0,0,0c-1.16,0.32-3.33,2.78-4.09,3.66
							c-0.1,0.12-0.09,0.29,0.02,0.39c0.03,0.03,0.07,0.05,0.11,0.06c1.11,0.37,4.24,1.36,5.4,1.04c1.42-0.39,2.26-1.85,1.87-3.27
							C1531.36-829.19,1531.36-829.2,1531.36-829.21 M1527.8-828.22c-0.15-0.52,0.16-1.06,0.68-1.21c0.52-0.15,1.06,0.16,1.21,0.68
							c0.15,0.52-0.16,1.06-0.68,1.21l0,0C1528.49-827.4,1527.95-827.7,1527.8-828.22"/>
					</g>
				</g>
				<g id="Ellipse_71_28_">
					<ellipse cx="1522.79" cy="-827.43" rx="0.36" ry="1.59"/>
				</g>
				<g id="Path_952_28_" class="st2">
					<path d="M1527.83-828.18c0-0.01-0.01-0.04-0.01-0.05c-0.15-0.52,0.16-1.06,0.68-1.21s1.06,0.16,1.21,0.68
						c0.09,0.31,0.01,0.65-0.2,0.9l1.76,0.35c0.21-0.54,0.25-1.14,0.1-1.7c-0.4-1.43-1.88-2.26-3.3-1.87c0,0,0,0,0,0
						c-0.77,0.22-1.99,1.36-2.93,2.37L1527.83-828.18z"/>
				</g>
			</g>
		</g>
		<g>
			<path d="M161.48,319.02c0,0.22-0.03,0.42-0.08,0.58c-0.05,0.16-0.13,0.29-0.22,0.4c-0.09,0.1-0.2,0.18-0.33,0.23
				c-0.13,0.05-0.26,0.07-0.41,0.07c-0.16,0-0.3-0.03-0.43-0.08c-0.13-0.05-0.25-0.13-0.34-0.23c-0.09-0.1-0.17-0.24-0.22-0.4
				c-0.05-0.16-0.08-0.35-0.08-0.57v-0.38h-1.06v-0.73h3.17V319.02z M159.93,319.02c0,0.19,0.05,0.33,0.14,0.41
				c0.09,0.08,0.22,0.13,0.38,0.13c0.07,0,0.14-0.01,0.2-0.03c0.06-0.02,0.11-0.05,0.15-0.1c0.04-0.04,0.08-0.1,0.1-0.17
				c0.02-0.07,0.03-0.15,0.03-0.24v-0.38h-1V319.02z"/>
			<path d="M160.61,321.54c0,0.17-0.03,0.33-0.08,0.47c-0.05,0.14-0.13,0.26-0.23,0.36c-0.1,0.1-0.22,0.18-0.36,0.23
				c-0.14,0.06-0.3,0.08-0.48,0.08c-0.18,0-0.34-0.03-0.49-0.08c-0.14-0.06-0.27-0.13-0.37-0.23c-0.1-0.1-0.18-0.22-0.23-0.36
				c-0.05-0.14-0.08-0.3-0.08-0.47c0-0.17,0.03-0.33,0.08-0.47c0.05-0.14,0.13-0.26,0.23-0.37c0.1-0.1,0.22-0.18,0.37-0.24
				c0.14-0.06,0.31-0.08,0.49-0.08c0.18,0,0.34,0.03,0.48,0.08c0.14,0.06,0.26,0.14,0.36,0.24c0.1,0.1,0.18,0.22,0.23,0.37
				C160.58,321.21,160.61,321.37,160.61,321.54z M158.78,321.54c0,0.16,0.05,0.27,0.16,0.34c0.11,0.07,0.28,0.11,0.5,0.11
				c0.22,0,0.39-0.04,0.5-0.11c0.11-0.07,0.16-0.19,0.16-0.34c0-0.16-0.05-0.28-0.16-0.35c-0.11-0.07-0.27-0.11-0.5-0.11
				c-0.22,0-0.39,0.04-0.5,0.11C158.84,321.26,158.78,321.38,158.78,321.54z"/>
			<path d="M160.57,326.3l-2.25-0.7v-0.55c0-0.03,0.01-0.05,0.03-0.07c0.02-0.02,0.05-0.04,0.09-0.05l1.12-0.32
				c0.05-0.02,0.1-0.03,0.15-0.04c0.05-0.01,0.1-0.02,0.15-0.03c-0.05-0.01-0.1-0.02-0.15-0.03c-0.05-0.01-0.1-0.03-0.15-0.04
				l-1.12-0.33c-0.08-0.02-0.11-0.07-0.11-0.14v-0.52l2.25-0.7v0.54c0,0.05-0.01,0.09-0.03,0.12c-0.02,0.03-0.05,0.05-0.08,0.07
				l-1.01,0.23c-0.08,0.02-0.15,0.04-0.22,0.05c-0.07,0.01-0.14,0.03-0.22,0.04c0.07,0.02,0.14,0.04,0.22,0.06
				c0.07,0.02,0.15,0.04,0.22,0.07l1.01,0.28c0.03,0.01,0.06,0.03,0.08,0.07c0.02,0.03,0.03,0.07,0.03,0.11v0.3
				c0,0.05-0.01,0.09-0.03,0.12c-0.02,0.03-0.05,0.05-0.08,0.07l-1.01,0.27c-0.08,0.02-0.15,0.04-0.22,0.06
				c-0.07,0.02-0.15,0.04-0.22,0.06c0.07,0.01,0.14,0.03,0.22,0.04c0.07,0.02,0.15,0.03,0.23,0.05l1.01,0.24
				c0.03,0.01,0.06,0.03,0.08,0.07c0.02,0.03,0.03,0.07,0.03,0.11V326.3z"/>
			<path d="M159.32,327.05c-0.19,0.02-0.32,0.08-0.41,0.17c-0.08,0.09-0.13,0.21-0.13,0.36c0,0.08,0.01,0.15,0.03,0.2
				s0.04,0.11,0.06,0.15c0.02,0.04,0.04,0.08,0.06,0.12c0.02,0.04,0.03,0.08,0.03,0.12c0,0.05-0.02,0.09-0.06,0.12l-0.24,0.2
				c-0.08-0.07-0.14-0.14-0.19-0.23c-0.05-0.08-0.09-0.16-0.12-0.25c-0.03-0.08-0.05-0.17-0.06-0.25c-0.01-0.08-0.02-0.17-0.02-0.24
				c0-0.16,0.03-0.31,0.08-0.44s0.13-0.26,0.23-0.36c0.1-0.1,0.23-0.19,0.38-0.25c0.15-0.06,0.33-0.09,0.53-0.09
				c0.15,0,0.29,0.03,0.43,0.08c0.14,0.05,0.25,0.13,0.35,0.22c0.1,0.1,0.18,0.21,0.24,0.35c0.06,0.14,0.09,0.29,0.09,0.46
				c0,0.15-0.02,0.29-0.07,0.41c-0.05,0.12-0.11,0.23-0.2,0.32c-0.09,0.09-0.2,0.16-0.33,0.21c-0.13,0.05-0.27,0.08-0.44,0.08
				c-0.05,0-0.09,0-0.12-0.01c-0.03,0-0.06-0.01-0.08-0.02c-0.02-0.01-0.03-0.03-0.04-0.05c-0.01-0.02-0.01-0.04-0.01-0.08V327.05z
				 M159.71,327.9c0.05,0,0.11-0.01,0.16-0.02c0.05-0.01,0.1-0.04,0.14-0.07c0.04-0.03,0.07-0.07,0.1-0.12
				c0.02-0.05,0.04-0.11,0.04-0.18c0-0.13-0.04-0.23-0.11-0.3c-0.07-0.07-0.18-0.12-0.32-0.14V327.9z"/>
			<path d="M160.22,329.48c0.12,0.07,0.22,0.15,0.29,0.24c0.07,0.09,0.1,0.19,0.1,0.31c0,0.1-0.02,0.18-0.07,0.25l-0.5-0.04
				c-0.03-0.01-0.05-0.02-0.07-0.04c-0.01-0.02-0.02-0.04-0.02-0.07c0-0.01,0-0.03,0-0.05c0-0.02,0-0.04,0.01-0.06
				c0-0.02,0-0.04,0.01-0.06c0-0.02,0-0.04,0-0.06c0-0.1-0.03-0.18-0.08-0.24c-0.05-0.06-0.12-0.11-0.22-0.15h-1.37v-0.67h2.25v0.4
				c0,0.03,0,0.06-0.01,0.08c-0.01,0.02-0.01,0.04-0.03,0.06c-0.01,0.02-0.03,0.03-0.05,0.03c-0.02,0.01-0.05,0.02-0.07,0.02
				L160.22,329.48z"/>
			<path d="M159.32,331.02c-0.19,0.02-0.32,0.08-0.41,0.17c-0.08,0.09-0.13,0.21-0.13,0.36c0,0.08,0.01,0.15,0.03,0.2
				s0.04,0.11,0.06,0.15c0.02,0.04,0.04,0.08,0.06,0.12c0.02,0.04,0.03,0.08,0.03,0.12c0,0.05-0.02,0.09-0.06,0.12l-0.24,0.2
				c-0.08-0.07-0.14-0.14-0.19-0.23c-0.05-0.08-0.09-0.16-0.12-0.25c-0.03-0.08-0.05-0.17-0.06-0.25c-0.01-0.09-0.02-0.17-0.02-0.24
				c0-0.16,0.03-0.31,0.08-0.44c0.05-0.14,0.13-0.26,0.23-0.36c0.1-0.1,0.23-0.19,0.38-0.25c0.15-0.06,0.33-0.09,0.53-0.09
				c0.15,0,0.29,0.03,0.43,0.08c0.14,0.05,0.25,0.13,0.35,0.22c0.1,0.1,0.18,0.21,0.24,0.35c0.06,0.14,0.09,0.29,0.09,0.46
				c0,0.15-0.02,0.29-0.07,0.41c-0.05,0.12-0.11,0.23-0.2,0.32s-0.2,0.16-0.33,0.21c-0.13,0.05-0.27,0.08-0.44,0.08
				c-0.05,0-0.09,0-0.12-0.01c-0.03,0-0.06-0.01-0.08-0.02c-0.02-0.01-0.03-0.03-0.04-0.05c-0.01-0.02-0.01-0.04-0.01-0.08V331.02z
				 M159.71,331.87c0.05,0,0.11-0.01,0.16-0.02c0.05-0.01,0.1-0.04,0.14-0.07c0.04-0.03,0.07-0.07,0.1-0.12
				c0.02-0.05,0.04-0.11,0.04-0.18c0-0.13-0.04-0.23-0.11-0.3c-0.07-0.07-0.18-0.12-0.32-0.14V331.87z"/>
			<path d="M161.57,334.85h-3.25v-0.42c0-0.08,0.04-0.14,0.11-0.17l0.17-0.05c-0.05-0.04-0.09-0.09-0.13-0.14
				c-0.04-0.05-0.07-0.1-0.1-0.16c-0.03-0.06-0.05-0.12-0.07-0.19c-0.02-0.07-0.02-0.14-0.02-0.21c0-0.12,0.03-0.23,0.08-0.33
				c0.05-0.1,0.13-0.19,0.23-0.26c0.1-0.07,0.22-0.13,0.36-0.17c0.14-0.04,0.31-0.06,0.49-0.06c0.17,0,0.32,0.02,0.47,0.07
				c0.14,0.05,0.27,0.11,0.37,0.2c0.11,0.08,0.19,0.19,0.25,0.31c0.06,0.12,0.09,0.25,0.09,0.39c0,0.12-0.02,0.22-0.05,0.3
				c-0.03,0.08-0.08,0.15-0.13,0.22h1.14V334.85z M159.97,334.18c0.06-0.05,0.1-0.11,0.12-0.17c0.02-0.06,0.03-0.12,0.03-0.19
				c0-0.06-0.01-0.12-0.04-0.17c-0.02-0.05-0.06-0.1-0.12-0.14s-0.13-0.07-0.21-0.09c-0.09-0.02-0.19-0.03-0.32-0.03
				c-0.12,0-0.22,0.01-0.3,0.03c-0.08,0.02-0.15,0.04-0.2,0.07s-0.09,0.07-0.11,0.11c-0.02,0.04-0.03,0.09-0.03,0.15
				c0,0.05,0,0.09,0.01,0.13c0.01,0.04,0.02,0.08,0.04,0.11c0.02,0.03,0.04,0.06,0.07,0.09c0.03,0.03,0.06,0.06,0.09,0.09H159.97z"
				/>
			<path d="M160.33,336.99c0.08,0.09,0.15,0.18,0.2,0.29s0.08,0.22,0.08,0.35s-0.03,0.24-0.08,0.35c-0.05,0.1-0.13,0.19-0.22,0.27
				c-0.1,0.07-0.21,0.13-0.35,0.17c-0.14,0.04-0.29,0.06-0.46,0.06c-0.18,0-0.35-0.02-0.5-0.07c-0.15-0.05-0.28-0.11-0.38-0.2
				c-0.11-0.08-0.19-0.19-0.25-0.3c-0.06-0.12-0.09-0.25-0.09-0.39c0-0.07,0.01-0.13,0.02-0.18c0.01-0.05,0.03-0.1,0.06-0.15
				c0.02-0.04,0.05-0.09,0.09-0.12c0.03-0.04,0.07-0.07,0.11-0.11l-0.11-0.02c-0.05-0.01-0.08-0.03-0.1-0.06
				c-0.02-0.03-0.03-0.06-0.03-0.1v-0.45h3.25v0.67H160.33z M158.93,336.99c-0.06,0.05-0.09,0.11-0.12,0.17
				c-0.02,0.06-0.03,0.12-0.03,0.18c0,0.06,0.01,0.12,0.04,0.18c0.02,0.05,0.06,0.1,0.12,0.14s0.13,0.07,0.22,0.09
				c0.09,0.02,0.2,0.03,0.33,0.03c0.11,0,0.21-0.01,0.29-0.03c0.08-0.02,0.14-0.04,0.19-0.07c0.05-0.03,0.09-0.07,0.11-0.12
				c0.02-0.05,0.03-0.1,0.03-0.17c0-0.08-0.02-0.15-0.05-0.22c-0.04-0.06-0.09-0.12-0.16-0.18H158.93z"/>
			<path d="M160.57,340.88l-2.84-1.2c-0.04-0.02-0.08-0.04-0.1-0.07c-0.02-0.03-0.03-0.08-0.03-0.14v-0.5l0.91,0.43l2.06-0.9v0.6
				c0,0.05-0.01,0.09-0.03,0.12c-0.02,0.03-0.05,0.05-0.08,0.06l-0.97,0.37c-0.09,0.03-0.18,0.06-0.27,0.08
				c0.05,0.02,0.09,0.03,0.14,0.05c0.05,0.02,0.09,0.03,0.14,0.05l0.97,0.33c0.03,0.01,0.06,0.04,0.08,0.07
				c0.02,0.03,0.03,0.07,0.03,0.11V340.88z"/>
		</g>
	</g>
	<g>
		<path class="st0" d="M170.45,241.98h59.56c2.43,0,4.41,1.97,4.41,4.41v55.56c0,2.43-1.97,4.41-4.41,4.41h-59.56
			c-2.43,0-4.41-1.97-4.41-4.41v-55.56C166.04,243.96,168.01,241.98,170.45,241.98z"/>
	</g>
	<g id="Group_807_27_" transform="translate(-0.017 -0.017)">
		<g id="Group_806_27_" transform="translate(0 0)">
			<g id="Path_951_27_">
				<path class="st1" d="M94.11,249.18c-8.82,2.45-13.99,11.59-11.54,20.41c0,0,0,0,0,0.01c2,7.18,17.16,20.57,22.64,25.3
					c0.71,0.64,1.81,0.57,2.44-0.14c0.17-0.19,0.3-0.42,0.37-0.67c2.29-6.88,8.43-26.19,6.44-33.37
					c-2.39-8.78-11.44-13.96-20.22-11.58C94.2,249.15,94.15,249.17,94.11,249.18 M100.18,271.15c-3.23,0.9-6.57-0.99-7.47-4.22
					s0.99-6.57,4.22-7.47s6.57,0.99,7.47,4.22c0,0,0,0,0,0C105.28,266.9,103.4,270.24,100.18,271.15"/>
			</g>
		</g>
		<g id="Ellipse_71_27_">
			<ellipse class="st1" cx="105.06" cy="302.15" rx="9.84" ry="2.22"/>
		</g>
		<g id="Path_952_27_" class="st2">
			<path class="st1" d="M100.47,271c-0.07,0-0.22,0.07-0.3,0.07c-3.23,0.9-6.57-0.99-7.47-4.22c-0.9-3.23,0.99-6.57,4.22-7.47
				c1.94-0.54,4.03-0.07,5.55,1.26l2.15-10.87c-3.35-1.31-7.03-1.52-10.5-0.59c-8.83,2.45-13.99,11.59-11.55,20.41
				c0,0,0,0.01,0,0.01c1.33,4.73,8.43,12.28,14.65,18.13L100.47,271z"/>
		</g>
	</g>
	<g>
		<g id="Group_808_16_" transform="translate(-1373.983 1149.017)">
			<g id="Group_805_16_" transform="translate(23.023 4.268)">
				<g id="Path_943_16_">
					<path d="M1403.45-1104.93l2.99-7.47h3.47l-5.25,12.29h-2.48l-5.17-12.29h3.47L1403.45-1104.93z"/>
				</g>
				<g id="Path_944_16_">
					<path d="M1413.9-1100.1h-3.19v-12.29h3.19V-1100.1z"/>
				</g>
				<g id="Path_945_16_">
					<path d="M1415.34-1112.4h3.19l5.85,7.51h0.04v-7.51h3.19v12.29h-3.19l-5.85-7.53h-0.04v7.53h-3.19V-1112.4z"/>
				</g>
				<g id="Path_946_16_">
					<path d="M1428.84-1112.4h4.91c2.64,0,4.46,1.23,4.46,4.04c0,2.91-1.57,4.18-4.36,4.18h-1.82v4.08h-3.19L1428.84-1112.4z
						 M1432.05-1106.74h0.55c1.15,0,2.3,0,2.3-1.49c0-1.55-1.07-1.57-2.3-1.57h-0.55V-1106.74z"/>
				</g>
				<g id="Path_947_16_">
					<path d="M1452.48-1106.48c0,3.98-2.85,6.78-6.8,6.78c-3.96,0-6.8-2.81-6.8-6.78c0-3.71,3.27-6.32,6.8-6.32
						C1449.23-1112.8,1452.48-1110.2,1452.48-1106.48z M1442.2-1106.46c-0.11,1.92,1.36,3.56,3.27,3.67
						c1.92,0.11,3.56-1.36,3.67-3.27c0.01-0.13,0.01-0.26,0-0.4c-0.13-1.92-1.78-3.37-3.7-3.24
						C1443.7-1109.59,1442.32-1108.2,1442.2-1106.46z"/>
				</g>
				<g id="Path_948_16_">
					<path d="M1456.63-1100.1h-3.19v-12.29h3.19V-1100.1z"/>
				</g>
				<g id="Path_949_16_">
					<path d="M1457.99-1112.4h3.21l5.85,7.51h0.04v-7.51h3.19v12.29h-3.19l-5.85-7.53h-0.04v7.53h-3.19v-12.29H1457.99z"/>
				</g>
				<g id="Path_950_16_">
					<path d="M1477.12-1100.1h-3.19v-9.59h-2.64v-2.7h8.48v2.7h-2.64V-1100.1z"/>
				</g>
			</g>
			<g id="Group_807_26_" transform="translate(-0.017 -0.017)">
				<g id="Group_806_26_" transform="translate(0 0)">
					<g id="Path_951_26_">
						<path d="M1412.06-1110.45c-2.41,0.67-3.82,3.16-3.15,5.57c0,0,0,0,0,0c0.55,1.96,4.68,5.61,6.18,6.9
							c0.19,0.17,0.49,0.16,0.67-0.04c0.05-0.05,0.08-0.12,0.1-0.18c0.63-1.88,2.3-7.15,1.76-9.1c-0.65-2.4-3.12-3.81-5.52-3.16
							C1412.08-1110.46,1412.07-1110.46,1412.06-1110.45 M1413.71-1104.46c-0.88,0.25-1.79-0.27-2.04-1.15s0.27-1.79,1.15-2.04
							s1.79,0.27,2.04,1.15l0,0C1415.1-1105.62,1414.59-1104.71,1413.71-1104.46"/>
					</g>
				</g>
				<g id="Ellipse_71_26_">
					<ellipse cx="1415.04" cy="-1096" rx="2.68" ry="0.61"/>
				</g>
				<g id="Path_952_26_" class="st2">
					<path d="M1413.79-1104.5C1413.79-1104.5,1413.79-1104.5,1413.79-1104.5c-0.91,0.3-1.87-0.22-2.12-1.13
						c-0.25-0.88,0.27-1.79,1.15-2.04c0.53-0.15,1.1-0.02,1.51,0.34l0.59-2.97c-1.83-0.72-4.03-0.22-5.41,1.55
						c-0.83,1.06-0.98,2.51-0.62,3.81l0.01,0.05c0.36,1.29,2.3,3.35,4,4.95L1413.79-1104.5z"/>
				</g>
			</g>
		</g>
		<g>
			<path d="M36.75,31.6c0.38,0,0.7,0.04,0.97,0.13c0.27,0.09,0.49,0.21,0.67,0.37c0.17,0.16,0.3,0.34,0.39,0.55
				c0.08,0.21,0.12,0.44,0.12,0.69c0,0.27-0.04,0.51-0.13,0.73c-0.09,0.22-0.22,0.41-0.39,0.57c-0.18,0.16-0.4,0.28-0.67,0.37
				s-0.59,0.13-0.96,0.13H36.1v1.78h-1.24V31.6H36.75z M36.75,34.22c0.32,0,0.55-0.08,0.7-0.23c0.14-0.15,0.21-0.37,0.21-0.65
				c0-0.12-0.02-0.23-0.06-0.33c-0.04-0.1-0.09-0.19-0.17-0.26c-0.07-0.07-0.17-0.13-0.28-0.17c-0.11-0.04-0.25-0.06-0.4-0.06H36.1
				v1.69H36.75z"/>
			<path d="M41,33.08c0.29,0,0.55,0.04,0.79,0.13c0.24,0.09,0.44,0.22,0.61,0.39c0.17,0.17,0.3,0.37,0.4,0.61
				c0.09,0.24,0.14,0.51,0.14,0.81c0,0.3-0.05,0.58-0.14,0.82c-0.09,0.24-0.23,0.45-0.4,0.62c-0.17,0.17-0.37,0.3-0.61,0.39
				C41.55,36.95,41.29,37,41,37c-0.29,0-0.56-0.05-0.79-0.14c-0.24-0.09-0.44-0.22-0.62-0.39c-0.17-0.17-0.31-0.38-0.4-0.62
				c-0.09-0.24-0.14-0.52-0.14-0.82c0-0.3,0.05-0.57,0.14-0.81c0.09-0.24,0.23-0.45,0.4-0.61c0.17-0.17,0.38-0.3,0.62-0.39
				C40.44,33.12,40.71,33.08,41,33.08z M41,36.15c0.26,0,0.45-0.09,0.58-0.28c0.12-0.18,0.18-0.47,0.18-0.84s-0.06-0.66-0.18-0.84
				c-0.12-0.18-0.32-0.28-0.58-0.28c-0.27,0-0.47,0.09-0.59,0.28c-0.12,0.18-0.19,0.46-0.19,0.84s0.06,0.66,0.19,0.84
				C40.53,36.06,40.73,36.15,41,36.15z"/>
			<path d="M49.03,33.14l-1.18,3.8h-0.92c-0.05,0-0.09-0.02-0.12-0.04c-0.03-0.03-0.06-0.08-0.08-0.15l-0.54-1.9
				c-0.03-0.09-0.05-0.17-0.07-0.25c-0.02-0.08-0.04-0.17-0.06-0.25c-0.02,0.08-0.04,0.17-0.06,0.26c-0.02,0.09-0.04,0.17-0.07,0.26
				l-0.55,1.89c-0.04,0.13-0.12,0.19-0.24,0.19h-0.88l-1.18-3.8h0.91c0.08,0,0.15,0.02,0.2,0.06c0.06,0.04,0.09,0.08,0.11,0.14
				l0.38,1.7c0.03,0.13,0.06,0.26,0.08,0.38s0.05,0.24,0.07,0.37c0.03-0.12,0.07-0.25,0.1-0.37s0.07-0.25,0.12-0.38l0.48-1.71
				c0.02-0.06,0.06-0.1,0.11-0.14c0.05-0.04,0.12-0.06,0.19-0.06h0.51c0.08,0,0.15,0.02,0.2,0.06c0.06,0.04,0.09,0.09,0.11,0.14
				l0.45,1.71c0.04,0.13,0.07,0.26,0.11,0.38c0.04,0.12,0.07,0.25,0.1,0.37c0.02-0.12,0.04-0.24,0.07-0.37
				c0.03-0.12,0.06-0.25,0.09-0.38l0.4-1.7c0.02-0.06,0.06-0.1,0.11-0.14c0.05-0.04,0.12-0.06,0.19-0.06H49.03z"/>
			<path d="M50.3,35.24c0.04,0.32,0.13,0.55,0.29,0.69c0.16,0.14,0.36,0.21,0.6,0.21c0.13,0,0.25-0.02,0.34-0.05
				c0.09-0.03,0.18-0.07,0.25-0.11c0.07-0.04,0.14-0.07,0.2-0.11c0.06-0.03,0.13-0.05,0.2-0.05c0.09,0,0.16,0.03,0.21,0.1l0.33,0.41
				c-0.12,0.13-0.24,0.24-0.38,0.33c-0.14,0.08-0.27,0.15-0.42,0.2c-0.14,0.05-0.29,0.08-0.43,0.1C51.36,36.99,51.22,37,51.09,37
				c-0.27,0-0.52-0.04-0.75-0.13c-0.23-0.09-0.44-0.22-0.61-0.39c-0.17-0.17-0.31-0.38-0.41-0.64c-0.1-0.25-0.15-0.55-0.15-0.89
				c0-0.25,0.04-0.49,0.13-0.72c0.09-0.23,0.21-0.43,0.37-0.6c0.16-0.17,0.36-0.31,0.59-0.41c0.23-0.1,0.49-0.15,0.78-0.15
				c0.25,0,0.48,0.04,0.69,0.12c0.21,0.08,0.39,0.19,0.54,0.34c0.15,0.15,0.27,0.33,0.35,0.55c0.08,0.22,0.13,0.46,0.13,0.74
				c0,0.08,0,0.16-0.01,0.21c-0.01,0.05-0.02,0.1-0.04,0.13c-0.02,0.03-0.05,0.05-0.08,0.07c-0.03,0.01-0.08,0.02-0.13,0.02H50.3z
				 M51.73,34.58c0-0.09-0.01-0.18-0.03-0.26c-0.02-0.08-0.06-0.16-0.11-0.23c-0.05-0.07-0.12-0.12-0.21-0.16
				c-0.09-0.04-0.19-0.06-0.31-0.06c-0.22,0-0.38,0.06-0.51,0.19c-0.12,0.12-0.2,0.3-0.24,0.53H51.73z"/>
			<path d="M54.38,33.72c0.12-0.2,0.25-0.37,0.41-0.48c0.15-0.12,0.33-0.18,0.53-0.18c0.17,0,0.31,0.04,0.42,0.12l-0.07,0.83
				c-0.01,0.05-0.03,0.09-0.06,0.11c-0.03,0.02-0.07,0.03-0.12,0.03c-0.02,0-0.04,0-0.08,0c-0.03,0-0.06-0.01-0.1-0.01
				c-0.03,0-0.07-0.01-0.1-0.01c-0.04,0-0.07-0.01-0.1-0.01c-0.17,0-0.3,0.04-0.4,0.13c-0.1,0.09-0.18,0.21-0.25,0.37v2.31h-1.14
				v-3.8h0.67c0.06,0,0.1,0,0.14,0.01s0.07,0.02,0.1,0.05c0.03,0.02,0.04,0.05,0.06,0.08c0.01,0.03,0.02,0.08,0.03,0.12L54.38,33.72
				z"/>
			<path d="M56.98,35.24c0.04,0.32,0.13,0.55,0.29,0.69c0.16,0.14,0.36,0.21,0.6,0.21c0.13,0,0.25-0.02,0.34-0.05
				c0.09-0.03,0.18-0.07,0.25-0.11c0.07-0.04,0.14-0.07,0.2-0.11c0.06-0.03,0.13-0.05,0.2-0.05c0.09,0,0.16,0.03,0.21,0.1l0.33,0.41
				c-0.12,0.13-0.24,0.24-0.38,0.33c-0.14,0.08-0.27,0.15-0.42,0.2c-0.14,0.05-0.29,0.08-0.43,0.1C58.04,36.99,57.9,37,57.77,37
				c-0.27,0-0.52-0.04-0.75-0.13c-0.23-0.09-0.44-0.22-0.61-0.39c-0.17-0.17-0.31-0.38-0.41-0.64c-0.1-0.25-0.15-0.55-0.15-0.89
				c0-0.25,0.04-0.49,0.13-0.72c0.09-0.23,0.21-0.43,0.37-0.6c0.16-0.17,0.36-0.31,0.59-0.41c0.23-0.1,0.49-0.15,0.78-0.15
				c0.25,0,0.48,0.04,0.69,0.12c0.21,0.08,0.39,0.19,0.54,0.34c0.15,0.15,0.27,0.33,0.35,0.55c0.08,0.22,0.13,0.46,0.13,0.74
				c0,0.08,0,0.16-0.01,0.21c-0.01,0.05-0.02,0.1-0.04,0.13c-0.02,0.03-0.05,0.05-0.08,0.07c-0.03,0.01-0.08,0.02-0.13,0.02H56.98z
				 M58.41,34.58c0-0.09-0.01-0.18-0.03-0.26c-0.02-0.08-0.06-0.16-0.11-0.23c-0.05-0.07-0.12-0.12-0.21-0.16
				c-0.09-0.04-0.19-0.06-0.31-0.06c-0.22,0-0.38,0.06-0.51,0.19c-0.12,0.12-0.2,0.3-0.24,0.53H58.41z"/>
			<path d="M63.44,31.45v5.49h-0.7c-0.14,0-0.23-0.06-0.28-0.19l-0.09-0.29c-0.08,0.08-0.16,0.15-0.24,0.22
				c-0.08,0.07-0.17,0.12-0.27,0.17c-0.1,0.05-0.2,0.08-0.31,0.11C61.44,36.98,61.32,37,61.19,37c-0.2,0-0.38-0.04-0.55-0.13
				c-0.17-0.09-0.31-0.21-0.44-0.38c-0.12-0.16-0.22-0.37-0.29-0.61c-0.07-0.24-0.1-0.52-0.1-0.82c0-0.28,0.04-0.55,0.12-0.79
				c0.08-0.24,0.19-0.45,0.33-0.63c0.14-0.18,0.31-0.32,0.52-0.42c0.2-0.1,0.42-0.15,0.66-0.15c0.2,0,0.36,0.03,0.5,0.08
				c0.13,0.06,0.26,0.13,0.37,0.23v-1.93H63.44z M62.31,34.16c-0.09-0.1-0.18-0.16-0.28-0.2c-0.1-0.04-0.21-0.06-0.32-0.06
				c-0.11,0-0.2,0.02-0.29,0.06c-0.09,0.04-0.16,0.11-0.23,0.2c-0.06,0.09-0.12,0.21-0.15,0.36c-0.04,0.15-0.06,0.32-0.06,0.53
				c0,0.2,0.01,0.37,0.04,0.51c0.03,0.14,0.07,0.25,0.12,0.33c0.05,0.08,0.12,0.14,0.19,0.18c0.07,0.04,0.16,0.06,0.25,0.06
				c0.08,0,0.16-0.01,0.23-0.02c0.07-0.02,0.13-0.04,0.19-0.07c0.06-0.03,0.11-0.07,0.16-0.11c0.05-0.05,0.1-0.1,0.15-0.16V34.16z"
				/>
			<path d="M67.04,33.54c0.15-0.14,0.31-0.25,0.48-0.34c0.17-0.08,0.37-0.13,0.58-0.13c0.22,0,0.41,0.04,0.59,0.13
				c0.18,0.09,0.33,0.21,0.45,0.38c0.12,0.16,0.22,0.36,0.29,0.59c0.07,0.23,0.1,0.49,0.1,0.77c0,0.31-0.04,0.59-0.12,0.84
				c-0.08,0.25-0.19,0.47-0.33,0.65c-0.14,0.18-0.31,0.32-0.51,0.42c-0.2,0.1-0.42,0.15-0.66,0.15c-0.11,0-0.22-0.01-0.31-0.03
				c-0.09-0.02-0.17-0.05-0.25-0.09c-0.08-0.04-0.14-0.09-0.21-0.15c-0.06-0.06-0.12-0.12-0.18-0.18l-0.04,0.19
				c-0.02,0.08-0.05,0.13-0.1,0.16c-0.04,0.03-0.1,0.04-0.18,0.04h-0.76v-5.49h1.14V33.54z M67.04,35.9
				c0.09,0.09,0.18,0.16,0.28,0.2c0.1,0.04,0.2,0.06,0.3,0.06c0.11,0,0.21-0.02,0.3-0.06c0.09-0.04,0.17-0.11,0.23-0.2
				c0.06-0.09,0.12-0.21,0.15-0.36c0.04-0.15,0.05-0.34,0.05-0.56c0-0.19-0.01-0.35-0.04-0.49c-0.03-0.13-0.07-0.24-0.12-0.33
				c-0.05-0.08-0.12-0.15-0.2-0.18c-0.08-0.04-0.18-0.06-0.28-0.06c-0.14,0-0.26,0.03-0.36,0.09c-0.1,0.06-0.2,0.15-0.3,0.27V35.9z"
				/>
			<path d="M73.61,33.14l-2.03,4.79c-0.03,0.08-0.08,0.13-0.12,0.17c-0.05,0.03-0.13,0.05-0.23,0.05h-0.85l0.73-1.54l-1.52-3.47h1
				c0.09,0,0.16,0.02,0.2,0.06c0.05,0.04,0.08,0.08,0.1,0.14l0.62,1.64c0.06,0.15,0.11,0.3,0.14,0.46c0.03-0.08,0.05-0.16,0.08-0.23
				s0.06-0.16,0.08-0.23l0.56-1.63c0.02-0.06,0.06-0.1,0.12-0.14c0.06-0.04,0.12-0.06,0.18-0.06H73.61z"/>
		</g>
	</g>
	<g>
		<path class="st0" d="M137.42,31.12h86.25c2.43,0,4.41,1.97,4.41,4.41v90.52c0,2.43-1.97,4.41-4.41,4.41h-86.25
			c-2.43,0-4.41-1.97-4.41-4.41V35.52C133.01,33.09,134.98,31.12,137.42,31.12z"/>
	</g>
	<g>
		<path class="st0" d="M137.42,31.12h86.25c2.43,0,4.41,1.97,4.41,4.41v90.52c0,2.43-1.97,4.41-4.41,4.41h-86.25
			c-2.43,0-4.41-1.97-4.41-4.41V35.52C133.01,33.09,134.98,31.12,137.42,31.12z"/>
	</g>
	<g>
		<path class="st1" d="M221.03,134.35c0,0.74-0.12,1.3-0.36,1.66s-0.61,0.54-1.1,0.54c-0.48,0-0.84-0.19-1.08-0.56
			s-0.37-0.92-0.37-1.64c0-0.76,0.12-1.31,0.36-1.67s0.6-0.54,1.09-0.54c0.48,0,0.84,0.19,1.09,0.56S221.03,133.63,221.03,134.35z
			 M218.82,134.35c0,0.58,0.06,1,0.18,1.25s0.31,0.38,0.58,0.38s0.46-0.13,0.58-0.38s0.18-0.67,0.18-1.25
			c0-0.57-0.06-0.99-0.18-1.25s-0.32-0.39-0.58-0.39s-0.46,0.13-0.58,0.38S218.82,133.77,218.82,134.35z"/>
		<path class="st1" d="M224.45,136.49h-2.9v-0.52l1.1-1.11c0.33-0.33,0.54-0.57,0.65-0.71s0.18-0.27,0.23-0.39s0.07-0.25,0.07-0.4
			c0-0.19-0.06-0.35-0.17-0.46s-0.28-0.17-0.48-0.17c-0.16,0-0.32,0.03-0.48,0.09s-0.33,0.17-0.53,0.33l-0.37-0.45
			c0.24-0.2,0.47-0.34,0.69-0.43s0.46-0.13,0.72-0.13c0.4,0,0.72,0.1,0.96,0.31s0.36,0.49,0.36,0.84c0,0.19-0.03,0.38-0.1,0.55
			s-0.18,0.35-0.32,0.54s-0.38,0.43-0.72,0.75l-0.74,0.72v0.03h2.03V136.49z"/>
	</g>
	<g>
		<path class="st3" d="M31.25,116.51c0-2.47,2.02-4.5,4.5-4.5h89.26c2.47,0,4.5,2.03,4.5,4.5v9.44c0,2.47-2.02,4.5-4.5,4.5H35.75
			c-2.48,0-4.5-2.02-4.5-4.5V116.51z"/>
	</g>
	<g>
		<path d="M36.77,64.16c-0.65,0-1.15-0.19-1.49-0.57s-0.51-0.93-0.51-1.64c0-0.73,0.18-1.29,0.53-1.68s0.87-0.59,1.54-0.59
			c0.46,0,0.87,0.08,1.23,0.25l-0.28,0.74c-0.39-0.15-0.71-0.23-0.96-0.23c-0.75,0-1.12,0.5-1.12,1.49c0,0.48,0.09,0.85,0.28,1.09
			c0.19,0.24,0.46,0.37,0.82,0.37c0.41,0,0.79-0.1,1.16-0.3v0.8c-0.16,0.1-0.34,0.17-0.53,0.21C37.26,64.14,37.03,64.16,36.77,64.16
			z"/>
		<path d="M41.18,64.16c-0.55,0-0.97-0.2-1.27-0.59h-0.05c0.04,0.36,0.05,0.59,0.05,0.66V66h-0.92v-6.24h0.74
			c0.02,0.08,0.06,0.27,0.13,0.58h0.05c0.29-0.44,0.72-0.66,1.29-0.66c0.54,0,0.96,0.2,1.26,0.59s0.45,0.94,0.45,1.64
			s-0.15,1.26-0.46,1.65C42.14,63.96,41.72,64.16,41.18,64.16z M40.95,60.43c-0.37,0-0.63,0.11-0.8,0.32s-0.25,0.55-0.25,1.02v0.14
			c0,0.53,0.08,0.91,0.25,1.14c0.17,0.24,0.44,0.35,0.82,0.35c0.32,0,0.56-0.13,0.73-0.39s0.26-0.63,0.26-1.11
			c0-0.48-0.09-0.85-0.26-1.1C41.54,60.56,41.29,60.43,40.95,60.43z"/>
		<path d="M47.77,64.08h-0.92v-2.66c0-0.33-0.07-0.58-0.2-0.75c-0.13-0.16-0.35-0.25-0.64-0.25c-0.39,0-0.67,0.12-0.85,0.35
			c-0.18,0.23-0.27,0.62-0.27,1.16v2.14h-0.92V58h0.92v1.54c0,0.25-0.02,0.51-0.05,0.79h0.06c0.12-0.21,0.3-0.37,0.52-0.48
			s0.48-0.17,0.78-0.17c1.05,0,1.57,0.53,1.57,1.58V64.08z"/>
		<path d="M51.75,64.08l-0.18-0.6h-0.03c-0.21,0.26-0.42,0.44-0.63,0.54s-0.48,0.14-0.81,0.14c-0.42,0-0.76-0.11-0.99-0.34
			s-0.36-0.55-0.36-0.97c0-0.45,0.17-0.78,0.5-1.01c0.33-0.23,0.83-0.35,1.51-0.37l0.75-0.02v-0.23c0-0.28-0.06-0.48-0.19-0.62
			s-0.33-0.21-0.6-0.21c-0.22,0-0.43,0.03-0.64,0.1s-0.4,0.14-0.59,0.23l-0.3-0.66c0.23-0.12,0.49-0.22,0.77-0.28
			c0.28-0.06,0.54-0.1,0.79-0.1c0.55,0,0.96,0.12,1.24,0.36c0.28,0.24,0.42,0.62,0.42,1.13v2.91H51.75z M50.38,63.46
			c0.33,0,0.6-0.09,0.8-0.28c0.2-0.19,0.3-0.45,0.3-0.78v-0.38l-0.55,0.02c-0.43,0.02-0.75,0.09-0.94,0.22
			c-0.2,0.13-0.29,0.33-0.29,0.59c0,0.19,0.06,0.34,0.17,0.45C49.98,63.4,50.16,63.46,50.38,63.46z"/>
		<path d="M57.49,64.08h-0.92v-2.66c0-0.33-0.07-0.58-0.2-0.75c-0.13-0.16-0.35-0.25-0.64-0.25c-0.39,0-0.67,0.11-0.85,0.34
			s-0.27,0.61-0.27,1.15v2.15h-0.92v-4.32h0.72l0.13,0.57h0.05c0.13-0.21,0.31-0.36,0.55-0.48c0.24-0.11,0.5-0.17,0.8-0.17
			c1.04,0,1.55,0.53,1.55,1.58V64.08z"/>
		<path d="M60.22,64.16c-0.54,0-0.96-0.2-1.26-0.59c-0.3-0.39-0.45-0.94-0.45-1.64c0-0.71,0.15-1.26,0.46-1.65
			c0.31-0.39,0.73-0.59,1.27-0.59c0.57,0,1,0.21,1.3,0.63h0.05c-0.04-0.31-0.07-0.55-0.07-0.73V58h0.92v6.08h-0.72l-0.16-0.57h-0.04
			C61.22,63.94,60.79,64.16,60.22,64.16z M60.47,63.42c0.38,0,0.65-0.11,0.82-0.32s0.26-0.56,0.27-1.03v-0.13
			c0-0.54-0.09-0.93-0.27-1.16c-0.18-0.23-0.46-0.34-0.83-0.34c-0.32,0-0.57,0.13-0.75,0.39c-0.17,0.26-0.26,0.63-0.26,1.12
			c0,0.48,0.08,0.84,0.25,1.1C59.88,63.29,60.13,63.42,60.47,63.42z"/>
		<path d="M67.55,64.08h-0.92v-2.66c0-0.33-0.07-0.58-0.2-0.75c-0.13-0.16-0.35-0.25-0.64-0.25c-0.39,0-0.67,0.12-0.85,0.35
			c-0.18,0.23-0.27,0.62-0.27,1.16v2.14h-0.92V58h0.92v1.54c0,0.25-0.02,0.51-0.05,0.79h0.06c0.12-0.21,0.3-0.37,0.52-0.48
			s0.48-0.17,0.78-0.17c1.05,0,1.57,0.53,1.57,1.58V64.08z"/>
		<path d="M70.72,64.16c-0.67,0-1.2-0.2-1.58-0.59s-0.57-0.93-0.57-1.62c0-0.71,0.18-1.26,0.53-1.66s0.83-0.61,1.45-0.61
			c0.57,0,1.02,0.17,1.35,0.52c0.33,0.35,0.5,0.82,0.5,1.43v0.5h-2.88c0.01,0.42,0.13,0.74,0.34,0.97c0.21,0.23,0.51,0.34,0.9,0.34
			c0.25,0,0.49-0.02,0.71-0.07c0.22-0.05,0.46-0.13,0.71-0.24v0.75c-0.22,0.11-0.45,0.18-0.68,0.23
			C71.27,64.14,71.01,64.16,70.72,64.16z M70.55,60.38c-0.29,0-0.53,0.09-0.7,0.28s-0.28,0.45-0.31,0.81h1.96
			c-0.01-0.36-0.09-0.63-0.26-0.81C71.07,60.47,70.84,60.38,70.55,60.38z"/>
		<path d="M74.36,64.08h-0.92V58h0.92V64.08z"/>
		<path d="M77.13,64.16c-0.54,0-0.96-0.2-1.26-0.59c-0.3-0.39-0.45-0.94-0.45-1.64c0-0.71,0.15-1.26,0.46-1.65
			c0.31-0.39,0.73-0.59,1.27-0.59c0.57,0,1,0.21,1.3,0.63h0.05c-0.04-0.31-0.07-0.55-0.07-0.73V58h0.92v6.08h-0.72l-0.16-0.57h-0.04
			C78.12,63.94,77.69,64.16,77.13,64.16z M77.37,63.42c0.38,0,0.65-0.11,0.82-0.32s0.26-0.56,0.27-1.03v-0.13
			c0-0.54-0.09-0.93-0.27-1.16c-0.18-0.23-0.46-0.34-0.83-0.34c-0.32,0-0.57,0.13-0.75,0.39c-0.17,0.26-0.26,0.63-0.26,1.12
			c0,0.48,0.08,0.84,0.25,1.1C76.78,63.29,77.03,63.42,77.37,63.42z"/>
		<path d="M80.52,63.59c0-0.19,0.05-0.34,0.15-0.44c0.1-0.1,0.24-0.15,0.43-0.15c0.19,0,0.33,0.05,0.43,0.16
			c0.1,0.11,0.15,0.25,0.15,0.43c0,0.18-0.05,0.33-0.15,0.44c-0.1,0.11-0.24,0.16-0.43,0.16s-0.33-0.05-0.43-0.16
			C80.57,63.93,80.52,63.78,80.52,63.59z"/>
		<path d="M84.6,64.16c-0.65,0-1.15-0.19-1.49-0.57s-0.51-0.93-0.51-1.64c0-0.73,0.18-1.29,0.53-1.68s0.87-0.59,1.54-0.59
			c0.46,0,0.87,0.08,1.23,0.25l-0.28,0.74c-0.39-0.15-0.71-0.23-0.96-0.23c-0.75,0-1.12,0.5-1.12,1.49c0,0.48,0.09,0.85,0.28,1.09
			c0.19,0.24,0.46,0.37,0.82,0.37c0.41,0,0.79-0.1,1.16-0.3v0.8c-0.16,0.1-0.34,0.17-0.53,0.21C85.09,64.14,84.86,64.16,84.6,64.16z
			"/>
		<path d="M90.65,61.91c0,0.71-0.18,1.26-0.54,1.65c-0.36,0.4-0.87,0.59-1.51,0.59c-0.4,0-0.76-0.09-1.07-0.27
			c-0.31-0.18-0.55-0.44-0.71-0.79c-0.17-0.34-0.25-0.74-0.25-1.19c0-0.7,0.18-1.25,0.54-1.64s0.87-0.59,1.52-0.59
			c0.62,0,1.12,0.2,1.48,0.6C90.46,60.69,90.65,61.23,90.65,61.91z M87.5,61.91c0,1,0.37,1.5,1.11,1.5c0.73,0,1.09-0.5,1.09-1.5
			c0-0.99-0.37-1.48-1.1-1.48c-0.39,0-0.67,0.13-0.84,0.38C87.59,61.07,87.5,61.44,87.5,61.91z"/>
		<path d="M95.34,64.08h-0.92v-2.66c0-0.33-0.06-0.58-0.19-0.74s-0.32-0.24-0.59-0.24c-0.35,0-0.61,0.12-0.78,0.35
			c-0.17,0.23-0.25,0.61-0.25,1.15v2.15H91.7v-4.32h0.72l0.13,0.57h0.05c0.12-0.21,0.29-0.36,0.52-0.48
			c0.23-0.11,0.48-0.17,0.75-0.17c0.66,0,1.1,0.23,1.32,0.68h0.06c0.13-0.21,0.31-0.38,0.54-0.5c0.23-0.12,0.5-0.18,0.8-0.18
			c0.52,0,0.89,0.13,1.13,0.39c0.24,0.26,0.35,0.66,0.35,1.19v2.82h-0.92v-2.66c0-0.33-0.06-0.58-0.19-0.74
			c-0.13-0.16-0.32-0.24-0.59-0.24c-0.36,0-0.62,0.11-0.78,0.33c-0.17,0.22-0.25,0.56-0.25,1.03V64.08z"/>
	</g>
	<g>
		<path class="st0" d="M170.51,388.94h59.56c2.43,0,4.41,1.97,4.41,4.41v55.56c0,2.43-1.97,4.41-4.41,4.41h-59.56
			c-2.43,0-4.41-1.97-4.41-4.41v-55.56C166.1,390.91,168.08,388.94,170.51,388.94z"/>
	</g>
	<g>
		<path class="st0" d="M62.51,388.94h59.56c2.43,0,4.41,1.97,4.41,4.41v55.56c0,2.43-1.97,4.41-4.41,4.41H62.51
			c-2.43,0-4.41-1.97-4.41-4.41v-55.56C58.1,390.91,60.08,388.94,62.51,388.94z"/>
	</g>
	<g>
		<path class="st0" d="M170.51,313.93h59.56c2.43,0,4.41,1.97,4.41,4.41v55.56c0,2.43-1.97,4.41-4.41,4.41h-59.56
			c-2.43,0-4.41-1.97-4.41-4.41v-55.56C166.1,315.9,168.08,313.93,170.51,313.93z"/>
	</g>
	<g>
		<path class="st3" d="M31.25,94.64c0-2.47,2.02-4.5,4.5-4.5h89.26c2.47,0,4.5,2.03,4.5,4.5v9.44c0,2.47-2.02,4.5-4.5,4.5H35.75
			c-2.48,0-4.5-2.03-4.5-4.5V94.64z"/>
	</g>
	<g>
		<path class="st3" d="M31.25,72.78c0-2.47,2.02-4.5,4.5-4.5h89.26c2.47,0,4.5,2.03,4.5,4.5v9.44c0,2.48-2.02,4.5-4.5,4.5H35.75
			c-2.48,0-4.5-2.02-4.5-4.5V72.78z"/>
	</g>
	<g>
		<linearGradient id="SVGID_1_" gradientUnits="userSpaceOnUse" x1="155.7478" y1="371.6069" x2="212.2741" y2="469.5134">
			<stop  offset="0.1103" style="stop-color:#E6E6E6;stop-opacity:0.6"/>
			<stop  offset="0.9114" style="stop-color:#999999"/>
		</linearGradient>
		<path class="st4" d="M135.01,384.56h98c2.47,0,4.5,2.02,4.5,4.5v63c0,2.47-2.03,4.5-4.5,4.5h-98c-2.47,0-4.5-2.03-4.5-4.5v-63
			C130.51,386.59,132.54,384.56,135.01,384.56z"/>
		<linearGradient id="SVGID_2_" gradientUnits="userSpaceOnUse" x1="87.6228" y1="273.6915" x2="171.3991" y2="418.7964">
			<stop  offset="0.1103" style="stop-color:#E6E6E6;stop-opacity:0.6"/>
			<stop  offset="0.9114" style="stop-color:#999999"/>
		</linearGradient>
		<path class="st5" d="M26.01,310.24h207c2.48,0,4.5,2.02,4.5,4.5v63c0,2.48-2.02,4.5-4.5,4.5h-207c-2.48,0-4.5-2.02-4.5-4.5v-63
			C21.51,312.27,23.54,310.24,26.01,310.24z"/>
		<linearGradient id="SVGID_3_" gradientUnits="userSpaceOnUse" x1="87.6228" y1="201.6915" x2="171.3991" y2="346.7964">
			<stop  offset="0.1103" style="stop-color:#E6E6E6;stop-opacity:0.6"/>
			<stop  offset="0.9114" style="stop-color:#999999"/>
		</linearGradient>
		<path class="st6" d="M26.01,238.24h207c2.48,0,4.5,2.03,4.5,4.5v63c0,2.48-2.02,4.5-4.5,4.5h-207c-2.48,0-4.5-2.02-4.5-4.5v-63
			C21.51,240.27,23.54,238.24,26.01,238.24z"/>
		<linearGradient id="SVGID_4_" gradientUnits="userSpaceOnUse" x1="56.4459" y1="3.6915" x2="202.576" y2="256.7964">
			<stop  offset="0.1103" style="stop-color:#E6E6E6;stop-opacity:0.6"/>
			<stop  offset="0.9114" style="stop-color:#999999"/>
		</linearGradient>
		<path class="st7" d="M26.01,22.24h207c2.48,0,4.5,2.02,4.5,4.5v207c0,2.48-2.02,4.5-4.5,4.5h-207c-2.48,0-4.5-2.02-4.5-4.5v-207
			C21.51,24.27,23.54,22.24,26.01,22.24z"/>
		<linearGradient id="SVGID_5_" gradientUnits="userSpaceOnUse" x1="47.1228" y1="371.3904" x2="103.8991" y2="469.7299">
			<stop  offset="0.1103" style="stop-color:#E6E6E6;stop-opacity:0.6"/>
			<stop  offset="0.9114" style="stop-color:#999999"/>
		</linearGradient>
		<path class="st8" d="M26.01,384.56h99c2.47,0,4.5,2.02,4.5,4.5v63c0,2.47-2.03,4.5-4.5,4.5h-99c-2.48,0-4.5-2.03-4.5-4.5v-63
			C21.51,386.59,23.54,384.56,26.01,384.56z"/>
	</g>
</g>
<g id="Cut">
</g>
</svg>
