<svg xmlns="http://www.w3.org/2000/svg" width="280.908" height="267.594" viewBox="0 0 280.908 267.594"><g transform="translate(-515.425 -415.882)"><g transform="translate(526.423 480.15)"><g transform="translate(0)"><line y1="12.86" x2="1.245" transform="translate(143.645 0.331)" fill="none" stroke="#ffcc5a" stroke-linecap="round" stroke-miterlimit="10" stroke-width="2.1"/><line y1="98.107" x2="9.498" transform="translate(133.269 22.263)" fill="none" stroke="#ffcc5a" stroke-linecap="round" stroke-miterlimit="10" stroke-width="2.1"/><line x1="64.579" y2="28.523" transform="translate(133.269 91.847)" fill="none" stroke="#ffcc5a" stroke-linecap="round" stroke-miterlimit="10" stroke-width="2.1"/><line x1="29.213" y2="12.903" transform="translate(207.66 74.61)" fill="none" stroke="#ffcc5a" stroke-linecap="round" stroke-miterlimit="10" stroke-width="2.1"/><line x1="18.764" y2="8.288" transform="translate(247.774 61.508)" fill="none" stroke="#ffcc5a" stroke-linecap="round" stroke-miterlimit="10" stroke-width="2.1"/><line x1="1.338" y1="33.424" transform="translate(128.451)" fill="none" stroke="#ffcc5a" stroke-linecap="round" stroke-miterlimit="10" stroke-width="2.1"/><line x1="2.968" y1="74.144" transform="translate(130.301 46.226)" fill="none" stroke="#ffcc5a" stroke-linecap="round" stroke-miterlimit="10" stroke-width="2.1"/><line y1="7.517" x2="6.477" transform="translate(211.323 22.263)" fill="none" stroke="#ffcc5a" stroke-linecap="round" stroke-miterlimit="10" stroke-width="2.1"/><line y1="81.616" x2="70.322" transform="translate(133.269 38.754)" fill="none" stroke="#ffcc5a" stroke-linecap="round" stroke-miterlimit="10" stroke-width="2.1"/><line x1="13.275" y1="30.424" transform="translate(83.917 7.267)" fill="none" stroke="#ffcc5a" stroke-linecap="round" stroke-miterlimit="10" stroke-width="2.1"/><line x1="30.256" y1="69.342" transform="translate(103.012 51.029)" fill="none" stroke="#ffcc5a" stroke-linecap="round" stroke-miterlimit="10" stroke-width="2.1"/><line y1="22.233" x2="29.162" transform="translate(212.209 37.952)" fill="none" stroke="#ffcc5a" stroke-linecap="round" stroke-miterlimit="10" stroke-width="2.1"/><line y1="55.809" x2="73.2" transform="translate(133.269 64.562)" fill="none" stroke="#ffcc5a" stroke-linecap="round" stroke-miterlimit="10" stroke-width="2.1"/><line x1="3.943" y1="4.136" transform="translate(42.95 25.644)" fill="none" stroke="#ffcc5a" stroke-linecap="round" stroke-miterlimit="10" stroke-width="2.1"/><line x1="77.819" y1="81.616" transform="translate(55.45 38.754)" fill="none" stroke="#ffcc5a" stroke-linecap="round" stroke-miterlimit="10" stroke-width="2.1"/><line y1="28.595" x2="10.01" transform="translate(163.704 4.829)" fill="none" stroke="#ffcc5a" stroke-linecap="round" stroke-miterlimit="10" stroke-width="2.1"/><line y1="79.739" x2="27.912" transform="translate(133.269 40.631)" fill="none" stroke="#ffcc5a" stroke-linecap="round" stroke-miterlimit="10" stroke-width="2.1"/><line x1="16.107" y1="7.114" transform="translate(0 61.508)" fill="none" stroke="#ffcc5a" stroke-linecap="round" stroke-miterlimit="10" stroke-width="2.1"/><line x1="24.685" y1="10.903" transform="translate(22.208 71.317)" fill="none" stroke="#ffcc5a" stroke-linecap="round" stroke-miterlimit="10" stroke-width="2.1"/><line x1="76.844" y1="33.94" transform="translate(56.425 86.43)" fill="none" stroke="#ffcc5a" stroke-linecap="round" stroke-miterlimit="10" stroke-width="2.1"/></g></g><g transform="translate(515.425 415.882)"><g transform="translate(0)"><rect width="3.818" height="8.272" transform="matrix(0.195, -0.981, 0.981, 0.195, 8.841, 52.923)" fill="#ffcc5a"/><rect width="3.818" height="8.272" transform="translate(2.196 138.458) rotate(15.399)" fill="#ffcc5a"/><rect width="3.818" height="8.272" transform="translate(48.627 61.017) rotate(-81.034)" fill="#ffcc5a"/><rect width="3.818" height="8.272" transform="translate(75.234 45.89) rotate(-30)" fill="#ffcc5a"/><rect width="3.818" height="8.272" transform="translate(36.451 99.445) rotate(-62.23)" fill="#ffcc5a"/><rect width="3.818" height="8.272" transform="translate(110.916 11.956) rotate(98.394)" fill="#ffcc5a"/><rect width="3.818" height="8.272" transform="matrix(0.425, -0.905, 0.905, 0.425, 151.782, 22.415)" fill="#ffcc5a"/><rect width="3.818" height="8.272" transform="matrix(0.425, -0.905, 0.905, 0.425, 249.998, 201.332)" fill="#ffcc5a"/><rect width="3.818" height="8.272" transform="translate(128.707 35.422) rotate(20.765)" fill="#ffcc5a"/><rect width="3.818" height="8.272" transform="translate(70.884 8.837) rotate(30.3)" fill="#ffcc5a"/><rect width="3.818" height="8.272" transform="translate(270.35 85.007) rotate(15.399)" fill="#ffcc5a"/><rect width="3.818" height="8.272" transform="translate(252.576 38.752) rotate(-62.23)" fill="#ffcc5a"/><rect width="3.818" height="8.272" transform="translate(240.392 123.841) rotate(15.399)" fill="#ffcc5a"/><rect width="3.818" height="8.272" transform="translate(212.014 51.578) rotate(-30)" fill="#ffcc5a"/><rect width="3.818" height="8.272" transform="matrix(0.638, 0.77, -0.77, 0.638, 202.015, 22.928)" fill="#ffcc5a"/><rect width="3.818" height="8.272" transform="translate(170.241 69.046) rotate(98.394)" fill="#ffcc5a"/><rect width="3.818" height="8.272" transform="translate(240.816 0) rotate(20.765)" fill="#ffcc5a"/></g></g><g transform="translate(520.656 420.81)"><g transform="translate(0 0)"><rect width="3.818" height="8.272" transform="translate(2.196 68.037) rotate(15.399)" fill="#ffa400"/><rect width="3.818" height="8.272" transform="translate(108.22 50.702) rotate(-81.034)" fill="#ffa400"/><rect width="3.818" height="8.272" transform="translate(39.586 175.444) rotate(-30)" fill="#ffa400"/><rect width="3.818" height="8.272" transform="translate(81.086 12.852) rotate(77.823)" fill="#ffa400"/><rect width="3.818" height="8.272" transform="translate(11.262 15.353) rotate(-62.23)" fill="#ffa400"/><rect width="3.818" height="8.272" transform="matrix(0.638, 0.77, -0.77, 0.638, 131.516, 0)" fill="#ffa400"/><rect width="3.818" height="8.272" transform="translate(44.791 39.465) rotate(-141.576)" fill="#ffa400"/><rect width="3.818" height="8.272" transform="translate(160.322 1.277) rotate(20.765)" fill="#ffa400"/><rect width="3.818" height="8.272" transform="translate(43.746 119.368) rotate(30.3)" fill="#ffa400"/><rect width="3.818" height="8.272" transform="matrix(0.195, -0.981, 0.981, 0.195, 266.712, 66.467)" fill="#ffa400"/><rect width="3.818" height="8.272" transform="translate(261.478 141.082) rotate(-81.034)" fill="#ffa400"/><rect width="3.818" height="8.272" transform="translate(268.514 19.312) rotate(-120)" fill="#ffa400"/><rect width="3.818" height="8.272" transform="translate(240.076 55.724) rotate(30.3)" fill="#ffa400"/><rect width="3.818" height="8.272" transform="translate(220.328 15.28) rotate(-81.034)" fill="#ffa400"/><rect width="3.818" height="8.272" transform="translate(61.493 69.904) rotate(-30)" fill="#ffa400"/><rect width="3.818" height="8.272" transform="translate(172.598 40.626) rotate(77.823)" fill="#ffa400"/><rect width="3.818" height="8.272" transform="translate(217.067 169.936) rotate(77.823)" fill="#ffa400"/><rect width="3.818" height="8.272" transform="translate(192.571 85.778) rotate(30.3)" fill="#ffa400"/></g></g><g transform="translate(558.166 470.852)"><ellipse cx="21.647" cy="23.805" rx="21.647" ry="23.805" transform="translate(86.145 65.927)" fill="#fff"/><ellipse cx="31.027" cy="7.374" rx="31.027" ry="7.374" transform="translate(36.384 197.876)" fill="#edf2f7"/><g transform="translate(63.724 41.64)"><ellipse cx="25.122" cy="5.667" rx="25.122" ry="5.667" transform="translate(33.859 131.159)" fill="#ffcc5a"/><path d="M642.664,585.771c.154.357.321.72.495,1.085.122.257.245.513.376.774q.253.5.527,1.014c.073.135.15.273.225.409q.6,1.084,1.279,2.2c.051.083.1.166.152.25.266.43.539.863.823,1.3l.05.074q.777,1.2,1.643,2.425c.135.192.269.384.407.577.252.352.505.705.766,1.061.407.556.823,1.115,1.252,1.678.079.1.162.209.242.313,7.526,9.824,18.2,20.708,28.005,29.931l.009-.042c8.12,7.665,15.67,14.277,20.392,18.362a4.413,4.413,0,0,0,7.179-2.076c5.856-17.567,21.535-66.87,16.432-85.194A42.059,42.059,0,0,0,671.3,530.357l-.327.09a42.341,42.341,0,0,0-29.477,52.12l.006.021c.138.491.309,1,.495,1.513.063.177.13.355.2.534Q642.412,585.194,642.664,585.771Zm44.527.534.026-.134c-.189,0-.565.188-.758.188a15.4,15.4,0,1,1,10.77-18.888v0A15.552,15.552,0,0,1,687.191,586.3Z" transform="translate(-639.943 -528.875)" fill="#ffcc5a"/></g><path d="M665.43,482.825a4.978,4.978,0,0,1,1.653-2.056s1.161-.9,1.776-.489a3.511,3.511,0,0,1,.852,1.245,2.076,2.076,0,0,1,1.456.626,2.459,2.459,0,0,1,.3,1.046,2.136,2.136,0,0,1,1,.655c.336.462.184,1.258.44,1.352a2.2,2.2,0,0,1,.534,2.38,15.68,15.68,0,0,1-2.333,5.963l-2.712,3.67-2.248-2.876-1.823-1.145a34.321,34.321,0,0,1-2.02-5.515,18.816,18.816,0,0,1,.177-5.078c.2-.658,2.033-.428,2.946.224" transform="translate(-579.449 -480.174)" fill="#fba06a"/><g transform="translate(45.789 206.193)"><path d="M623.135,721.887c-1.639.056-3.033.331-4.168-.076.58.981,1.8,1.354,4.336,1.267,3.061-.1,4.278-.527,4.659-1.747C626.837,721.945,625.246,721.814,623.135,721.887Z" transform="translate(-618.967 -721.331)" fill="#dca970"/></g><path d="M644.209,710.96h0a12.371,12.371,0,0,0-.943,5.315l.048,1.077a.652.652,0,0,0,.564.618c1.169.159,14.861-.458,17.926-.129s6.878-.606,6.791-2.565c-11.852-2.934-15.392-4.715-15.392-4.715Z" transform="translate(-576.699 -513.577)" fill="#18394a"/><path d="M651.434,660.384l2.354,43.549s-1.492,2.513-5.721,3.107-6.42-.658-6.42-.658l-5.09-36.94.345-8.659Z" transform="translate(-575.728 -506.302)" fill="#7f3629"/><path d="M662.42,717.953c-2.763-.3-15.719-.016-19.115-.073l.016.371a.652.652,0,0,0,.564.618c1.169.159,14.861-.458,17.926-.129,2.744.295,6.084-.425,6.693-1.984C667.273,717.762,664.649,718.192,662.42,717.953Z" transform="translate(-576.707 -514.475)" fill="#dca970"/><path d="M626.054,503.592a5.319,5.319,0,0,0,3.449-2.04c1.165-1.844,5.895-2.321,8.828.394a7.555,7.555,0,0,1,1.93,3.285,12.09,12.09,0,0,1-.752,8.817c-3.514,7.4-.535,13.869-4.4,15.643-6.369,2.921-15.223-1.942-17.871-9.785C612.633,509.26,621.1,503.758,626.054,503.592Z" transform="translate(-572.735 -483.054)" fill="#492e2a"/><g transform="translate(54.502 16.986)" opacity="0.15"><path d="M638.257,534.72q-.294.135-.607.252Q637.956,534.857,638.257,534.72Z" transform="translate(-630.389 -505.068)" fill="#040505"/><path d="M640.252,501.947c-2.934-2.716-7.664-2.238-8.828-.394.648-1.026,3.642,5-2.266,13.3,1.389,6.259,9.584,14.049,7.868,14.836,3.868-1.774.889-8.239,4.4-15.643a12.09,12.09,0,0,0,.752-8.817A7.559,7.559,0,0,0,640.252,501.947Z" transform="translate(-629.158 -500.039)" fill="#040505"/></g><path d="M651.246,549.895l10.179-31.3,6.031-23.129s-6.6-2.856-7.368-1.133c-3.017,6.8-8.516,21.639-8.638,22.21a59.486,59.486,0,0,1-6.021,11.727c-.2.306-3.709,3.637-4.8,4.7a16.494,16.494,0,0,0-2.975,3.682s7.752,9.88,6.409,12.152C649.519,561.373,651.246,549.895,651.246,549.895Z" transform="translate(-575.887 -482.147)" fill="#18394a"/><path d="M620.766,540.719c-.683,4.291,10.191,12.311,10.191,12.311s8.494,7.163,9.4,1.317-2.261-12.26-2.261-12.26S627.653,534.684,620.766,540.719Z" transform="translate(-573.434 -488.609)" fill="#174254"/><path d="M624.548,527.213l9.59,4.365.28,4.054a7.143,7.143,0,0,0,2.742,5.547s11.151,10.993,2.049,11.621-18.373-11.755-18.373-11.755C625.061,534.965,624.548,527.213,624.548,527.213Z" transform="translate(-573.449 -486.994)" fill="#fba06a"/><path d="M649.113,613.346a7.865,7.865,0,0,0,4.542-2.524c.265-.336-1.92-4.868-5.1-13.1C645.876,590.784,649.113,613.346,649.113,613.346Z" transform="translate(-577.314 -497.024)" fill="#174254"/><path d="M649.535,609.606a7.872,7.872,0,0,0,4.543-2.524c.264-.336-1.921-4.868-5.1-13.1C646.3,587.043,649.535,609.606,649.535,609.606Z" transform="translate(-577.375 -496.482)" fill="#174254"/><path d="M644.08,603.865l.666,5.377,1.193,2.925-.359,2.261,3.41,24.643a63.407,63.407,0,0,1,.616,12.64h0a9.876,9.876,0,0,1-4.4,7.72l-1.581,1.051-9.02.765.343-10.367-11.828-44.965Z" transform="translate(-573.781 -498.107)" fill="#7f3629"/><path d="M633.788,617.114l3.9,30.385a4.973,4.973,0,0,1-1.737,4.443l-1.113.934-11.717-46.612Z" transform="translate(-573.781 -498.455)" fill="#76332a"/><path d="M639.912,658.325s-1.309,44.078,8.155,48.417c-4.229.594-6.42-.658-6.42-.658l-5.09-36.94.232-8.72Z" transform="translate(-575.728 -506.003)" fill="#76332a"/><path d="M624.991,709.122c-.17,2.633,1.964,4.368,2.77,7.627.535,2.161.737,4.379-4.546,4.559-4.887.168-4.881-2.864-4.844-3.372s1.791-6.234,1.791-6.234Z" transform="translate(-573.091 -513.368)" fill="#18394a"/><path d="M638.735,604.631l-1.1,9.451a6.069,6.069,0,0,1-2.828,4.454h0a4.147,4.147,0,0,0-1.857,2.605l-4.921,33.077-2,43.5s.2.731-4.159,1.033-4.852-1.1-4.852-1.1l-2.308-20.336c-.514-5.259-1.358-11.113-.507-16.327l.953-5.849-1.731-17.785a71.04,71.04,0,0,1-.633-12.245l.347-4.488a6.421,6.421,0,0,0-.29-2.462h0a18.542,18.542,0,0,1-.808-7.5l.694-7.087Z" transform="translate(-572.161 -498.065)" fill="#893a2a"/><path d="M617.654,654.985a144.855,144.855,0,0,1,.49-36.285s11.06,0,11.539-10.063L612.9,603.578l-.162-.007-.694,7.087a18.542,18.542,0,0,0,.808,7.5,6.421,6.421,0,0,1,.29,2.462l-.347,4.488a71.04,71.04,0,0,0,.633,12.245l1.731,17.785-.953,5.849c-.851,5.215-.007,11.068.507,16.327l2.308,20.336S613.164,670.9,617.654,654.985Z" transform="translate(-572.161 -498.065)" fill="#7f3629"/><path d="M620.565,609.172c-.3,3.235-.974,7.913-.974,7.913s6.55.678,8.315-5.141S620.565,609.172,620.565,609.172Z" transform="translate(-573.268 -498.761)" fill="#76332a"/><path d="M608.445,546.831l9.712-3.441s5.959,6.537,14.715,5.319a2.918,2.918,0,0,0,1.609-5.185,22.114,22.114,0,0,1,5.016,1.961,9.928,9.928,0,0,1,4.862,5.741,18.826,18.826,0,0,1,.539,8.688c-.375-.132-2.376,2.1-2.376,2.1.224,2.905-.036,3.578-.575,6.442-.758,4.023-1.749,7.195-1.654,9.183.4,8.27,1.621,21.642,1.442,22.836-1.265,1.357-12.021,5.532-31.2,1.211,1.876-24.517,1.572-32.634,2.026-31.731l-1.851-8.073c-1.257-3.323-9.491-5.927-8.214-9.243A8.967,8.967,0,0,1,608.445,546.831Z" transform="translate(-570.77 -489.339)" fill="#efede5"/><path d="M651.7,560.693l-.156,24.145-.186,7.487s-3.641,2.4-3.859.53c-.863-7.39-2.99-23.36-2.938-23.941.066-.729,0-9.337,0-9.337s1.664-11.168,1.056-13.736C653.314,547.779,651.7,560.693,651.7,560.693Z" transform="translate(-576.889 -489.695)" fill="#18394a"/><path d="M641.913,543.734c2.551,13.029-3.246,29.251-3.246,29.251l1.078,11.689L647,600.524l.275-7.019-1.393-16.714s3.911-12.916,2.657-18.594-2.8-13.028-3.778-13.517A18,18,0,0,0,641.913,543.734Z" transform="translate(-576.034 -489.389)" fill="#18394a"/><path d="M640.694,542.72s3.856,10.915-2.027,30.118c5.947-16.3,6.445-18.954,6.445-18.954l-1.406-1.652.653-1.769-1.592-6.021Z" transform="translate(-576.034 -489.242)" fill="#18394a"/><path d="M640.694,542.72s3.856,10.915-2.027,30.118c5.947-16.3,6.445-18.954,6.445-18.954l-1.406-1.652.653-1.769-1.592-6.021Z" transform="translate(-576.034 -489.242)" fill="#040505" opacity="0.15"/><path d="M615.812,544.421c-2,.707-3.867-.917-7.218.847-1.51.8-8.068,2.116-3.773,14.109.91,2.541,3.157,5.9,3.659,9.639a207.034,207.034,0,0,1,1.859,22.809c-.138,4.546-2.326,11.595-3.1,13.958a.714.714,0,0,0,.579.928c3.825.541,18.632,3.553,26.675.915,2.76-11.05,1.876-30.737,1.876-30.737s-5.934-12.771-10.517-20.15A63.682,63.682,0,0,0,615.812,544.421Z" transform="translate(-570.919 -489.487)" fill="#174254"/><g transform="translate(44.168 100.165)"><path d="M618.507,599.477c1.058,1.574,11.237,2.9,12.669,1.254a1.545,1.545,0,0,0,.231-.444c0-1.032-.018-1.71-.018-1.71l-12.669-1.253s-.148.682-.349,1.72A1.191,1.191,0,0,0,618.507,599.477Z" transform="translate(-617.259 -597.324)" fill="#18394a"/><path d="M631.217,601.128a1.869,1.869,0,0,1-.28.472c-1.431,1.646-11.611.32-12.669-1.254a1.392,1.392,0,0,1-.176-.459c-.591,3.117-1.484,8.582-.738,9.693,1.058,1.574,11.237,2.9,12.669,1.254C631.035,609.671,631.2,604.228,631.217,601.128Z" transform="translate(-617.071 -597.695)" fill="#18394a"/></g><path d="M645.543,578.154c.107.6-.14,1.138-.551,1.212s-.832-.349-.939-.945.14-1.138.552-1.212S645.436,577.558,645.543,578.154Z" transform="translate(-576.811 -494.241)" fill="#18394a"/><path d="M641.722,591.157c0,.605-.339,1.1-.757,1.1s-.758-.491-.758-1.1.339-1.1.758-1.1S641.722,590.553,641.722,591.157Z" transform="translate(-576.258 -496.106)" fill="#18394a"/><path d="M620.357,541.121l-2.438,2.823L621.683,552H623.6l-1.231,2.84s16.342,22.884,16.1,21.573c-1.769-9.786-7.642-18.38-11.688-24.412A86.405,86.405,0,0,1,620.357,541.121Z" transform="translate(-573.026 -489.01)" fill="#18394a"/><path d="M645.1,556.5c0,.274-.116.494-.26.494s-.26-.221-.26-.494.116-.493.26-.493S645.1,556.232,645.1,556.5Z" transform="translate(-576.892 -491.169)" fill="#dca970"/><path d="M631.286,540.024c1.086.718,5.384,2.442,6.75,1.441h0l0,0a2.894,2.894,0,0,1-.649-.549,7.428,7.428,0,0,1-2.089-5l-.28-4.054-8.048-2.685C626.957,529.243,625.885,536.457,631.286,540.024Z" transform="translate(-574.324 -487.279)" fill="#ae5025" opacity="0.1"/><path d="M626,523.521c-1.121-5.163,1.719-4.442,2.274-6.625,1.283-5.047,6.227-1.664,11.679-1.807.185.357,1.592,7.825,1.639,8.976.32,7.7,1.037,8.5-4.012,9.38-5.1.886-9.388-.56-11.551-3.341-.558-.717-2.973-3.938-2.973-3.938C623.947,525.872,626.421,525.466,626,523.521Z" transform="translate(-573.771 -485.094)" fill="#fba06a"/><path d="M626.29,525.042s.652,4.229,3.889,5.971,5.451-.775,6.925-2.186,4.846-1.8,4.846-1.8,1.6,6.6.484,8.321-7.009,1.318-10.1.6-6.622-4.579-7.163-8.7S626.29,525.042,626.29,525.042Z" transform="translate(-574.062 -486.615)" fill="#492e2a"/><path d="M644.809,530.864a14.572,14.572,0,0,1-3.178-.065c-.388.066-.6.108-.622.61-.02.393.4.713.86.8a8.727,8.727,0,0,0,3.224.32S644.843,530.857,644.809,530.864Z" transform="translate(-576.374 -487.514)" fill="#fba06a"/><path d="M622.611,523.157c.7.227,2.825,6.137,2.158,6.45-1.65.775-3.558-1.675-4.5-3.409A2.026,2.026,0,0,1,622.611,523.157Z" transform="translate(-573.315 -486.394)" fill="#fba06a"/><path d="M572.5,493.725a4.982,4.982,0,0,0-2.091-1.611s-1.339-.6-1.84-.058a3.5,3.5,0,0,0-.535,1.411,2.07,2.07,0,0,0-1.269.951,2.457,2.457,0,0,0-.05,1.088,2.139,2.139,0,0,0-.816.871c-.218.528.117,1.265-.11,1.417a2.2,2.2,0,0,0,.039,2.439,15.691,15.691,0,0,0,3.67,5.248l3.5,2.929,1.51-3.324,1.5-1.541a34.288,34.288,0,0,0,.668-5.836,18.832,18.832,0,0,0-1.365-4.894c-.35-.593-2.077.062-2.811.911" transform="translate(-565.413 -481.864)" fill="#fba06a"/><path d="M604.7,561.631l-22.823-31.542-11.968-22.382s6.282-4.7,7.506-3.117c4.831,6.253,14.229,20.183,14.5,20.742a57.869,57.869,0,0,0,7.894,8.281c.294.257,6.183,4.163,7.6,4.978,2.763,1.594,3.547,14.87,2.061,19.138A4.9,4.9,0,0,1,604.7,561.631Z" transform="translate(-566.066 -483.666)" fill="#18394a"/></g></g></svg>