<svg xmlns="http://www.w3.org/2000/svg" viewBox="0 0 72.21 84.31"><defs><style>.cls-1{fill:#dddcdd;}</style></defs><title>Asset 2</title><g id="Layer_2" data-name="Layer 2"><g id="Layer_1-2" data-name="Layer 1"><path class="cls-1" d="M40.68,12.39a7,7,0,1,0-9.93-.77,6.3,6.3,0,0,0,.78.77,36.09,36.09,0,1,0,9.15,0ZM36.1,4a3,3,0,1,1-3,3.05A3,3,0,0,1,36.1,4Zm0,74.72A30.53,30.53,0,1,1,66.64,48.2h0A30.53,30.53,0,0,1,36.1,78.73Z"/><path class="cls-1" d="M18.1,30.19,32,52.28,54.11,66.21,40.18,44.12Zm18,21.19a3.18,3.18,0,1,1,3.19-3.18h0A3.18,3.18,0,0,1,36.1,51.38Z"/><path class="cls-1" d="M36.1,27.26a2,2,0,0,0,2-2V22a2,2,0,0,0-4,0v3.27A2,2,0,0,0,36.1,27.26Z"/><path class="cls-1" d="M13.16,46.2H9.89a2,2,0,0,0,0,4h3.27a2,2,0,0,0,0-4Z"/><path class="cls-1" d="M36.1,69.15a2,2,0,0,0-2,2v3.26a2,2,0,0,0,4,0V71.15A2,2,0,0,0,36.1,69.15Z"/><path class="cls-1" d="M57.05,48.2a2,2,0,0,0,2,2h3.27a2,2,0,0,0,0-4H59.05A2,2,0,0,0,57.05,48.2Z"/></g></g></svg>