<svg xmlns="http://www.w3.org/2000/svg" width="100" height="100" viewBox="-12843 10666.999 71.377 85.256">
  <defs>
    <style>
      .cls-1 {
        fill: #dddcdd;
      }
    </style>
  </defs>
  <g id="Group_1046" data-name="Group 1046" transform="translate(-12842.95 10667.049)">
    <path id="Path_1191" data-name="Path 1191" class="cls-1" d="M48.819,26.446a17.037,17.037,0,0,1-5.143,12.4,16.825,16.825,0,0,1-12.4,5.143L14.4,60.865a63.786,63.786,0,0,0,4.088,5.143c2.11,2.506,4.352,5.011,6.594,7.517S28.906,77.613,29.7,78.4a23.949,23.949,0,0,1,1.846,1.846L35.5,75.766c2.637-3.033,6.066-7.385,10.286-12.924,4.22-5.671,8.044-11.077,11.473-16.352,3.3-6.857,5.011-13.056,5.011-18.726A32.239,32.239,0,0,0,59.9,15.5Z" transform="translate(4.606 4.956)"/>
    <path id="Path_1192" data-name="Path 1192" class="cls-1" d="M69.645,1.73h0a5.892,5.892,0,0,0-8.44,0L55.139,7.8a36.27,36.27,0,0,0-3.692-2.506A29.5,29.5,0,0,0,35.886.939,29.173,29.173,0,0,0,20.325,5.291,31.646,31.646,0,0,0,8.983,17.16a32.075,32.075,0,0,0-4.22,15.957c0,5.671,1.451,11.6,4.352,18.067.4.528.659,1.187,1.055,1.714l-8.44,8.44a5.892,5.892,0,0,0,0,8.44h0a5.892,5.892,0,0,0,8.44,0L69.645,10.17A6.136,6.136,0,0,0,69.645,1.73ZM18.083,31.27a17.334,17.334,0,0,1,5.143-12.528A17.12,17.12,0,0,1,35.754,13.6,16.283,16.283,0,0,1,46.04,16.9L21.38,41.556A17.7,17.7,0,0,1,18.083,31.27Z" transform="translate(0 0)"/>
  </g>
</svg>
