<svg width="60" height="60" viewBox="0 0 60 60" fill="none" xmlns="http://www.w3.org/2000/svg">
<rect width="60" height="60" rx="2" fill="#2D3748"/>
<path d="M30.4688 18C26.7188 18 24.2812 19.5469 22.3594 22.3125C22.0312 22.7812 22.125 23.4844 22.6406 23.8125L24.6562 25.3594C25.125 25.7344 25.8281 25.6406 26.2031 25.1719C27.375 23.7188 28.2656 22.875 30.0938 22.875C31.5469 22.875 33.3281 23.7656 33.3281 25.1719C33.3281 26.25 32.4375 26.7656 31.0312 27.5625C29.3438 28.5 27.1406 29.6719 27.1406 32.5781V33C27.1406 33.6562 27.6562 34.125 28.2656 34.125H31.6875C32.2969 34.125 32.8125 33.6562 32.8125 33V32.7656C32.8125 30.75 38.6719 30.6562 38.6719 25.2188C38.6719 21.1406 34.4062 18 30.4688 18ZM30 35.5312C28.1719 35.5312 26.7188 36.9844 26.7188 38.7656C26.7188 40.5469 28.1719 42 30 42C31.7812 42 33.2344 40.5469 33.2344 38.7656C33.2344 36.9844 31.7812 35.5312 30 35.5312Z" fill="white"/>
</svg>
