<svg xmlns="http://www.w3.org/2000/svg" viewBox="-12656 23207 84.075 71.201">
  <defs>
    <style>
      .cls-1 {
        fill: #dddcdd;
      }
    </style>
  </defs>
  <g id="Group_1744" data-name="Group 1744" transform="translate(-12656 23207.05)">
    <path id="Path_2169" data-name="Path 2169" class="cls-1" d="M70.675,1.723h0a5.869,5.869,0,0,0-8.407,0L56.225,7.766l-2.5,2.5a10.618,10.618,0,0,0-2.1-.131H32.842A21.374,21.374,0,0,0,13.137,23.268c-.131-.263-.263-.394-.263-.657l-.131-.394a25.015,25.015,0,0,0-4.466-.131,5.476,5.476,0,0,0-3.153,1.182,1.626,1.626,0,0,1-.263.394,1.867,1.867,0,0,0-.263.788c0,1.314,1.708,2.759,3.678,3.81C4.072,30.23,0,33.646,0,37.587A62.884,62.884,0,0,0,3.81,59l.131.657v.394l-.92.92a5.869,5.869,0,0,0,0,8.407,5.869,5.869,0,0,0,8.407,0L70.675,10.131A6.113,6.113,0,0,0,70.675,1.723ZM16.421,26.815A19.829,19.829,0,0,1,35.338,14.072h14.45L35.206,28.785H17.735A1.531,1.531,0,0,1,16.421,26.815ZM3.81,41.528a1.521,1.521,0,0,1,1.708-1.971l13.137,1.971a1.671,1.671,0,0,1,1.182.92l.657,1.314-3.021,3.021H6.568a1.424,1.424,0,0,1-1.445-1.051ZM16.027,48.1,14.45,49.672H6.831a.788.788,0,1,1,0-1.576h9.2Z" transform="translate(0 0)"/>
    <path id="Path_2170" data-name="Path 2170" class="cls-1" d="M69.719,24.109c2.1-.92,3.941-2.627,3.941-3.941a1.867,1.867,0,0,0-.263-.788c0-.131-.131-.131-.131-.263a5.476,5.476,0,0,0-3.153-1.182,16.969,16.969,0,0,0-4.466.131,1.323,1.323,0,0,0-.131.394c-.131.263-.263.394-.394.657A23.564,23.564,0,0,0,61.837,13.6l-3.284,3.284a18.724,18.724,0,0,1,3.284,5.649,1.363,1.363,0,0,1-1.314,1.839H51.065L19.8,55.637H62.363v1.839a5.933,5.933,0,0,0,4.6,5.912,5.673,5.673,0,0,0,6.831-5.649V55.375l.263-.657a62.324,62.324,0,0,0,3.81-21.413C77.864,29.5,73.923,26.08,69.719,24.109Zm1.708,21.281H56.977a.788.788,0,0,1,0-1.576h14.45a.848.848,0,0,1,.788.788A.757.757,0,0,1,71.427,45.391Zm3.021-8.145-1.314,4.2A1.537,1.537,0,0,1,71.69,42.5H58.947A1.6,1.6,0,0,1,57.5,40.267l1.051-2.233a1.671,1.671,0,0,1,1.182-.92l13.137-1.971A1.623,1.623,0,0,1,74.449,37.246Z" transform="translate(6.211 4.282)"/>
  </g>
</svg>
