<svg xmlns="http://www.w3.org/2000/svg" width="35.19" height="14.316" viewBox="0 0 35.19 14.316"><defs><style>.a{fill:#a0aec0;fill-rule:evenodd;opacity:0.502;}</style></defs><g transform="translate(77.383 538.003)"><path class="a" d="M104.431,12.482H99.76c.107,1.118.926,1.448,1.856,1.448a5.048,5.048,0,0,0,2.343-.528v1.922a5.342,5.342,0,0,1-2.644.618c-2.324,0-3.952-1.455-3.952-4.332,0-2.43,1.381-4.359,3.651-4.359s3.449,1.928,3.449,4.372C104.463,11.853,104.442,12.353,104.431,12.482ZM101,9.2c-.6,0-1.26.45-1.26,1.525h2.467C102.206,9.647,101.584,9.2,101,9.2Zm-7.5,6.746a2.675,2.675,0,0,1-1.688-.6l-.005,2.7-2.385.508V7.409h2.1L91.647,8a2.672,2.672,0,0,1,1.869-.748c1.675,0,3.253,1.509,3.253,4.287C96.769,14.569,95.208,15.942,93.5,15.942Zm-.556-6.578a1.439,1.439,0,0,0-1.139.473l.014,3.545a1.425,1.425,0,0,0,1.125.453c.882,0,1.474-.96,1.474-2.245C94.419,10.342,93.818,9.364,92.945,9.364ZM85.974,7.409h2.395v8.362H85.974Zm0-2.67,2.395-.509V6.173l-2.395.509ZM83.42,10.1v5.669H81.035V7.409H83.1l.15.7a1.627,1.627,0,0,1,1.991-.7V9.6A1.7,1.7,0,0,0,83.42,10.1Zm-5.114,2.736c0,1.406,1.506.968,1.811.846v1.942a3.679,3.679,0,0,1-1.674.316,2.4,2.4,0,0,1-2.479-2.455l.011-7.654,2.329-.5,0,2.072h1.812V9.444H78.306Zm-2.974.407c0,1.717-1.367,2.7-3.351,2.7a6.624,6.624,0,0,1-2.609-.541V13.123a6.015,6.015,0,0,0,2.611.762c.532,0,.915-.143.915-.584,0-1.139-3.626-.71-3.626-3.351,0-1.689,1.29-2.7,3.225-2.7a6.308,6.308,0,0,1,2.371.436V9.934A5.341,5.341,0,0,0,72.5,9.32c-.5,0-.811.145-.811.517C71.685,10.911,75.333,10.4,75.333,13.245Z" transform="translate(-146.656 -542.233)"/></g></svg>