<svg xmlns="http://www.w3.org/2000/svg" viewBox="-9068.5 -18834.547 306.676 76.873">
  <defs>
    <style>
      .cls-1 {
        fill: #2e5a76;
      }

      .cls-2 {
        fill: #ffa400;
      }

      .cls-3 {
        fill: #fff;
        opacity: 0.2;
      }
    </style>
  </defs>
  <g id="Group_3525" data-name="Group 3525" transform="translate(-9555 -19073)">
    <path id="Panel_title" data-name="Panel title" class="cls-1" d="M29.348-20.967,20.778,0H17.371L15.007-14.529q-.044-.29-.087-.616t-.073-.689q-.131.362-.254.689t-.239.616L8.424,0H5.046L1.624-20.967H4.568a1.223,1.223,0,0,1,.79.239.951.951,0,0,1,.355.616L7.555-7.25q.043.464.08,1T7.7-5.133q.189-.58.377-1.116t.391-1l5.22-12.861A1.7,1.7,0,0,1,14.2-20.7a1.323,1.323,0,0,1,.819-.268h.884a1.134,1.134,0,0,1,.768.239,1.3,1.3,0,0,1,.392.616L19.154-7.25q.073.449.138.971T19.4-5.191q.159-.566.319-1.08t.319-.979l4.974-12.861a.972.972,0,0,1,.188-.326,1.4,1.4,0,0,1,.312-.268,1.74,1.74,0,0,1,.406-.189,1.479,1.479,0,0,1,.457-.072Zm5.466,8.381a3.093,3.093,0,0,0-1.348.3,3.718,3.718,0,0,0-1.124.834,5.34,5.34,0,0,0-.87,1.283,7.934,7.934,0,0,0-.587,1.631,23.794,23.794,0,0,0,2.893-.544,7.408,7.408,0,0,0,1.689-.638,1.876,1.876,0,0,0,.79-.74,1.869,1.869,0,0,0,.2-.834,1.191,1.191,0,0,0-.094-.45,1.149,1.149,0,0,0-.29-.413,1.609,1.609,0,0,0-.507-.3A2.03,2.03,0,0,0,34.814-12.586ZM30.58-6.061q0,3.509,2.973,3.509a4.684,4.684,0,0,0,1.131-.123,4.721,4.721,0,0,0,.863-.3,4.036,4.036,0,0,0,.667-.391q.3-.217.551-.392a4.243,4.243,0,0,1,.5-.3,1.183,1.183,0,0,1,.536-.123.729.729,0,0,1,.341.087,1.054,1.054,0,0,1,.3.232l.914,1.1a15.252,15.252,0,0,1-1.508,1.334,8.354,8.354,0,0,1-1.508.928,7.116,7.116,0,0,1-1.624.537,9.315,9.315,0,0,1-1.856.174,6.075,6.075,0,0,1-2.363-.442,5.194,5.194,0,0,1-1.812-1.247,5.593,5.593,0,0,1-1.167-1.943A7.416,7.416,0,0,1,27.1-5.96a10.5,10.5,0,0,1,.254-2.306,10.307,10.307,0,0,1,.732-2.146,9.1,9.1,0,0,1,1.174-1.87,7.988,7.988,0,0,1,1.573-1.479,7.229,7.229,0,0,1,1.928-.972,7.131,7.131,0,0,1,2.255-.348,5.715,5.715,0,0,1,2.037.334,4.6,4.6,0,0,1,1.465.863A3.506,3.506,0,0,1,39.4-12.7a3.129,3.129,0,0,1,.29,1.276,4.149,4.149,0,0,1-.4,1.827A3.741,3.741,0,0,1,37.867-8.12,10.075,10.075,0,0,1,35.076-7a29.414,29.414,0,0,1-4.5.747ZM41.223,0l2.61-21.547h3.538L44.747,0ZM59.566-2.639a13.493,13.493,0,0,1-1.414,1.363,6.855,6.855,0,0,1-1.37.885A5.71,5.71,0,0,1,55.325.08,9.43,9.43,0,0,1,53.65.218a5.771,5.771,0,0,1-2.313-.442A4.8,4.8,0,0,1,49.6-1.479a5.581,5.581,0,0,1-1.088-1.958,8.133,8.133,0,0,1-.377-2.552A10.54,10.54,0,0,1,48.4-8.337a10.023,10.023,0,0,1,.754-2.16,9.206,9.206,0,0,1,1.189-1.856A7.931,7.931,0,0,1,51.91-13.8a7.314,7.314,0,0,1,1.892-.95,6.81,6.81,0,0,1,2.168-.341,5.546,5.546,0,0,1,2.516.522,5.329,5.329,0,0,1,1.834,1.566l-1.146,1.363a1.321,1.321,0,0,1-.29.239.7.7,0,0,1-.377.109.7.7,0,0,1-.442-.152q-.2-.152-.464-.326a3.577,3.577,0,0,0-.667-.326,2.954,2.954,0,0,0-1.037-.152,3.041,3.041,0,0,0-1.581.45,4.382,4.382,0,0,0-1.334,1.276,6.739,6.739,0,0,0-.921,1.987,9.085,9.085,0,0,0-.341,2.566,3.915,3.915,0,0,0,.725,2.53,2.406,2.406,0,0,0,1.972.892,3.667,3.667,0,0,0,.972-.116,3.946,3.946,0,0,0,.747-.283,3.424,3.424,0,0,0,.573-.362q.247-.2.464-.363a4.229,4.229,0,0,1,.413-.283.824.824,0,0,1,.428-.116.711.711,0,0,1,.355.094,1.177,1.177,0,0,1,.3.239Zm7.5.1a2.739,2.739,0,0,0,1.624-.515A4.38,4.38,0,0,0,69.919-4.43,7.313,7.313,0,0,0,70.7-6.438a10.262,10.262,0,0,0,.276-2.407,4.612,4.612,0,0,0-.609-2.661,2.133,2.133,0,0,0-1.856-.848,2.8,2.8,0,0,0-1.631.508,4.262,4.262,0,0,0-1.24,1.37,7.313,7.313,0,0,0-.783,2.008,10.326,10.326,0,0,0-.275,2.421,4.612,4.612,0,0,0,.609,2.661A2.148,2.148,0,0,0,67.063-2.537ZM66.729.218A6.131,6.131,0,0,1,64.452-.2,5.086,5.086,0,0,1,62.64-1.407a5.625,5.625,0,0,1-1.2-1.957A7.525,7.525,0,0,1,61-6.017a10.185,10.185,0,0,1,.624-3.6A9.253,9.253,0,0,1,63.314-12.5,7.89,7.89,0,0,1,65.8-14.413a6.8,6.8,0,0,1,3.031-.7,6.188,6.188,0,0,1,2.284.413,5,5,0,0,1,1.813,1.211,5.683,5.683,0,0,1,1.2,1.957,7.525,7.525,0,0,1,.435,2.654A10.084,10.084,0,0,1,73.936-5.3a9.365,9.365,0,0,1-1.689,2.885A7.936,7.936,0,0,1,69.759-.486,6.741,6.741,0,0,1,66.729.218ZM76.125,0l1.8-14.891H79.75a1.281,1.281,0,0,1,.877.275,1.124,1.124,0,0,1,.312.884l-.072,1.639a7.5,7.5,0,0,1,2.175-2.269,4.5,4.5,0,0,1,2.451-.747,2.721,2.721,0,0,1,2.16.914,4.427,4.427,0,0,1,.928,2.639,7.922,7.922,0,0,1,2.313-2.69,4.813,4.813,0,0,1,2.762-.863,3.476,3.476,0,0,1,1.653.377,3.032,3.032,0,0,1,1.16,1.095,4.6,4.6,0,0,1,.609,1.769,8.689,8.689,0,0,1-.015,2.4L95.946,0H92.409l1.116-9.469a4.345,4.345,0,0,0-.08-2.081,1.055,1.055,0,0,0-1.08-.631,2.183,2.183,0,0,0-1.073.29,3.671,3.671,0,0,0-.993.841,6.625,6.625,0,0,0-.87,1.349,11.526,11.526,0,0,0-.7,1.8L87.8,0H84.259L85.39-9.469a4.71,4.71,0,0,0-.072-2.081,1.026,1.026,0,0,0-1.073-.631,2.192,2.192,0,0,0-1.109.3,3.711,3.711,0,0,0-1,.877,7.018,7.018,0,0,0-.87,1.392,12.209,12.209,0,0,0-.7,1.834L79.634,0ZM106.88-12.586a3.093,3.093,0,0,0-1.349.3,3.719,3.719,0,0,0-1.124.834,5.34,5.34,0,0,0-.87,1.283,7.934,7.934,0,0,0-.587,1.631,23.794,23.794,0,0,0,2.893-.544,7.408,7.408,0,0,0,1.689-.638,1.876,1.876,0,0,0,.79-.74,1.869,1.869,0,0,0,.2-.834,1.191,1.191,0,0,0-.094-.45,1.149,1.149,0,0,0-.29-.413,1.609,1.609,0,0,0-.507-.3A2.03,2.03,0,0,0,106.88-12.586Zm-4.234,6.525q0,3.509,2.972,3.509a4.684,4.684,0,0,0,1.131-.123,4.721,4.721,0,0,0,.863-.3,4.037,4.037,0,0,0,.667-.391q.3-.217.551-.392a4.242,4.242,0,0,1,.5-.3,1.183,1.183,0,0,1,.536-.123.729.729,0,0,1,.341.087,1.053,1.053,0,0,1,.3.232l.913,1.1a15.253,15.253,0,0,1-1.508,1.334,8.354,8.354,0,0,1-1.508.928,7.116,7.116,0,0,1-1.624.537,9.315,9.315,0,0,1-1.856.174,6.075,6.075,0,0,1-2.363-.442,5.194,5.194,0,0,1-1.812-1.247,5.593,5.593,0,0,1-1.167-1.943,7.416,7.416,0,0,1-.413-2.545,10.5,10.5,0,0,1,.254-2.306,10.307,10.307,0,0,1,.732-2.146,9.1,9.1,0,0,1,1.174-1.87A7.988,7.988,0,0,1,102.9-13.76a7.229,7.229,0,0,1,1.929-.972,7.131,7.131,0,0,1,2.255-.348,5.715,5.715,0,0,1,2.037.334,4.6,4.6,0,0,1,1.465.863,3.506,3.506,0,0,1,.877,1.182,3.129,3.129,0,0,1,.29,1.276,4.149,4.149,0,0,1-.4,1.827,3.74,3.74,0,0,1-1.421,1.479A10.075,10.075,0,0,1,107.141-7a29.414,29.414,0,0,1-4.5.747Zm18.11,3.031V-3.27q0-.138.022-.406t.073-.71q.051-.442.138-1.138l.826-6.67h-1.407a.545.545,0,0,1-.428-.188.67.67,0,0,1-.109-.566l.16-1.421,2.262-.391,1.189-4.06a.955.955,0,0,1,.3-.45.8.8,0,0,1,.507-.16h1.914l-.58,4.684h3.6l-.3,2.552h-3.61l-.8,6.482q-.072.594-.116.942t-.065.544q-.022.2-.022.275v.109a1.31,1.31,0,0,0,.268.87.939.939,0,0,0,.761.319,1.52,1.52,0,0,0,.522-.08,2.817,2.817,0,0,0,.377-.167q.159-.087.29-.167a.476.476,0,0,1,.246-.08.352.352,0,0,1,.246.08.734.734,0,0,1,.16.239l.769,1.74a5.709,5.709,0,0,1-1.762.986,5.972,5.972,0,0,1-1.965.334,3.53,3.53,0,0,1-2.5-.856A3.256,3.256,0,0,1,120.756-3.031Zm15.167.493a2.739,2.739,0,0,0,1.624-.515,4.379,4.379,0,0,0,1.232-1.378,7.313,7.313,0,0,0,.783-2.008,10.262,10.262,0,0,0,.275-2.407,4.612,4.612,0,0,0-.609-2.661,2.133,2.133,0,0,0-1.856-.848,2.8,2.8,0,0,0-1.631.508,4.262,4.262,0,0,0-1.24,1.37,7.313,7.313,0,0,0-.783,2.008,10.326,10.326,0,0,0-.275,2.421,4.611,4.611,0,0,0,.609,2.661A2.148,2.148,0,0,0,135.923-2.537ZM135.589.218A6.131,6.131,0,0,1,133.313-.2,5.086,5.086,0,0,1,131.5-1.407a5.625,5.625,0,0,1-1.2-1.957,7.525,7.525,0,0,1-.435-2.654,10.186,10.186,0,0,1,.624-3.6,9.253,9.253,0,0,1,1.689-2.885,7.89,7.89,0,0,1,2.487-1.914,6.8,6.8,0,0,1,3.031-.7,6.188,6.188,0,0,1,2.284.413,5,5,0,0,1,1.813,1.211,5.683,5.683,0,0,1,1.2,1.957,7.525,7.525,0,0,1,.435,2.654A10.084,10.084,0,0,1,142.8-5.3a9.365,9.365,0,0,1-1.689,2.885A7.935,7.935,0,0,1,138.62-.486,6.741,6.741,0,0,1,135.589.218Z" transform="translate(567 260)"/>
    <g id="Group_3462" data-name="Group 3462" transform="translate(486.517 265.713)">
      <g id="Group_2247" data-name="Group 2247" transform="translate(36.847 6.838)">
        <path id="Path_2593" data-name="Path 2593" class="cls-1" d="M76.993,36.749,86.732,12.4H98.051L80.941,52.477H72.847L56,12.4H67.319Z" transform="translate(-56 -11.084)"/>
        <path id="Path_2594" data-name="Path 2594" class="cls-1" d="M134.3,52.477H123.9V12.4h10.4Z" transform="translate(-79.216 -11.084)"/>
        <path id="Path_2595" data-name="Path 2595" class="cls-1" d="M146.8,12.4h10.4l19.084,24.481h.132V12.4h10.4V52.477h-10.4L157.329,27.931H157.2V52.477H146.8Z" transform="translate(-87.047 -11.084)"/>
        <path id="Path_2596" data-name="Path 2596" class="cls-1" d="M213.7,12.4h15.991c8.621,0,14.544,4.014,14.544,13.162,0,9.476-5.133,13.622-14.214,13.622H224.1V52.477H213.7Zm10.463,18.426h1.777c3.751,0,7.5,0,7.5-4.87,0-5.067-3.488-5.133-7.5-5.133h-1.777Z" transform="translate(-109.921 -11.084)"/>
        <path id="Path_2597" data-name="Path 2597" class="cls-1" d="M307.754,31c0,12.964-9.279,22.111-22.177,22.111S263.4,43.962,263.4,31c0-12.109,10.661-20.6,22.177-20.6C297.159,10.4,307.754,18.889,307.754,31Zm-33.5.066c0,6.91,5.133,11.977,11.319,11.977S296.9,37.973,296.9,31.064c0-5.528-5.133-10.6-11.319-10.6S274.258,25.536,274.258,31.064Z" transform="translate(-126.915 -10.4)"/>
        <path id="Path_2598" data-name="Path 2598" class="cls-1" d="M346,52.477H335.6V12.4H346Z" transform="translate(-151.601 -11.084)"/>
        <path id="Path_2599" data-name="Path 2599" class="cls-1" d="M358.1,12.4h10.463l19.084,24.481h.132V12.4h10.4V52.477h-10.4L368.7,27.931h-.132V52.477h-10.4V12.4Z" transform="translate(-159.295 -11.084)"/>
        <path id="Path_2600" data-name="Path 2600" class="cls-1" d="M443.018,52.477h-10.4V21.218H424V12.4h27.639v8.818h-8.621Z" transform="translate(-181.827 -11.084)"/>
      </g>
      <g id="Group_2249" data-name="Group 2249" transform="translate(-0.017 -0.017)">
        <g id="Group_2248" data-name="Group 2248" transform="translate(0 0)">
          <path id="Path_2601" data-name="Path 2601" class="cls-2" d="M10.787.521A14.75,14.75,0,0,0,.521,18.684C2.3,25.067,15.788,36.978,20.658,41.19a1.538,1.538,0,0,0,2.5-.724c2.04-6.12,7.5-23.3,5.725-29.679A14.652,14.652,0,0,0,10.787.521m5.4,19.545a5.4,5.4,0,1,1,3.751-6.647,5.422,5.422,0,0,1-3.751,6.647" transform="translate(0.017 0.017)"/>
        </g>
        <ellipse id="Ellipse_439" data-name="Ellipse 439" class="cls-2" cx="8.752" cy="1.974" rx="8.752" ry="1.974" transform="translate(11.791 45.682)"/>
        <path id="Path_2602" data-name="Path 2602" class="cls-3" d="M16.446,19.95c-.066,0-.2.066-.263.066a5.4,5.4,0,0,1-2.9-10.4,5.322,5.322,0,0,1,4.936,1.119l1.908-9.674A15.045,15.045,0,0,0,10.787.537,14.75,14.75,0,0,0,.521,18.7c1.185,4.212,7.5,10.924,13.03,16.123Z" transform="translate(0.017 0.001)"/>
      </g>
    </g>
  </g>
</svg>
