<svg xmlns="http://www.w3.org/2000/svg" viewBox="-837 -1115 151.416 151.416">
  <defs>
    <style>
      .cls-1 {
        fill: #3e6ba6;
      }

      .cls-2 {
        fill: #173152;
      }

      .cls-3 {
        fill: #f4f4f4;
      }

      .cls-4 {
        fill: #fff;
        opacity: 0.06;
      }
    </style>
  </defs>
  <g id="group-1" transform="translate(-836.984 -1114.984)">
    <circle id="ellipse" class="cls-1" cx="75.7" cy="75.7" r="75.7" transform="translate(0 0)"/>
    <circle id="ellipse-2" data-name="ellipse" class="cls-2" cx="67.8" cy="67.8" r="67.8" transform="translate(7.9 7.9)"/>
    <g id="group">
      <path id="path" class="cls-3" d="M106.7,87.1c-.4,1.5-.8,3.2-1.2,5-.5,1.8-1.1,3.6-1.8,5.5a40.658,40.658,0,0,1-2.8,5.5,26.606,26.606,0,0,1-4,5,24.925,24.925,0,0,1-6.6,4.7,33.915,33.915,0,0,1-7.1,2.6,41.269,41.269,0,0,1-6.9,1.1c-2.2.2-4.3.3-6.1.3s-3.8-.1-5.9-.2a50.678,50.678,0,0,1-6.5-.9,47.459,47.459,0,0,1-6.4-2,19.992,19.992,0,0,1-5.6-3.4,22.523,22.523,0,0,1-5.3-6.9,23.181,23.181,0,0,1-2.3-10.7,34.623,34.623,0,0,1,.4-5.2q.45-3,1.5-7.8l8.3-38.4h23L62.5,82.4c-.3,1.3-.5,2.5-.7,3.6a18.164,18.164,0,0,0-.3,3.2,9.291,9.291,0,0,0,.9,4.4,8.964,8.964,0,0,0,1.8,2.5A7.566,7.566,0,0,0,67.7,98a15.038,15.038,0,0,0,3.5.4,11.241,11.241,0,0,0,8.7-3.6,13.417,13.417,0,0,0,2.7-4.4q.9-2.4,1.5-4.5l9.5-44.5h23Z"/>
    </g>
    <path id="path-2" data-name="path" class="cls-4" d="M90.3,1.4,61.2,150.1A75.76,75.76,0,0,1,90.3,1.4Z"/>
  </g>
</svg>