<svg xmlns="http://www.w3.org/2000/svg" xmlns:xlink="http://www.w3.org/1999/xlink" width="497.765" height="372.879" viewBox="0 0 497.765 372.879"><defs><style>.a,.e{fill:#54c1e8;}.a,.g{opacity:0.25;}.b,.t{fill:#fff;}.b{opacity:0.4;}.c{fill:#252223;}.c,.n{opacity:0.1;}.d{fill:url(#a);}.f{fill:#f5f5f5;}.f,.x{opacity:0.2;}.h{fill:#67647e;}.i{fill:url(#b);}.j{fill:url(#c);}.k{fill:#4c4c56;}.l{fill:#5f5d7e;}.m{fill:#986365;}.o{fill:#fdc2cc;}.p{fill:#d39999;}.q{fill:#ec7580;}.r,.u{opacity:0.05;}.s{fill:#865a61;}.t{opacity:0.5;}.v,.y{fill:none;stroke:#535461;stroke-miterlimit:10;}.w{fill:#a8a8a8;}.y{stroke-width:2px;}</style><linearGradient id="a" x1="0.5" y1="1" x2="0.5" gradientUnits="objectBoundingBox"><stop offset="0" stop-color="gray" stop-opacity="0.251"/><stop offset="0.54" stop-color="gray" stop-opacity="0.122"/><stop offset="1" stop-color="gray" stop-opacity="0.102"/></linearGradient><linearGradient id="b" x1="0.454" y1="1" x2="0.454" y2="0" xlink:href="#a"/><linearGradient id="c" x1="0.499" y1="1" x2="0.499" y2="0" xlink:href="#a"/></defs><g transform="translate(0 -0.01)"><path class="a" d="M472.709,157.876V124.63h-19.74v33.245H429.593V106.449H412.451V68.009H398.426V28.53h-29.09V68.009H355.311v38.44H338.688V60.217h-9.35V36.841h-5.714V60.217H290.378V207.744H264.925V192.16H249.341v15.584H223.887V157.876H178.175V124.63H158.435v33.245H157.4v63.894H136.618v-37.4H111.684v37.4H90.905V106.449H74.8V68.009H15.584v38.44H0V309.558H496.084V157.876Z" transform="translate(0 -13.705)"/><rect class="b" width="21.817" height="12.467" transform="translate(9.87 104.692)"/><rect class="b" width="21.817" height="12.467" transform="translate(80.516 117.159) rotate(180)"/><rect class="b" width="21.817" height="12.467" transform="translate(9.87 129.106)"/><rect class="b" width="21.817" height="12.467" transform="translate(80.516 141.573) rotate(180)"/><rect class="b" width="21.817" height="12.467" transform="translate(9.87 153.521)"/><rect class="b" width="21.817" height="12.467" transform="translate(80.516 165.988) rotate(180)"/><rect class="b" width="21.817" height="12.467" transform="translate(9.87 177.935)"/><rect class="b" width="21.817" height="12.467" transform="translate(80.516 190.402) rotate(180)"/><rect class="b" width="21.817" height="12.467" transform="translate(9.87 202.35)"/><rect class="b" width="21.817" height="12.467" transform="translate(80.516 214.817) rotate(180)"/><rect class="b" width="21.817" height="12.467" transform="translate(9.87 226.765)"/><rect class="b" width="21.817" height="12.467" transform="translate(80.516 239.232) rotate(180)"/><rect class="b" width="21.817" height="12.467" transform="translate(9.87 251.179)"/><rect class="b" width="21.817" height="12.467" transform="translate(80.516 263.646) rotate(180)"/><rect class="b" width="50.907" height="6.234" transform="translate(98.697 220.531)"/><rect class="b" width="50.907" height="6.234" transform="translate(98.697 229.881)"/><rect class="b" width="50.907" height="6.234" transform="translate(98.697 239.232)"/><rect class="b" width="50.907" height="6.234" transform="translate(231.679 223.648)"/><rect class="b" width="50.907" height="6.234" transform="translate(231.679 232.998)"/><rect class="b" width="50.907" height="6.234" transform="translate(231.679 242.348)"/><rect class="b" width="50.907" height="6.234" transform="translate(98.697 248.582)"/><rect class="b" width="50.907" height="6.234" transform="translate(98.697 257.932)"/><rect class="b" width="50.907" height="6.234" transform="translate(98.697 267.283)"/><rect class="b" width="14.025" height="18.181" transform="translate(168.305 156.118)"/><rect class="b" width="14.025" height="18.181" transform="translate(212.979 174.299) rotate(180)"/><rect class="b" width="14.025" height="18.181" transform="translate(168.305 185.208)"/><rect class="b" width="14.025" height="18.181" transform="translate(212.979 203.389) rotate(180)"/><rect class="b" width="14.025" height="18.181" transform="translate(168.305 214.298)"/><rect class="b" width="14.025" height="18.181" transform="translate(212.979 232.479) rotate(180)"/><rect class="b" width="14.025" height="18.181" transform="translate(168.305 243.387)"/><rect class="b" width="14.025" height="18.181" transform="translate(212.979 261.568) rotate(180)"/><rect class="b" width="18.701" height="23.895" transform="translate(290.378 58.46)"/><rect class="b" width="18.701" height="23.895" transform="translate(290.378 92.744)"/><rect class="b" width="18.701" height="23.895" transform="translate(290.378 127.028)"/><rect class="b" width="18.701" height="23.895" transform="translate(290.378 161.313)"/><rect class="b" width="18.701" height="23.895" transform="translate(290.378 195.597)"/><rect class="b" width="18.701" height="23.895" transform="translate(290.378 229.881)"/><rect class="b" width="69.608" height="20.259" transform="translate(349.337 107.289)"/><rect class="b" width="69.608" height="20.259" transform="translate(349.596 150.923)"/><rect class="b" width="69.608" height="20.259" transform="translate(349.856 194.558)"/><rect class="b" width="69.608" height="20.259" transform="translate(350.116 238.193)"/><rect class="b" width="9.35" height="19.739" transform="translate(15.584 65.213)"/><rect class="b" width="23.376" height="30.129" transform="translate(472.708 156.118)"/><rect class="b" width="23.376" height="30.129" transform="translate(472.708 199.753)"/><rect class="b" width="23.376" height="30.129" transform="translate(472.708 243.387)"/><path class="c" d="M351.571,162.69H348a2.5,2.5,0,1,0,0-5H319.048a2.5,2.5,0,0,0,0,5h3.574a2.5,2.5,0,1,0,0,5h-5a2.5,2.5,0,0,0,0,5h28.95a2.5,2.5,0,0,0,0-5h5a2.5,2.5,0,1,0,0-5Z" transform="translate(-214.081 -123.097)"/><path class="c" d="M597.36,283.69h-3.574a2.5,2.5,0,1,0,0-5h-28.95a2.5,2.5,0,0,0,0,5h3.574a2.5,2.5,0,1,0,0,5h-5a2.5,2.5,0,1,0,0,5h28.95a2.5,2.5,0,1,0,0-5h5a2.5,2.5,0,1,0,0-5Z" transform="translate(-332.082 -181.242)"/><path class="c" d="M1016.36,125.69h-3.574a2.5,2.5,0,1,0,0-5H983.837a2.5,2.5,0,0,0,0,5h3.574a2.5,2.5,0,1,0,0,5h-5a2.5,2.5,0,1,0,0,5h28.95a2.5,2.5,0,1,0,0-5h5a2.5,2.5,0,1,0,0-5Z" transform="translate(-533.429 -105.317)"/><path class="d" d="M757.992,93.473a94.087,94.087,0,0,0-13.1.79h0a3.143,3.143,0,1,0-6.285,0h0a94.086,94.086,0,0,0-13.1-.79c-9.688,0-17.547,1.039-17.547,2.358s7.854,2.358,17.547,2.358a94.086,94.086,0,0,0,13.1-.79h0a3.115,3.115,0,0,0,.2,1.106,2.078,2.078,0,0,0-.208,3.392,5.8,5.8,0,0,0-3.444,3.169,5.366,5.366,0,0,0-3.013-1.1l-32.627-1.454A12.748,12.748,0,0,0,689.3,97.4h-20.54a12.748,12.748,0,0,0-10.275,5.195L627.5,103.982a5.366,5.366,0,0,0-2.821.951,5.8,5.8,0,0,0-3.018-2.9,2.078,2.078,0,0,0-.493-3.735,3.118,3.118,0,0,0,.13-.9h0a94.08,94.08,0,0,0,13.1.79c9.688,0,17.547-1.039,17.547-2.358s-7.854-2.358-17.547-2.358a94.086,94.086,0,0,0-13.1.79h0a3.117,3.117,0,0,0-3.117-3.117h0a3.117,3.117,0,0,0-3.117,3.117h0a94.082,94.082,0,0,0-13.1-.79c-9.688,0-17.547,1.039-17.547,2.358s7.854,2.358,17.547,2.358a94.083,94.083,0,0,0,13.1-.79h0a3.119,3.119,0,0,0,.2,1.106,2.078,2.078,0,0,0-.125,3.46,5.787,5.787,0,0,0-3.745,5.408v3.875a5.787,5.787,0,0,0,5.74,5.782h2.3a5.771,5.771,0,0,0,4.639-2.338,5.366,5.366,0,0,0,3.511,1.439l30.388.852a12.83,12.83,0,0,0,3.766,3.839c-2.909,2.956-14.254,16.062-12.425,39.157,0,0,1.834,3.4,6.545,0,0,0-3.013-25.734,13.854-36.331a4.187,4.187,0,0,0,3.953,2.81h2.156a11.262,11.262,0,1,0,8.265,0h2.156a4.186,4.186,0,0,0,3.953-2.809c16.867,10.6,13.854,36.33,13.854,36.33,4.711,3.4,6.545,0,6.545,0,2.078-26.451-13.1-39.8-13.1-39.8h-.275a12.831,12.831,0,0,0,2.847-3.148l31.988-.893a5.371,5.371,0,0,0,3.662-1.558,5.776,5.776,0,0,0,4.748,2.483h2.3a5.787,5.787,0,0,0,5.787-5.787V107.4a5.787,5.787,0,0,0-3.428-5.283,2.078,2.078,0,0,0-.374-3.8,3.118,3.118,0,0,0,.13-.9h0a94.077,94.077,0,0,0,13.1.79c9.688,0,17.547-1.039,17.547-2.358S767.685,93.473,757.992,93.473Z" transform="translate(-343.437 -91.11)"/><circle class="e" cx="10.618" cy="10.618" r="10.618" transform="translate(325.904 34.611)"/><circle class="e" cx="7.163" cy="7.163" r="7.163" transform="translate(329.358 38.066)"/><circle class="f" cx="7.163" cy="7.163" r="7.163" transform="translate(329.358 38.066)"/><circle class="e" cx="4.691" cy="4.691" r="4.691" transform="translate(331.831 40.538)"/><circle class="g" cx="4.691" cy="4.691" r="4.691" transform="translate(331.831 40.538)"/><path class="e" d="M724.885,147.735s-14.322,12.6-12.348,37.536c0,0,1.73,3.21,6.176,0,0,0-3.7-31.614,20.991-37.541Z" transform="translate(-404.913 -118.313)"/><path class="e" d="M786.5,147.735s14.327,12.6,12.368,37.536c0,0-1.73,3.21-6.176,0,0,0,3.7-31.614-20.991-37.541Z" transform="translate(-433.433 -118.313)"/><rect class="e" width="43.468" height="24.082" rx="12.041" transform="translate(313.92 7.932)"/><path class="e" d="M702.591,129.322l-33.916-.951a5.086,5.086,0,0,1-4.945-5.086v-1.3a5.086,5.086,0,0,1,4.857-5.08l33.916-1.522a5.086,5.086,0,0,1,5.314,5.08v3.776a5.086,5.086,0,0,1-5.226,5.08Z" transform="translate(-381.549 -102.768)"/><path class="e" d="M792.826,129.322l33.915-.951a5.085,5.085,0,0,0,4.945-5.086v-1.3a5.085,5.085,0,0,0-4.857-5.08l-33.916-1.522a5.086,5.086,0,0,0-5.314,5.08v3.776a5.086,5.086,0,0,0,5.226,5.08Z" transform="translate(-441.073 -102.768)"/><path class="f" d="M702.591,129.322l-33.916-.951a5.086,5.086,0,0,1-4.945-5.086v-1.3a5.086,5.086,0,0,1,4.857-5.08l33.916-1.522a5.086,5.086,0,0,1,5.314,5.08v3.776a5.086,5.086,0,0,1-5.226,5.08Z" transform="translate(-381.549 -102.768)"/><path class="f" d="M792.826,129.322l33.915-.951a5.085,5.085,0,0,0,4.945-5.086v-1.3a5.085,5.085,0,0,0-4.857-5.08l-33.916-1.522a5.086,5.086,0,0,0-5.314,5.08v3.776a5.086,5.086,0,0,0,5.226,5.08Z" transform="translate(-441.073 -102.768)"/><rect class="e" width="13.09" height="14.571" rx="6.545" transform="translate(271.813 11.885)"/><rect class="e" width="13.09" height="14.571" rx="6.545" transform="translate(388.14 11.885)"/><rect class="e" width="7.901" height="3.953" rx="1.977" transform="translate(274.529 8.675)"/><rect class="e" width="5.927" height="8.893" rx="2.964" transform="translate(275.272 2.005)"/><ellipse class="e" cx="16.55" cy="2.223" rx="16.55" ry="2.223" transform="translate(246.369 4.228)"/><ellipse class="e" cx="16.55" cy="2.223" rx="16.55" ry="2.223" transform="translate(276.997 4.228)"/><rect class="e" width="7.901" height="3.953" rx="1.977" transform="translate(391.101 8.675)"/><rect class="e" width="5.927" height="8.893" rx="2.964" transform="translate(391.844 2.005)"/><ellipse class="e" cx="16.55" cy="2.223" rx="16.55" ry="2.223" transform="translate(362.947 4.228)"/><ellipse class="e" cx="16.55" cy="2.223" rx="16.55" ry="2.223" transform="translate(393.569 4.228)"/><ellipse class="f" cx="16.55" cy="2.223" rx="16.55" ry="2.223" transform="translate(246.369 4.228)"/><ellipse class="f" cx="16.55" cy="2.223" rx="16.55" ry="2.223" transform="translate(276.997 4.228)"/><ellipse class="f" cx="16.55" cy="2.223" rx="16.55" ry="2.223" transform="translate(362.947 4.228)"/><ellipse class="f" cx="16.55" cy="2.223" rx="16.55" ry="2.223" transform="translate(393.569 4.228)"/><rect class="e" width="19.76" height="7.901" rx="3.95" transform="translate(326.642 27.443)"/><rect class="f" width="19.76" height="7.901" rx="3.95" transform="translate(326.642 27.443)"/><path class="h" d="M641.653,131.85h-44v44h55.245v-44Z" transform="translate(-287.195 -63.354)"/><rect class="g" width="11.246" height="44.003" transform="translate(354.459 68.496)"/><rect class="g" width="8.311" height="4.4" transform="translate(315.832 75.83)"/><path class="h" d="M759.2,209.583a10.124,10.124,0,0,1,1.558,6.062,10.32,10.32,0,0,1-5.195-3.527c-1.88-2.649-2.6-5.361-1.558-6.062S757.333,206.928,759.2,209.583Z" transform="translate(-424.702 -146.261)"/><path class="h" d="M769.08,209.583a10.124,10.124,0,0,0-1.558,6.062,10.32,10.32,0,0,0,5.195-3.527c1.88-2.649,2.6-5.361,1.558-6.062S770.95,206.928,769.08,209.583Z" transform="translate(-431.416 -146.261)"/><path class="i" d="M324.427,444.59l-.057.177A1.034,1.034,0,0,0,324.427,444.59Z" transform="translate(-218.473 -260.966)"/><path class="j" d="M445.952,513.01a1.253,1.253,0,0,0,.1-.151l.057-.109c.026-.052.057-.1.078-.151l.042-.109c0-.052.042-.1.057-.156s0-.068.026-.1a.461.461,0,0,0,.036-.161.306.306,0,0,0,0-.1v-.748a.309.309,0,0,0-.042-.187v-.057a.725.725,0,0,0-.062-.2v-.042a2.073,2.073,0,0,0-.083-.2v-.031q-.047-.109-.1-.213h0l-.125-.223h0a7.688,7.688,0,0,0-1.782-1.932c-5.356,2.208-11.948-.317-11.948-.317s-8.831-4.41-8.192-3.153a3.875,3.875,0,0,1-.135,2.218,11.608,11.608,0,0,1-7.828-5.195l4.815-5.195s-19.537-11.028-21.739-16.7S386.2,458.056,386.2,458.056s-3.465-12.6-9.766-15.438c0,0-12.566-15.012-19.906-27.885,2.6-6.488,6.233-16.623,5.413-20.95-1.039-5.392.036-15.584.467-19.189,3.486,2.909,17.662,14.425,23.163,14.15a12.354,12.354,0,0,0,6.109-2.571,43.011,43.011,0,0,0,9.018-8.457c-.644.062-1.169-.519-1.595-1.506,5.262-5.714,16.16-17.475,17.35-17.714,1.558-.317,10.083-15.121,5.356-18.275s-13.231,8.192-13.548,10.389c-.213,1.5-6.8,8.062-11.023,12.135v-.161l-.623.312v-.312l-10.883,5.439-9.283-12.685s-2.519-13.547-8.831-15.755-10.971-9.007-10.971-9.007a6.48,6.48,0,0,0-.14.67c-.317-.421-.488-.67-.488-.67a.414.414,0,0,1-.042.151,16.576,16.576,0,0,1-.358-5.932l.088-.052c.036-.244.078-.478.119-.7a15.766,15.766,0,0,0,6.384-19.526c1.605-1.122,3.932-1.818,5.911-2.67a17.34,17.34,0,0,0,7.111-5.376,6.27,6.27,0,0,0-3.293.068c-.135-1.46,1.558-3.117.239-4.228-.81-.691-2.322-.629-3.475-.286a19.544,19.544,0,0,1-3.434,1.039,8.238,8.238,0,0,1-5.678-1.891c-1.522-1.117-2.956-2.426-4.992-2.956-4.047-1.039-8.057,1.356-12.119,2.374-6.524,1.631-10.389,3.377-10.706,7.532a13.505,13.505,0,0,0-2.306,1.958,8.6,8.6,0,0,0-2.764,4.675c-.551,2.826.592,5.714,1.974,8.228.784,1.439,4.556,8.893,7.117,7.911a15.843,15.843,0,0,0,2.358,2.208c-.083.857-.2,1.725-.338,2.6a5.861,5.861,0,0,1-1.854.639,22.3,22.3,0,0,1-4.275.374,62.572,62.572,0,0,1-6.706-.41,56.628,56.628,0,0,0-6.519-.374,31.832,31.832,0,0,0-3.252.156h-.166l-.644.078h-.1l-.7.114h-.078l-.571.114-.13.026-.582.14h0l-.571.161-.094.026-.447.14-.1.031c-.338.114-.655.239-.956.364l-.093.042-.374.161-.068.031-.421.2h-.036l-.364.182-.088.047-.353.182h0l-.447.234-.27.14-.125.068-.369.187c-3.153,1.558-33.713,9.766-39.069,26.15l.109.1h0l.119.109c-.088.239-.177.478-.255.717,0,0,.519.467,1.33,1.226-1.439,6.265-5.293,22.274-7.319,23.033-2.519.945-5.356,20.165,1.262,19.537s6.618-16.067,6.618-16.067,4.363-11.7,7.579-17.636a8.279,8.279,0,0,1,1.262,2.447v.005a1.772,1.772,0,0,1,.036.831c.312-.914,1.927-5.112,5.3-4.551,3.6.6,17.2-12.794,18.488-14.077-.031.348-.073.784-.114,1.288h0c0,.3-.052.613-.078.956v1.5l-.026.39v2.2l-.036.571v.078l-.031.519v1.46l-.026.519v.1q0,.338-.031.681v.042q0,.312-.026.623V363.1q0,.712-.047,1.439v5.527c0,6.872.421,13.87,1.964,17.859a19.626,19.626,0,0,1,1.288,6.711,27.391,27.391,0,0,1-3.179,11.88h0l.369-.114-.068.119.2-.062c-.312.649-.519,1.008-.519,1.008s.457-.145,1.273-.384a33.425,33.425,0,0,0,.3,18.347s1.262,6.93.317,9.454-1.891,22.685-1.891,22.685a4.291,4.291,0,0,1-5.356.945c-3.465-1.574-46-6.93-46-6.93s-.1.171-.265.478c-1.309-.41-3.195-1.039-4.571-1.616.519-.717.982-1.127,1.371-1.07,0,0-2.27-1.1-4.743-1.964h0l-.452-.156h0l-.442-.145h-.031l-.421-.13h-.047l-.384-.109h-.078l-.364-.094H240.3l-.348-.078h-.1l-.312-.062h-.119l-.281-.047H239l-.255-.031h-1.179l-.171.036h-.114l-.145.052-.1.036a1.22,1.22,0,0,0-.135.078l-.078.047a.977.977,0,0,0-.171.161c-1.558,1.891-10.389,38.123-6.3,40.643l.353.213.145.083.187.1.182.094.13.068.2.094.1.047.2.088.073.031.208.078h.047l.213.068h.026c2.286.618,3.044-1.5,5.813-6.026,2.712-4.436,6.2-10.031,9.241-12.1.068.151.135.3.208.447,0,0,31.822,3.465,43.479,7.272s20.778,8.831,28.357,0c6.784-7.911,13.563-33.568,14.888-38.767h0l.2-.779h0v-.135l25.2,19.22,11.028,12.919s15.438,21.739,18.275,22.056,15.61,21.121,15.61,21.121l.478-.519c.114.577.2,1.106.27,1.558-1.039,2.5-.078,5.511.867,7.5h0l.042.083.109.218.057.114.1.2.052.1.109.208.057.1.083.151.042.078.109.187.047.078.068.109.036.062.083.135.031.052.052.078v.036l.052.083h0l.031.042h0s33.084-7.875,37.178-10.389c.13-.078.249-.161.364-.244l.1-.083.208-.166.1-.1.161-.151.093-.109.125-.145Z" transform="translate(-172.778 -185.698)"/><path class="k" d="M263.439,599.868s-7.366-2.151-7.672-3.07-6.447,16.877-6.447,16.877l6.14,4.3s6.447-3.683,9.823-3.07S263.439,599.868,263.439,599.868Z" transform="translate(-182.408 -334.092)"/><path class="k" d="M571.5,687.22s.919,8.311,11.049,9.2-6.753,8.311-6.753,8.311l-12.888.919a25.717,25.717,0,0,0-2.457-9.2C558.3,692.441,571.5,687.22,571.5,687.22Z" transform="translate(-331.805 -377.56)"/><path class="l" d="M323.713,501.233s-5.828,8.9-1.839,23.017c0,0,1.226,6.753.306,9.2s-1.839,22.1-1.839,22.1a4.149,4.149,0,0,1-5.195.919c-3.356-1.538-44.8-6.753-44.8-6.753s-6.753,11.662-3.07,18.7c0,0,31,3.376,42.352,7.059s20.259,8.592,27.62,0,14.732-38.669,14.732-38.669l24.55,18.7,10.742,12.581s15.038,21.173,17.8,21.48,15.651,20.56,15.651,20.56l15.651-16.877s-19.059-10.7-21.2-16.223-12.581-21.173-12.581-21.173-3.377-12.275-9.511-15.038c0,0-22.1-26.394-24.243-38.669S332,495.716,332,495.716Z" transform="translate(-190.507 -284.868)"/><path class="m" d="M581.06,706.116s2.151-4.909,1.558-6.14,7.943,3.086,7.943,3.086,6.447,2.457,11.662.306c0,0,4.6,3.377.613,5.828s-36.212,10.13-36.212,10.13-4.909-7.06-.919-11.049Z" transform="translate(-333.693 -383.583)"/><path class="n" d="M494.318,579.191c-2.151-5.522-12.581-21.173-12.581-21.173s-3.377-12.275-9.511-15.038c0,0-22.1-26.394-24.243-38.669-.442-2.53-2.27-4.291-4.888-5.491l-4.28,12.857-5.844,17.558c-1.127,3.387-2.2,7.163-2.078,10.665.151-.582.229-.9.229-.9l24.55,18.7,10.742,12.581s15.038,21.173,17.8,21.48,15.651,20.56,15.651,20.56l15.651-16.877S496.463,584.718,494.318,579.191Z" transform="translate(-269.656 -287.026)"/><path class="o" d="M454.67,350.98s-2.6,6.6.769,12.737-1.382,17.033-4.452,17.662-15.345-7.366-16.264-12.581,3.989-15.958,1.558-23.017Z" transform="translate(-271.446 -213.484)"/><path class="n" d="M412.944,377.65s9.511,19.334,19.947,5.522c0,0,10.436,21.173,7.059,24.55a70.762,70.762,0,0,1-7.672,6.472l-5.522,38.669s-31.3-10.742-44.5-8.9l20.259-48.486Z" transform="translate(-246.291 -228.799)"/><path class="p" d="M412.944,375.88s9.511,19.334,19.947,5.522c0,0,10.436,21.173,7.059,24.55a70.753,70.753,0,0,1-7.672,6.446l-5.522,38.669s-31.3-10.742-44.5-8.9l20.259-48.486Z" transform="translate(-246.291 -227.949)"/><path class="o" d="M301.132,419s-5.195,23.937-7.672,24.856-5.195,19.641,1.226,19.028,6.447-15.651,6.447-15.651,6.753-18.108,9.511-20.259S301.132,419,301.132,419Z" transform="translate(-202.299 -248.669)"/><path class="o" d="M542.95,416.494s13.812-12.888,14.119-15.038,8.592-13.194,13.194-10.129-3.683,17.49-5.195,17.8-19.641,20.259-19.641,20.259Z" transform="translate(-323.509 -235.115)"/><path class="n" d="M375.5,366.13s-1.688,1.995-13.044.769-14.119.919-17.184,2.457-32.835,9.511-38.056,25.454c0,0,11.662,10.436,10.436,13.194,0,0,1.558-5.195,5.195-4.6s18.108-13.812,18.108-13.812-2.764,27.012.919,36.518-1.839,19.028-1.839,19.028,26.087-8.311,37.749-4.3c0,0,6.753-30.383.919-42.658s2.457-23.937,2.457-23.937Z" transform="translate(-210.232 -223.263)"/><path class="n" d="M376.093,364.36s-1.688,1.995-13.044.769-14.119.919-17.184,2.457-32.835,9.511-38.056,25.454c0,0,11.662,10.436,10.436,13.194,0,0,1.558-5.195,5.195-4.6s18.108-13.812,18.108-13.812-2.764,27.012.919,36.518-1.834,19.043-1.834,19.043,26.087-8.311,37.749-4.3c0,0,6.753-30.383.919-42.658s2.467-23.942,2.467-23.942Z" transform="translate(-210.515 -222.413)"/><path class="q" d="M375.5,364.36s-1.688,1.995-13.044.769-14.119.919-17.184,2.457-32.835,9.511-38.056,25.454c0,0,11.662,10.436,10.436,13.194,0,0,1.558-5.195,5.195-4.6s18.108-13.812,18.108-13.812-2.764,27.012.919,36.518-1.839,19.028-1.839,19.028,26.087-8.311,37.749-4.3c0,0,6.753-30.383.919-42.658s2.473-23.926,2.473-23.926Z" transform="translate(-210.232 -222.413)"/><path class="n" d="M457.993,375s4.452,6.6,10.587,8.748,8.592,15.345,8.592,15.345l9.2,12.581,11.049-5.506s.307,15.038,3.376,14.732c0,0-7.672,9.823-13.812,10.129s-23.319-14.472-23.319-14.472-1.839,13.506-.613,19.947-7.672,26.087-7.672,26.087l-12.275-2.457s6.447-24.55,14.425-28.539c0,0,0-16.571-1.226-20.56s7.979-19.028,6.753-22.1c-.691-1.719-3.392-5.4-4.758-8.748A8.753,8.753,0,0,1,457.993,375Z" transform="translate(-275.532 -227.526)"/><path class="n" d="M459.758,373.81s4.452,6.6,10.587,8.748,8.592,15.345,8.592,15.345l9.2,12.581,11.049-5.522s.306,15.038,3.376,14.732c0,0-7.672,9.823-13.812,10.129S465.43,415.4,465.43,415.4s-1.839,13.506-.613,19.947-7.672,26.087-7.672,26.087l-12.275-2.457s6.447-24.55,14.425-28.539c0,0,0-16.571-1.226-20.56s7.979-19.028,6.753-22.1c-.691-1.719-3.392-5.4-4.758-8.748a8.753,8.753,0,0,1-.307-5.221Z" transform="translate(-276.378 -226.954)"/><path class="q" d="M458.583,373.81s4.452,6.6,10.587,8.748,8.592,15.345,8.592,15.345l9.21,12.581,11.049-5.522s.306,15.038,3.376,14.732c0,0-7.672,9.823-13.812,10.129S464.26,415.4,464.26,415.4s-1.839,13.506-.613,19.947-7.672,26.087-7.672,26.087L443.7,458.975s6.447-24.55,14.425-28.539c0,0,0-16.571-1.226-20.56s7.979-19.028,6.753-22.1c-.691-1.719-3.392-5.4-4.758-8.748A8.753,8.753,0,0,1,458.583,373.81Z" transform="translate(-275.816 -226.954)"/><path class="r" d="M459.583,374.81s4.452,6.6,10.587,8.748,8.592,15.345,8.592,15.345l9.21,12.581,11.049-5.522s.306,15.038,3.376,14.732c0,0-7.672,9.823-13.812,10.129S465.26,416.4,465.26,416.4s-1.839,13.506-.613,19.947-7.672,26.087-7.672,26.087L444.7,459.975s6.447-24.55,14.425-28.539c0,0,0-16.571-1.226-20.56s7.979-19.028,6.753-22.1c-.691-1.719-3.392-5.4-4.758-8.748a8.753,8.753,0,0,1-.312-5.221Z" transform="translate(-276.296 -227.434)"/><path class="m" d="M251.338,594.134s-8.9-4.3-10.436-2.457-10.129,37.131-6.14,39.588,4.3.613,7.672-4.909,7.979-12.888,11.355-12.581c0,0-9.823-3.377-9.511-4.6S249.192,593.827,251.338,594.134Z" transform="translate(-174.91 -331.428)"/><path class="n" d="M438.346,354.248a15.34,15.34,0,0,0,17.1.961,15.549,15.549,0,0,1,.758-3.065L437.79,346.95A17.3,17.3,0,0,1,438.346,354.248Z" transform="translate(-272.976 -214.047)"/><path class="s" d="M444.478,316.747c3.74.322,8.311-.379,9.688-2.925.4-.732.483-1.558.888-2.27,1.174-2.109,4.53-2.971,7.226-4.156a16.887,16.887,0,0,0,6.924-5.236,6.109,6.109,0,0,0-3.21.068c-.13-1.418,1.506-3.039.234-4.119a3.931,3.931,0,0,0-3.387-.275,22.11,22.11,0,0,1-3.345,1.039,8.017,8.017,0,0,1-5.532-1.844c-1.486-1.091-2.878-2.364-4.862-2.878-3.937-1.039-7.849,1.325-11.8,2.312-8.109,2.031-12.041,4.234-9.839,11.283C429.092,312.966,437.673,316.16,444.478,316.747Z" transform="translate(-267.721 -188.55)"/><circle class="o" cx="15.345" cy="15.345" r="15.345" transform="translate(159.287 112.021)"/><path class="n" d="M425.756,317.853c.743-3.013,2.888-5.823,5.875-6.659,2.54-.712,5.241.062,7.724.961s5.013,1.948,7.646,1.792,5.4-1.974,5.595-4.6a2.2,2.2,0,0,0-.192-1.19,2.925,2.925,0,0,0-1.1-1.039c-3.86-2.462-8.249-4.4-12.826-4.327-3.766.062-7.366,1.475-10.867,2.867-4.415,1.756-9.439,4.213-10.348,8.878-.519,2.753.577,5.553,1.922,8.015.779,1.423,4.55,8.893,7.044,7.662C427.242,329.733,425.278,319.785,425.756,317.853Z" transform="translate(-263.051 -192.824)"/><path class="s" d="M426.936,316.672c.743-3.013,2.888-5.823,5.875-6.659,2.54-.712,5.241.062,7.724.961s5.013,1.948,7.646,1.792,5.4-1.974,5.595-4.6a2.2,2.2,0,0,0-.192-1.19,2.924,2.924,0,0,0-1.1-1.039c-3.86-2.462-8.249-4.4-12.825-4.327-3.766.062-7.366,1.475-10.867,2.867-4.415,1.756-9.439,4.213-10.348,8.878-.519,2.753.577,5.553,1.922,8.015.779,1.423,4.55,8.893,7.044,7.662C428.422,328.553,426.464,318.6,426.936,316.672Z" transform="translate(-263.618 -192.257)"/><path class="t" d="M235.69,631.587c-3.989-2.457,4.6-37.749,6.14-39.588.67-.805,2.758-.436,4.893.239-2.421-.847-5.044-1.47-5.813-.519-1.558,1.839-10.129,37.131-6.14,39.588a7.237,7.237,0,0,0,2.223,1.013A11.237,11.237,0,0,1,235.69,631.587Z" transform="translate(-174.913 -331.438)"/><path class="t" d="M605.178,710.34c.416,1.039.291,2.28-1.429,3.335-3.989,2.457-36.212,10.13-36.212,10.13a15.393,15.393,0,0,1-.878-1.491,16.4,16.4,0,0,0,1.184,2.1s32.207-7.672,36.212-10.129C606.118,713.02,605.884,711.5,605.178,710.34Z" transform="translate(-334.903 -388.67)"/><g class="u" transform="translate(97.02 141.932)"><path d="M319.326,403.635c-2.551-4.1-9.594-10.431-9.594-10.431,5.195-15.958,34.986-23.937,38.056-25.454a20.137,20.137,0,0,1,6.3-2.431,18.991,18.991,0,0,0-8.748,2.738c-3.07,1.558-32.835,9.511-38.056,25.454,0,0,11.21,10.031,10.488,13.023a9.605,9.605,0,0,1,1.558-2.9Z" transform="translate(-307.28 -364.806)"/><path d="M327.367,444.67l-.057.171a.991.991,0,0,0,.057-.171Z" transform="translate(-316.905 -402.937)"/><path d="M437.135,364.849l-.353-.519a3.927,3.927,0,0,1-2.041.8A17.9,17.9,0,0,0,437.135,364.849Z" transform="translate(-368.53 -364.33)"/><path d="M338,435.834a4.092,4.092,0,0,0,1.34-.364A3.335,3.335,0,0,0,338,435.834Z" transform="translate(-322.042 -398.516)"/><path d="M414.86,506.232c5.491-.6,10.852-.613,14.67.691,0,0,.073-.322.192-.9C425.535,505.208,420.158,505.494,414.86,506.232Z" transform="translate(-358.977 -432.183)"/><path d="M373.082,464.007c1.039-2.078,4.763-10.3,1.558-18.529-3.683-9.511-.919-36.518-.919-36.518s-1.039,1.039-2.66,2.6c-.566,6.7-1.906,26.409,1.127,34.248,3.683,9.511-1.839,19.028-1.839,19.028S371.373,464.49,373.082,464.007Z" transform="translate(-337.551 -385.776)"/></g><path class="c" d="M556.607,693.023c-3.7,1.906-7.574,3.553-11.4,5.195-14.124,5.963-28.461,11.979-43.635,14.025-28.477,3.839-57.889-6.556-85.882-.088-23.454,5.413-42.85,22-65.764,29.386a106.846,106.846,0,0,1-32.923,4.779h-1.47q-2.078-.026-4.125-.1a223.987,223.987,0,0,1-33.843-4.249c-35.1-6.753-70.823-19.132-97.658-41.92C258.052,685.746,419.007,663.835,556.607,693.023Z" transform="translate(-149.054 -373.431)"/><path class="e" d="M735.669,534.72a24.093,24.093,0,0,1,4.395,25.059c-5.693,14.971,9.766,39.869,9.766,39.869l-.473-.078a29.369,29.369,0,0,1-19.5-44.959C734.141,548.06,737.658,540.382,735.669,534.72Z" transform="translate(-411.022 -304.278)"/><path class="v" d="M743.311,534.72s5.714,12.368,0,22.456-.977,38.4,14.155,42.471" transform="translate(-418.665 -304.278)"/><path class="e" d="M710.89,613.153s11.511-1.834,12.561,8.483,22.139,11.745,22.139,11.745l-.395.265c-17.412,11.428-34.056,7.272-31.547-7.9C714.583,620.109,714.5,614.442,710.89,613.153Z" transform="translate(-404.211 -341.907)"/><path class="f" d="M710.89,613.153s11.511-1.834,12.561,8.483,22.139,11.745,22.139,11.745l-.395.265c-17.412,11.428-34.056,7.272-31.547-7.9C714.583,620.109,714.5,614.442,710.89,613.153Z" transform="translate(-404.211 -341.907)"/><path class="v" d="M710.89,613.27s8.935,1.964,8.2,10.088,13.272,17.864,26.492,10.145" transform="translate(-404.211 -342.024)"/><path class="w" d="M769.307,649.425s-7.241-1.449-9.169-3.376-10.618-5.309-11.584-2.893-13.033,10.618-4.826,12.067,19.308,1.932,21.719.966S769.307,649.425,769.307,649.425Z" transform="translate(-418.625 -355.982)"/><path class="x" d="M743.737,660.845c8.207,1.449,19.308,1.932,21.719.966,1.839-.738,3.117-4.265,3.636-5.911l.239.052s-1.449,5.792-3.86,6.753-13.506.483-21.719-.966c-2.369-.416-3.044-1.4-2.789-2.644C741.15,659.91,742,660.534,743.737,660.845Z" transform="translate(-418.639 -362.509)"/><path class="y" d="M1043.678,611.177s6.862-23.308-1.288-40.461a36.816,36.816,0,0,1-2.977-23.1,61.917,61.917,0,0,1,3.268-10.841" transform="translate(-561.749 -305.267)"/><path class="e" d="M1036.58,511.53c0,2.857,5.195,11.137,5.195,11.137s5.195-8.285,5.195-11.137a5.195,5.195,0,0,0-10.343,0Z" transform="translate(-560.718 -290.874)"/><path class="e" d="M1019.561,539.3c1.558,2.4,10.389,6.54,10.389,6.54s-.161-9.766-1.714-12.161a5.195,5.195,0,0,0-8.685,5.62Z" transform="translate(-552.25 -302.826)"/><path class="e" d="M1017.815,589.129c2.551,1.288,12.275.4,12.275.4s-5.07-8.348-7.62-9.636a5.195,5.195,0,1,0-4.675,9.236Z" transform="translate(-550.129 -325.612)"/><path class="e" d="M1028.667,629.274c2.3,1.7,12.031,2.467,12.031,2.467s-3.584-9.085-5.88-10.784a5.195,5.195,0,0,0-6.15,8.311Z" transform="translate(-556.093 -345.364)"/><path class="e" d="M1050.274,552.073c-2.047,1.99-11.594,4.052-11.594,4.052s2.338-9.48,4.384-11.47a5.195,5.195,0,0,1,7.21,7.418Z" transform="translate(-561.728 -308.499)"/><path class="e" d="M1060.1,596.789c-2.551,1.288-12.275.4-12.275.4s5.07-8.348,7.62-9.636a5.195,5.195,0,1,1,4.675,9.236Z" transform="translate(-566.124 -329.293)"/><path class="e" d="M1064.321,643.824c-2.3,1.7-12.031,2.467-12.031,2.467s3.584-9.085,5.88-10.784a5.195,5.195,0,0,1,6.15,8.311Z" transform="translate(-568.268 -352.356)"/><path class="w" d="M1031.438,664.21s-12.545-2.509-15.89-5.854-18.4-9.2-20.072-5.018-22.581,18.4-8.363,20.908,33.453,3.345,37.63,1.673S1031.438,664.21,1031.438,664.21Z" transform="translate(-534.58 -360.581)"/><path class="x" d="M987.125,684.011c14.218,2.509,33.453,3.345,37.63,1.673,3.184-1.273,5.4-7.392,6.27-10.244l.421.088s-2.509,10.036-6.691,11.709-23.417.836-37.63-1.673c-4.1-.722-5.278-2.426-4.836-4.576C982.642,682.39,984.071,683.471,987.125,684.011Z" transform="translate(-534.587 -371.899)"/></g></svg>