<svg xmlns="http://www.w3.org/2000/svg" viewBox="0 0 705.61 151.4"><defs><style>.cls-1{fill:#3e6ba6;}.cls-2{fill:#173152;}.cls-3{fill:#f4f4f4;}.cls-4,.cls-5{fill:#fff;}.cls-4{opacity:0.06;}</style></defs><title>unisonAsset 1</title><g id="Layer_2" data-name="Layer 2"><g id="Layer_1-2" data-name="Layer 1"><circle class="cls-1" cx="75.67" cy="75.73" r="75.67"/><circle class="cls-2" cx="75.67" cy="75.73" r="67.77"/><path class="cls-3" d="M106.68,87.15q-.53,2.31-1.21,5a40.57,40.57,0,0,1-4.62,10.92,24.56,24.56,0,0,1-4,5,25.62,25.62,0,0,1-6.62,4.67,34.8,34.8,0,0,1-7.09,2.57,44.72,44.72,0,0,1-6.88,1.1q-3.36.26-6.09.26t-5.88-.21a43.18,43.18,0,0,1-6.46-.95,40,40,0,0,1-6.41-2,21.15,21.15,0,0,1-5.62-3.36,21.73,21.73,0,0,1-5.3-6.88,23,23,0,0,1-2.26-10.66,38,38,0,0,1,.42-5.2q.42-3,1.47-7.82l8.3-38.44h23L62.47,82.21q-.42,1.89-.74,3.57a17.16,17.16,0,0,0-.31,3.15,9.39,9.39,0,0,0,.89,4.41,9,9,0,0,0,1.84,2.52,7.37,7.37,0,0,0,3.47,1.89,16,16,0,0,0,3.47.42,11.22,11.22,0,0,0,8.72-3.57,14.49,14.49,0,0,0,2.73-4.41A37.41,37.41,0,0,0,84,85.68l9.45-44.53h23Z"/><path class="cls-4" d="M90.33,1.42,61.24,150.15A75.77,75.77,0,0,1,90.33,1.42Z"/><path class="cls-5" d="M71.08,98.18a16,16,0,0,1-3.47-.42,7.37,7.37,0,0,1-3.47-1.89,9,9,0,0,1-1.84-2.52,9.39,9.39,0,0,1-.89-4.41,17.16,17.16,0,0,1,.32-3.15q.31-1.68.74-3.57l8.93-41.06h-23L40.1,79.59Q39,84.42,38.63,87.41a38,38,0,0,0-.42,5.2,23,23,0,0,0,2.26,10.66,21.73,21.73,0,0,0,5.3,6.88,21.16,21.16,0,0,0,5.62,3.36,40,40,0,0,0,6.41,2,43.19,43.19,0,0,0,6.46.95c1.23.08,2.41.14,3.55.17l3.61-18.46Z"/><path class="cls-5" d="M609.55,67.65q.74-3.24,1.69-7a56.93,56.93,0,0,1,6.48-15.32,34.45,34.45,0,0,1,5.67-7,36,36,0,0,1,9.28-6.56,48.83,48.83,0,0,1,9.94-3.61,62.75,62.75,0,0,1,9.65-1.55q4.72-.37,8.55-.37t8.25.29a60.64,60.64,0,0,1,9.06,1.33,56.13,56.13,0,0,1,9,2.8A29.68,29.68,0,0,1,695,35.38,30.48,30.48,0,0,1,702.44,45q3.17,6.11,3.17,15a53.28,53.28,0,0,1-.59,7.29q-.59,4.2-2.06,11l-11.64,53.92H659.06l12.52-57.61q.59-2.65,1-5a24,24,0,0,0,.44-4.42A13.17,13.17,0,0,0,671.8,59a12.61,12.61,0,0,0-2.58-3.54,10.34,10.34,0,0,0-4.86-2.65,22.51,22.51,0,0,0-4.86-.59q-7.66,0-12.23,5a20.32,20.32,0,0,0-3.83,6.19,52.52,52.52,0,0,0-2.06,6.34l-13.26,62.47H595.85Z"/><path class="cls-5" d="M551,106.14h0a20.24,20.24,0,0,1-8.1,1.47q-5.89,0-9.13-2.06a18.32,18.32,0,0,1-4.71-4,17.76,17.76,0,0,1-2.95-6.41,28.29,28.29,0,0,1-.88-6.7,45,45,0,0,1,.66-7.37,54.74,54.74,0,0,1,2-8,40.48,40.48,0,0,1,3.46-7.73l.3-.48,6.63,6.63-2.57-34-34-2.57,7.15,7.15a53.39,53.39,0,0,0-5.45,6.31,63.19,63.19,0,0,0-7,12.15A72,72,0,0,0,492,74.25a67.74,67.74,0,0,0-1.55,14.36,58,58,0,0,0,1.18,12.23,47.32,47.32,0,0,0,3.09,9.65,37.92,37.92,0,0,0,4.27,7.29,41.11,41.11,0,0,0,4.57,5.16,35,35,0,0,0,9.72,6.48A57.78,57.78,0,0,0,523.7,133a60.09,60.09,0,0,0,9.58,1.47q4.49.29,7.59.29,14.44,0,24.9-3.76a58.16,58.16,0,0,0,8.24-3.68l-21.48-1.63Z"/><path class="cls-5" d="M599.13,52.66a42.9,42.9,0,0,0-8.77-13.55,41.32,41.32,0,0,0-15.18-9.65Q566.05,26,553.09,26a76,76,0,0,0-13.48,1.1A71.8,71.8,0,0,0,528.49,30a58.14,58.14,0,0,0-7.56,3.25l19.15,1.45,1.57,20.67c.49-.25,1-.48,1.5-.69a21.66,21.66,0,0,1,8.32-1.55q5.3,0,8.32,1.84a17.39,17.39,0,0,1,4.35,3.46,16.71,16.71,0,0,1,3.09,6.19,27.28,27.28,0,0,1,1,7.37,50.39,50.39,0,0,1-.74,8.25,49.38,49.38,0,0,1-2.28,8.69,45.62,45.62,0,0,1-3.45,7.42l-7.48-7.48,2.57,34,34,2.57-6.09-6.09a48.15,48.15,0,0,0,7.13-9A69.7,69.7,0,0,0,598,98a74.45,74.45,0,0,0,3.61-13.11,72.51,72.51,0,0,0,1.18-12.67A49.32,49.32,0,0,0,599.13,52.66Z"/><path class="cls-5" d="M257.38,93.33q-.74,3.24-1.69,7a56.91,56.91,0,0,1-6.48,15.32,34.45,34.45,0,0,1-5.67,7,35.93,35.93,0,0,1-9.28,6.56,48.82,48.82,0,0,1-9.94,3.61,62.73,62.73,0,0,1-9.65,1.55q-4.72.37-8.55.37t-8.25-.29a60.57,60.57,0,0,1-9.06-1.33,56.13,56.13,0,0,1-9-2.8,29.67,29.67,0,0,1-7.88-4.71,30.48,30.48,0,0,1-7.44-9.65q-3.17-6.11-3.17-15a53.32,53.32,0,0,1,.59-7.29q.59-4.2,2.06-11L175.61,28.8h32.26L195.35,86.4q-.59,2.65-1,5a24.07,24.07,0,0,0-.44,4.42,13.17,13.17,0,0,0,1.25,6.19,12.6,12.6,0,0,0,2.58,3.54,10.34,10.34,0,0,0,4.86,2.65,22.51,22.51,0,0,0,4.86.59q7.66,0,12.23-5a20.32,20.32,0,0,0,3.83-6.19,52.48,52.48,0,0,0,2.06-6.34L238.81,28.8h32.27Z"/><path class="cls-5" d="M267.21,67.65q.74-3.24,1.69-7a56.91,56.91,0,0,1,6.48-15.32,34.46,34.46,0,0,1,5.67-7,35.94,35.94,0,0,1,9.28-6.56,48.82,48.82,0,0,1,9.94-3.61,62.74,62.74,0,0,1,9.65-1.55q4.72-.37,8.55-.37t8.25.29a60.63,60.63,0,0,1,9.06,1.33,56.13,56.13,0,0,1,9,2.8,29.68,29.68,0,0,1,7.88,4.71A30.48,30.48,0,0,1,360.1,45q3.17,6.11,3.17,15a53.31,53.31,0,0,1-.59,7.29q-.59,4.2-2.06,11L349,132.18H316.72l12.52-57.61q.59-2.65,1-5a24.07,24.07,0,0,0,.44-4.42A13.17,13.17,0,0,0,329.46,59a12.6,12.6,0,0,0-2.58-3.54A10.34,10.34,0,0,0,322,52.77a22.51,22.51,0,0,0-4.86-.59q-7.66,0-12.23,5a20.32,20.32,0,0,0-3.83,6.19A52.45,52.45,0,0,0,299,69.71l-13.26,62.47H253.51Z"/><path class="cls-5" d="M406.84,29l-22,103.13H352.77L374.73,29Z"/><path class="cls-5" d="M427.14,97.45q-.15.74-.37,2.21a14,14,0,0,0-.07,3.24,13.09,13.09,0,0,0,.81,3.54,8.33,8.33,0,0,0,2.28,3.24,10.62,10.62,0,0,0,4.64,2.36,23.86,23.86,0,0,0,6,.74,30.34,30.34,0,0,0,5.82-.59,13,13,0,0,0,4.94-1.92,9.73,9.73,0,0,0,3-3.39,10.29,10.29,0,0,0,1.25-5.16,7.77,7.77,0,0,0-5-7.66A23.39,23.39,0,0,0,446,92.59q-2.51-.59-6.19-1.33l-9.58-2.06a83.84,83.84,0,0,1-9.43-2.65,27.68,27.68,0,0,1-8.4-4.57,25.57,25.57,0,0,1-2.8-2.58,17.5,17.5,0,0,1-2.73-3.9,25.37,25.37,0,0,1-2.06-5.38,26.42,26.42,0,0,1-.81-6.85,34.14,34.14,0,0,1,3.83-16.13,35.75,35.75,0,0,1,10-12,42.54,42.54,0,0,1,13.78-6.85,68,68,0,0,1,20-2.58q3.54,0,7.37.29a59.35,59.35,0,0,1,7.66,1.11A58.42,58.42,0,0,1,474,29.17a30.72,30.72,0,0,1,6.48,3.17,27,27,0,0,1,7.73,8.18,23.62,23.62,0,0,1,3.32,12.89q0,1.18-.07,2.21t-.22,2.21H461.18a9.82,9.82,0,0,0-.44-5.16,7.12,7.12,0,0,0-2.65-3.39,10.85,10.85,0,0,0-4.49-1.47,37.67,37.67,0,0,0-3.9-.29,23,23,0,0,0-5.3.66,12.37,12.37,0,0,0-4.86,2.28,7.13,7.13,0,0,0-2.65,5.75,6.69,6.69,0,0,0,1,3.31,7.39,7.39,0,0,0,3.61,2.87A13.82,13.82,0,0,0,445,63.64l8,1.84,8.4,1.92q8.4,1.92,12.74,4.35a30,30,0,0,1,6.41,4.49A19.91,19.91,0,0,1,486,85.89a43.62,43.62,0,0,1,1.25,9.8A41.19,41.19,0,0,1,484.82,110a32.36,32.36,0,0,1-8,12.08,35.2,35.2,0,0,1-9.36,6.78,52.43,52.43,0,0,1-10.31,3.83,59.51,59.51,0,0,1-10.31,1.69q-5.08.37-9.5.37-3.54,0-7.59-.22a61.31,61.31,0,0,1-8.25-1,54.38,54.38,0,0,1-8.25-2.28,26.86,26.86,0,0,1-7.44-4.13,28.07,28.07,0,0,1-3.68-3.39,25.85,25.85,0,0,1-3.54-4.94,28.53,28.53,0,0,1-2.65-6.78,35.06,35.06,0,0,1-1-8.91V100.4a15.08,15.08,0,0,1,.29-2.95Z"/></g></g></svg>