<svg xmlns="http://www.w3.org/2000/svg" width="42.828" height="42.829" viewBox="0 0 42.828 42.829">
  <g id="Group_4281" data-name="Group 4281" transform="translate(-1019 -746)">
    <ellipse id="Ellipse_580" data-name="Ellipse 580" cx="21.414" cy="21.415" rx="21.414" ry="21.415" transform="translate(1019 746)" fill="#ffa400" opacity="0.328"/>
    <g id="Group_4276" data-name="Group 4276" transform="translate(1029.851 756.851)">
      <g id="Ellipse_579" data-name="Ellipse 579" transform="translate(0 0)" fill="#ffa400" stroke="#fff" stroke-width="1">
        <circle cx="10.489" cy="10.489" r="10.489" stroke="none"/>
        <circle cx="10.489" cy="10.489" r="9.989" fill="none"/>
      </g>
      <path id="car-alt-solid" d="M10.224,67.457,9.962,66.8,9.5,65.641A2.6,2.6,0,0,0,7.074,64H4.114A2.6,2.6,0,0,0,1.69,65.641L1.226,66.8l-.262.655A1.488,1.488,0,0,0,0,68.848v1.119a1.48,1.48,0,0,0,.373.977V72.2a.746.746,0,0,0,.746.746h.746a.746.746,0,0,0,.746-.746v-.746H8.577V72.2a.746.746,0,0,0,.746.746h.746a.746.746,0,0,0,.746-.746v-1.26a1.479,1.479,0,0,0,.373-.977V68.848A1.488,1.488,0,0,0,10.224,67.457ZM3.075,66.195a1.119,1.119,0,0,1,1.039-.7h2.96a1.119,1.119,0,0,1,1.039.7l.465,1.161H2.611Zm-1.21,3.767a.744.744,0,1,1,0-1.487,1.435,1.435,0,0,1,1.119,1.115C2.983,70.037,2.312,69.962,1.865,69.962Zm7.459,0c-.448,0-1.119.074-1.119-.372a1.435,1.435,0,0,1,1.119-1.115.744.744,0,1,1,0,1.487Z" transform="translate(4.899 -58.245)" fill="#fff"/>
    </g>
  </g>
</svg>
