<svg id="Group_4107" data-name="Group 4107" xmlns="http://www.w3.org/2000/svg" xmlns:xlink="http://www.w3.org/1999/xlink" width="27.831" height="46.202" viewBox="0 0 27.831 46.202">
  <defs>
    <filter id="Path_4086" x="7.916" y="28.374" width="19.915" height="17.828" filterUnits="userSpaceOnUse">
      <feOffset dy="3" input="SourceAlpha"/>
      <feGaussianBlur stdDeviation="2" result="blur"/>
      <feFlood flood-opacity="0.506"/>
      <feComposite operator="in" in2="blur"/>
      <feComposite in="SourceGraphic"/>
    </filter>
  </defs>
  <g transform="matrix(1, 0, 0, 1, 0, 0)" filter="url(#Path_4086)">
    <path id="Path_4086-2" data-name="Path 4086" d="M6.115,15.573l5.967-.674-1.616,4.393Z" transform="translate(9 17.06)" fill="#ffa400" stroke="#ffa400" stroke-width="1"/>
  </g>
  <path id="Path_2829" data-name="Path 2829" d="M9.645.464A13.192,13.192,0,0,0,.464,16.708c1.589,5.709,13.654,16.362,18.009,20.128a1.376,1.376,0,0,0,2.236-.647c1.824-5.473,6.709-20.834,5.12-26.543A13.1,13.1,0,0,0,9.645.464m4.826,17.48A4.826,4.826,0,1,1,17.826,12a4.849,4.849,0,0,1-3.355,5.944" transform="translate(0.017 0.017)" fill="#ffa400"/>
</svg>
